<svg width="105" height="106" viewBox="0 0 105 106" fill="none" xmlns="http://www.w3.org/2000/svg">
<g clip-path="url(#clip0_12_2819)">
<path d="M49.4131 56.5669C49.063 55.6287 48.8879 54.456 48.8004 53.0487C48.8004 53.0487 48.8004 52.9705 48.8004 52.8923C48.1002 52.345 46.9623 51.1723 45.2992 49.0613C43.8987 47.1067 41.6229 45.1522 39.3471 43.9012C38.4717 43.6667 37.5964 43.4321 36.8087 43.1976C36.8087 43.1976 36.7211 43.1976 36.6336 43.1976C36.6336 43.1976 36.5461 43.1976 36.4585 43.1976C36.371 43.1976 36.2835 43.2758 36.1959 43.2758C35.7583 43.2758 35.3206 43.3539 34.883 43.3539C34.883 43.3539 34.7954 43.3539 34.7079 43.3539C34.7079 43.3539 34.6204 43.4321 34.7079 43.5103C34.7079 43.9012 34.7079 44.2921 34.6204 44.6049C34.6204 44.6831 34.6204 44.8394 34.4453 44.9176C34.4453 44.9176 34.4453 44.9958 34.4453 45.074C34.4453 45.074 34.4453 45.1522 34.4453 45.2303C34.7079 45.8558 34.9705 46.6376 35.2331 47.4977C36.6336 49.6086 38.7343 51.5632 40.9226 52.8141C43.3735 54.2996 44.5989 55.3941 45.2992 55.9414C45.2992 55.9414 45.3867 55.9414 45.4742 55.9414C46.9623 55.9414 48.2752 56.176 49.4131 56.4887C49.5007 56.4887 49.5882 56.4887 49.6757 56.4887C49.6757 56.4887 49.6757 56.4105 49.6757 56.3323L49.4131 56.5669ZM45.2992 55.7851C44.5989 55.1596 43.2859 54.1432 40.9226 52.6577C38.8219 51.485 36.6336 49.4522 35.4082 47.4977C35.1456 46.7158 34.883 45.934 34.6204 45.3085C34.6204 45.2303 34.7079 45.074 34.7954 44.9176C34.7954 44.6049 34.883 44.2921 34.883 43.9012C35.3206 43.9012 35.6707 43.9012 36.1084 43.823C36.2835 43.823 36.371 43.7449 36.4585 43.6667C37.2463 43.9012 38.0341 44.1358 38.9094 44.2921C41.0977 45.4649 43.3735 47.3413 44.6864 49.2959C46.3495 51.4068 47.4874 52.5796 48.1877 53.205C48.1877 54.3778 48.4503 55.4723 48.7129 56.3323C47.6625 56.0978 46.5246 55.9414 45.2116 55.8632L45.2992 55.7851Z" fill="#CA943A"/>
<path d="M11.1665 105.901C11.1665 105.901 11.1665 105.823 11.1665 105.744C11.1665 105.744 11.1665 105.588 11.1665 105.354C11.7792 104.494 13.7925 102.304 21.4952 102.617C26.4845 102.773 33.1368 100.897 35.7628 97.0661C36.8131 99.0207 39.5266 99.9589 41.4523 100.663C41.8024 100.819 42.1525 100.897 42.5026 101.053C45.1286 101.992 46.354 102.695 47.0543 103.086C47.4044 103.243 47.5794 103.399 47.7545 103.399C47.7545 103.399 47.7545 103.399 47.842 103.399C47.9296 103.399 48.1046 103.399 48.1046 103.086C48.1922 103.164 48.3672 103.243 48.4548 103.164C48.4548 103.164 48.6298 103.086 48.6298 103.008C48.7174 102.852 48.8049 102.695 48.8924 102.304C49.0675 101.601 49.3301 100.35 50.468 98.0825C50.5555 97.848 50.7306 97.5352 50.9056 97.2225C51.6059 95.8934 52.3937 94.2515 52.3937 92.5315C52.3937 91.9842 52.3937 91.5151 52.1311 91.046C57.0328 91.9842 63.2475 89.1696 66.6612 85.8859C71.8255 80.8822 74.9767 81.1949 76.1146 81.3513C76.2896 81.5859 76.3772 81.664 76.4647 81.664C76.4647 81.664 76.4647 81.664 76.6398 81.664C76.8148 81.664 76.9024 81.664 76.9024 81.5859L76.9899 81.4295L77.1649 81.4295C77.1649 81.4295 77.2525 81.2731 77.2525 81.1949C77.2525 81.1949 77.2525 81.1168 77.2525 81.0386C77.2525 81.0386 77.1649 80.8822 76.9024 80.7258C76.9024 80.4913 76.9024 80.2567 76.9024 79.944C76.9024 77.6767 78.653 75.1748 82.0667 72.3602C84.9552 69.9366 88.0188 65.4801 88.0188 61.2582C88.0188 60.6328 88.0188 60.0073 87.7562 59.3818C90.1195 60.0855 92.7455 59.0691 94.6711 58.2873C95.0213 58.1309 95.2839 58.0527 95.634 57.8964C98.2599 56.88 99.6604 56.5672 100.448 56.4891C100.798 56.4891 101.061 56.4109 101.236 56.2545C101.236 56.2545 101.499 56.02 101.236 55.7854C101.324 55.7854 101.411 55.7854 101.499 55.7072C101.499 55.7072 101.586 55.5509 101.499 55.3945C101.499 55.2381 101.324 55.0818 101.148 54.769C100.711 54.2217 99.923 53.1272 98.9602 50.7817C98.8726 50.5471 98.6976 50.2344 98.61 49.9217C97.8223 48.1235 96.7719 45.778 94.5836 44.7616C98.7851 42.3379 100.973 36.4742 100.798 31.9395C100.448 25.1376 102.987 23.3394 103.862 22.7139C104.212 22.7139 104.3 22.7139 104.387 22.7139C104.387 22.7139 104.387 22.7139 104.562 22.7139C104.737 22.5576 104.737 22.4794 104.65 22.323L103.687 22.323C102.724 22.8703 100.011 24.7467 100.361 31.8614C100.361 32.0177 100.361 32.1741 100.361 32.3305C100.361 36.7869 98.1724 42.4161 93.9709 44.4488C93.9709 44.4488 93.8834 44.6052 93.8834 44.6834C93.8834 44.7616 93.8834 44.8398 94.0584 44.8398C96.3342 45.6998 97.3846 48.1235 98.1724 49.9217C98.3474 50.2344 98.435 50.5471 98.5225 50.7817C99.5729 53.1272 100.361 54.2999 100.798 54.8472C100.886 55.0036 100.973 55.0818 101.061 55.1599L100.798 55.1599C100.798 55.1599 100.623 55.1599 100.536 55.3163C100.536 55.3163 100.536 55.4727 100.536 55.5509C100.623 55.5509 100.711 55.7072 100.798 55.7072C100.711 55.7072 100.536 55.7072 100.361 55.7854C99.5729 55.9418 98.0849 56.1763 95.4589 57.1927C95.1963 57.2709 94.8462 57.4273 94.4961 57.5836C92.5704 58.3655 89.8569 59.46 87.5811 58.5218C87.5811 58.5218 87.4061 58.5218 87.3185 58.5218C87.3185 58.5218 87.231 58.6782 87.3185 58.7564C87.5811 59.46 87.6687 60.1637 87.6687 60.9455C87.6687 65.011 84.6926 69.3893 81.8916 71.7348C78.3028 74.6276 76.5522 77.2858 76.5522 79.6313C76.5522 80.0222 76.5522 80.4131 76.6398 80.5695C76.6398 80.5695 76.6398 80.6477 76.7273 80.7258C76.7273 80.7258 76.6398 80.6477 76.5522 80.6477C75.4143 80.4913 72.0881 79.944 66.5737 85.3386C63.16 88.6223 56.8577 91.4369 52.0435 90.2642C52.0435 90.2642 51.8685 90.2642 51.7809 90.2642C51.7809 90.2642 51.7809 90.4206 51.7809 90.4987C52.0435 91.046 52.1311 91.5933 52.1311 92.1406C52.1311 93.7042 51.3433 95.3461 50.643 96.6752C50.468 96.9879 50.2929 97.3007 50.2054 97.5352C49.0675 99.8807 48.7173 101.132 48.5423 101.835C48.5423 101.992 48.5423 102.148 48.4548 102.226C48.4548 102.226 48.2797 102.148 48.2797 102.07C48.2797 102.07 48.1046 101.992 48.0171 102.07C47.9296 102.07 47.842 102.148 47.842 102.304C47.842 102.383 47.842 102.461 47.842 102.539C47.842 102.539 47.5794 102.383 47.4919 102.304C46.7917 101.913 45.5662 101.21 42.8528 100.272C42.5026 100.193 42.1525 100.037 41.8024 99.8807C39.7892 99.1771 37.0757 98.2389 36.2004 96.2061C36.2004 96.2061 36.1129 96.0497 35.9378 96.0497C35.9378 96.0497 35.7628 96.0497 35.6752 96.1279C33.2244 100.037 26.572 101.992 21.5827 101.835C13.5299 101.835 11.5167 104.181 10.8164 105.041L10.8164 105.979C10.8164 105.979 10.8164 105.979 10.9039 105.979C10.9039 105.979 11.079 105.979 11.1665 105.901Z" fill="#CA943A"/>
<path d="M84.3387 22.7925C84.3387 22.7925 84.6013 22.9488 84.6888 23.027C84.6888 23.027 84.8639 23.027 84.9514 23.027C85.4766 22.7925 86.0018 22.6361 86.6145 22.6361C88.8903 22.6361 89.0654 23.7307 89.0654 24.1998C89.0654 24.6689 88.8028 25.138 88.6277 25.2943C88.6277 25.2943 88.3651 25.4507 88.2776 25.4507C88.2776 25.4507 88.1901 25.4507 88.1025 25.4507C87.6649 25.6852 87.4023 25.7634 87.3148 25.7634C87.3148 25.3725 87.4898 24.5907 87.0522 24.4343C86.9646 24.4343 86.7896 24.4343 86.527 24.5125C85.4766 24.5907 84.1637 25.6852 83.4634 27.0144C83.3759 27.5616 83.2008 28.1871 83.1133 28.6562C83.1133 28.7344 83.1133 28.8126 83.2008 28.8908C83.9011 29.2817 85.039 29.8289 86.3519 29.5162C87.84 29.1253 89.0654 27.718 90.3784 26.2325C90.9911 25.5289 91.6913 24.8252 92.3916 24.1998C93.2669 23.4179 94.1422 22.7925 95.0175 22.4015C95.0175 22.4015 95.0175 22.4015 95.0175 22.3234L94.2297 22.3234C93.4419 22.7143 92.7417 23.2616 91.9539 23.9652C91.2537 24.5907 90.5534 25.2943 89.9407 26.0762C88.6277 27.4835 87.4023 28.8126 86.0893 29.2035C85.039 29.438 84.1637 29.1253 83.4634 28.7344C83.5509 28.2653 83.726 27.718 83.8135 27.1707C84.4262 25.998 85.6517 24.9816 86.6145 24.9816C86.6145 24.9816 86.7021 24.9816 86.7896 24.9816C86.7896 24.9816 86.7896 25.138 86.7896 25.3725C86.7896 25.5289 86.7896 25.7634 86.7896 25.8416C86.7896 25.9198 86.7896 25.998 86.7896 26.0762C86.7896 26.1543 86.7896 26.2325 86.9646 26.3107C86.9646 26.3107 86.9646 26.3107 87.0522 26.3107C87.2272 26.3107 87.5774 26.3107 88.2776 25.998C88.5402 25.998 88.7153 25.998 88.8903 25.7634C89.328 25.4507 89.5906 24.9034 89.5906 24.3561C89.5906 23.9652 89.328 22.7925 87.4023 22.4797L85.9143 22.4797C85.9143 22.4797 85.214 22.6361 84.8639 22.7925C84.8639 22.7925 84.6888 22.7143 84.6013 22.6361C84.6013 22.6361 84.4262 22.6361 84.4262 22.5579L83.726 22.5579C83.726 22.5579 83.726 22.5579 83.726 22.6361C83.9886 22.7925 84.2512 22.9488 84.4262 23.027L84.3387 22.7925Z" fill="#CA943A"/>
<path d="M41.888 56.3326C41.888 56.3326 42.0631 56.3326 42.0631 56.1762C42.0631 56.1762 42.0631 56.0198 41.888 56.0198C41.0127 55.6289 40.2249 55.1598 39.3496 54.6125C36.7237 53.2052 34.6229 50.2343 33.9227 48.1233C33.9227 47.4979 33.9227 46.8724 33.8351 46.3251C33.8351 46.2469 33.8351 46.1688 33.6601 46.1688C33.6601 46.1688 33.485 46.1688 33.3975 46.1688C32.0845 47.3415 29.7212 47.4979 28.0581 46.6379C25.9573 45.3869 25.6947 43.276 25.6072 41.7905L25.6072 41.6341C25.6072 41.6341 25.5197 41.3996 25.3446 41.3996C25.1696 41.3996 25.082 41.3996 25.082 41.556C25.082 42.1814 25.082 42.6505 25.082 43.1196C25.082 43.5887 25.082 44.136 25.082 44.6833C25.082 48.5924 26.5701 51.7198 29.1085 53.2052C29.8087 53.6743 30.509 53.8307 31.0341 53.5962C31.7344 53.2834 31.997 52.5016 31.997 51.7979C31.997 51.5634 31.997 51.1725 31.7344 50.9379C31.7344 50.9379 31.5593 50.8597 31.4718 50.8597C30.9466 50.7034 30.4214 50.7034 30.0713 50.7034C30.4214 50.3906 31.0341 50.2343 31.7344 50.0779C32.7848 50.0779 33.5725 51.1725 33.5725 52.4234C33.5725 52.658 33.5725 52.8925 33.5725 53.0489C33.5725 53.0489 33.5725 53.0489 33.5725 53.1271C33.5725 53.518 33.3975 53.9871 32.9598 54.378C32.9598 54.378 32.9598 54.5344 32.9598 54.6907C33.7476 55.6289 34.7104 56.2544 35.9359 56.4108C37.4239 56.7235 39.2621 56.5671 41.1877 56.4108L41.9755 56.4108L41.888 56.3326ZM35.9359 55.9417C34.6229 55.7071 33.8351 55.0816 33.3099 54.5344C33.7476 54.0653 33.9227 53.5962 33.9227 53.1271C33.9227 52.8925 33.9227 52.658 33.9227 52.3452C33.9227 50.8597 32.8723 49.687 31.5593 49.6088C30.4214 49.7652 29.6336 50.0779 29.2835 50.6252C29.2835 50.6252 29.2835 50.6252 29.196 50.7034C29.196 50.7034 29.4586 50.9379 29.8087 50.9379C30.1588 50.9379 30.684 50.9379 31.2967 51.0943C31.2967 51.0943 31.3843 51.3288 31.3843 51.6416C31.3843 52.1889 31.1217 52.8143 30.684 53.0489C30.2464 53.2834 29.6336 53.0489 29.2835 52.7361C26.4825 51.0943 25.4322 47.4979 25.4322 44.6051C25.4322 44.3705 25.4322 44.136 25.4322 43.9014C25.6947 44.996 26.395 46.0906 27.7955 46.9506C29.4586 47.8888 31.9095 47.7324 33.3975 46.716C33.3975 47.107 33.3975 47.5761 33.485 48.1233C34.1853 50.3906 36.3735 53.3616 39.087 54.8471C39.6997 55.238 40.3124 55.6289 40.9252 55.9417C38.9995 56.098 37.2488 56.1762 35.7608 55.9417L35.9359 55.9417Z" fill="#CA943A"/>
<path d="M16.2401 65.5587C17.7281 64.3859 19.1286 63.3695 19.9164 62.1968C20.4416 61.4931 20.7917 60.7113 20.7917 59.8513C20.7917 59.6168 20.7917 59.3822 20.7917 59.0695C20.7917 58.9913 20.7042 58.9131 20.5291 58.9131C20.0915 58.9131 19.4787 58.7567 19.0411 58.3658C18.1658 57.8185 17.5531 56.9585 17.5531 56.0985C17.5531 55.7076 17.7281 55.3949 17.9032 55.1603C18.5159 54.7694 19.1286 54.5348 19.5663 54.4567C19.3037 54.6912 18.9535 55.0039 18.691 55.3949C18.691 55.3949 18.6034 55.5512 18.6034 55.7076C18.6034 56.2549 19.6538 57.1149 20.6166 57.1931C21.1418 57.1931 21.9296 57.0367 22.1922 55.7076C22.2797 55.3167 22.3673 54.8476 22.3673 54.4567C22.3673 51.173 19.4787 47.9675 17.1154 46.1692C16.7653 45.8565 16.3276 45.5438 15.89 45.1529C15.8024 45.0747 15.6274 45.1529 15.5398 45.1529C15.5398 45.1529 15.5398 45.3874 15.5398 45.4656L15.5398 45.5438C16.5902 46.482 17.8156 47.8111 17.8156 49.6093C17.8156 49.922 17.8156 50.2348 17.7281 50.5475C17.2905 52.2675 15.4523 53.5967 13.6142 53.5967C13.5266 53.5967 13.4391 53.5967 13.3516 53.753C13.3516 53.753 13.3516 53.9094 13.3516 53.9876C13.7017 54.3785 14.2269 54.8476 14.6645 55.2385C16.065 57.4276 16.6777 60.8677 16.065 63.2914C15.89 64.2296 15.7149 65.0114 15.3648 65.8714C15.3648 65.9496 15.3648 66.0278 15.4523 66.106C15.4523 66.106 15.6274 66.106 15.7149 66.106L16.2401 65.6369L16.2401 65.5587ZM16.4151 63.2914C16.5902 62.6659 16.6777 61.8841 16.6777 61.1022C16.6777 58.9913 16.065 56.6458 15.0147 54.9258C14.6645 54.5348 14.3144 54.2221 14.0518 53.9094C15.89 53.6748 17.7281 52.2675 18.1658 50.5475C18.1658 50.2348 18.2533 49.8439 18.2533 49.5311C18.2533 48.5147 17.9032 47.6547 17.378 46.8729C19.5663 48.6711 21.8421 51.4857 21.8421 54.3785C21.8421 54.7694 21.8421 55.1603 21.667 55.5512C21.4919 56.3331 21.1418 56.724 20.6166 56.724C19.8289 56.724 19.0411 55.9421 19.0411 55.7076C19.3912 55.3167 19.7413 54.9258 20.0039 54.6912C20.2665 54.4567 20.354 54.3785 20.354 54.3003C20.354 54.2221 20.354 54.1439 20.179 54.0657C20.179 54.0657 20.179 54.0657 20.0915 54.0657C19.3912 53.9094 18.6034 54.1439 17.6406 54.8476C17.2905 55.1603 17.1154 55.6294 17.1154 56.0985C17.1154 57.0367 17.8156 58.0531 18.7785 58.6786C19.1286 59.0695 19.6538 59.2258 20.354 59.304C20.5291 60.3204 20.2665 61.1804 19.6538 61.9622C18.866 63.0568 17.4655 64.0732 16.065 65.1678C16.2401 64.5423 16.4151 63.9168 16.5027 63.2914L16.4151 63.2914Z" fill="#CA943A"/>
<path d="M11.4291 103.399C12.4795 101.757 16.3309 100.037 21.4952 100.272C26.3094 100.35 32.7867 99.1771 35.2376 95.3462C36.5505 93.2352 36.9007 91.1243 37.0757 89.717C37.0757 90.0297 37.0757 90.4206 37.0757 90.8115C37.0757 92.1407 36.8131 93.4698 36.3755 94.7989C36.3755 94.7989 36.3755 94.7989 36.3755 94.9552C36.5505 95.4243 36.7256 95.8153 36.9882 96.128C37.5134 96.9098 38.6513 97.3007 39.5266 97.6135C39.5266 97.6135 39.7017 97.6135 39.7892 97.6135C39.8767 97.6135 39.7892 97.4571 39.7892 97.3789C39.6141 96.988 39.4391 96.5189 39.3515 96.128C39.3515 94.6425 39.0014 92.2188 37.8635 88.6224C38.9139 89.6388 41.3647 92.8443 41.4523 95.7371C41.7149 96.6753 41.8024 97.4571 41.8899 98.1608C41.8899 98.2389 41.8899 98.3171 42.065 98.3171C42.5026 98.4735 43.0278 98.6299 43.4655 98.7862C45.041 99.3335 46.2665 100.115 46.9667 100.897C46.9667 100.897 47.1418 100.975 47.2293 100.897C47.2293 100.897 47.4044 100.741 47.4044 100.663C47.2293 99.5681 47.4044 98.3953 48.1046 96.988C48.2797 96.5971 48.5423 96.128 48.7173 95.8153C48.7173 95.8153 48.7173 95.6589 48.7173 95.5807C48.1922 95.0334 47.667 94.408 47.0543 93.548C44.9535 91.5152 44.0782 87.7624 43.9907 86.3551C44.6909 87.5278 46.5291 90.4206 48.8049 92.6098C49.0675 93.0007 49.3301 93.3916 49.5051 93.7825C49.5051 93.7825 49.5927 93.9389 49.7677 93.9389C49.7677 93.9389 49.9428 93.9389 49.9428 93.7825C50.468 92.8443 50.643 92.1407 50.643 91.5934C50.643 91.437 50.643 91.2806 50.643 91.1243C50.643 90.7334 50.3804 90.3424 50.2054 89.9515C50.2054 89.9515 50.2054 89.9515 50.1178 89.9515C47.9296 88.9351 46.4415 87.606 45.5662 86.746C46.7917 87.606 48.7174 88.857 51.3433 89.5606C56.07 90.6552 61.5844 87.4497 64.9106 84.3223C68.4118 80.8823 72.3507 79.7095 74.4515 80.1786C74.8891 80.335 75.3268 80.4914 75.6769 80.6477C75.6769 80.6477 75.852 80.6477 75.9395 80.6477C75.9395 80.6477 75.9395 80.4914 75.9395 80.4132C75.7644 80.1004 75.5894 79.7095 75.4143 79.3968C75.4143 79.0841 75.2393 78.7713 75.2393 78.4586C75.2393 76.7386 76.4647 73.6894 80.0535 70.7966C83.0295 68.2948 86.1806 64.2293 86.1806 60.3983C86.1806 59.7728 86.0931 59.1474 85.918 58.6001C85.1303 56.2546 83.7298 54.5346 82.7669 53.44C83.8173 54.2218 85.2178 55.4727 86.3557 57.4273C86.3557 57.4273 86.3557 57.4273 86.4432 57.5055C86.8809 57.7401 87.3185 57.8964 87.7562 57.9746C88.8066 58.131 89.8569 57.7401 90.7323 57.4273C90.7323 57.4273 90.9073 57.3491 90.9073 57.1928C90.9073 57.0364 90.9073 57.0364 90.7323 56.9582C90.2946 56.8019 89.8569 56.5673 89.5068 56.3328C87.056 54.3 83.7298 52.6582 82.5043 52.0327C84.0799 52.0327 88.3689 52.8145 90.6447 54.7691C91.52 55.2382 92.2203 55.7855 92.833 56.2546C92.833 56.2546 93.0081 56.2546 93.0956 56.2546C93.5332 56.02 93.9709 55.8637 94.4086 55.7073C95.9841 55.16 97.3846 54.9255 98.5225 55.0818C98.6101 55.0818 98.6976 55.0818 98.7851 54.9255C98.7851 54.8473 98.7851 54.7691 98.7851 54.6909C97.8223 54.0655 97.0345 52.9709 96.3343 51.5636C96.1592 51.1727 95.9841 50.7036 95.8966 50.3127C95.8966 50.2345 95.8091 50.1563 95.634 50.1563C94.8462 50.1563 93.9709 49.9999 92.9205 49.7654C89.7694 49.7654 86.1806 47.5762 85.0427 46.5599C88.2814 47.4199 91.0824 47.889 93.3582 47.889C93.7958 47.9672 94.321 48.1235 94.7587 48.2799C94.8462 48.2799 94.9337 48.2799 95.0213 48.2799C95.0213 48.2799 95.0213 48.1235 95.0213 48.0453C94.6711 47.2635 94.2335 46.3253 93.3582 45.778C93.0081 45.5435 92.5704 45.3871 92.1328 45.2308C92.1328 45.2308 92.1328 45.2308 91.9577 45.2308C89.5944 45.9344 87.4936 45.9344 86.1806 45.778C87.7562 45.6217 90.1195 45.3089 92.4829 44.1362C96.5093 42.0252 97.9098 36.4742 97.9098 32.3305L97.9098 31.8614C97.6472 27.2486 99.5729 23.8086 101.411 22.8704C101.849 22.714 102.199 22.5576 102.636 22.4795C102.636 22.4795 102.636 22.4795 102.724 22.4013L101.586 22.4013C101.586 22.4013 101.324 22.4795 101.148 22.5576C99.3103 23.4177 97.3846 26.545 97.3846 31.1578C97.3846 31.3923 97.3846 31.7051 97.3846 31.9396C97.5597 36.0051 96.1592 41.7125 92.1328 43.8235C89.5068 45.1526 86.7934 45.3089 85.3929 45.4653C85.2178 45.4653 85.1303 45.4653 84.9552 45.4653C84.9552 45.3089 84.9552 45.1526 84.7801 44.918C83.7298 42.338 81.0163 41.6343 78.7405 41.3216C77.5151 41.3216 76.2021 41.3216 75.1517 41.478C74.3639 41.478 73.5762 41.6343 72.8759 41.6343C72.1757 41.7125 71.563 41.7125 70.8627 41.6343C72.4383 40.6961 73.4011 38.8979 73.4011 36.7088C73.4011 35.6142 73.1385 34.5978 72.7884 33.9724C72.5258 33.2687 72.1757 32.5651 71.6505 32.0178C72.1757 32.2523 72.7884 32.4869 73.4011 32.6433C76.027 33.5815 81.0163 33.816 82.8545 30.2978C82.942 30.0632 83.0295 29.9069 83.0295 29.6723C83.8173 30.2978 84.8677 30.6105 86.1806 30.6887C88.9816 30.376 90.9948 28.4214 92.6579 26.9359C93.0956 26.545 93.5332 26.0759 93.9709 25.7631C95.1963 24.5904 96.3342 23.7304 97.4721 23.1049C98.435 23.1049 99.3978 22.7922 99.3978 22.4795C99.3978 22.4795 99.3978 22.3231 99.3103 22.3231L98.61 22.3231L98.61 22.4013C98.61 22.4013 98.6101 22.4013 98.6976 22.4013C98.435 22.4795 97.9973 22.6358 97.3846 22.6358C97.3846 22.6358 97.3846 22.6358 97.2971 22.6358C96.1592 23.2613 94.9337 24.1995 93.7083 25.3722C93.2707 25.685 92.833 26.1541 92.3953 26.545C90.7323 28.1086 88.8066 29.9069 86.2682 30.2196C84.9552 30.2196 83.9048 29.7505 83.1171 29.0468C83.1171 29.0468 82.942 28.9687 82.8545 29.0468C82.8545 29.0468 82.6794 29.125 82.6794 29.2814C82.6794 29.6723 82.6794 29.9069 82.5043 30.2196C80.5787 33.816 75.3268 32.956 73.6637 32.3305C72.6133 32.0178 71.563 31.5487 70.6001 31.0796C70.5126 31.0796 70.3375 31.0796 70.25 31.0796C70.25 31.1578 70.25 31.3142 70.25 31.3923C71.2128 32.096 71.9131 33.0342 72.3507 34.2069C72.7009 34.8324 72.9635 35.7706 72.9635 36.787C72.9635 37.647 72.7009 40.618 70.0749 41.6343C69.9874 41.6343 69.8999 41.7907 69.8999 41.8689C69.8999 41.9471 69.8999 42.0252 70.0749 42.0252C71.0378 42.1816 72.0006 42.1816 72.8759 42.0252C73.5762 42.0252 74.3639 42.0252 75.1517 41.8689C76.2896 41.7907 77.4275 41.6343 78.653 41.7125C80.7537 42.0252 83.2921 42.6507 84.255 44.9962C84.255 45.2308 84.3425 45.3871 84.43 45.6217C84.43 45.6217 84.43 45.6217 84.43 45.6999C84.43 45.6999 84.43 45.8562 84.43 45.9344L84.43 46.0126C84.43 46.0126 84.43 46.2471 84.6051 46.2471C84.6051 46.2471 84.43 46.3253 84.3425 46.4035C84.0799 47.4199 83.1171 48.1235 82.3293 48.4363C82.3293 48.4363 82.2417 48.4363 82.1542 48.5926C82.1542 48.5926 82.1542 48.6708 82.1542 48.749C82.5919 49.609 82.5043 50.7036 81.9791 51.4854C81.9791 51.4854 81.9791 51.6418 81.9791 51.72C81.9791 51.72 81.7166 51.72 81.629 51.72L81.629 51.7981C81.629 51.7981 81.454 51.9545 81.3664 52.0327C81.3664 52.0327 81.3664 52.0327 81.2789 52.0327C81.1038 52.1891 80.9288 52.3454 80.6662 52.4236C78.0403 53.5182 75.6769 52.2672 74.1889 51.2509C73.3136 50.5472 72.5258 49.6872 71.8255 48.9054C71.3004 48.3581 70.7752 47.8108 70.3375 47.3417C69.8123 46.638 69.1121 46.0908 68.3243 45.6217C68.3243 45.6217 68.1492 45.6217 68.0617 45.6217C67.9742 45.6217 67.8866 45.778 68.0617 45.8562C68.2368 46.2471 68.3243 46.7162 68.3243 47.1853C68.3243 49.6872 65.6108 52.0327 63.7727 52.58C62.6348 53.1273 61.3218 53.2836 60.0964 53.2054C59.9213 53.2054 59.8338 53.2054 59.8338 53.3618C59.8338 53.44 59.8338 53.5964 60.0089 53.5964C60.7091 53.7527 61.847 54.0654 63.16 54.6127C65.0857 55.3946 68.0617 57.5055 68.0617 60.1637C68.0617 60.6328 67.9742 61.1801 67.7991 61.6492C67.7116 61.962 67.449 62.1965 67.1864 62.431C67.1864 62.431 67.1864 62.5874 67.1864 62.6656C67.1864 62.6656 67.3615 62.822 67.449 62.7438C68.5869 62.7438 69.6373 63.0565 70.6001 63.8383C71.9131 65.3238 72.0881 67.3566 72.0881 69.1548C72.0881 69.5457 72.0881 69.9366 72.0881 70.3275C72.0881 70.953 72.0881 71.5003 72.0881 71.9694C72.0881 72.2039 72.0881 72.4385 72.0881 72.673C72.0881 74.0803 72.1757 75.2531 72.4383 76.2695C72.4383 76.2695 72.4383 76.2695 72.4383 76.3477C72.8759 76.7386 73.051 77.1295 73.1385 77.364C73.1385 77.364 73.1385 77.364 73.051 77.364C73.051 77.364 72.8759 77.364 72.7884 77.364C72.7884 77.364 72.7884 77.5204 72.7884 77.5986C72.7884 77.5986 72.7884 77.5986 72.7884 77.6768C72.5258 77.5986 72.1757 77.4422 71.738 77.0513C71.738 77.0513 71.738 77.0513 71.6505 77.0513C70.3375 76.8168 68.762 76.6604 66.8363 76.7386C66.2236 76.7386 65.6108 76.7386 64.9106 76.7386C62.4597 76.7386 59.7463 76.8168 57.7331 75.4095C56.8577 74.6276 56.4201 73.7676 56.4201 72.8294C56.4201 72.8294 56.4201 72.673 56.4201 72.5949C56.4201 72.5167 56.4201 72.4385 56.245 72.3603C56.1575 72.3603 56.07 72.3603 55.9824 72.3603C55.7198 72.5949 55.4572 72.7512 55.1071 72.9076C51.1682 74.1585 48.1046 70.7185 47.2293 68.7639C46.7041 67.8257 46.354 66.8875 46.0914 65.9493C46.0914 65.8711 45.9164 65.7929 45.8288 65.7929C45.7413 65.7929 45.6538 65.8711 45.6538 66.0275C45.6538 66.1838 45.6538 66.3402 45.6538 66.5748C45.6538 67.513 45.3912 68.4512 44.866 69.3894C44.5159 70.4839 43.0278 72.1258 41.1897 72.9858C40.2268 73.3767 38.8263 73.7676 37.3383 73.2985C37.3383 73.2985 37.1633 73.2985 37.0757 73.2985C37.0757 73.2985 37.0757 73.4549 37.0757 73.5331C37.6884 74.2367 38.3012 74.8622 39.0014 75.3313C39.5266 75.8004 40.1393 76.1913 40.752 76.6604C41.6273 77.2859 42.5902 77.9113 43.378 78.7713C44.6034 80.2568 45.2161 81.5859 45.2161 82.7587C45.2161 83.3841 45.041 84.0096 44.7785 84.6351C44.6909 84.7914 44.5159 84.9478 44.3408 85.1824C44.3408 85.1824 44.3408 85.1824 44.3408 85.2605C44.2533 85.3387 44.1657 85.4169 44.0782 85.4951C44.0782 85.4951 43.9031 85.6515 43.9031 85.7296C43.9031 85.7296 43.7281 85.7296 43.6405 85.7296C42.5902 86.2769 41.3647 86.1987 40.577 85.886C40.4894 85.886 40.3144 85.886 40.2268 86.0424C39.8767 86.746 39.1765 87.606 37.951 87.8406C37.951 87.8406 37.776 87.8406 37.776 87.9969C37.776 87.9969 37.6009 87.8406 37.5134 87.8406C37.5134 87.8406 37.1633 87.8406 37.0757 87.8406C37.0757 87.8406 37.0757 87.8406 36.9882 87.8406C36.7256 87.8406 36.5505 87.8406 36.2879 87.6842C33.662 86.8242 32.9618 84.5569 32.6116 82.6805C32.6116 81.5859 32.6116 80.5695 32.7867 79.5532C32.8742 78.8495 32.9618 78.1459 32.9618 77.5204C33.1368 76.6604 33.0493 75.8786 32.9618 74.9404C32.9618 74.8622 32.8742 74.784 32.6992 74.784C32.6116 74.784 32.5241 74.784 32.4366 74.9404C31.8239 76.1913 30.5109 76.8168 29.5481 77.1295C27.5348 77.755 25.259 77.5204 24.0336 76.9731C22.8082 76.5822 21.6703 75.9567 20.8825 75.0967C20.8825 75.0185 20.6199 75.0185 20.5324 75.0967C20.4448 75.0967 20.3573 75.2531 20.5324 75.4095C21.1451 76.2695 21.5827 77.2077 22.0204 78.2241C22.458 79.0841 22.6331 80.2568 22.6331 81.3514C22.6331 82.9932 22.1079 85.1042 19.657 86.1206C19.3069 86.2769 19.0443 86.2769 18.6067 86.2769C18.5191 86.2769 18.4316 86.2769 18.3441 86.4333C18.3441 86.5115 18.3441 86.5896 18.3441 86.6678C19.2194 87.3715 19.657 88.3097 19.657 89.4824C19.3069 91.7497 17.3812 93.4698 15.6306 95.0334C15.193 95.4243 14.6678 95.8153 14.3176 96.2062C13.0047 97.3789 11.9543 98.3953 11.1665 99.4117C11.1665 99.4117 11.1665 99.4117 11.1665 99.4899C11.1665 100.037 10.9915 100.428 10.9039 100.663C10.9039 100.663 10.9039 100.663 10.9039 100.584C10.9039 100.584 10.9039 100.584 10.8164 100.584L10.8164 101.21C10.8164 101.21 10.9039 101.288 11.079 101.288C11.4291 101.288 11.7792 100.428 11.7792 99.5681C12.4795 98.6299 13.4423 97.6135 14.7553 96.4407C15.1054 96.0498 15.6306 95.6589 16.0683 95.268C17.8189 93.7825 19.9196 91.9843 20.2698 89.4824C20.2698 88.3879 19.8321 87.4497 19.1319 86.6678C19.3944 86.6678 19.5695 86.5896 19.8321 86.5115C21.9328 85.6515 23.0708 83.7751 23.0708 81.3514C23.0708 80.2568 22.8082 79.0059 22.3705 78.1459C22.1954 77.5986 21.9328 77.0513 21.6703 76.504C22.283 76.9731 23.0708 77.2859 23.8585 77.5204C25.084 78.1459 27.5348 78.3804 29.7231 77.6768C30.9485 77.2859 31.9114 76.6604 32.5241 75.8004C32.5241 76.4258 32.5241 76.9731 32.5241 77.5986C32.5241 78.2241 32.5241 78.9277 32.349 79.6313C32.2615 80.4914 32.0865 81.3514 32.0865 82.2896C32.0865 82.4459 32.0865 82.6023 32.0865 82.7587C32.4366 84.7133 33.2244 87.1369 36.1129 88.0751C36.2879 88.0751 36.463 88.1533 36.7256 88.2315C36.7256 88.3879 36.7256 88.466 36.7256 88.6224C36.5505 89.8733 36.3755 92.2188 34.8874 94.6425C32.6992 98.0044 26.572 99.4117 21.5827 99.3335C16.0683 99.6462 12.1294 101.366 10.9915 103.243C10.9915 103.399 10.9039 103.477 10.8164 103.555L10.8164 104.572C10.8164 104.572 10.9039 104.572 10.9915 104.572C11.079 104.259 11.2541 103.868 11.4291 103.477L11.4291 103.399ZM85.3053 46.0908C86.5308 46.2471 88.9816 46.4817 92.2203 45.6217C92.6579 45.6999 93.0081 45.8562 93.2707 46.0908C93.7958 46.4035 94.146 46.9508 94.5836 47.7326C94.2335 47.6544 93.9709 47.5762 93.5332 47.4981C91.2574 47.4981 88.544 46.9508 85.3053 46.169L85.3053 46.0908ZM83.0295 51.6418C83.4672 50.8599 83.4672 49.8436 83.1171 48.9835C83.9048 48.6708 84.6926 48.0453 85.1303 47.1071C86.5308 48.2017 90.032 50.0781 93.0081 50.1563C93.9709 50.3908 94.8462 50.469 95.634 50.5472C95.7215 50.9381 95.8966 51.329 96.0716 51.72C96.5968 52.9709 97.2971 53.9091 98.0849 54.6127C97.0345 54.6127 95.8091 54.8473 94.4086 55.3164C93.9709 55.4727 93.6208 55.6291 93.1831 55.8637C92.5704 55.3946 91.8702 54.9255 91.0824 54.4564C88.8941 52.58 84.8677 51.7981 83.0295 51.6418ZM82.4168 52.5018C83.7298 53.1272 86.8809 54.7691 89.3318 56.8019C89.5944 56.9582 89.9445 57.1146 90.2071 57.271C89.2442 57.5837 88.544 57.7401 87.9313 57.5837C87.5811 57.5837 87.231 57.4273 86.8809 57.271C85.3053 54.6909 83.3797 53.2054 82.4168 52.58L82.4168 52.5018ZM45.3912 85.886C45.3912 85.886 45.1286 85.7296 45.041 85.6515C45.1286 85.4951 45.3036 85.3387 45.3912 85.1824C45.7413 84.5569 45.9164 83.8532 45.9164 83.1496C45.9164 81.8205 45.3036 80.4914 43.9907 78.8495C43.1154 77.9895 42.1525 77.2859 41.2772 76.7386C40.6645 76.2695 40.0518 75.8786 39.5266 75.4095C39.0014 75.0967 38.5637 74.6276 38.1261 74.2367C39.1765 74.4713 40.4019 74.2367 41.5398 73.7676C43.553 72.8294 45.041 71.1876 45.4787 70.0148C45.8288 69.3112 46.0914 68.6075 46.2665 67.9039C46.4415 68.4512 46.7041 68.9984 46.9667 69.4675C47.9296 71.5003 51.1682 75.1749 55.4572 73.7676C55.7198 73.7676 55.8949 73.6112 56.07 73.4549C56.07 74.3931 56.5951 75.3313 57.4705 76.1913C59.6587 77.6768 62.6348 77.6768 64.9981 77.5986C65.6984 77.5986 66.3111 77.5986 66.9238 77.5986C68.762 77.5986 70.25 77.5986 71.563 77.9113C72.3507 78.5368 73.1385 78.7713 73.3136 78.6931C73.4011 78.6931 73.4886 78.5368 73.4011 78.4586L73.4011 78.3804C73.4011 78.3804 73.4011 78.3804 73.4886 78.3804C73.6637 78.3804 73.7512 78.2241 73.7512 78.1459C73.7512 77.9895 73.5762 77.364 72.8759 76.6604C72.6133 75.644 72.5258 74.5494 72.5258 73.2203L72.5258 72.5167C72.5258 71.9694 72.5258 71.4221 72.5258 70.8748C72.5258 70.4839 72.5258 70.093 72.5258 69.7021C72.5258 67.8257 72.3507 65.7147 70.8627 64.0729C69.8999 63.2911 68.937 62.9001 67.8866 62.822C68.0617 62.6656 68.1492 62.431 68.2368 62.1965C68.4994 61.6492 68.5869 61.1019 68.5869 60.5547C68.5869 57.6619 65.5233 55.3946 63.4226 54.6127C62.8099 54.3 62.1971 54.1436 61.6719 53.9873C62.4597 53.9091 63.2475 53.6745 63.9478 53.3618C65.961 52.8145 68.8495 50.2345 68.8495 47.5763C68.8495 47.2635 68.8495 47.029 68.762 46.7162C69.2871 47.1072 69.7248 47.4981 70.0749 47.9672C70.6001 48.4363 71.0378 48.9054 71.563 49.4526C72.2632 50.2345 73.051 51.0945 74.0138 51.8763C75.6769 52.9709 78.1278 54.3 81.0163 53.1272C81.1914 53.0491 81.3664 52.9709 81.5415 52.8145C81.5415 52.8927 81.7166 53.0491 81.8041 53.1272C82.6794 54.0654 84.43 55.9418 85.2178 58.5219C85.3929 59.0692 85.4804 59.6165 85.4804 60.1637C85.4804 63.8383 82.4168 67.7475 79.5283 70.2494C76.5522 72.673 74.6265 75.8004 74.6265 78.2241C74.6265 78.615 74.6265 78.9277 74.8016 79.3186C74.8891 79.5532 74.9767 79.7095 75.0642 79.8659C74.8891 79.8659 74.6265 79.7095 74.364 79.6313C72.0881 79.0841 67.9742 80.335 64.2979 83.8532C61.0592 86.9024 55.7198 90.0297 51.1682 89.0133C48.1922 88.2315 46.179 86.746 45.041 85.886L45.3912 85.886ZM44.5159 86.1987C45.2161 87.0587 46.7917 88.857 49.7677 90.2643C49.9428 90.577 50.1178 90.8897 50.1178 91.2025C50.2054 91.7497 50.1178 92.3752 49.7677 93.2352C49.5927 92.9225 49.4176 92.6879 49.2425 92.3752C47.0543 90.2643 45.2161 87.3715 44.5159 86.1987ZM38.5638 88.6224C39.6141 88.3097 40.3144 87.5278 40.6645 86.8242C41.4523 87.0587 42.5902 87.1369 43.6405 86.746C43.8156 88.3879 44.6909 91.9843 46.7917 93.8607C47.3169 94.6425 47.842 95.268 48.3672 95.8153C48.1922 96.128 48.0171 96.5189 47.7545 96.9098C47.2293 98.0826 46.9667 99.1771 46.9667 100.115C46.179 99.4117 45.1286 98.7862 43.7281 98.3171C43.2904 98.1608 42.8528 98.0044 42.4151 97.9262C42.4151 97.2226 42.2401 96.4407 41.9775 95.5807C41.9775 92.8443 39.7892 89.7952 38.5638 88.5442L38.5638 88.6224ZM37.4258 88.7788C38.5637 92.297 38.8263 94.7207 38.9139 96.2062C38.9139 96.5189 39.0889 96.7535 39.1765 97.0662C38.2136 96.7535 37.6884 96.3625 37.3383 95.8934C37.0757 95.5807 36.9882 95.268 36.8131 94.9552C37.2508 93.6261 37.5134 92.297 37.5134 90.8897C37.5134 90.0297 37.5134 89.2479 37.3383 88.7788L37.4258 88.7788Z" fill="#CA943A"/>
<path d="M11.6916 46.7167C12.4793 46.7949 12.917 46.8731 13.1796 47.0295C12.7419 47.1858 12.0417 47.4204 11.604 47.8895C11.604 47.8895 11.604 48.0458 11.604 48.124C11.9542 48.7495 12.0417 49.5313 11.8666 50.3131C11.8666 50.3131 11.8666 50.3913 11.8666 50.4695C12.1292 50.8604 12.4793 51.1732 12.8295 51.5641C13.0921 51.7986 13.4422 51.7986 13.8798 51.7204C14.5801 51.5641 15.4554 51.0168 15.8931 50.1568C16.3307 49.2186 15.8931 47.8113 14.6676 46.0131C13.6172 44.5276 12.3918 43.3548 11.604 42.7294C12.3918 42.9639 14.8427 43.7458 17.6437 45.544C20.7073 47.1076 25.3464 51.3295 24.2085 56.2551C24.121 57.8969 22.5454 58.8351 21.1449 58.9915C21.1449 58.9915 21.1449 58.9915 21.0574 58.9915C21.0574 58.9915 20.7948 58.9915 20.7948 59.0697C20.7948 59.0697 20.7948 59.226 20.7948 59.3042L20.7948 59.3824C20.7948 59.3824 20.9699 59.5388 21.0574 59.5388C21.1449 60.1642 21.32 61.4152 22.1953 62.5097C22.8955 63.6825 24.6462 64.0734 25.8716 63.8388C26.6594 63.6825 27.1846 63.3697 27.1846 62.9006C27.3596 62.0406 27.1846 61.4933 26.8344 61.337C26.3968 61.1024 25.6965 61.4933 25.2589 61.7279C25.2589 61.7279 25.0838 61.7279 25.0838 61.8061C25.0838 61.6497 25.0838 61.337 25.4339 60.7897C25.4339 60.7897 25.4339 60.7897 25.4339 60.7115C25.4339 60.7115 25.609 60.3988 25.9591 60.1642C26.2217 60.0079 26.922 59.6951 27.7097 60.0079C27.7097 60.0079 27.7973 60.0079 27.8848 60.086C27.8848 60.086 27.9723 60.086 28.0599 60.1642C28.0599 60.1642 28.2349 60.1642 28.3225 60.1642C28.3225 60.1642 28.4975 60.086 28.4975 60.0079L28.4975 59.8515L28.4975 59.6951C28.8477 58.9915 29.4604 58.7569 29.898 58.6787C30.3357 58.6006 30.6858 58.6787 30.6858 58.6787C30.6858 58.6787 30.6858 58.6787 30.7733 58.6787C31.3861 58.9133 31.7362 59.0697 31.8237 59.226C31.8237 59.226 31.6486 59.226 31.5611 59.226C30.9484 59.3824 30.0731 59.5388 30.0731 60.1642C30.0731 60.5551 30.4232 60.8679 31.1235 61.337C31.4736 61.5715 31.9112 61.5715 32.4364 61.337C33.4868 60.8679 34.4496 59.7733 34.4496 58.5224C34.4496 58.2878 34.4496 58.0533 34.4496 57.8969C34.0995 56.646 33.3993 55.6296 32.9616 55.1605C32.9616 55.1605 32.9616 55.1605 32.9616 55.0823C32.9616 55.0823 33.0491 54.926 32.9616 54.8478C32.9616 54.8478 32.8741 54.6914 32.7865 54.6914C32.7865 54.6914 32.6115 54.6914 32.524 54.6914C31.3861 55.3951 29.5479 55.7078 28.1474 54.6914C24.296 52.4241 23.9459 48.0458 23.9459 46.3258C23.9459 45.1531 24.121 44.0585 24.3836 43.0421C24.9088 40.0711 26.0467 37.9602 26.3968 37.3347C26.3968 38.2729 26.3968 39.8366 26.8344 41.5566C27.1846 42.8857 27.7973 44.7621 29.2853 45.2312C30.1606 45.544 31.211 45.4658 31.9112 45.0749C32.2614 44.8403 32.524 44.6058 32.524 44.2149C32.524 43.7458 32.4364 43.2767 32.3489 42.8076C32.3489 42.8076 32.3489 42.7294 32.2614 42.6512C31.5611 42.2603 31.0359 41.6348 30.7733 41.0093C30.7733 41.0093 30.6858 40.853 30.5983 40.853C29.898 40.7748 29.2853 41.0094 28.7601 41.2439C28.9352 41.0094 29.1102 40.6184 29.6354 40.0711C29.8105 39.9148 30.0731 39.7584 30.4232 39.6802C30.5107 39.6802 30.5983 39.6802 30.5983 39.5239C30.5983 39.2111 30.7733 38.9766 30.9484 38.8202C31.5611 38.3511 31.9988 38.1166 32.2614 38.0384C31.9988 38.4293 31.7362 39.0548 31.8237 39.6802C31.8237 39.6802 31.8237 39.8366 31.9988 39.8366C32.699 40.0712 33.3993 40.5403 33.8369 41.1657C33.8369 41.1657 33.8369 41.2439 34.012 41.2439C34.5372 41.3221 35.0624 41.4003 35.5875 41.4003C36.2878 41.3221 36.813 40.4621 36.813 39.5239C36.813 39.133 36.813 38.8202 36.5504 38.5075C36.1127 37.5693 34.7122 36.7875 32.3489 36.3965C30.4232 36.0838 28.6726 36.0056 27.6222 36.0056C28.3225 35.6929 30.5983 34.6765 34.0995 34.1292C37.6008 33.2692 44.1656 33.4256 47.1416 37.5693C47.6668 38.1166 47.9294 38.742 47.9294 39.4457C47.9294 40.1493 47.6668 40.853 47.1416 41.4784C47.1416 41.4784 47.1416 41.6348 47.1416 41.713C47.1416 41.713 47.1416 41.8694 47.3167 41.8694L47.6668 41.8694C48.2795 42.2603 49.3299 42.9639 50.8179 43.2767C51.6933 43.5112 52.6561 43.2767 53.5314 42.7294C54.3192 42.1821 54.8444 41.4785 54.8444 40.9312C54.8444 40.6966 54.8444 40.5402 54.6693 40.3839C54.1441 39.6802 53.6189 39.3675 53.1813 39.4457C52.6561 39.5239 52.3935 40.2275 52.306 40.7748L52.306 40.9312C52.2184 40.853 51.9558 40.5403 51.7808 39.993C51.7808 39.993 51.7808 39.8366 51.7808 39.6021C51.7808 39.0548 52.1309 38.3511 52.9187 38.0384C52.9187 38.0384 53.0062 38.0384 53.0937 38.0384C53.0937 38.0384 53.1813 38.0384 53.2688 38.0384C53.2688 38.0384 53.4439 38.0384 53.4439 37.882L53.4439 37.7257C53.4439 37.7257 53.4439 37.6475 53.2688 37.5693C53.2688 37.5693 53.1813 37.4911 53.1813 37.4129C53.0938 37.1784 53.0062 37.022 53.0062 36.7875C53.0062 36.162 53.4439 35.6929 53.6189 35.6147C53.794 35.4583 53.9691 35.3802 53.9691 35.3802C53.9691 35.3802 53.9691 35.3802 54.0566 35.3802C54.6693 35.1456 55.0194 35.0674 55.1945 35.0674C55.1945 35.0674 55.1945 35.2238 55.107 35.2238C54.8444 35.5365 54.5818 36.0056 54.5818 36.3184C54.5818 36.4747 54.5818 36.6311 54.8444 36.7875C55.107 37.022 55.6322 37.022 56.5075 36.9438C57.2077 36.9438 57.6454 36.162 57.6454 35.1456C57.6454 34.2074 57.2077 33.0347 56.1573 32.4874C54.9319 31.7837 53.6189 31.5492 52.8312 31.471C52.8312 31.471 52.8312 31.3146 52.6561 31.2364C52.6561 31.2364 52.3935 31.2364 52.306 31.2364C52.306 31.2364 52.2184 31.3146 52.2184 31.3928C52.2184 31.3928 52.2184 31.3928 52.2184 31.471C51.9558 32.7219 50.9055 34.051 49.0673 34.2074C43.7279 35.1456 38.9137 31.1583 37.1631 28.3437C35.1499 25.8418 34.2746 23.6527 34.012 22.949C34.7998 23.5745 36.0252 24.6691 37.6883 25.6854C39.7015 26.8582 41.2771 27.1709 42.3274 26.78C43.4653 26.3109 44.1656 25.2945 44.1656 24.6691C44.1656 24.4345 44.1656 24.2 43.903 24.0436C43.4653 23.7309 43.1152 23.4181 42.6776 23.1836C42.6776 23.1836 42.59 23.1836 42.5025 23.1836C41.6272 23.34 40.8394 23.1836 40.0516 22.949C40.0516 22.949 39.8766 22.949 39.789 22.949C39.2638 23.34 39.0013 23.9654 38.8262 24.4345C38.7387 24.2 38.5636 23.7309 38.4761 23.0272C38.4761 22.7927 38.4761 22.5581 38.7387 22.3236L38.2135 22.3236C38.2135 22.3236 37.9509 22.7927 37.9509 23.0272L37.9509 23.1054C38.1259 24.4345 38.3885 24.8254 38.5636 24.9818C38.5636 25.1382 38.7387 25.1382 38.8262 25.1382C39.0013 25.1382 39.0888 24.9818 39.1763 24.7472C39.2638 24.4345 39.5264 23.809 39.8766 23.4181C40.6643 23.7309 41.5397 23.8091 42.3274 23.6527C42.6776 23.8872 43.0277 24.1218 43.3778 24.3563C43.7279 24.7472 43.1152 25.9982 41.9773 26.4673C41.0145 26.78 39.614 26.4673 37.7758 25.3727C35.9377 24.2781 34.6247 23.1836 33.9245 22.5581C33.7494 22.4799 33.6619 22.3236 33.5743 22.2454L32.8741 22.2454C32.8741 22.2454 32.8741 22.2454 32.8741 22.3236C32.7865 22.3236 32.699 22.5581 32.524 22.7927C32.1738 23.1836 31.2985 23.8091 30.1606 24.0436C28.6726 24.4345 26.7469 23.5745 24.8212 22.7145C24.4711 22.5581 24.2085 22.4799 23.8584 22.3236C23.6833 22.3236 23.5958 22.2454 23.5083 22.1672L22.5454 22.1672L22.5454 22.2454L22.7205 22.2454C22.7205 22.2454 23.3332 22.5581 23.6833 22.7145C24.0334 22.8709 24.296 22.949 24.6462 23.1054C26.6594 23.9654 28.6726 24.9036 30.3357 24.4345C31.4736 24.2 32.2614 23.5745 32.9616 23.0272C32.9616 23.0272 32.9616 22.949 32.9616 22.8708C33.3117 23.5745 34.012 25.6073 34.012 27.2491C34.012 28.891 33.1367 29.4382 32.9616 29.5164C32.699 29.4382 31.9112 28.891 31.9112 27.2491C31.9112 26.3109 32.1738 25.2945 32.3489 24.5909C32.3489 24.5127 32.3489 24.4345 32.2614 24.3563L31.9988 24.3563C31.6486 24.7472 31.211 24.9818 30.6858 25.2945C28.8477 26.2327 26.3092 25.92 22.808 24.4345C21.2324 23.7309 20.007 23.1054 19.0442 22.6363C19.0442 22.6363 19.0442 22.6363 18.9566 22.6363C18.4315 22.6363 17.9938 22.4799 17.8187 22.4018C17.8187 22.4018 17.8187 22.4018 17.9063 22.3236L17.2935 22.3236C17.2935 22.3236 17.2935 22.4017 17.2935 22.4799C17.2935 22.7927 18.1689 23.0272 18.9566 23.1054C19.9195 23.5745 21.1449 24.2 22.7205 24.9036C26.3968 26.4673 29.1102 26.78 31.1235 25.7636C31.386 25.6073 31.6486 25.4509 31.9112 25.2945C31.7362 25.92 31.6486 26.7018 31.6486 27.4055C31.6486 29.5946 32.9616 30.1419 33.2242 30.1419C33.4868 30.1419 34.7998 29.5946 34.7998 27.4055C34.7998 26.8582 34.7998 26.3109 34.6247 25.7636C35.0624 26.6236 35.7626 27.64 36.6379 28.6564C38.4761 31.5492 43.4653 35.6929 49.0673 34.7547C50.993 34.5983 52.2184 33.191 52.5686 31.8619C52.5686 31.8619 52.6561 31.8619 52.7436 31.8619C53.4439 31.9401 54.6693 32.0965 55.8947 32.8001C56.8576 33.2692 57.2077 34.2856 57.2077 35.0674C57.2077 35.8493 56.9451 36.3965 56.5075 36.4747C55.6322 36.6311 55.3696 36.4747 55.282 36.4747C55.282 36.4747 55.282 36.4747 55.282 36.3184C55.282 36.0838 55.5446 35.6929 55.7197 35.3802C55.8947 35.0674 55.9823 34.9892 55.9823 34.8329L55.9823 34.6765C55.9823 34.6765 55.9823 34.6765 55.8072 34.6765C55.5446 34.5983 55.0194 34.6765 54.1441 34.9892C53.8815 34.9892 53.6189 35.2238 53.5314 35.302C52.8312 35.9274 52.5686 36.8656 53.0062 37.6475C53.0062 37.6475 53.0062 37.6475 53.0062 37.7257C51.9558 38.1166 51.5182 39.0548 51.5182 39.6802C51.5182 39.8366 51.5182 40.1493 51.6933 40.3057C52.1309 41.2439 52.481 41.4785 52.6561 41.5566C52.6561 41.5566 52.8312 41.5566 52.9187 41.5566C53.1813 41.5566 53.1813 41.3221 53.2688 40.9312C53.3563 40.6184 53.5314 39.993 53.794 39.9148C53.794 39.9148 54.1441 39.9148 54.7568 40.6966C55.107 41.0093 54.4943 41.8694 53.7065 42.4166C52.9187 42.8857 52.1309 43.1203 51.4307 42.8857C50.0302 42.6512 49.0673 41.9475 48.4546 41.5566C48.4546 41.5566 48.4546 41.5566 48.2795 41.4784C48.7172 40.853 48.9798 40.1493 48.9798 39.3675C48.9798 38.5857 48.6297 37.8038 48.1045 37.2566C44.9534 33.0347 38.1259 32.8001 34.5372 33.6601C33.0491 33.8947 31.7362 34.2074 30.6858 34.5201C31.211 34.2074 31.7362 33.8165 32.1738 33.4256C33.2242 32.4874 33.3993 31.7056 33.3993 31.1583C33.3993 30.8455 33.3993 30.611 33.2242 30.4546C33.1367 30.3764 31.7362 29.9073 29.9856 31.3928C29.4604 31.8619 28.9352 32.4874 28.4975 33.0347C28.4975 32.7219 28.4975 32.4874 28.3225 32.1747C27.3596 29.2819 23.1581 27.9528 21.7576 27.4837C20.0945 27.0146 18.694 26.6236 17.6437 26.3891C16.9434 25.92 16.3307 25.6854 16.0681 25.7636C16.0681 25.7636 15.8931 25.92 15.8931 25.9982L15.8931 26.1545L15.718 26.1545C15.6305 26.1545 15.5429 26.3109 15.5429 26.3891C15.5429 26.6236 15.718 27.0927 16.3307 27.7182C16.5933 28.6564 17.031 29.9073 17.5561 31.3928C18.8691 34.8329 20.6197 36.7093 22.808 37.2566C23.1581 37.2566 23.4207 37.4129 23.7708 37.4129C23.1581 37.8038 22.4579 38.1948 21.9327 38.6639C20.8823 39.6021 20.7073 40.3839 20.7073 40.9312C20.7073 41.2439 20.7073 41.4785 20.8823 41.5566C21.0574 41.6348 22.4579 42.1039 24.121 40.6184C24.5586 40.2275 24.9088 39.7584 25.3464 39.2893C24.9963 40.2275 24.6462 41.3221 24.3836 42.6512C24.0334 43.6676 23.9459 44.8403 23.9459 46.0913C23.9459 47.8895 24.3836 52.4241 28.3225 54.7696C29.8105 55.9423 31.8237 55.7078 33.0491 54.926C33.0491 54.926 33.0491 55.0041 33.2242 55.0823C33.6619 55.6296 34.3621 56.4896 34.6247 57.6624C34.6247 57.8187 34.6247 57.9751 34.6247 58.2096C34.6247 59.226 33.6619 60.2424 32.8741 60.6333C32.524 60.7897 32.2614 60.7897 32.0863 60.6333C31.2985 60.1642 31.211 59.9297 31.211 59.7733C31.211 59.5388 31.9112 59.3824 32.2614 59.3042C32.699 59.226 32.9616 59.1478 32.9616 58.9133C32.9616 58.9133 32.9616 58.8351 32.9616 58.7569C32.8741 58.5224 32.4364 58.2878 31.5611 57.9751C31.2985 57.8187 30.8609 57.7405 30.4232 57.8969C29.6354 58.0533 29.0227 58.5224 28.6726 59.1478C27.6222 58.7569 26.7469 59.1478 26.3968 59.3824C25.9591 59.6169 25.6965 59.9297 25.6965 60.2424C25.1713 61.2588 25.3464 61.5715 25.3464 61.7279C25.3464 61.7279 25.3464 61.8843 25.4339 61.8843C25.609 61.9624 25.7841 61.8843 26.2217 61.6497C26.4843 61.4933 27.097 61.1806 27.3596 61.2588C27.5347 61.337 27.5347 61.7279 27.4472 62.4315C27.4472 62.6661 27.097 62.9006 26.4843 62.9788C25.5215 63.1352 23.8584 62.9788 23.2457 61.8843C22.4579 60.8679 22.2828 59.6951 22.1953 59.0697C22.1953 59.0697 22.1953 58.9915 22.1953 58.9133C23.6833 58.6006 25.2589 57.5842 25.4339 55.786C25.5215 55.3169 25.609 54.7696 25.609 54.2223C25.609 49.844 21.495 46.0913 18.694 44.684C17.4686 43.9021 16.3307 43.2767 15.2803 42.8076C15.8931 42.8857 16.5933 42.9639 17.206 42.9639C19.6569 42.9639 20.2696 41.713 20.2696 41.5566C20.2696 41.4003 19.6569 40.1493 17.206 40.1493C16.4182 40.1493 15.5429 40.2275 14.8427 40.3839C15.0177 40.1493 15.2803 39.9148 15.3679 39.6802C16.5058 37.9602 16.2432 35.4583 14.405 32.1747C13.6172 30.7674 12.917 29.6728 12.3918 28.891C12.3918 28.1873 12.0417 27.4055 11.6916 27.4055C11.6916 27.4055 11.6916 27.4055 11.604 27.4055C11.5165 27.4055 11.604 27.4055 11.5165 27.4055L11.5165 27.9528C11.5165 27.9528 11.5165 27.9528 11.604 27.8746C11.6916 28.0309 11.8666 28.4219 11.8666 28.891C11.8666 28.891 11.8666 28.891 11.8666 28.9691C12.3918 29.751 13.0921 30.8455 13.8798 32.331C15.6305 35.4583 15.8931 37.8038 14.8427 39.4457C14.5801 39.9148 14.23 40.3057 13.7923 40.6184C13.7923 40.6184 13.7048 40.7748 13.7923 40.853C13.7923 40.853 13.9674 41.0094 14.0549 40.9312C14.8427 40.7748 15.9806 40.5403 17.031 40.5403C18.9566 40.5403 19.4818 41.3221 19.5694 41.4784C19.4818 41.6348 18.8691 42.4166 17.031 42.4166C15.1928 42.4166 12.917 41.7912 12.1292 41.4784C12.1292 41.4784 12.1292 41.4784 12.3043 41.4784C12.7419 41.0875 13.6172 40.3057 13.8798 39.2111C13.8798 38.9766 13.9674 38.6639 13.9674 38.4293C13.9674 37.1002 13.0921 35.5365 12.3043 34.051C12.2167 33.8165 12.0417 33.5819 11.8666 33.3474C11.6916 33.0347 11.604 32.8001 11.429 32.4874L11.429 32.4092L11.2539 32.4092L11.2539 33.3474C11.2539 33.3474 11.3414 33.5819 11.429 33.6601C11.5165 33.8947 11.6916 34.1292 11.7791 34.3638C12.7419 36.0838 13.7048 37.882 13.3547 39.2893C13.0921 40.3057 12.3043 41.0093 11.9542 41.3221C11.6916 41.4003 11.5165 41.5566 11.429 41.6348L11.3414 41.6348L11.3414 42.2603C11.3414 42.3385 11.5165 42.4166 11.6916 42.573C12.3918 43.1985 13.7048 44.3712 14.8427 46.0131C16.0681 47.6549 16.4182 48.9059 16.0681 49.7659C15.718 50.5477 14.9302 51.0168 14.405 51.095C14.1424 51.095 13.8798 51.095 13.7923 51.095C13.4422 50.7822 13.1796 50.4695 12.917 50.1568C13.0921 49.375 12.917 48.6713 12.6544 47.9677C13.0921 47.5767 13.7048 47.4204 14.1424 47.264C14.405 47.264 14.5801 47.1076 14.5801 46.9513C14.5801 46.9513 14.5801 46.7949 14.405 46.7167C14.23 46.6385 13.7048 46.3258 12.3043 46.1694C12.0417 46.1694 11.6916 46.1694 11.3414 46.404L11.3414 46.8731C11.6916 46.7167 11.9542 46.6385 12.2167 46.6385L11.6916 46.7167ZM27.2721 36.4747C28.2349 36.4747 30.0731 36.4747 32.1738 36.8656C34.2746 37.2566 35.5875 37.882 36.0252 38.742C36.1127 39.0548 36.2003 39.3675 36.2003 39.6802C36.2003 40.4621 35.8501 41.0875 35.4125 41.1657C34.8873 41.1657 34.4496 41.0875 34.012 41.0093C33.4868 40.3839 32.8741 39.9148 32.0863 39.6802C32.0863 39.133 32.4364 38.5857 32.6115 38.2729C32.699 38.1166 32.7865 38.0384 32.7865 37.882C32.7865 37.882 32.7865 37.7257 32.699 37.6475C32.699 37.6475 32.524 37.6475 32.4364 37.6475C32.2614 37.6475 31.6486 37.8038 30.5107 38.6639C30.2481 38.8202 30.0731 39.133 29.9856 39.4457C29.6354 39.5239 29.2853 39.6802 29.1102 39.9148C28.2349 40.9312 28.0599 41.4785 28.0599 41.6348C28.0599 41.713 28.0599 41.8694 28.0599 41.9476C28.2349 41.9476 28.3225 41.9475 28.5851 41.8694C28.9352 41.713 29.5479 41.4003 30.1606 41.4003C30.5107 42.0257 31.0359 42.6512 31.6486 43.1203C31.6486 43.5112 31.8237 43.9021 31.8237 44.293C31.8237 44.4494 31.6486 44.6058 31.386 44.7621C30.9484 44.9967 29.9856 45.1531 29.1978 44.8403C27.9723 44.3712 27.3596 42.7294 27.097 41.4784C26.6594 39.6021 26.6594 37.882 26.6594 37.022C26.6594 36.7875 26.6594 36.6311 26.6594 36.4747C26.8344 36.4747 27.0095 36.4747 27.2721 36.4747ZM26.3092 36.0056C26.3092 36.0056 26.3092 36.0056 26.2217 36.0838C26.2217 36.0838 26.2217 36.0838 26.2217 36.162C26.2217 36.162 26.2217 36.162 26.2217 36.2402C26.1342 36.2402 25.9591 36.2402 25.609 36.3965C24.9963 36.3965 23.9459 36.3965 22.8955 35.8493C21.5826 35.1456 20.8823 33.3474 20.1821 31.5492C20.007 31.2364 19.9195 30.9237 19.8319 30.611C19.8319 30.3764 19.6569 30.2201 19.5694 30.0637C19.7444 30.0637 20.007 30.2201 20.1821 30.2983C20.5322 30.3764 20.7948 30.5328 21.1449 30.611C23.1581 31.2365 25.1713 31.8619 25.9591 33.1129C26.4843 33.8947 26.5718 34.7547 26.5718 35.3802C26.5718 35.3802 26.3968 35.7711 26.3968 35.9274L26.3092 35.9274L26.3092 36.0056ZM23.0706 40.5403C21.7576 41.713 20.7073 41.5566 20.5322 41.4784C20.5322 41.4784 20.5322 41.3221 20.5322 41.1657C20.5322 40.6966 20.7073 39.993 21.5826 39.2111C22.2828 38.5857 23.3332 37.9602 24.0334 37.5693C24.121 37.5693 24.2085 37.4129 24.121 37.3347C24.121 37.2566 23.9459 37.1784 23.8584 37.1784C23.3332 37.1784 22.808 37.1784 22.2828 37.022C20.2696 36.4747 18.6065 34.6765 17.3811 31.3928C16.8559 29.9073 16.4182 28.6564 16.1556 27.7182C16.1556 27.7182 16.1556 27.7182 16.1556 27.64C15.8055 27.2491 15.6305 26.9364 15.5429 26.78C15.5429 26.78 15.5429 26.78 15.718 26.78L15.8931 26.78C15.8931 26.78 15.8931 26.7018 15.8931 26.6236C15.8931 26.6236 15.8931 26.5455 15.8931 26.4673C16.1556 26.4673 16.4182 26.7018 16.8559 27.0146C16.8559 27.0146 16.8559 27.0146 16.9434 27.0146C17.9938 27.2491 19.3943 27.64 21.0574 28.1091C22.3704 28.5782 26.4843 29.8292 27.3596 32.4874C27.5347 32.9565 27.5347 33.5038 27.5347 33.9729C27.5347 33.9729 27.5347 34.1292 27.7097 34.2074C27.7973 34.2074 27.9723 34.2074 27.9723 34.1292C28.41 33.5038 29.0227 32.6437 29.8105 31.9401C31.1235 30.7673 32.1738 30.9237 32.3489 31.0019C32.3489 31.2364 32.524 32.1746 31.2985 33.2692C29.9856 34.442 27.9723 35.3802 27.097 35.6929C27.097 35.6929 27.097 35.6929 27.097 35.5365L27.097 35.4583C27.097 34.7547 27.097 33.8165 26.3968 32.9565C25.5215 31.6274 23.4207 30.9237 21.32 30.2983C20.9699 30.2201 20.7073 30.1419 20.3571 29.9855C20.007 29.9073 19.6569 29.751 19.3068 29.5946C19.3068 29.5946 19.0442 29.5946 18.9566 29.5946C18.9566 29.5946 18.9566 29.751 18.9566 29.8292L18.9566 29.9073C18.9566 29.9073 19.3068 30.4546 19.3943 30.8455C19.4818 31.1583 19.6569 31.471 19.7444 31.7056C20.4447 33.5819 21.1449 35.4583 22.6329 36.2402C23.6833 36.7875 24.7337 36.8656 25.609 36.8656C25.609 36.8656 25.6965 36.8656 25.7841 36.8656C25.4339 37.6475 24.296 39.5239 23.0706 40.6184L23.0706 40.5403Z" fill="#CA943A"/>
<path d="M45.3043 23.1833C45.3043 23.1833 45.3043 23.3397 45.3918 23.4961C45.3918 23.4961 45.3918 23.5742 45.3918 23.6524C45.3918 23.6524 45.3918 23.7306 45.4793 23.7306C46.1796 24.0433 47.0549 24.4343 47.8427 24.8252C50.4686 25.4506 53.5322 25.4506 56.0706 24.9815C58.9591 24.5124 60.7097 24.4343 61.6726 24.4343C61.6726 24.4343 61.7601 24.4343 61.8476 24.4343C62.898 23.4961 64.0359 22.7924 64.9988 22.3233C64.9988 22.3233 64.9988 22.3233 64.9988 22.2451L64.211 22.2451C63.3357 22.7142 62.4604 23.2615 61.5851 24.0433C60.6222 24.0433 58.8716 24.0433 55.9831 24.5906C53.5322 25.0597 50.5561 25.0597 47.9302 24.4343C47.1424 24.0433 46.3547 23.6524 45.6544 23.3397C45.6544 23.1833 45.6544 23.1051 45.4793 22.9488C45.3043 22.7142 45.1292 22.4797 44.8666 22.2451L44.2539 22.2451C44.604 22.5579 44.8666 22.7924 45.0417 23.1051L45.3043 23.1833Z" fill="#CA943A"/>
<path d="M46.8771 47.8892C47.4898 48.671 48.015 49.3747 48.4527 50.1565C48.4527 50.2347 48.6277 50.3129 48.7152 50.2347C48.8028 50.2347 48.8903 50.1565 48.8903 50.0783L48.8903 49.3747C49.0654 48.4365 49.0654 47.5765 49.0654 46.6383C49.0654 45.8564 49.0654 45.231 48.8903 44.6837C48.6277 43.0419 47.4023 42.26 46.9646 41.9473C46.8771 41.9473 46.702 41.9473 46.6145 41.9473C46.2644 42.1818 45.7392 42.4946 45.1265 42.4946C44.1636 42.6509 43.2008 42.4946 42.5005 42.0255C42.1504 41.7909 41.8003 41.4782 41.8003 41.0091C41.9754 40.3054 42.1504 39.7582 42.5005 39.4454C42.5005 39.7582 42.5005 40.2273 42.6756 40.6964C42.6756 40.7745 42.6756 40.9309 42.9382 41.0873C43.3759 41.3218 44.4262 41.3218 45.1265 40.9309C46.0018 40.4618 46.0893 39.6018 45.3015 38.6636C43.2008 35.7708 38.124 34.8326 34.0976 35.1454C33.5724 35.1454 33.0472 35.1454 32.4345 35.1454C32.2594 35.1454 32.1719 35.2235 32.1719 35.3799C32.1719 35.4581 32.1719 35.6145 32.3469 35.6145L32.522 35.6145C34.1851 35.7708 36.4609 35.9272 37.9489 37.8036C38.299 38.3509 38.5616 39.1327 38.5616 39.8363C38.5616 40.9309 38.124 41.8691 37.4237 42.5728C37.4237 42.5728 37.4237 42.7291 37.4237 42.8073C37.4237 42.8073 37.5113 42.9637 37.5988 42.9637C38.2115 42.9637 38.8242 42.9637 39.5245 43.0419C41.9754 43.6673 45.214 45.5437 46.7896 47.8892L46.8771 47.8892ZM39.6995 42.6509C39.1744 42.6509 38.6492 42.6509 38.2115 42.6509C38.8242 41.9473 39.1744 41.0091 39.1744 39.9927C39.1744 39.1327 38.9118 38.3509 38.4741 37.7254C37.5113 36.4745 36.2858 35.9272 35.0604 35.6145C38.8242 35.4581 43.1133 36.3963 44.9514 38.9763C45.3015 39.3672 45.3891 39.68 45.3891 39.9145C45.3891 40.3836 44.9514 40.6182 44.5138 40.7745C43.8135 41.0091 43.2008 40.8527 43.1133 40.7745C43.0257 40.3054 43.0257 39.8363 42.9382 39.5236C42.9382 39.2109 42.9382 39.0545 42.7631 38.9763C42.7631 38.9763 42.5881 38.9763 42.5005 38.9763C42.5005 38.9763 42.5005 38.9763 42.413 39.0545C41.8878 39.3672 41.4502 40.0709 41.2751 41.1655C41.2751 41.7127 41.6252 42.1818 42.1504 42.5728C42.9382 43.12 44.0761 43.3546 45.1265 43.12C45.6517 43.12 46.1768 42.9637 46.7896 42.5728C47.4023 42.9637 48.1901 43.6673 48.3651 44.9183C48.5402 45.4655 48.5402 46.091 48.5402 46.7946C48.5402 47.6547 48.5402 48.5147 48.3651 49.4529C48.015 48.9056 47.5773 48.3583 47.1397 47.811C45.4766 45.3873 42.0629 43.4328 39.5245 42.8073L39.6995 42.6509Z" fill="#CA943A"/>
<path d="M12.9997 81.742C15.013 80.4911 16.0633 78.6928 16.0633 76.4255C16.0633 74.1582 15.013 71.6564 14.3127 70.3272C14.9254 71.0309 15.7132 72.1255 16.6761 73.5328C17.2888 74.3146 17.7264 75.331 17.7264 76.6601C17.7264 79.0838 16.4135 81.742 14.6628 82.9147C13.4374 84.0093 12.387 85.0257 11.5117 86.0421L11.5117 86.1984C11.6868 86.6675 11.6868 87.1366 11.6868 87.5275L11.6868 87.6839C11.6868 87.6839 11.6868 87.8403 11.8618 87.9185C11.8618 87.9185 12.0369 87.9185 12.1244 87.9185C13.1748 86.9803 14.6628 86.433 15.8007 86.3548C16.0633 86.3548 16.2384 86.3548 16.4135 86.433L16.5885 86.433C16.5885 86.433 16.7636 86.433 16.8511 86.3548C16.8511 86.3548 16.8511 86.1984 16.8511 86.1202C16.2384 85.6511 15.8883 85.1039 15.8883 84.6348L15.8883 84.5566C15.8883 83.1493 17.2012 82.7584 17.6389 82.6802C18.2516 82.6802 18.6017 82.8366 18.8643 82.9147C17.5514 83.6966 17.5514 84.0875 17.5514 84.2438C17.5514 84.7911 18.5142 84.8693 18.8643 84.8693C18.8643 84.8693 18.8643 84.8693 18.9519 84.8693C20.3524 84.2438 21.0526 82.7584 21.0526 80.4129C21.0526 78.5365 20.6149 76.6601 20.3524 75.5655C20.3524 75.4873 20.3524 75.331 20.3524 75.2528C20.3524 75.2528 20.4399 75.2528 20.5274 75.331C21.2277 75.7219 22.4531 76.5819 24.3788 76.7383C26.1294 76.9728 28.4052 76.7383 29.7182 75.8001C30.3309 75.331 30.681 74.7837 30.7686 74.08C30.7686 73.22 30.5935 72.8291 30.3309 72.7509C29.8932 72.6727 29.3681 73.3764 28.7553 74.3928C28.7553 74.3928 28.7553 74.471 28.6678 74.5491C28.6678 74.3928 28.4927 74.0019 28.4052 73.4546C28.4052 73.4546 28.4052 73.3764 28.4052 73.2982C28.4052 72.7509 28.5803 71.7345 29.8932 71.2654C30.5935 71.0309 31.2062 71.2654 31.5563 71.5C32.3441 71.9691 32.9568 72.9855 32.9568 73.8455C32.9568 74.0019 32.9568 74.1582 32.9568 74.3146C32.9568 74.3146 32.9568 74.3146 32.9568 74.3928C32.9568 74.3928 32.9568 74.471 32.9568 74.5491C33.6571 75.6437 34.0072 76.8164 34.0072 78.0674C34.0072 78.6928 34.0947 79.3183 34.1823 80.022C34.3573 82.8366 34.5324 85.8075 36.9833 86.5112C37.6835 86.6675 38.1212 86.5112 38.2962 86.2766C38.6463 86.0421 38.8214 85.573 38.8214 85.1039C38.8214 84.4784 38.4713 83.9311 38.0336 83.6966C37.5084 83.3838 37.1583 83.1493 36.9833 82.9929C37.2458 82.9929 37.771 82.9929 38.5588 82.9929C38.5588 82.9929 38.6463 82.9929 38.7339 83.0711C38.7339 83.0711 38.9965 83.0711 39.084 83.0711C39.084 83.0711 39.1715 83.0711 39.2591 82.9147C39.2591 82.8365 39.2591 82.6802 39.3466 82.602C39.8718 82.0547 40.2219 81.742 40.397 81.5856C40.397 81.8202 40.397 82.2893 40.2219 82.7584C40.2219 82.8365 40.2219 82.9929 40.2219 83.0711C40.2219 83.7747 40.8346 84.4784 41.6224 84.7129C42.2351 84.8693 42.8478 84.6348 43.198 84.0093C43.4606 83.6184 43.5481 83.2275 43.5481 82.7584C43.5481 81.0383 41.7975 79.3183 40.0468 77.6765C39.5217 77.2074 39.084 76.7383 38.5588 76.191C37.6835 75.331 36.9833 74.3146 36.6331 73.0637C36.6331 73.0637 36.6331 73.0637 36.6331 72.9855C35.7578 72.5164 35.2326 71.5 35.2326 70.5618C35.2326 69.78 35.6703 69.1545 36.283 68.8418C37.771 68.2945 38.7339 69.1545 38.9965 69.4672C39.4341 69.9363 39.6092 70.2491 39.6967 70.4054C39.6967 70.4054 39.6967 70.4054 39.5217 70.4054C38.2962 70.0145 37.5084 69.8581 37.2458 70.0927C37.1583 70.0927 37.0708 70.2491 37.0708 70.4054C37.0708 70.5618 37.0708 70.8745 37.8586 71.5C38.4713 71.9691 39.1715 72.1255 39.9593 72.0473C41.7099 71.8909 43.4606 70.4836 44.5109 69.3109C45.7364 67.9817 45.999 66.5744 46.174 65.8708C46.174 65.8708 46.174 65.7926 46.174 65.7144C46.174 65.7144 46.174 65.8708 46.3491 65.8708C47.5745 67.5126 51.1633 72.6727 54.7521 71.5782C54.7521 71.5782 54.7521 71.5782 54.8396 71.5782C55.4523 70.9527 55.5398 70.4836 55.1897 70.2491C54.9271 70.0145 54.2269 70.0145 53.264 70.2491C53.264 70.0927 53.5266 69.78 53.8768 69.389C54.2269 69.0763 55.4523 68.529 56.5902 69.5454C57.0279 69.8581 57.2905 70.5618 57.2029 71.2654C57.2029 71.2654 57.2029 71.4218 57.378 71.5C57.4655 71.5 57.6406 71.5 57.6406 71.4218L57.6406 71.2654C57.6406 71.2654 57.9907 70.9527 58.0782 70.7963C58.9535 70.1709 60.4416 69.4672 61.9296 69.5454C62.0171 69.5454 62.1047 69.5454 62.1922 69.389C62.1922 69.3109 62.1922 69.2327 62.1922 69.1545C61.8421 68.8418 61.492 68.4508 61.1418 67.9817C61.1418 67.9817 61.0543 67.9036 60.9668 67.9036C59.5663 67.7472 57.9907 67.669 56.2401 67.669C54.4895 67.9036 52.0386 67.1999 50.1129 65.949C48.5374 64.8544 47.5745 63.6035 47.3994 62.3526C46.9618 60.7889 46.6992 59.538 46.5241 58.5998C47.5745 61.0234 50.3755 66.8872 56.4151 65.8708C57.6406 65.8708 58.866 66.0272 59.9164 66.2617C59.9164 66.2617 60.0915 66.2617 60.179 66.2617C60.179 66.2617 60.179 66.1053 60.179 66.0272C59.9164 65.089 59.7413 64.0726 59.7413 62.8998C59.8289 62.4307 59.9164 62.0398 59.9164 61.6489C59.9164 57.1143 54.0518 54.847 51.6885 53.987C52.7388 54.1433 54.1393 54.3779 55.89 54.7688C59.0411 55.1597 61.9296 59.0689 61.9296 61.9616C61.9296 62.1962 61.9296 62.4307 61.9296 62.6653C61.9296 64.229 62.0171 65.6363 62.2797 66.8872C62.2797 66.8872 62.2797 67.0435 62.3673 67.0435C62.8924 67.3563 63.3301 67.669 63.6802 67.9817C63.6802 67.9817 63.8553 68.0599 63.9428 67.9817C63.9428 67.9817 64.1179 67.9036 64.1179 67.7472C64.1179 66.4181 64.7306 65.0108 65.4308 64.3853C65.6059 64.229 65.781 64.1508 65.956 64.0726L66.1311 64.0726C66.1311 64.0726 66.3062 63.838 66.1311 63.7599C66.1311 63.6817 65.956 63.6035 65.8685 63.6035C65.0807 63.6035 64.2929 63.4471 63.9428 63.0562C63.5052 62.6653 63.3301 62.1962 63.3301 61.7271C63.3301 61.1798 63.5927 60.7889 63.7678 60.6325C64.2054 60.3198 64.5555 60.0852 64.8181 60.0071C64.8181 60.3198 64.7306 60.6325 64.7306 61.0234C64.7306 61.4925 64.8181 61.8053 65.1683 61.8835C65.4308 62.0398 65.8685 61.8835 66.3937 61.4144C66.3937 61.4144 66.3937 61.4144 66.3937 61.3362C66.4812 61.0234 66.5687 60.7107 66.5687 60.398C66.5687 57.5834 61.8421 54.847 60.0915 53.8306C60.0915 53.8306 59.9164 53.7524 59.8289 53.6742C59.8289 53.6742 59.9164 53.6742 60.0039 53.6742C60.7917 53.5179 62.3673 53.2833 63.8553 52.1887C65.3433 51.1724 66.9189 49.4523 66.9189 47.8105C66.9189 47.185 66.7438 46.7159 66.3062 46.2468C65.6934 45.6995 65.2558 45.465 64.9932 45.6214C64.8181 45.6214 64.7306 45.8559 64.7306 46.0905C64.7306 46.5596 64.9932 47.2632 65.1683 47.7323C65.1683 47.7323 65.1683 47.8105 65.1683 47.8887C64.9932 47.8105 64.6431 47.6541 64.0303 47.2632C63.8553 47.1068 63.155 46.5596 63.155 45.6995C63.155 45.3868 63.155 45.1523 63.3301 44.8395C63.6802 44.0577 64.468 43.9013 64.9932 43.9013C66.1311 43.8231 67.3565 44.2922 67.9692 45.1523C67.9692 45.1523 67.9692 45.1523 68.0568 45.2304C69.4573 45.5432 70.5952 46.1686 71.558 47.0287C72.0832 47.4196 72.6084 47.8105 73.1336 48.2796C75.4969 50.156 77.9478 52.1887 80.3111 51.0942C80.9238 50.7033 81.0989 50.3124 81.0989 49.9996C81.0989 49.5305 80.7488 49.0614 80.3111 48.7487C79.8735 48.436 79.3483 48.3578 78.9106 48.436C78.2979 48.5923 77.8603 48.5923 77.5977 48.6705C77.7727 48.436 78.1228 48.1232 78.7356 47.6541C78.8231 47.6541 78.9106 47.6541 79.0857 47.5759C79.0857 47.5759 79.1732 47.5759 79.2608 47.4196L79.2608 47.2632L79.2608 47.185C79.2608 47.185 79.0857 47.0287 79.0857 46.9505C79.0857 46.325 79.0857 45.8559 79.0857 45.5432C79.2608 45.7777 79.6109 46.0905 79.8735 46.4814C80.2236 47.1068 81.1864 47.3414 81.9742 47.185C82.6745 47.0287 83.0246 46.5596 83.0246 46.0123C83.0246 45.8559 83.0246 45.6995 83.0246 45.5432C82.2368 43.354 78.9982 43.1977 75.847 43.0413C75.1468 43.0413 74.359 43.0413 73.6588 42.885C72.3458 42.885 71.0328 42.5722 69.7199 41.9468C69.7199 41.9468 69.6323 41.9468 69.5448 41.9468L69.4573 41.9468C68.582 42.1031 67.6191 41.8686 66.8313 41.3213C66.0436 40.774 65.781 39.9922 66.0436 39.2885C66.6563 37.8812 68.1443 37.9594 68.4944 37.9594C69.1947 37.9594 69.5448 38.1158 69.7199 38.194C69.7199 38.194 69.6323 38.194 69.5448 38.194C68.3194 38.8194 67.7067 39.1322 67.7067 39.5231C67.7067 39.9922 68.4944 40.0704 69.1947 40.0704C71.383 39.914 72.1707 37.6467 72.1707 35.6139C72.1707 35.223 72.1707 34.7539 72.1707 34.363C71.9957 32.643 71.1204 31.4702 70.5952 30.8447C70.5952 30.8447 70.5952 30.8447 70.5076 30.7666C70.5076 30.7666 70.6827 30.7666 70.7702 30.7666C72.9585 31.1575 79.5233 32.4866 81.1864 29.5156C81.1864 29.5156 81.1864 29.5156 81.1864 29.4374C81.1864 29.0465 81.0989 28.4211 80.6612 28.3429C80.2236 28.2647 79.6984 28.5774 78.9982 29.5156C78.9982 29.3593 78.8231 29.0465 78.7356 28.4992C78.7356 28.0302 79.2607 26.9356 80.8363 26.8574C81.3615 26.8574 82.0617 27.0919 82.5869 27.6392C82.5869 27.6392 82.762 27.7174 82.8495 27.6392C82.937 27.6392 83.0246 27.4829 83.0246 27.4047L83.0246 27.2483C83.0246 27.2483 82.937 26.9356 82.8495 26.701C82.8495 25.6846 83.4622 24.2774 84.6002 23.4173C84.6002 23.4173 84.6877 23.261 84.6002 23.1828C84.6002 23.1046 84.4251 23.0264 84.3375 23.0264C83.8124 23.0264 83.2872 23.0264 82.6745 22.8701L82.4994 22.8701C81.3615 23.6519 80.2236 24.5901 78.9106 25.6846C77.8603 27.0138 75.5844 28.0302 73.2211 28.2647C71.2954 28.4993 69.5448 28.2647 68.4069 27.4047C66.8313 26.6228 65.6059 25.841 64.8181 25.2937C67.4441 26.3101 74.0964 28.7338 77.5977 24.121C78.5605 23.3392 79.4358 22.6355 80.3987 22.1664C80.3987 22.1664 80.3987 22.1664 80.3987 22.0882L79.6984 22.0882C78.9106 22.5573 78.1228 23.1046 77.2475 23.8864C74.0089 28.1083 67.8817 25.9974 65.2558 24.981C66.2186 24.1992 66.9189 23.5737 67.4441 23.1046L67.6191 22.9482C68.3194 22.9482 68.8446 22.9482 69.0196 22.8701C69.0196 22.8701 69.0196 22.7919 69.0196 22.7137C69.0196 22.7137 69.0196 22.7137 69.0196 22.6355C69.0196 22.5573 68.8446 22.401 68.6695 22.2446L68.0568 22.2446C68.2318 22.401 68.3194 22.4791 68.4069 22.5573C68.2318 22.5573 67.8817 22.5573 67.5316 22.5573L67.3565 22.5573L67.0939 22.7919C66.4812 23.261 65.6934 23.9646 64.6431 24.9028C64.6431 24.9028 64.6431 25.0592 64.6431 25.1374C64.6431 25.1374 64.468 25.1374 64.3805 25.1374L63.6802 25.7628C63.2426 26.1538 62.8049 26.5447 62.3673 26.9356C60.6166 28.4211 58.691 30.1411 56.4151 31.0011C56.4151 31.0011 56.2401 31.1575 56.2401 31.2357C56.2401 31.3138 56.2401 31.392 56.4151 31.4702C56.4151 31.4702 56.4151 31.4702 56.5027 31.4702C56.5027 31.4702 56.5027 31.4702 56.6777 31.4702C56.6777 31.4702 58.6034 32.0175 60.354 32.643L61.4044 33.0339C63.0675 33.7375 64.9932 33.8157 66.0436 33.1902C66.9189 32.7211 67.0064 31.8611 66.3062 31.0011C65.3433 29.9065 64.5555 29.3593 63.8553 29.4374C63.0675 29.4374 62.6299 30.2975 62.3673 30.8447C62.3673 30.6102 62.1922 30.2193 62.1922 29.5156C62.0171 28.8902 62.8049 28.1865 63.9428 27.952C65.3433 27.7174 67.269 28.0301 68.3194 30.0629C68.6695 30.4538 68.8446 31.0011 68.8446 31.6266C68.8446 32.9557 67.8817 34.5193 66.2186 34.8321C64.2929 35.1448 62.8924 34.4412 61.5795 33.8939C61.4044 33.8157 61.2294 33.7375 61.0543 33.6593C60.354 33.2684 59.6538 32.7993 58.866 32.4084L58.6034 32.4084C58.6034 32.4084 58.5159 32.5648 58.6034 32.643C58.6034 32.7211 58.7785 32.8775 58.866 33.0339C58.866 33.0339 58.866 33.0339 58.9535 33.1121C59.8289 33.4248 61.667 34.363 62.5423 35.223C63.5927 36.2394 63.2426 37.0994 63.2426 37.2558C63.0675 37.2558 62.1047 37.4903 60.9668 36.3958C60.6166 36.083 60.354 35.6921 60.0039 35.3012C60.0039 35.3012 59.8289 35.223 59.7413 35.223C59.6538 35.223 59.5663 35.3012 59.5663 35.4575C59.5663 36.3957 59.1286 37.6467 57.2905 38.3503C57.1154 38.3503 56.9403 38.3503 56.8528 38.3503C56.8528 38.3503 56.6777 38.3503 56.5902 38.3503C56.5027 38.3503 56.4151 38.3503 56.4151 38.5067C56.4151 38.5067 56.4151 38.6631 56.4151 38.7412L56.5902 38.8976C56.5902 38.8976 56.7653 39.1322 56.8528 39.2103C57.4655 40.5395 57.2029 41.7904 56.2401 42.8068C56.2401 42.8068 56.2401 42.9631 56.2401 43.0413C56.2401 43.0413 56.4151 43.1977 56.5027 43.1195C57.0279 43.0413 57.5531 42.9631 58.0782 42.885C59.7413 42.885 60.2665 43.5104 60.354 43.745C60.2665 43.9013 59.7413 44.6832 58.2533 44.7613C56.9403 44.7613 54.9271 44.2922 54.0518 43.9795C54.0518 43.9795 53.9643 43.9795 53.8768 43.9795C53.7017 43.9795 53.5266 43.9795 53.3516 44.0577C53.264 44.0577 53.1765 44.1359 53.1765 44.2922C53.1765 44.4486 53.1765 44.4486 53.3516 44.5268C54.2269 44.6832 55.1022 44.8395 55.89 44.9959C56.065 44.9959 56.2401 45.0741 56.5027 45.1523C57.8156 45.5432 59.3037 45.9341 60.4416 47.3414C60.7917 47.8105 60.9668 48.2796 60.9668 48.8269C60.9668 50.3905 59.6538 51.876 58.0782 52.0324C56.4151 52.5797 55.1897 52.1887 54.4895 51.7196C53.5266 51.1724 52.9139 50.156 52.9139 49.3742C52.9139 49.1396 52.9139 48.7487 53.4391 48.5141C53.9643 48.045 54.4019 47.8105 54.577 47.7323C54.4019 48.045 54.2269 48.5141 54.2269 48.9051C54.2269 49.296 54.4019 49.6087 54.6645 49.8433C55.1897 50.2342 56.065 50.3124 57.4655 50.156C58.5159 49.9996 59.0411 49.5305 59.0411 48.8269C59.0411 47.6541 57.4655 46.2468 55.5398 45.6214L54.4019 45.1523C52.7388 44.5268 51.2508 43.9013 51.0758 43.745L50.9007 43.745L50.5506 43.745C50.5506 43.745 50.463 43.9013 50.5506 43.9795C51.5134 46.0123 51.5134 48.436 51.6009 50.6251C51.6009 51.2505 51.6009 51.7978 51.6009 52.3451L51.6009 53.2833C51.6009 53.2833 51.6009 53.4397 51.776 53.4397C51.776 53.4397 51.6885 53.5179 51.6885 53.596C51.6885 55.0033 51.6885 56.0197 51.6885 56.8016L51.6885 57.1143C51.6885 57.1143 51.6885 57.1925 51.776 57.2707C52.1261 57.5052 52.3012 57.6616 52.3887 57.8179C52.3012 57.8179 52.1261 57.8179 51.9511 57.8179C51.776 57.8179 51.6885 57.8961 51.6885 58.0525C51.6885 58.287 51.6885 58.3652 51.6885 58.4434C51.5134 58.3652 51.3383 58.1307 51.0758 57.8961C51.0758 57.8961 50.9882 57.8961 50.9007 57.8179L50.6381 57.8179C49.7628 57.8179 48.6249 57.8179 47.0493 57.8179C47.0493 57.8179 46.8743 57.8179 46.8743 57.8961C46.8743 57.8961 46.6992 57.7398 46.6117 57.7398L45.5613 57.7398C44.9486 57.7398 44.3359 57.7398 43.7231 57.7398C41.2723 57.7398 38.4713 57.7398 36.1955 56.8797C36.1955 56.8797 36.0204 56.8797 35.9329 56.8797C35.9329 56.8797 35.9329 57.0361 35.9329 57.1143C35.9329 57.1143 35.9329 57.1143 35.9329 57.1925C35.9329 57.1925 35.9329 57.1925 35.9329 57.2707C36.1079 57.427 36.7207 58.5998 37.3334 59.8507C37.596 60.3198 37.771 60.7889 38.0336 61.258C38.7339 63.0562 40.397 64.4635 41.7975 64.3853C42.2351 64.3853 42.9354 64.1508 43.1104 62.978C43.2855 61.5707 43.1104 60.6325 42.4977 60.2416C41.885 59.8507 40.9222 60.1634 40.397 60.2416C40.4845 60.0852 40.7471 59.6943 41.2723 59.2252C41.5349 58.8343 42.0601 58.7561 42.7603 58.9125C44.0733 59.2252 45.4738 60.4762 45.4738 62.118C45.4738 62.5871 45.3862 63.0562 45.1236 63.5253C45.0361 64.3853 44.1608 65.2453 43.0229 65.7144C41.885 66.1835 40.7471 66.1054 39.7842 65.5581C38.2087 64.5417 37.6835 63.2126 37.2458 62.0398C37.2458 61.8835 37.1583 61.7271 37.0708 61.5707C37.0708 61.5707 37.0708 61.4925 36.8957 61.4144C36.8957 61.4144 36.8957 61.258 36.8957 61.1798C36.7207 60.4762 36.6331 59.8507 36.4581 59.2252C36.4581 59.1471 36.3705 59.0689 36.1955 59.0689C36.0204 59.0689 35.9329 59.0689 35.9329 59.2252C35.9329 59.3816 35.9329 59.538 35.8453 59.6161C35.8453 59.6161 35.8453 59.6943 35.8453 59.7725C36.0204 60.1634 36.1955 60.7107 36.3705 61.258C36.3705 61.3362 36.3705 61.4144 36.5456 61.4144C36.5456 61.4144 36.4581 61.5707 36.5456 61.6489C36.7207 62.3526 36.8082 63.0562 36.8082 63.5253C36.8082 64.8544 35.8453 65.3235 35.6703 65.4017C35.4952 65.3235 34.7074 64.8544 34.7074 63.5253L34.7074 63.3689C34.7074 62.978 34.795 62.5089 34.97 61.9616C34.97 61.8835 34.97 61.8053 34.8825 61.7271C34.8825 61.7271 34.7074 61.7271 34.6199 61.7271C33.8321 62.3526 32.5192 62.978 30.681 62.3526C30.506 62.2744 30.4184 62.1962 30.3309 62.118C30.3309 62.118 30.2434 62.0398 30.1558 61.9616C30.1558 61.9616 29.9808 61.9616 29.8932 61.9616C29.8932 61.9616 29.7182 62.0398 29.7182 62.118L29.7182 62.2744C29.7182 62.2744 29.7182 62.5871 29.7182 62.6653C28.9304 64.3071 27.4424 64.7762 26.392 64.7762C26.3045 64.7762 26.2169 64.7762 26.1294 64.9326C26.1294 65.0108 26.1294 65.089 26.2169 65.1672C26.7421 65.4799 27.1798 65.7144 27.5299 66.0272C28.7553 67.0435 28.5803 67.9036 28.4927 68.0599C28.3177 68.0599 27.3548 68.3727 26.2169 67.4345C25.7793 67.1217 25.3416 66.5745 24.904 65.949C24.904 65.8708 24.7289 65.7926 24.5538 65.949C24.4663 65.949 24.3788 66.1054 24.4663 66.2617C24.4663 66.4181 24.6414 66.5745 24.7289 66.7308C25.2541 67.5908 25.7793 68.6072 25.7793 69.9363C25.7793 70.2491 25.7793 70.4836 25.7793 70.7182C25.6042 71.6564 24.7289 72.5164 23.591 72.9073C22.4531 73.2982 21.2277 73.1418 20.3524 72.5946C18.1641 71.7345 17.989 70.0927 17.989 69.4672C17.989 68.6072 18.3391 67.7472 18.9519 67.3563C19.2145 67.1217 19.477 67.1217 19.8272 67.1999C20.6149 67.1999 20.9651 67.2781 21.2277 67.3563C20.6149 67.5908 19.6521 67.9817 19.6521 68.8418C19.6521 69.4672 20.1773 70.1709 21.4027 70.9527C22.1905 71.5 22.8032 71.4218 23.2409 71.2654C23.9411 70.9527 24.2913 70.1709 24.2913 69.0763C24.2913 68.2163 24.0287 67.3563 23.591 66.5745L23.1533 65.5581C22.5406 64.0726 21.9279 62.6653 21.9279 62.4307L21.9279 62.3526L21.9279 62.2744C21.9279 62.2744 21.7529 62.118 21.6653 62.118C21.5778 62.118 21.4903 62.118 21.4027 62.2744C20.4399 64.229 18.6017 66.0272 16.9386 67.5126C16.501 67.9817 15.9758 68.3727 15.6257 68.7636L14.9254 69.4672C14.9254 69.4672 14.9254 69.6236 14.9254 69.7018L14.7504 69.7018C13.7 70.64 12.9122 71.4218 12.2995 71.9691L12.0369 72.2036C12.0369 72.2036 12.0369 72.2818 12.0369 72.36C12.0369 72.6727 12.0369 72.9855 12.0369 73.1418C12.0369 73.1418 11.8618 72.9855 11.6868 72.8291L11.6868 73.3764C11.6868 73.3764 12.0369 73.6109 12.1244 73.6891C12.1244 73.6891 12.1244 73.6891 12.212 73.6891C12.2995 73.6891 12.5621 73.6891 12.5621 72.8291C12.5621 72.6727 12.5621 72.5164 12.5621 72.36L12.7372 72.2036C13.2623 71.7345 13.9626 71.0309 14.9254 70.1709C15.5381 71.5 16.501 73.6891 16.501 75.8782C16.501 78.0674 15.5381 79.7092 13.6125 80.882C12.8247 81.5856 12.212 82.2893 11.6868 82.9929L11.6868 83.6966C11.6868 83.6966 11.6868 83.6966 11.7743 83.6966C12.2995 82.9147 13.0873 82.0547 13.8751 81.2729L12.9997 81.742ZM51.3383 53.4397C51.3383 53.4397 51.3383 52.9706 51.3383 52.736C51.3383 52.1887 51.3383 51.6415 51.3383 51.016C51.3383 49.0614 51.3383 46.7941 50.5506 44.8395C50.9882 45.0741 51.9511 45.465 53.7017 46.0905L54.9271 46.5596C56.8528 47.1068 58.1658 48.436 58.1658 49.3742C58.1658 49.9996 57.5531 50.2342 57.0279 50.3124C55.5398 50.4687 54.8396 50.3124 54.577 50.0778C54.4019 49.9214 54.3144 49.7651 54.3144 49.5305C54.3144 49.2178 54.4895 48.7487 54.577 48.5141C54.577 48.2796 54.7521 48.2014 54.7521 48.045C54.7521 47.8887 54.7521 47.8105 54.6645 47.8105C54.6645 47.8105 54.4895 47.8105 54.4019 47.8105C54.2269 47.8105 53.7017 47.9669 52.8264 48.7487C52.3887 48.9832 52.1261 49.3742 52.1261 49.9214C52.1261 50.8596 52.8264 51.9542 53.8768 52.5797C55.0147 53.2833 56.5027 53.4397 57.9032 52.9706C59.6538 52.8142 61.1418 51.0942 61.1418 49.3742C61.1418 48.7487 60.9668 48.1232 60.5291 47.5759C59.7413 46.5596 58.7785 46.0123 57.8156 45.6995C59.7413 45.6995 60.4416 44.4486 60.4416 44.2141C60.4416 44.1359 60.2665 43.8232 60.0039 43.5886C59.6538 43.2759 58.9535 42.8849 57.6406 42.9631C57.2905 42.9631 57.0279 42.9631 56.5902 43.0413C57.378 42.0249 57.5531 40.8522 56.9403 39.4449C56.9403 39.3667 56.8528 39.2885 56.7653 39.2103C56.8528 39.2103 56.9403 39.2103 57.1154 39.2103C58.5159 38.6631 59.3912 37.7249 59.6538 36.4739C59.8289 36.7085 60.0915 36.943 60.2665 37.1776C61.2294 38.0376 62.0171 38.194 62.6299 38.194C62.8924 38.194 63.2426 38.194 63.3301 37.9594C63.3301 37.9594 63.5052 37.5685 63.5052 37.1776C63.5052 36.7085 63.3301 36.083 62.6299 35.3794C63.5927 35.6921 64.6431 35.9267 66.0436 35.6921C68.0568 35.3794 69.1072 33.5812 69.1072 32.0957C69.1072 31.392 68.8446 30.7666 68.4944 30.2975C67.3565 28.1083 65.1683 27.7174 63.5927 28.0301C62.2797 28.2647 61.4044 28.9683 61.4044 29.7502C61.4044 29.8284 61.4044 29.9847 61.4044 29.9847C61.4044 31.1575 61.667 31.5484 61.7545 31.7048C61.7545 31.8611 61.9296 31.8611 62.0171 31.8611C62.2797 31.8611 62.3673 31.7048 62.5423 31.3138C62.8049 30.9229 63.0675 30.2193 63.6802 30.1411C64.2054 30.1411 64.9057 30.532 65.6934 31.4702C66.2186 32.0957 66.2186 32.643 65.5184 33.0339C64.7306 33.503 62.98 33.5812 61.3169 32.7993L60.179 32.4084C58.4284 31.7829 57.378 31.4702 56.8528 31.3138C58.9536 30.3756 60.7042 28.812 62.3673 27.4047C62.8049 27.0138 63.2426 26.6229 63.6802 26.2319L64.2929 25.6846C65.1683 26.2319 66.3937 27.0138 67.9692 27.7956C69.1947 28.6556 71.0328 28.9683 73.1336 28.7338C75.672 28.4211 78.0353 27.3265 79.1732 25.9974C80.3987 24.9028 81.5366 24.0428 82.5869 23.261C82.9371 23.3392 83.3747 23.4173 83.6373 23.4173C82.6745 24.3555 82.2368 25.6847 82.1493 26.6229C82.1493 26.6229 82.1493 26.6228 82.1493 26.701C81.6241 26.3101 81.0114 26.1538 80.4862 26.2319C78.7356 26.2319 78.0353 27.4829 77.9478 28.3429C78.0353 29.2811 78.2979 29.672 78.473 29.8284C78.473 29.8284 78.473 29.9847 78.648 29.9847C78.8231 29.9847 78.9106 29.9847 78.9982 29.8284C79.961 28.5774 80.2236 28.6556 80.2236 28.6556C80.2236 28.6556 80.3987 28.812 80.3987 29.2811C78.9106 31.9393 72.6084 30.6884 70.5952 30.2975C69.8074 30.1411 69.8074 30.1411 69.6323 30.2975C69.6323 30.2975 69.5448 30.4538 69.6323 30.532C69.6323 30.6884 69.7199 30.8447 69.9825 31.1575C70.4201 31.7048 71.2954 32.7993 71.4705 34.4412C71.4705 34.8321 71.4705 35.223 71.4705 35.6139C71.4705 37.4903 70.7702 39.5231 68.9321 39.6794C68.1443 39.6794 67.9692 39.6013 67.8817 39.6013C67.8817 39.3667 69.0196 38.8976 69.4573 38.6631C70.07 38.3503 70.1575 38.3503 70.1575 38.194L70.1575 38.0376L69.9825 38.0376C69.6323 37.803 68.9321 37.7249 68.3194 37.6467C67.9692 37.6467 66.1311 37.5685 65.3433 39.2103C64.9932 40.0704 65.3433 41.0867 66.3062 41.7904C67.1815 42.4159 68.3194 42.7286 69.3697 42.5722C70.6827 43.1977 71.9957 43.5104 73.3962 43.5104C74.0964 43.5104 74.8842 43.5886 75.5844 43.6668C78.5605 43.8231 81.7116 43.9795 82.3243 45.8559C82.3243 46.0123 82.3243 46.0905 82.3243 46.1686C82.3243 46.7159 81.8867 46.8723 81.6241 46.9505C81.0114 47.1068 80.3111 46.8723 80.0485 46.4814C79.4358 45.5432 78.9106 45.1523 78.9106 45.1523L78.7356 45.1523C78.7356 45.1523 78.5605 45.1523 78.5605 45.2304C78.5605 45.2304 78.3854 45.5432 78.3854 46.2468C78.3854 46.5596 78.3854 46.8723 78.3854 47.185C78.3854 47.185 78.3854 47.2632 78.3854 47.3414C78.3854 47.3414 78.3854 47.3414 78.2979 47.3414C76.9849 48.2796 76.8099 48.7487 76.8099 48.8269L76.8099 48.9832C76.8099 48.9832 76.8974 49.0614 76.9849 49.0614C76.9849 49.0614 77.6852 49.0614 78.9106 48.8269C79.1732 48.7487 79.5233 48.8269 79.8735 49.0614C80.2236 49.296 80.4862 49.6869 80.4862 49.9996C80.4862 50.3124 80.3111 50.5469 79.961 50.7033C77.9478 51.6415 75.5844 49.7651 73.3086 47.9669C72.7835 47.5759 72.2583 47.1068 71.7331 46.7159C70.6827 45.8559 69.4573 45.2304 68.1443 44.8395C67.4441 43.9013 66.0436 43.354 64.7306 43.4322C63.7678 43.4322 63.0675 43.9013 62.7174 44.605C62.5423 44.9177 62.4548 45.3086 62.4548 45.6214C62.4548 46.6377 63.2426 47.3414 63.5052 47.5759C63.7678 47.7323 64.5555 48.2796 65.0807 48.3578C65.0807 48.3578 65.2558 48.436 65.3433 48.3578C65.4308 48.3578 65.5184 48.2014 65.5184 48.1232C65.5184 48.045 65.5184 47.8887 65.3433 47.4978C65.1683 47.0287 64.9932 46.325 64.9932 45.9341L64.9932 45.8559C64.9932 45.8559 65.2558 46.0123 65.781 46.4032C66.1311 46.7941 66.3062 47.185 66.3062 47.7323C66.3062 49.2178 64.7306 50.7815 63.4176 51.7196C62.0171 52.736 60.5291 52.9706 59.7413 53.1269C59.3912 53.1269 59.1286 53.2051 59.0411 53.3615C59.0411 53.3615 59.0411 53.4397 59.0411 53.5179C59.0411 53.6742 59.0411 53.6742 59.7413 54.0651C61.3169 55.0033 66.0436 57.6616 66.0436 60.3198C66.0436 60.5543 66.0436 60.7889 65.956 61.0234C65.4308 61.4144 65.2558 61.3362 65.2558 61.3362C65.2558 61.3362 65.1683 61.1798 65.1683 60.8671C65.1683 60.5543 65.1683 60.1634 65.3433 59.6943L65.3433 59.6161C65.3433 59.538 65.3433 59.3816 65.1683 59.3816C65.1683 59.3816 65.0807 59.3816 64.9932 59.3816C64.8181 59.3816 64.2929 59.538 63.4176 60.1634C63.155 60.398 62.8924 60.9453 62.8924 61.5707C62.8924 62.1962 63.155 62.7435 63.6802 63.2126C64.0303 63.6035 64.5555 63.838 65.2558 63.9162C65.2558 63.9162 65.2558 63.9162 65.1683 63.9944C64.468 64.6199 63.7678 65.8708 63.6802 67.1999C63.4176 66.9654 63.155 66.809 62.8049 66.5745C62.6299 65.4017 62.5423 64.0726 62.5423 62.5089C62.5423 62.2744 62.5423 62.0398 62.5423 61.8053C62.5423 58.7561 59.4787 54.5342 56.1526 54.1433C54.3144 53.6742 52.8264 53.4397 51.776 53.3615L51.3383 53.4397ZM49.8503 58.5998L50.0254 58.5998C50.0254 58.5998 50.6381 59.2252 50.9007 59.3034L51.0758 59.3034C51.0758 59.3034 51.2508 59.3034 51.2508 59.1471C51.2508 58.9907 51.3383 58.8343 51.3383 58.5216C51.6885 58.5216 51.8635 58.5216 52.0386 58.4434C52.1261 58.4434 52.2137 58.3652 52.2137 58.2089C52.2137 58.2089 52.2137 58.2089 52.2137 58.1307C52.1261 57.9743 51.776 57.6616 51.4259 57.3488L51.4259 57.1925C51.4259 56.4888 51.4259 55.5506 51.4259 54.2997C53.9643 55.2379 59.2161 57.2707 59.2161 61.4925C59.2161 61.8835 59.2161 62.2744 59.0411 62.7435C59.0411 63.7599 59.2161 64.7762 59.3912 65.6363C58.3408 65.4017 57.2905 65.3235 56.1526 65.3235C50.5506 66.2617 47.8371 60.9453 46.7867 58.5216C48.1872 58.5216 49.2376 58.5216 50.0254 58.5216L49.8503 58.5998ZM14.7504 70.0145L15.3631 69.4672C15.8007 69.0763 16.2384 68.6072 16.6761 68.2163C18.2516 66.809 20.0022 65.2453 20.9651 63.3689C21.1401 63.838 21.4903 64.7762 22.1905 66.2617L22.6282 67.2781C23.0658 67.9818 23.2409 68.8418 23.2409 69.5454C23.2409 70.4836 22.8908 71.1873 22.4531 71.3436C22.0154 71.5782 21.4903 71.3436 21.1401 71.1091C20.0898 70.4054 19.6521 69.8581 19.6521 69.389C19.6521 68.8418 20.4399 68.529 20.8775 68.2945C21.2277 68.1381 21.4027 68.0599 21.4027 67.9036C21.4027 67.9036 21.4027 67.7472 21.2277 67.669C21.0526 67.5908 20.6149 67.3563 19.3895 67.3563C18.9519 67.2781 18.5142 67.3563 18.1641 67.5908C17.4638 68.0599 17.0262 69.0763 17.0262 70.0927C17.0262 71.6564 17.989 72.9073 19.6521 73.6109C20.5274 74.2364 21.9279 74.3928 23.2409 73.9237C24.5538 73.4546 25.5167 72.5946 25.7793 71.4218C25.7793 71.1091 25.7793 70.7963 25.7793 70.5618C25.7793 69.7018 25.6042 68.9981 25.3416 68.3727C26.7421 69.5454 28.1426 69.0763 28.2301 68.9981C28.4052 68.9199 28.4927 68.6072 28.4927 68.2945C28.4927 67.8254 28.3177 67.1217 27.3548 66.3399C27.0922 66.1054 26.8297 65.949 26.5671 65.7926C27.88 65.5581 29.0179 64.7762 29.6306 63.4471C29.6306 63.3689 29.6306 63.2908 29.6306 63.2126C29.6306 63.2126 29.8057 63.3689 29.8932 63.3689C31.2937 63.838 32.6942 63.7599 33.8321 63.0562C33.8321 63.3689 33.8321 63.6817 33.7446 63.9162C33.7446 65.2453 34.2698 65.8708 34.6199 66.1835C34.6199 66.1835 34.97 66.4963 35.2326 66.4181C35.4952 66.4181 36.7207 65.8708 36.8082 64.1508L36.8082 64.0726C37.2458 64.9326 37.8586 65.7926 38.9965 66.4963C40.0468 67.1217 41.4473 67.1999 42.6728 66.7308C43.9857 66.1835 44.861 65.2453 45.0361 64.229C45.2112 63.6817 45.3862 63.2126 45.3862 62.7435C45.3862 60.8671 43.8982 59.538 42.3226 59.1471C41.3598 58.9125 40.572 59.1471 40.3094 59.6161C39.3466 60.4762 39.2591 60.9453 39.2591 61.1016C39.2591 61.1016 39.2591 61.1016 39.2591 61.1798C39.2591 61.1798 39.2591 61.3362 39.4341 61.4144C39.6092 61.4925 39.7842 61.4144 40.1344 61.4144C40.572 61.258 41.3598 61.0234 41.7975 61.258C42.2351 61.5707 42.4102 62.3526 42.2351 63.5253C42.2351 63.9944 41.9725 64.4635 41.3598 64.5417C40.397 64.6199 38.8214 63.4471 38.1212 61.6489C37.8586 61.1016 37.596 60.6325 37.4209 60.1634C36.8082 58.8343 36.3705 58.1307 36.1955 57.7398C38.3838 58.4434 40.9222 58.4434 43.198 58.4434C43.8107 58.4434 44.4234 58.4434 45.0361 58.4434L45.9114 58.4434C46.0865 59.3816 46.3491 60.7107 46.7867 62.2744C46.9618 63.6035 48.0122 65.0108 49.6753 66.1835C51.6885 67.5126 54.2269 68.2945 56.1526 68.0599C57.8156 68.0599 59.3037 68.0599 60.7042 68.2945C60.8792 68.6072 61.1418 68.8418 61.4044 69.0763C59.9164 69.0763 58.6034 69.78 57.7281 70.4836C57.7281 69.8581 57.378 69.389 56.9403 69.0763C55.5398 67.9036 53.9643 68.529 53.5266 68.9199C52.9139 69.6236 52.7388 70.0145 52.6513 70.2491L52.6513 70.4836C52.6513 70.4836 52.8264 70.4836 52.9139 70.4836C54.0518 70.2491 54.577 70.3272 54.7521 70.4836C54.7521 70.4836 54.7521 70.7182 54.4019 71.0309C51.2508 71.9691 47.7496 67.1217 46.6117 65.4799C46.174 64.8544 46.174 64.8544 45.9114 64.8544C45.7364 64.9326 45.6488 65.1672 45.6488 65.5581C45.4738 66.2617 45.2987 67.5126 44.0733 68.7636C43.1104 69.9363 41.4473 71.1873 39.8718 71.3436C39.2591 71.3436 38.6463 71.2654 38.2087 70.8745C37.596 70.3272 37.596 70.1709 37.5084 70.1709C37.771 70.0927 38.9965 70.4054 39.3466 70.5618C39.9593 70.7182 40.0468 70.7182 40.1344 70.64C40.2219 70.64 40.2219 70.4054 40.1344 70.3272C40.1344 70.1709 39.9593 69.78 39.2591 68.9199C38.9965 68.6854 37.8586 67.5126 35.9329 68.1381C35.0576 68.529 34.5324 69.2327 34.5324 70.2491C34.5324 71.3436 35.1451 72.4382 36.1079 72.9855C36.5456 74.2364 37.1583 75.331 38.1212 76.191C38.5588 76.6601 39.084 77.2074 39.6092 77.6765C41.2723 79.3183 42.9354 80.9602 42.9354 82.5238C42.9354 82.9147 42.9354 83.2275 42.6728 83.5402C42.4102 83.9311 42.0601 84.1657 41.6224 84.0093C41.0972 83.8529 40.572 83.3056 40.572 82.8365C40.572 82.8365 40.572 82.6802 40.572 82.602C40.8346 81.5856 40.8346 80.882 40.8346 80.882C40.8346 80.882 40.8346 80.7256 40.7471 80.7256C40.7471 80.7256 40.6596 80.7256 40.572 80.7256C40.4845 80.7256 39.9593 80.882 38.9089 82.0547C38.9089 82.0547 38.9089 82.0547 38.9089 82.2111C38.9089 82.2111 38.8214 82.2111 38.7339 82.2111C37.0708 82.0547 36.5456 82.2111 36.4581 82.2893C36.4581 82.2893 36.4581 82.3675 36.3705 82.4456L36.3705 82.602C36.3705 82.602 36.8082 83.0711 37.8586 83.6966C38.2087 83.8529 38.4713 84.2438 38.4713 84.7129C38.4713 85.0257 38.2962 85.3384 38.1212 85.4948C37.8586 85.6511 37.596 85.7293 37.2458 85.6511C35.0576 85.0257 34.8825 82.2893 34.7074 79.5529C34.7074 78.9274 34.7074 78.2237 34.5324 77.5983C34.5324 76.3473 34.1823 75.0964 33.482 74.0019C33.7446 72.8291 33.0444 71.4218 31.9065 70.7182C31.2062 70.3272 30.506 70.2491 29.8057 70.4836C28.2302 71.0309 27.9676 72.2036 27.9676 72.9073L27.9676 73.0637C27.9676 73.0637 28.1426 74.2364 28.4927 74.5491C28.4927 74.5491 28.4927 74.7837 28.6678 74.7837C28.9304 74.7837 28.9304 74.7837 29.2805 74.1582C29.5431 73.7673 30.0683 72.8291 30.2434 72.7509C30.2434 72.7509 30.4184 72.9073 30.4184 73.6891C30.4184 74.2364 30.0683 74.7055 29.5431 75.0964C28.3177 75.9564 26.2169 76.1128 24.5538 75.8782C22.7157 75.7219 21.5778 74.9401 20.8775 74.5491C20.5274 74.3146 20.3524 74.2364 20.1773 74.2364C20.1773 74.2364 20.1773 74.2364 20.0898 74.2364C20.0022 74.2364 19.9147 74.3928 19.9147 74.471C19.9147 74.5491 19.9147 74.7055 20.0898 75.1746C20.3524 76.191 20.79 78.0674 20.79 79.9438C20.79 82.0547 20.1773 83.3838 18.9519 83.9311C18.3391 83.9311 18.1641 83.7747 18.1641 83.6966C18.1641 83.5402 18.4267 83.2275 19.5646 82.602C19.5646 82.602 19.7396 82.4456 19.7396 82.3675C19.7396 82.3675 19.7396 82.2111 19.6521 82.2111C19.477 82.0547 19.0394 81.8984 17.9015 81.742C17.2888 81.742 15.7132 82.2893 15.6257 84.0093C15.6257 84.4784 15.8007 85.0257 16.2384 85.4948C16.2384 85.4948 16.1509 85.4948 16.0633 85.4948C15.013 85.4948 13.5249 85.9639 12.4746 86.8239C12.4746 86.5112 12.4746 86.1984 12.2995 85.8075C13.0873 84.8693 14.1377 83.8529 15.2756 82.8366C17.1137 81.5856 18.5142 78.8492 18.5142 76.2692C18.5142 74.8619 18.1641 73.7673 17.4638 72.9073C16.5885 71.5 15.7132 70.3272 15.013 69.6236L14.7504 70.0145Z" fill="#CA943A"/>
<path d="M12.9148 95.1911C13.6151 94.5656 14.4029 93.9401 15.1906 93.3929C16.8537 92.2201 18.3418 91.0474 18.7794 89.7964C18.7794 89.5619 18.8669 89.3273 18.8669 89.0928C18.8669 88.2328 18.4293 87.5291 18.0792 87.06C18.0792 87.06 17.9041 86.9818 17.8166 86.9818C17.2914 87.06 16.5911 87.2164 15.9784 87.2946C14.4904 87.92 13.265 89.0928 13.1774 90.031C13.0024 90.2655 13.0024 90.4219 13.1774 90.5783C13.44 90.7346 13.8777 90.7346 14.5779 90.7346C14.5779 90.8128 14.5779 91.0474 14.2278 91.4383L14.2278 91.5946C14.2278 91.9074 13.6151 92.2983 12.8273 92.2983C12.3021 92.2983 11.0767 92.0637 11.0767 90.1092C11.0767 89.5619 11.2517 89.0928 11.5143 88.6237C11.5143 88.6237 11.5143 88.4673 11.5143 88.3891C11.5143 88.311 11.3393 88.1546 11.2517 88.0764C11.1642 87.92 10.9892 87.6855 10.8141 87.4509C10.8141 87.4509 10.8141 87.4509 10.7266 87.4509L10.7266 88.1546C10.7266 88.1546 10.8141 88.311 10.9016 88.311C10.9016 88.3891 10.9892 88.4673 11.0767 88.5455C10.9016 88.8582 10.8141 89.0928 10.7266 89.4055L10.7266 90.8128C11.0767 92.5328 12.3897 92.6892 12.9148 92.6892C13.8777 92.6892 14.753 92.1419 14.753 91.5165C14.753 91.5165 15.1031 90.8128 15.1031 90.5783C15.1031 90.4219 15.1031 90.2655 15.1031 90.2655C15.1031 90.1092 14.9281 90.1873 14.6655 90.1873C14.1403 90.1873 13.7901 90.1873 13.6151 90.1873C13.6151 90.1873 13.6151 90.1092 13.6151 90.031C13.6151 89.2491 14.753 88.1546 16.066 87.6073C16.6787 87.6073 17.2914 87.4509 17.8166 87.2946C18.1667 87.6855 18.4293 88.3109 18.4293 89.0146C18.4293 89.2491 18.4293 89.4055 18.4293 89.6401C17.9916 90.8128 16.5036 91.9074 15.0156 93.0801C14.2278 93.7056 13.3525 94.2529 12.6522 94.9565C11.952 95.582 11.3393 96.2856 10.8141 96.9111L10.8141 97.6147C10.8141 97.6147 10.8141 97.6147 10.9016 97.6147C11.3393 96.8329 12.0395 96.0511 12.9148 95.2693L12.9148 95.1911Z" fill="#CA943A"/>
<path d="M56.679 72.7512C56.854 73.4549 57.2042 74.5494 58.4296 75.1749C59.8301 75.8003 61.7558 75.644 63.8565 75.4876C64.8194 75.4094 65.8697 75.3313 66.8326 75.3313C68.058 75.3313 69.1959 75.4876 70.1588 75.7222C70.2463 75.7222 70.3338 75.7222 70.4213 75.7222C70.4213 75.7222 70.4213 75.644 70.4213 75.5658C70.1588 74.7058 69.9837 73.7676 69.9837 72.5948C69.9837 71.7348 70.0712 70.7966 70.1588 69.9366C70.2463 69.0766 70.3338 68.2166 70.3338 67.4348C70.3338 66.4184 70.1588 65.6365 69.8086 65.0111C69.1084 63.9165 67.9705 63.6038 67.0952 63.4474C67.0076 63.4474 66.9201 63.4474 66.8326 63.5256C66.57 63.9165 66.1323 64.4638 65.7822 64.9329C65.5196 65.4802 65.4321 66.1056 65.4321 66.7311C65.4321 67.5129 65.6071 68.2166 66.0448 68.6075C66.0448 68.842 66.2199 68.9202 66.3074 68.9984C66.6575 69.0766 67.0952 68.6857 67.5328 68.2166C67.5328 68.2948 67.7954 68.5293 67.8829 68.9202C67.8829 68.9202 67.8829 68.9984 67.9705 68.9984C68.058 69.0766 68.1455 69.233 68.1455 69.3893C68.1455 69.8584 67.7954 70.4839 67.0952 70.7184C66.3949 71.0312 65.5196 70.7184 64.5568 69.9366C64.2066 69.5457 63.8565 69.1548 63.6815 68.6075C63.6815 68.6075 63.6815 68.4511 63.5064 68.4511C63.4189 68.4511 63.2438 68.4511 63.0687 68.3729C62.8061 68.3729 62.6311 68.2948 62.281 68.2166C62.281 68.2166 62.1059 68.2166 62.0184 68.2166C62.0184 68.2166 62.0184 68.3729 62.0184 68.4511C62.0184 68.7639 62.1934 68.9202 62.1934 69.1548C62.1934 69.3111 62.281 69.4675 62.281 69.6239C62.281 69.7021 62.281 69.7802 62.456 69.7802C62.9812 69.9366 63.5064 70.1712 63.8565 70.5621C64.4692 71.1875 64.8194 71.7348 64.8194 72.2821C64.8194 72.9858 64.2066 73.4549 63.6815 73.6112C63.3313 73.7676 62.9812 73.6894 62.8061 73.6112C62.8061 73.6112 62.8061 73.6112 62.6311 73.6112C62.1934 73.4549 61.9308 73.3767 61.8433 73.2985C62.456 72.8294 62.7186 72.5167 62.7186 72.2821C62.7186 72.2039 62.7186 71.9694 62.281 71.8912C61.4932 71.2657 59.7426 71.1875 58.167 71.6566C57.6418 71.9694 57.1166 72.3603 56.5914 72.5948C56.5914 72.5948 56.5039 72.7512 56.5039 72.8294L56.679 72.7512ZM62.8937 69.3893C62.8937 69.3893 62.8937 69.1548 62.8937 69.0766C62.8937 68.9984 62.8937 68.842 62.8061 68.7639C62.9812 68.7639 63.0687 68.7639 63.2438 68.842C63.4189 68.842 63.5064 68.842 63.5939 68.842C63.769 69.3111 64.0316 69.7021 64.3817 70.093C64.0316 69.7802 63.5939 69.5457 63.0687 69.3893L62.8937 69.3893ZM62.281 72.1257C62.281 72.1257 62.281 72.1257 62.456 72.1257C62.456 72.1257 62.281 72.4385 61.8433 72.7512C61.6682 72.9076 61.5807 72.9076 61.5807 73.0639C61.5807 73.0639 61.5807 73.533 62.7186 73.8458C62.9812 74.0803 63.5064 74.1585 64.0316 74.0021C64.8194 73.7676 65.5196 73.1421 65.5196 72.2039C65.5196 71.5785 65.1695 70.953 64.5568 70.3275C65.8697 71.4221 66.9201 71.2657 67.4453 71.0312C68.3206 70.7184 68.7583 69.8584 68.7583 69.3111C68.7583 68.9984 68.7583 68.842 68.4957 68.6857C68.2331 67.8257 67.8829 67.6693 67.7079 67.6693C67.5328 67.6693 67.4453 67.6693 67.2702 67.9039C66.9201 68.2166 66.745 68.4511 66.57 68.5293C66.57 68.5293 66.57 68.4511 66.57 68.3729C66.0448 67.7475 65.8697 66.262 66.3949 65.0893C66.745 64.6202 67.0952 64.1511 67.3578 63.8383C68.1455 63.9947 69.0208 64.3074 69.6336 65.1674C69.9837 65.7147 70.0712 66.4184 70.0712 67.3566C70.0712 68.1384 70.0712 68.9202 69.8962 69.8584C69.8962 70.7966 69.7211 71.6566 69.7211 72.5948C69.7211 73.6112 69.8086 74.4712 70.0712 75.3313C69.1959 75.0967 68.1455 75.0185 67.0076 75.0185C66.0448 75.0185 64.9944 75.0967 63.944 75.1749C61.9308 75.3313 60.0052 75.4876 58.7797 74.9403C57.8169 74.4712 57.4667 73.6894 57.2917 72.9858C57.7293 72.7512 58.2545 72.4385 58.6922 72.1257C60.0927 71.6566 61.7558 71.7348 62.3685 72.2821L62.281 72.1257Z" fill="#CA943A"/>
<path d="M13.265 68.0609C13.265 68.0609 13.265 67.9827 13.265 67.9045L13.265 67.5918C13.265 66.419 13.44 64.7772 13.7901 62.9008C14.0527 61.8844 14.1403 60.7117 14.1403 59.5389C14.1403 58.1316 13.9652 56.7243 13.6151 55.4734C13.1774 54.7698 12.7398 54.0661 12.3897 53.3625C12.3897 53.3625 12.3897 53.2843 12.2146 53.2843C12.2146 53.2843 12.1271 53.2843 12.0395 53.2843C11.952 53.2843 11.8645 53.2843 11.7769 53.2061C11.4268 52.9715 11.0767 52.737 10.7266 52.4243L10.7266 52.9715C10.7266 52.9715 11.2517 53.3625 11.5143 53.5188C11.6894 53.5188 11.7769 53.597 11.8645 53.6752C12.2146 54.3007 12.6522 55.0043 13.0899 55.708C13.44 56.8807 13.6151 58.288 13.6151 59.6171C13.6151 60.7899 13.44 61.8844 13.265 62.9008C12.9148 64.8554 12.7398 66.4972 12.7398 67.67L12.7398 67.8263C11.8645 68.6082 11.2517 69.4682 10.7266 70.1718L10.7266 70.8755C10.7266 70.8755 10.7266 70.8755 10.8141 70.8755C11.3393 69.9373 12.1271 68.9991 13.1774 68.0609L13.265 68.0609Z" fill="#CA943A"/>
<path d="M22.543 64.9334C22.8931 65.4025 23.3307 65.9498 23.7684 66.5752C23.7684 66.6534 24.031 66.7316 24.1185 66.5752C24.1185 66.5752 24.2061 66.4971 24.2061 66.4189C24.2061 66.4189 24.2061 66.4189 24.2061 66.3407C23.8559 65.8716 23.5933 65.3243 23.4183 65.0116C23.4183 65.0116 23.4183 64.9334 23.3307 64.9334C23.1557 64.9334 23.0682 64.777 22.9806 64.6989C22.8931 64.6989 22.718 64.6989 22.6305 64.6989C22.6305 64.6989 22.6305 64.8552 22.6305 65.0116L22.543 64.9334Z" fill="#CA943A"/>
<path d="M59.2183 27.0932L59.6559 26.6241C59.6559 26.6241 59.6559 26.5459 59.6559 26.4678L59.6559 26.3896C59.6559 26.3114 59.4809 26.3114 59.3934 26.3114C58.4305 26.546 57.5552 26.7805 56.5048 26.9369C53.8789 27.4841 50.0275 26.9369 47.5767 25.7641C47.0515 25.295 46.5263 24.9041 46.0886 24.5914C46.0886 24.5914 45.9136 24.5914 45.826 24.5914C45.826 24.5914 45.651 24.6695 45.651 24.7477C45.651 26.3896 44.0754 28.0314 42.2373 28.4223C39.6989 28.8914 37.9482 27.5623 36.7228 26.5459C36.7228 26.5459 36.3727 26.5459 36.2852 26.5459C36.2852 26.5459 36.2852 26.7805 36.2852 26.8587C36.6353 27.2496 37.0729 27.6405 37.4231 27.9532C39.9615 30.7678 44.338 33.2697 48.1018 32.566C49.5899 32.3315 49.8525 31.6279 49.8525 31.2369C49.8525 30.4551 49.0647 29.5951 48.452 29.3605C48.1894 29.2824 48.0143 29.3605 47.9268 29.3605C47.4891 29.5951 47.0515 29.986 46.7889 30.1424C46.7889 29.8296 46.9639 29.3605 47.4891 28.6569C47.8393 28.3442 48.2769 28.266 48.8896 28.3442C49.7649 28.4223 50.6402 28.9696 51.1654 29.6733C51.6031 29.986 51.6906 30.5333 51.6906 30.9242C51.6906 31.0024 51.7782 31.0806 51.8657 31.1588C52.3909 31.1588 53.8789 31.3933 55.3669 30.4551C56.6799 29.6733 57.9053 28.4223 59.1308 27.0932L59.2183 27.0932ZM51.5156 29.3605C50.9028 28.5787 49.94 27.9532 48.9772 27.8751C48.2769 27.8751 47.6642 27.9532 47.139 28.3442C46.6138 29.0478 46.2637 29.6733 46.2637 30.1424C46.2637 30.2987 46.2637 30.4551 46.2637 30.4551C46.2637 30.4551 46.2637 30.4551 46.2637 30.5333C46.2637 30.5333 46.3512 30.6897 46.4388 30.6897C46.6138 30.6897 46.7014 30.6897 46.9639 30.3769C47.2265 30.1424 47.5767 29.8296 48.1018 29.5169C48.1018 29.5169 48.2769 29.5169 48.452 29.7515C48.8021 30.0642 49.2397 30.5333 49.2397 31.0024C49.2397 31.4715 48.8021 31.7842 47.9268 31.9406C44.6006 32.5661 40.7492 30.5333 38.2108 28.0314C39.2612 28.5787 40.6617 28.9696 42.2373 28.6569C44.1629 28.266 45.7385 26.6241 46.0011 24.9823C46.3512 25.295 46.7014 25.5296 47.139 25.9205C49.4148 27.015 53.3537 27.7969 56.4173 27.1714C57.2051 27.015 57.9053 26.9369 58.6056 26.7805C57.3801 28.0314 56.1547 29.2824 54.9293 29.986C53.8789 30.6897 52.741 30.6897 51.9532 30.6115C51.9532 29.986 51.6031 29.5169 51.253 29.2042L51.5156 29.3605Z" fill="#CA943A"/>
</g>
<path d="M40.5788 21.6948C34.6872 33.79 8.13051 42.1509 4.09197 38.0572C4.76063 36.176 6.34761 32.2195 7.3462 31.4429C8.59445 30.472 13.3739 20.6674 17.3641 15.0984C21.3542 9.52938 22.2504 12.762 24.6722 12.8047C27.094 12.8474 36.6744 14.5652 37.3785 15.1733C38.0827 15.7814 49.211 3.97328 40.5788 21.6948Z" fill="#00664E"/>
<defs>
<clipPath id="clip0_12_2819">
<rect width="83.7342" height="93.6582" fill="white" transform="translate(10.8164 105.979) rotate(-90)"/>
</clipPath>
</defs>
</svg>
