<svg width="57" height="57" viewBox="0 0 57 57" fill="none" xmlns="http://www.w3.org/2000/svg">
<g clip-path="url(#clip0_12_3399)">
<path d="M23.4922 23.3643C23.2791 22.7256 23.1725 21.9273 23.1193 20.9693C23.1193 20.9693 23.1193 20.9161 23.1193 20.8629C22.6931 20.4903 22.0006 19.692 20.9884 18.255C20.1361 16.9245 18.751 15.594 17.366 14.7424C16.8333 14.5827 16.3006 14.4231 15.8211 14.2634C15.8211 14.2634 15.7679 14.2634 15.7146 14.2634C15.7146 14.2634 15.6613 14.2634 15.608 14.2634C15.5548 14.2634 15.5015 14.3166 15.4482 14.3166C15.1819 14.3166 14.9155 14.3699 14.6492 14.3699C14.6492 14.3699 14.5959 14.3699 14.5426 14.3699C14.5426 14.3699 14.4894 14.4231 14.5426 14.4763C14.5426 14.7424 14.5426 15.0085 14.4894 15.2214C14.4894 15.2746 14.4894 15.3811 14.3828 15.4343C14.3828 15.4343 14.3828 15.4875 14.3828 15.5407C14.3828 15.5407 14.3828 15.594 14.3828 15.6472C14.5426 16.0729 14.7024 16.6052 14.8623 17.1906C15.7146 18.6276 16.9931 19.9581 18.3249 20.8096C19.8165 21.8208 20.5623 22.5659 20.9884 22.9385C20.9884 22.9385 21.0417 22.9385 21.095 22.9385C22.0006 22.9385 22.7996 23.0982 23.4922 23.311C23.5454 23.311 23.5987 23.311 23.652 23.311C23.652 23.311 23.652 23.2578 23.652 23.2046L23.4922 23.3643ZM20.9884 22.832C20.5623 22.4063 19.7632 21.7144 18.3249 20.7032C17.0464 19.9049 15.7146 18.5211 14.9688 17.1906C14.809 16.6584 14.6492 16.1262 14.4894 15.7004C14.4894 15.6472 14.5426 15.5407 14.5959 15.4343C14.5959 15.2214 14.6492 15.0085 14.6492 14.7424C14.9155 14.7424 15.1286 14.7424 15.395 14.6892C15.5015 14.6892 15.5548 14.636 15.608 14.5827C16.0875 14.7424 16.5669 14.9021 17.0996 15.0085C18.4314 15.8068 19.8165 17.0841 20.6155 18.4147C21.6277 19.8517 22.3202 20.65 22.7464 21.0757C22.7464 21.8741 22.9062 22.6192 23.066 23.2046C22.4267 23.0449 21.7342 22.9385 20.9351 22.8853L20.9884 22.832Z" fill="#CA943A"/>
<path d="M0.213084 56.9468C0.213084 56.9468 0.213084 56.8936 0.213084 56.8403C0.213084 56.8403 0.213084 56.7339 0.213084 56.5742C0.585981 55.9888 1.81122 54.4986 6.49907 54.7115C9.53551 54.8179 13.5841 53.5406 15.1822 50.9328C15.8215 52.2633 17.4729 52.902 18.6449 53.381C18.8579 53.4874 19.071 53.5406 19.2841 53.6471C20.8822 54.2857 21.628 54.7647 22.0542 55.0308C22.2673 55.1373 22.3738 55.2437 22.4804 55.2437C22.4804 55.2437 22.4804 55.2437 22.5336 55.2437C22.5869 55.2437 22.6935 55.2437 22.6935 55.0308C22.7467 55.084 22.8533 55.1373 22.9065 55.084C22.9065 55.084 23.0131 55.0308 23.0131 54.9776C23.0664 54.8711 23.1196 54.7647 23.1729 54.4986C23.2794 54.0196 23.4393 53.1681 24.1318 51.6246C24.185 51.465 24.2916 51.2521 24.3981 51.0392C24.8243 50.1345 25.3037 49.0168 25.3037 47.8459C25.3037 47.4734 25.3037 47.1541 25.1439 46.8347C28.1271 47.4734 31.9093 45.5574 33.9869 43.3221C37.1299 39.916 39.0477 40.1289 39.7402 40.2353C39.8467 40.395 39.9 40.4482 39.9533 40.4482C39.9533 40.4482 39.9533 40.4482 40.0598 40.4482C40.1664 40.4482 40.2196 40.4482 40.2196 40.395L40.2729 40.2885L40.3794 40.2885C40.3794 40.2885 40.4327 40.1821 40.4327 40.1289C40.4327 40.1289 40.4327 40.0756 40.4327 40.0224C40.4327 40.0224 40.3794 39.916 40.2196 39.8095C40.2196 39.6499 40.2196 39.4902 40.2196 39.2773C40.2196 37.7339 41.285 36.0308 43.3626 34.1148C45.1206 32.465 46.985 29.4314 46.985 26.5574C46.985 26.1317 46.985 25.7059 46.8252 25.2801C48.2636 25.7591 49.8617 25.0672 51.0336 24.535C51.2467 24.4286 51.4065 24.3754 51.6196 24.2689C53.2178 23.577 54.0701 23.3641 54.5495 23.3109C54.7626 23.3109 54.9224 23.2577 55.029 23.1513C55.029 23.1513 55.1888 22.9916 55.029 22.8319C55.0822 22.8319 55.1355 22.8319 55.1888 22.7787C55.1888 22.7787 55.2421 22.6723 55.1888 22.5658C55.1888 22.4594 55.0822 22.3529 54.9757 22.1401C54.7093 21.7675 54.2299 21.0224 53.6439 19.4258C53.5907 19.2661 53.4841 19.0532 53.4308 18.8403C52.9514 17.6162 52.3122 16.0196 50.9804 15.3277C53.5374 13.6779 54.8692 9.68628 54.7626 6.59944C54.5495 1.96919 56.0944 0.745103 56.6271 0.319333C56.8402 0.319333 56.8935 0.319333 56.9467 0.319333C56.9467 0.319333 56.9467 0.319333 57.0533 0.319333C57.1598 0.212892 57.1598 0.159669 57.1065 0.053224L56.5206 0.053224C55.9346 0.425775 54.2832 1.70309 54.4963 6.54622C54.4963 6.65267 54.4963 6.75911 54.4963 6.86555C54.4963 9.89916 53.1645 13.7311 50.6075 15.1148C50.6075 15.1148 50.5542 15.2213 50.5542 15.2745C50.5542 15.3277 50.5542 15.381 50.6607 15.381C52.0458 15.9664 52.685 17.6162 53.1645 18.8403C53.271 19.0532 53.3243 19.2661 53.3776 19.4258C54.0168 21.0224 54.4963 21.8207 54.7626 22.1933C54.8159 22.2997 54.8692 22.3529 54.9224 22.4062L54.7626 22.4062C54.7626 22.4062 54.6561 22.4062 54.6028 22.5126C54.6028 22.5126 54.6028 22.6191 54.6028 22.6723C54.6561 22.6723 54.7093 22.7787 54.7626 22.7787C54.7093 22.7787 54.6028 22.7787 54.4963 22.8319C54.0168 22.9384 53.1112 23.098 51.5131 23.7899C51.3533 23.8431 51.1402 23.9496 50.9271 24.056C49.7551 24.5882 48.1037 25.3333 46.7187 24.6947C46.7187 24.6947 46.6122 24.6947 46.5589 24.6947C46.5589 24.6947 46.5056 24.8011 46.5589 24.8543C46.7187 25.3333 46.772 25.8123 46.772 26.3445C46.772 29.112 44.9607 32.0924 43.2561 33.6891C41.072 35.6583 40.0065 37.4678 40.0065 39.0644C40.0065 39.3305 40.0065 39.5966 40.0598 39.7031C40.0598 39.7031 40.0598 39.7563 40.1131 39.8095C40.1131 39.8095 40.0598 39.7563 40.0065 39.7563C39.314 39.6499 37.2897 39.2773 33.9336 42.9496C31.8561 45.1849 28.0206 47.1008 25.0907 46.3025C25.0907 46.3025 24.9841 46.3025 24.9308 46.3025C24.9308 46.3025 24.9308 46.409 24.9308 46.4622C25.0907 46.8347 25.1439 47.2073 25.1439 47.5798C25.1439 48.6443 24.6645 49.7619 24.2383 50.6667C24.1318 50.8796 24.0252 51.0924 23.972 51.2521C23.2794 52.8487 23.0664 53.7003 22.9598 54.1793C22.9598 54.2857 22.9598 54.3922 22.9065 54.4454C22.9065 54.4454 22.8 54.3922 22.8 54.3389C22.8 54.3389 22.6935 54.2857 22.6402 54.3389C22.5869 54.3389 22.5336 54.3922 22.5336 54.4986C22.5336 54.5518 22.5336 54.605 22.5336 54.6583C22.5336 54.6583 22.3738 54.5518 22.3206 54.4986C21.8944 54.2325 21.1486 53.7535 19.4972 53.1148C19.2841 53.0616 19.071 52.9552 18.8579 52.8487C17.6327 52.3697 15.9813 51.7311 15.4486 50.3473C15.4486 50.3473 15.3953 50.2409 15.2888 50.2409C15.2888 50.2409 15.1822 50.2409 15.129 50.2941C13.6374 52.9552 9.58879 54.2857 6.55234 54.1793C1.6514 54.1793 0.426168 55.7759 -2.79165e-08 56.3613L0 57C0 57 0 57 0.053271 57C0.053271 57 0.159813 57 0.213084 56.9468Z" fill="#CA943A"/>
<path d="M44.7497 0.372579C44.7497 0.372579 44.9095 0.479025 44.9628 0.532246C44.9628 0.532246 45.0693 0.532246 45.1226 0.532246C45.4422 0.372582 45.7618 0.266138 46.1347 0.266138C47.5198 0.266138 47.6263 1.01124 47.6263 1.33056C47.6263 1.64989 47.4665 1.96922 47.36 2.07566C47.36 2.07566 47.2002 2.1821 47.1469 2.1821C47.1469 2.1821 47.0936 2.1821 47.0404 2.1821C46.774 2.34177 46.6142 2.39499 46.5609 2.39499C46.5609 2.12888 46.6675 1.59667 46.4011 1.49023C46.3478 1.49023 46.2413 1.49023 46.0815 1.54345C45.4422 1.59667 44.6432 2.34177 44.217 3.24653C44.1637 3.61908 44.0572 4.04485 44.0039 4.36418C44.0039 4.4174 44.0039 4.47062 44.0572 4.52384C44.4833 4.78995 45.1759 5.1625 45.9749 4.94961C46.8805 4.68351 47.6263 3.72552 48.4254 2.71432C48.7983 2.23533 49.2245 1.75633 49.6506 1.33056C50.1833 0.79835 50.7161 0.372582 51.2488 0.106476C51.2488 0.106476 51.2488 0.106475 51.2488 0.0532533L50.7693 0.0532534C50.2899 0.31936 49.8637 0.691909 49.3843 1.1709C48.9581 1.59667 48.5319 2.07566 48.159 2.60787C47.36 3.56586 46.6142 4.47062 45.8151 4.73673C45.1759 4.89639 44.6432 4.6835 44.217 4.4174C44.2703 4.09807 44.3768 3.72552 44.4301 3.35297C44.803 2.55465 45.5488 1.86278 46.1347 1.86278C46.1347 1.86278 46.188 1.86278 46.2413 1.86278C46.2413 1.86278 46.2413 1.96922 46.2413 2.12888C46.2413 2.23532 46.2413 2.39499 46.2413 2.44821C46.2413 2.50143 46.2413 2.55465 46.2413 2.60787C46.2413 2.66109 46.2413 2.71432 46.3478 2.76754C46.3478 2.76754 46.3478 2.76754 46.4011 2.76754C46.5076 2.76754 46.7207 2.76754 47.1469 2.55466C47.3067 2.55466 47.4133 2.55465 47.5198 2.39499C47.7861 2.1821 47.946 1.80956 47.946 1.43701C47.946 1.1709 47.7861 0.372578 46.6142 0.159694L45.7086 0.159694C45.7086 0.159694 45.2824 0.266136 45.0693 0.372579C45.0693 0.372579 44.9628 0.31936 44.9095 0.266139C44.9095 0.266139 44.803 0.266138 44.803 0.212916L44.3768 0.212916C44.3768 0.212916 44.3768 0.212917 44.3768 0.266139C44.5366 0.372581 44.6964 0.479025 44.803 0.532246L44.7497 0.372579Z" fill="#CA943A"/>
<path d="M18.9116 23.2047C18.9116 23.2047 19.0182 23.2047 19.0182 23.0983C19.0182 23.0983 19.0182 22.9918 18.9116 22.9918C18.3789 22.7257 17.8995 22.4064 17.3668 22.0339C15.7686 21.0759 14.4901 19.0535 14.064 17.6165C14.064 17.1907 14.064 16.765 14.0107 16.3924C14.0107 16.3392 14.0107 16.286 13.9042 16.286C13.9042 16.286 13.7976 16.286 13.7443 16.286C12.9453 17.0843 11.507 17.1907 10.4948 16.6053C9.2163 15.7537 9.05649 14.3168 9.00322 13.3056L9.00322 13.1991C9.00322 13.1991 8.94995 13.0395 8.84341 13.0395C8.73686 13.0395 8.68359 13.0395 8.68359 13.1459C8.68359 13.5717 8.68359 13.891 8.68359 14.2103C8.68359 14.5297 8.68359 14.9022 8.68359 15.2748C8.68359 17.9358 9.5892 20.0647 11.1341 21.0759C11.5602 21.3952 11.9864 21.5016 12.306 21.342C12.7322 21.1291 12.892 20.5969 12.892 20.1179C12.892 19.9582 12.892 19.6921 12.7322 19.5325C12.7322 19.5325 12.6256 19.4792 12.5724 19.4792C12.2528 19.3728 11.9331 19.3728 11.72 19.3728C11.9331 19.1599 12.306 19.0535 12.7322 18.947C13.3714 18.947 13.8509 19.6921 13.8509 20.5437C13.8509 20.7033 13.8509 20.863 13.8509 20.9694C13.8509 20.9694 13.8509 20.9694 13.8509 21.0227C13.8509 21.2888 13.7443 21.6081 13.478 21.8742C13.478 21.8742 13.478 21.9806 13.478 22.0871C13.9574 22.7257 14.5434 23.1515 15.2892 23.2579C16.1948 23.4708 17.3135 23.3644 18.4855 23.2579L18.9649 23.2579L18.9116 23.2047ZM15.2892 22.9386C14.4901 22.779 14.0107 22.3532 13.6911 21.9806C13.9574 21.6613 14.064 21.342 14.064 21.0227C14.064 20.863 14.064 20.7033 14.064 20.4904C14.064 19.4792 13.4247 18.6809 12.6256 18.6277C11.9331 18.7341 11.4537 18.947 11.2406 19.3196C11.2406 19.3196 11.2406 19.3196 11.1873 19.3728C11.1873 19.3728 11.3471 19.5325 11.5602 19.5325C11.7733 19.5325 12.0929 19.5325 12.4658 19.6389C12.4658 19.6389 12.5191 19.7986 12.5191 20.0115C12.5191 20.384 12.3593 20.8098 12.0929 20.9694C11.8266 21.1291 11.4537 20.9694 11.2406 20.7566C9.53593 19.6389 8.89668 17.1907 8.89668 15.2215C8.89668 15.0619 8.89668 14.9022 8.89668 14.7425C9.05649 15.4876 9.48266 16.2327 10.335 16.8182C11.3471 17.4568 12.8387 17.3504 13.7443 16.6585C13.7443 16.9246 13.7443 17.2439 13.7976 17.6165C14.2238 19.1599 15.5556 21.1823 17.207 22.1935C17.5799 22.4596 17.9528 22.7257 18.3257 22.9386C17.1537 23.0451 16.0883 23.0983 15.1827 22.9386L15.2892 22.9386Z" fill="#CA943A"/>
<path d="M3.30091 29.4849C4.20652 28.6866 5.05886 27.9947 5.5383 27.1964C5.85792 26.7174 6.07101 26.1852 6.07101 25.5997C6.07101 25.4401 6.07101 25.2804 6.07101 25.0675C6.07101 25.0143 6.01774 24.9611 5.91119 24.9611C5.64484 24.9611 5.27194 24.8546 5.00559 24.5885C4.47288 24.216 4.09998 23.6305 4.09998 23.0451C4.09998 22.779 4.20652 22.5661 4.31306 22.4064C4.68596 22.1403 5.05886 21.9807 5.32521 21.9274C5.1654 22.0871 4.95231 22.3 4.7925 22.5661C4.7925 22.5661 4.73923 22.6725 4.73923 22.779C4.73923 23.1515 5.37848 23.737 5.96446 23.7902C6.28409 23.7902 6.76353 23.6838 6.92334 22.779C6.97661 22.5129 7.02988 22.1936 7.02988 21.9274C7.02988 19.6922 5.27194 17.5101 3.83362 16.286C3.62054 16.0731 3.35418 15.8602 3.08783 15.5941C3.03456 15.5409 2.92802 15.5941 2.87474 15.5941C2.87474 15.5941 2.87474 15.7538 2.87474 15.807L2.87474 15.8602C3.514 16.4989 4.25979 17.4036 4.25979 18.6277C4.25979 18.8406 4.25979 19.0535 4.20652 19.2664C3.94016 20.4373 2.82147 21.342 1.70278 21.342C1.64951 21.342 1.59624 21.342 1.54297 21.4485C1.54297 21.4485 1.54297 21.5549 1.54297 21.6081C1.75605 21.8742 2.07568 22.1936 2.34203 22.4597C3.19437 23.9499 3.56727 26.2916 3.19437 27.9415C3.08783 28.5801 2.98129 29.1123 2.7682 29.6978C2.7682 29.751 2.7682 29.8042 2.82147 29.8574C2.82147 29.8574 2.92802 29.8574 2.98129 29.8574L3.30091 29.5381L3.30091 29.4849ZM3.40745 27.9415C3.514 27.5157 3.56727 26.9835 3.56727 26.4513C3.56727 25.0143 3.19437 23.4176 2.55512 22.2468C2.34203 21.9807 2.12895 21.7678 1.96914 21.5549C3.08783 21.3952 4.20652 20.4373 4.47287 19.2664C4.47287 19.0535 4.52615 18.7874 4.52615 18.5745C4.52615 17.8826 4.31306 17.2972 3.99344 16.765C5.32521 17.9891 6.71026 19.905 6.71026 21.8742C6.71026 22.1403 6.71026 22.4064 6.60372 22.6725C6.49717 23.2048 6.28409 23.4709 5.96446 23.4709C5.48502 23.4709 5.00559 22.9387 5.00559 22.779C5.21867 22.5129 5.43175 22.2468 5.59157 22.0871C5.75138 21.9274 5.80465 21.8742 5.80465 21.821C5.80465 21.7678 5.80465 21.7146 5.69811 21.6613C5.69811 21.6613 5.69811 21.6613 5.64484 21.6613C5.21867 21.5549 4.73923 21.7146 4.15325 22.1936C3.94016 22.4064 3.83362 22.7258 3.83362 23.0451C3.83362 23.6838 4.25979 24.3756 4.84577 24.8014C5.05886 25.0675 5.37848 25.1739 5.80465 25.2272C5.91119 25.919 5.75138 26.5045 5.37848 27.0367C4.89904 27.7818 4.04671 28.4737 3.19437 29.2188C3.30091 28.793 3.40745 28.3672 3.46073 27.9415L3.40745 27.9415Z" fill="#CA943A"/>
<path d="M0.372897 55.2437C1.01215 54.126 3.35608 52.9552 6.49907 53.1148C9.42897 53.168 13.371 52.3697 14.8626 49.7619C15.6617 48.3249 15.8748 46.8879 15.9813 45.9299C15.9813 46.1428 15.9813 46.4089 15.9813 46.675C15.9813 47.5798 15.8215 48.4846 15.5551 49.3893C15.5551 49.3893 15.5551 49.3893 15.5551 49.4958C15.6617 49.8151 15.7682 50.0812 15.928 50.2941C16.2477 50.8263 16.9402 51.0924 17.4729 51.3053C17.4729 51.3053 17.5794 51.3053 17.6327 51.3053C17.686 51.3053 17.6327 51.1989 17.6327 51.1456C17.5262 50.8795 17.4196 50.5602 17.3664 50.2941C17.3664 49.2829 17.1533 47.633 16.4607 45.1848C17.1 45.8767 18.5916 48.0588 18.6449 50.028C18.8047 50.6666 18.8579 51.1989 18.9112 51.6778C18.9112 51.7311 18.9112 51.7843 19.0178 51.7843C19.2841 51.8907 19.6037 51.9972 19.8701 52.1036C20.829 52.4762 21.5748 53.0084 22.0009 53.5406C22.0009 53.5406 22.1075 53.5938 22.1607 53.5406C22.1607 53.5406 22.2673 53.4341 22.2673 53.3809C22.1607 52.6358 22.2673 51.8375 22.6935 50.8795C22.8 50.6134 22.9598 50.2941 23.0664 50.0812C23.0664 50.0812 23.0664 49.9748 23.0664 49.9215C22.7467 49.549 22.4271 49.1232 22.0542 48.5378C20.7757 47.154 20.243 44.5994 20.1897 43.6414C20.6159 44.4398 21.7346 46.4089 23.1196 47.8991C23.2794 48.1652 23.4393 48.4313 23.5458 48.6975C23.5458 48.6975 23.5991 48.8039 23.7056 48.8039C23.7056 48.8039 23.8121 48.8039 23.8121 48.6975C24.1318 48.0588 24.2383 47.5798 24.2383 47.2073C24.2383 47.1008 24.2383 46.9944 24.2383 46.8879C24.2383 46.6218 24.0785 46.3557 23.972 46.0896C23.972 46.0896 23.972 46.0896 23.9187 46.0896C22.5869 45.3977 21.6813 44.493 21.1486 43.9075C21.8944 44.493 23.0664 45.3445 24.6645 45.8235C27.5411 46.5686 30.8972 44.3865 32.9215 42.2577C35.0523 39.9159 37.4495 39.1176 38.728 39.437C38.9944 39.5434 39.2607 39.6498 39.4738 39.7563C39.4738 39.7563 39.5804 39.7563 39.6336 39.7563C39.6336 39.7563 39.6336 39.6498 39.6336 39.5966C39.5271 39.3837 39.4206 39.1176 39.314 38.9047C39.314 38.6919 39.2075 38.479 39.2075 38.2661C39.2075 37.0952 39.9533 35.0196 42.1374 33.0504C43.9486 31.3473 45.8664 28.5798 45.8664 25.972C45.8664 25.5462 45.8131 25.1204 45.7065 24.7479C45.2271 23.1512 44.3748 21.9804 43.7888 21.2353C44.428 21.7675 45.2804 22.619 45.9729 23.9496C45.9729 23.9496 45.9729 23.9496 46.0262 24.0028C46.2925 24.1624 46.5589 24.2689 46.8252 24.3221C47.4645 24.4285 48.1037 24.1624 48.6365 23.9496C48.6365 23.9496 48.743 23.8963 48.743 23.7899C48.743 23.6835 48.743 23.6835 48.6365 23.6302C48.3701 23.5238 48.1037 23.3641 47.8907 23.2045C46.3991 21.8207 44.3748 20.7031 43.629 20.2773C44.5879 20.2773 47.1981 20.8095 48.5832 22.14C49.1159 22.4594 49.5421 22.8319 49.915 23.1512C49.915 23.1512 50.0215 23.1512 50.0748 23.1512C50.3411 22.9916 50.6075 22.8851 50.8738 22.7787C51.8327 22.4061 52.685 22.2465 53.3776 22.3529C53.4308 22.3529 53.4841 22.3529 53.5374 22.2465C53.5374 22.1933 53.5374 22.14 53.5374 22.0868C52.9514 21.661 52.472 20.9159 52.0458 19.958C51.9393 19.6919 51.8327 19.3725 51.7794 19.1064C51.7794 19.0532 51.7262 19 51.6196 19C51.1402 19 50.6075 18.8935 49.9682 18.7339C48.0505 18.7339 45.8664 17.2437 45.1738 16.5518C47.1449 17.1372 48.8495 17.4566 50.2346 17.4566C50.5009 17.5098 50.8206 17.6162 51.0869 17.7227C51.1402 17.7227 51.1935 17.7227 51.2467 17.7227C51.2467 17.7227 51.2467 17.6162 51.2467 17.563C51.0336 17.0308 50.7673 16.3921 50.2346 16.0196C50.0215 15.8599 49.7551 15.7535 49.4888 15.647C49.4888 15.647 49.4888 15.647 49.3822 15.647C47.9439 16.126 46.6654 16.126 45.8664 16.0196C46.8252 15.9131 48.2636 15.7003 49.7019 14.9019C52.1523 13.465 53.0047 9.68625 53.0047 6.86553L53.0047 6.5462C52.8449 3.40614 54.0168 1.0644 55.1355 0.425748C55.4019 0.319307 55.615 0.212865 55.8813 0.159643C55.8813 0.159643 55.8813 0.159646 55.9346 0.106424L55.2421 0.106424C55.2421 0.106424 55.0822 0.159643 54.9757 0.212865C53.857 0.798299 52.685 2.92715 52.685 6.06721C52.685 6.22687 52.685 6.43976 52.685 6.59942C52.7916 9.36693 51.9393 13.2521 49.4888 14.6891C47.8907 15.5938 46.2393 15.7003 45.3869 15.8067C45.2804 15.8067 45.2271 15.8067 45.1206 15.8067C45.1206 15.7003 45.1206 15.5938 45.014 15.4342C44.3748 13.6778 42.7234 13.1989 41.3383 12.986C40.5925 12.986 39.7935 12.986 39.1542 13.0924C38.6748 13.0924 38.1953 13.1989 37.7692 13.1989C37.343 13.2521 36.9701 13.2521 36.5439 13.1989C37.5028 12.5602 38.0888 11.3361 38.0888 9.84592C38.0888 9.10082 37.929 8.40895 37.7159 7.98317C37.5561 7.50418 37.343 7.02519 37.0234 6.65264C37.343 6.8123 37.7159 6.97197 38.0888 7.07841C39.6869 7.71707 42.7234 7.87673 43.8421 5.48177C43.8953 5.32211 43.9486 5.21567 43.9486 5.056C44.428 5.48177 45.0673 5.69466 45.8664 5.74788C47.571 5.53499 48.7963 4.20447 49.8084 3.19326C50.0748 2.92715 50.3411 2.60782 50.6075 2.39494C51.3533 1.59662 52.0458 1.01118 52.7383 0.585413C53.3243 0.585413 53.9103 0.37253 53.9103 0.159643C53.9103 0.159643 53.9103 0.0532012 53.857 0.0532012L53.4308 0.0532012L53.4308 0.106424C53.4308 0.106424 53.4308 0.106424 53.4841 0.106424C53.3243 0.159647 53.0579 0.266088 52.685 0.266088C52.685 0.266088 52.685 0.266088 52.6318 0.266088C51.9393 0.691858 51.1935 1.33051 50.4477 2.12883C50.1813 2.34171 49.915 2.66105 49.6486 2.92715C48.6364 3.99158 47.4645 5.21567 45.9196 5.42855C45.1206 5.42855 44.4813 5.10922 44.0019 4.63023C44.0019 4.63023 43.8953 4.57701 43.8421 4.63023C43.8421 4.63023 43.7355 4.68345 43.7355 4.7899C43.7355 5.056 43.7355 5.21567 43.629 5.42855C42.457 7.87673 39.2607 7.2913 38.2486 6.86553C37.6093 6.65264 36.9701 6.33332 36.3841 6.01399C36.3308 6.01399 36.2243 6.01399 36.171 6.01399C36.171 6.06721 36.171 6.17365 36.171 6.22687C36.757 6.70586 37.1832 7.34452 37.4495 8.14284C37.6626 8.56861 37.8224 9.20726 37.8224 9.89914C37.8224 10.4846 37.6626 12.507 36.0645 13.1989C36.0112 13.1989 35.9579 13.3053 35.9579 13.3585C35.9579 13.4117 35.9579 13.465 36.0645 13.465C36.6505 13.5714 37.2364 13.5714 37.7692 13.465C38.1953 13.465 38.6748 13.465 39.1542 13.3585C39.8467 13.3053 40.5393 13.1989 41.285 13.2521C42.5636 13.465 44.1084 13.8907 44.6944 15.4874C44.6944 15.647 44.7477 15.7535 44.8009 15.9131C44.8009 15.9131 44.8009 15.9131 44.8009 15.9664C44.8009 15.9664 44.8009 16.0728 44.8009 16.126L44.8009 16.1792C44.8009 16.1792 44.8009 16.3389 44.9075 16.3389C44.9075 16.3389 44.8009 16.3921 44.7477 16.4454C44.5879 17.1372 44.0019 17.6162 43.5224 17.8291C43.5224 17.8291 43.4692 17.8291 43.4159 17.9355C43.4159 17.9355 43.4159 17.9888 43.4159 18.042C43.6822 18.6274 43.629 19.3725 43.3093 19.9047C43.3093 19.9047 43.3093 20.0112 43.3093 20.0644C43.3093 20.0644 43.1495 20.0644 43.0963 20.0644L43.0963 20.1176C43.0963 20.1176 42.9897 20.2241 42.9365 20.2773C42.9365 20.2773 42.9364 20.2773 42.8832 20.2773C42.7766 20.3837 42.6701 20.4902 42.5103 20.5434C40.9121 21.2885 39.4738 20.437 38.5682 19.7451C38.0355 19.2661 37.5561 18.6806 37.1299 18.1484C36.8103 17.7759 36.4907 17.4033 36.2243 17.084C35.9047 16.605 35.4785 16.2325 34.9991 15.9131C34.9991 15.9131 34.8925 15.9131 34.8393 15.9131C34.786 15.9131 34.7327 16.0196 34.8393 16.0728C34.9458 16.3389 34.9991 16.6582 34.9991 16.9776C34.9991 18.6806 33.3477 20.2773 32.229 20.6498C31.5364 21.0224 30.7374 21.1288 29.9916 21.0756C29.885 21.0756 29.8318 21.0756 29.8318 21.1821C29.8318 21.2353 29.8318 21.3417 29.9383 21.3417C30.3645 21.4482 31.057 21.661 31.8561 22.0336C33.028 22.5658 34.8393 24.0028 34.8393 25.8123C34.8393 26.1316 34.786 26.5042 34.6794 26.8235C34.6262 27.0364 34.4664 27.1961 34.3065 27.3557C34.3065 27.3557 34.3065 27.4622 34.3065 27.5154C34.3065 27.5154 34.4131 27.6218 34.4664 27.5686C35.1589 27.5686 35.7981 27.7815 36.3841 28.3137C37.1832 29.3249 37.2897 30.7087 37.2897 31.9327C37.2897 32.1989 37.2897 32.465 37.2897 32.7311C37.2897 33.1568 37.2897 33.5294 37.2897 33.8487C37.2897 34.0084 37.2897 34.168 37.2897 34.3277C37.2897 35.2857 37.343 36.084 37.5028 36.7759C37.5028 36.7759 37.5028 36.7759 37.5028 36.8291C37.7692 37.0952 37.8757 37.3613 37.929 37.521C37.929 37.521 37.929 37.521 37.8757 37.521C37.8757 37.521 37.7692 37.521 37.7159 37.521C37.7159 37.521 37.7159 37.6274 37.7159 37.6806C37.7159 37.6806 37.7159 37.6806 37.7159 37.7339C37.5561 37.6806 37.343 37.5742 37.0766 37.3081C37.0766 37.3081 37.0766 37.3081 37.0234 37.3081C36.2243 37.1484 35.2654 37.042 34.0935 37.0952C33.7206 37.0952 33.3477 37.0952 32.9215 37.0952C31.4299 37.0952 29.7785 37.1484 28.5533 36.1905C28.0206 35.6582 27.7542 35.0728 27.7542 34.4341C27.7542 34.4341 27.7542 34.3277 27.7542 34.2745C27.7542 34.2213 27.7542 34.168 27.6477 34.1148C27.5944 34.1148 27.5411 34.1148 27.4879 34.1148C27.328 34.2745 27.1682 34.3809 26.9551 34.4874C24.5579 35.3389 22.6935 32.9972 22.1607 31.6666C21.8411 31.028 21.628 30.3893 21.4682 29.7507C21.4682 29.6975 21.3617 29.6442 21.3084 29.6442C21.2551 29.6442 21.2019 29.6975 21.2019 29.8039C21.2019 29.9103 21.2019 30.0168 21.2019 30.1764C21.2019 30.8151 21.0421 31.4538 20.7224 32.0924C20.5093 32.8375 19.6037 33.9552 18.485 34.5406C17.8991 34.8067 17.0467 35.0728 16.1411 34.7535C16.1411 34.7535 16.0346 34.7535 15.9813 34.7535C15.9813 34.7535 15.9813 34.8599 15.9813 34.9131C16.3542 35.3921 16.7271 35.8179 17.1533 36.1372C17.4729 36.4566 17.8458 36.7227 18.2187 37.042C18.7514 37.4678 19.3374 37.8935 19.8168 38.479C20.5626 39.4902 20.9355 40.3949 20.9355 41.1933C20.9355 41.619 20.829 42.0448 20.6692 42.4706C20.6159 42.577 20.5093 42.6834 20.4028 42.8431C20.4028 42.8431 20.4028 42.8431 20.4028 42.8963C20.3495 42.9496 20.2963 43.0028 20.243 43.056C20.243 43.056 20.1364 43.1624 20.1364 43.2157C20.1364 43.2157 20.0299 43.2157 19.9766 43.2157C19.3374 43.5882 18.5916 43.535 18.1122 43.3221C18.0589 43.3221 17.9523 43.3221 17.8991 43.4285C17.686 43.9075 17.2598 44.493 16.514 44.6526C16.514 44.6526 16.4075 44.6526 16.4075 44.7591C16.4075 44.7591 16.3009 44.6526 16.2477 44.6526C16.2477 44.6526 16.0346 44.6526 15.9813 44.6526C15.9813 44.6526 15.9813 44.6526 15.928 44.6526C15.7682 44.6526 15.6617 44.6526 15.5019 44.5462C13.9037 43.9608 13.4776 42.4173 13.2645 41.14C13.2645 40.3949 13.2645 39.7031 13.371 39.0112C13.4243 38.5322 13.4776 38.0532 13.4776 37.6274C13.5841 37.042 13.5308 36.5098 13.4776 35.8711C13.4776 35.8179 13.4243 35.7647 13.3178 35.7647C13.2645 35.7647 13.2112 35.7647 13.1579 35.8711C12.785 36.7227 11.986 37.1484 11.4 37.3613C10.1748 37.7871 8.78972 37.6274 8.04392 37.2549C7.29813 36.9888 6.60561 36.563 6.12617 35.9776C6.12617 35.9243 5.96635 35.9243 5.91308 35.9776C5.85981 35.9776 5.80654 36.084 5.91308 36.1905C6.28598 36.7759 6.55234 37.4145 6.81869 38.1064C7.08505 38.6919 7.19159 39.4902 7.19159 40.2353C7.19159 41.3529 6.87196 42.7899 5.38037 43.4818C5.16729 43.5882 5.00748 43.5882 4.74112 43.5882C4.68785 43.5882 4.63458 43.5882 4.58131 43.6947C4.58131 43.7479 4.58131 43.8011 4.58131 43.8543C5.11402 44.3333 5.38037 44.972 5.38037 45.7703C5.16729 47.3137 3.99533 48.4846 2.92991 49.549C2.66355 49.8151 2.34393 50.0812 2.13084 50.3473C1.33178 51.1456 0.692523 51.8375 0.213084 52.5294C0.213084 52.5294 0.213084 52.5294 0.213084 52.5826C0.213084 52.9552 0.106542 53.2213 0.0532709 53.3809C0.0532709 53.3809 0.0532709 53.3809 0.0532709 53.3277C0.0532709 53.3277 0.0532709 53.3277 -1.18645e-07 53.3277L-1.00034e-07 53.7535C-1.00034e-07 53.7535 0.0532709 53.8067 0.159813 53.8067C0.372897 53.8067 0.585981 53.2213 0.585981 52.6358C1.01215 51.9972 1.59813 51.3053 2.3972 50.507C2.61028 50.2409 2.92991 49.9748 3.19626 49.7087C4.26168 48.6975 5.54019 47.4734 5.75327 45.7703C5.75327 45.0252 5.48692 44.3865 5.06075 43.8543C5.22056 43.8543 5.3271 43.8011 5.48692 43.7479C6.76542 43.1624 7.45794 41.8851 7.45794 40.2353C7.45794 39.4902 7.29813 38.6386 7.03178 38.0532C6.92523 37.6807 6.76542 37.3081 6.60561 36.9356C6.9785 37.2549 7.45794 37.4678 7.93738 37.6274C8.68318 38.0532 10.1748 38.2129 11.5065 37.7339C12.2523 37.4678 12.8383 37.042 13.2112 36.4566C13.2112 36.8823 13.2112 37.2549 13.2112 37.6806C13.2112 38.1064 13.2112 38.5854 13.1047 39.0644C13.0514 39.6498 12.9449 40.2353 12.9449 40.8739C12.9449 40.9804 12.9449 41.0868 12.9449 41.1933C13.1579 42.5238 13.6374 44.1736 15.3953 44.8123C15.5019 44.8123 15.6084 44.8655 15.7682 44.9187C15.7682 45.0252 15.7682 45.0784 15.7682 45.1849C15.6617 46.0364 15.5551 47.633 14.6495 49.2829C13.3178 51.5714 9.58879 52.5294 6.55234 52.4762C3.19626 52.6891 0.799065 53.8599 0.106542 55.1372C0.106542 55.2437 0.053271 55.2969 -3.02429e-08 55.3501L0 56.042C0 56.042 0.053271 56.042 0.106542 56.042C0.159813 55.8291 0.266355 55.563 0.372897 55.2969L0.372897 55.2437ZM45.3336 16.2325C46.0794 16.3389 47.571 16.4986 49.5421 15.9131C49.8084 15.9664 50.0215 16.0728 50.1813 16.2325C50.5009 16.4454 50.714 16.8179 50.9804 17.3501C50.7673 17.2969 50.6075 17.2437 50.3411 17.1905C48.9561 17.1905 47.3047 16.8179 45.3336 16.2857L45.3336 16.2325ZM43.9486 20.0112C44.215 19.479 44.215 18.7871 44.0019 18.2017C44.4813 17.9888 44.9607 17.563 45.2271 16.9243C46.0794 17.6694 48.2103 18.9468 50.0215 19C50.6075 19.1596 51.1402 19.2129 51.6196 19.2661C51.6729 19.5322 51.7794 19.7983 51.886 20.0644C52.2056 20.9159 52.6318 21.5546 53.1112 22.0336C52.472 22.0336 51.7262 22.1933 50.8738 22.5126C50.6075 22.619 50.3944 22.7255 50.128 22.8851C49.7551 22.5658 49.329 22.2465 48.8495 21.9271C47.5178 20.6498 45.0673 20.1176 43.9486 20.0112ZM43.5757 20.5966C44.3748 21.0224 46.2925 22.14 47.7841 23.5238C47.9439 23.6302 48.157 23.7367 48.3168 23.8431C47.7308 24.056 47.3047 24.1624 46.9318 24.056C46.7187 24.056 46.5056 23.9496 46.2925 23.8431C45.3336 22.0868 44.1617 21.0756 43.5757 20.6498L43.5757 20.5966ZM21.0421 43.3221C21.0421 43.3221 20.8822 43.2157 20.829 43.1624C20.8822 43.056 20.9888 42.9496 21.0421 42.8431C21.2551 42.4173 21.3617 41.9384 21.3617 41.4594C21.3617 40.5546 20.9888 39.6498 20.1897 38.5322C19.657 37.9468 19.071 37.4678 18.5383 37.0952C18.1654 36.7759 17.7925 36.5098 17.4729 36.1905C17.1533 35.9776 16.8869 35.6582 16.6206 35.3921C17.2598 35.5518 18.0056 35.3921 18.6981 35.0728C19.9234 34.4342 20.829 33.3165 21.0953 32.5182C21.3084 32.0392 21.4682 31.5602 21.5748 31.0812C21.6813 31.4538 21.8411 31.8263 22.0009 32.1456C22.5869 33.5294 24.5579 36.0308 27.1682 35.0728C27.328 35.0728 27.4346 34.9664 27.5411 34.8599C27.5411 35.4986 27.8607 36.1372 28.3935 36.7227C29.7252 37.7339 31.5365 37.7339 32.9748 37.6806C33.4009 37.6806 33.7738 37.6806 34.1467 37.6806C35.2654 37.6806 36.171 37.6806 36.9701 37.8935C37.4495 38.3193 37.929 38.479 38.0355 38.4257C38.0888 38.4257 38.1421 38.3193 38.0888 38.2661L38.0888 38.2129C38.0888 38.2129 38.0888 38.2129 38.1421 38.2129C38.2486 38.2129 38.3019 38.1064 38.3019 38.0532C38.3019 37.9468 38.1953 37.521 37.7692 37.042C37.6093 36.3501 37.5561 35.605 37.5561 34.7003L37.5561 34.2213C37.5561 33.8487 37.5561 33.4762 37.5561 33.1036C37.5561 32.8375 37.5561 32.5714 37.5561 32.3053C37.5561 31.028 37.4495 29.591 36.5439 28.4734C35.9579 27.9412 35.372 27.675 34.7327 27.6218C34.8393 27.5154 34.8925 27.3557 34.9458 27.1961C35.1056 26.8235 35.1589 26.451 35.1589 26.0784C35.1589 24.1092 33.2944 22.5658 32.0159 22.0336C31.643 21.8207 31.2701 21.7143 30.9505 21.6078C31.4299 21.5546 31.9093 21.3949 32.3355 21.1821C33.5607 20.8095 35.3187 19.0532 35.3187 17.2437C35.3187 17.0308 35.3187 16.8711 35.2654 16.6582C35.585 16.9243 35.8514 17.1905 36.0645 17.5098C36.3841 17.8291 36.6505 18.1484 36.9701 18.521C37.3963 19.0532 37.8757 19.6386 38.4617 20.1708C39.4738 20.9159 40.9654 21.8207 42.7234 21.0224C42.8299 20.9692 42.9364 20.9159 43.043 20.8095C43.043 20.8627 43.1495 20.9692 43.2028 21.0224C43.7355 21.661 44.8009 22.9383 45.2804 24.6947C45.3869 25.0672 45.4402 25.4398 45.4402 25.8123C45.4402 28.3137 43.5757 30.9748 41.8178 32.6778C40.0065 34.3277 38.8346 36.4566 38.8346 38.1064C38.8346 38.3725 38.8346 38.5854 38.9411 38.8515C38.9944 39.0112 39.0477 39.1176 39.1009 39.2241C38.9944 39.2241 38.8346 39.1176 38.6748 39.0644C37.2897 38.6919 34.786 39.5434 32.5486 41.9384C30.5776 44.014 27.328 46.1428 24.5579 45.451C22.7467 44.9187 21.5215 43.9075 20.829 43.3221L21.0421 43.3221ZM20.5093 43.535C20.9355 44.1204 21.8944 45.3445 23.7056 46.3025C23.8122 46.5154 23.9187 46.7283 23.9187 46.9412C23.972 47.3137 23.9187 47.7395 23.7056 48.3249C23.5991 48.112 23.4925 47.9524 23.386 47.7395C22.0542 46.3025 20.9355 44.3333 20.5093 43.535ZM16.8869 45.1848C17.5262 44.972 17.9523 44.4398 18.1654 43.9608C18.6449 44.1204 19.3374 44.1736 19.9766 43.9075C20.0832 45.0252 20.6159 47.4734 21.8944 48.7507C22.214 49.2829 22.5336 49.7087 22.8533 50.0812C22.7467 50.2941 22.6402 50.5602 22.4804 50.8263C22.1607 51.6246 22.0009 52.3697 22.0009 53.0084C21.5215 52.5294 20.8822 52.1036 20.0299 51.7843C19.7636 51.6778 19.4972 51.5714 19.2308 51.5182C19.2308 51.0392 19.1243 50.507 18.9645 49.9215C18.9645 48.0588 17.6327 45.9832 16.8869 45.1316L16.8869 45.1848ZM16.1944 45.2913C16.8869 47.6862 17.0467 49.3361 17.1 50.3473C17.1 50.5602 17.2065 50.7199 17.2598 50.9327C16.6738 50.7199 16.3542 50.4538 16.1411 50.1344C15.9813 49.9215 15.928 49.7087 15.8215 49.4958C16.0879 48.591 16.2477 47.6862 16.2477 46.7283C16.2477 46.1428 16.2477 45.6106 16.1411 45.2913L16.1944 45.2913Z" fill="#CA943A"/>
<path d="M0.53198 16.6587C1.01142 16.7119 1.27777 16.7652 1.43759 16.8716C1.17123 16.978 0.745064 17.1377 0.478709 17.457C0.478709 17.457 0.478709 17.5635 0.478709 17.6167C0.691793 18.0425 0.745064 18.5747 0.638522 19.1069C0.638522 19.1069 0.638522 19.1601 0.638522 19.2133C0.798335 19.4794 1.01142 19.6923 1.2245 19.9584C1.38432 20.1181 1.5974 20.1181 1.86376 20.0649C2.28992 19.9584 2.82263 19.5859 3.08899 19.0004C3.35534 18.3618 3.08899 17.4038 2.34319 16.1797C1.70394 15.1685 0.958148 14.3702 0.478709 13.9444C0.958148 14.1041 2.44974 14.6363 4.15441 15.8604C6.0189 16.9248 8.84226 19.7988 8.14974 23.1517C8.09647 24.2694 7.13759 24.908 6.28525 25.0144C6.28525 25.0144 6.28525 25.0144 6.23198 25.0144C6.23198 25.0144 6.07217 25.0145 6.07217 25.0677C6.07217 25.0677 6.07217 25.1741 6.07217 25.2273L6.07217 25.2806C6.07217 25.2806 6.17871 25.387 6.23198 25.387C6.28525 25.8128 6.39179 26.6643 6.9245 27.4094C7.35067 28.2077 8.41609 28.4738 9.16189 28.3142C9.64133 28.2077 9.96095 27.9948 9.96095 27.6755C10.0675 27.0901 9.96095 26.7175 9.74787 26.6111C9.48151 26.4514 9.05535 26.7175 8.78899 26.8772C8.78899 26.8772 8.68245 26.8772 8.68245 26.9304C8.68245 26.824 8.68245 26.6111 8.89553 26.2385C8.89553 26.2385 8.89553 26.2385 8.89553 26.1853C8.89553 26.1853 9.00208 25.9724 9.21516 25.8128C9.37497 25.7063 9.80114 25.4934 10.2806 25.7063C10.2806 25.7063 10.3339 25.7063 10.3871 25.7595C10.3871 25.7595 10.4404 25.7595 10.4937 25.8128C10.4937 25.8128 10.6002 25.8128 10.6535 25.8128C10.6535 25.8128 10.76 25.7595 10.76 25.7063L10.76 25.5999L10.76 25.4934C10.9731 25.0144 11.346 24.8548 11.6124 24.8016C11.8787 24.7483 12.0918 24.8016 12.0918 24.8016C12.0918 24.8016 12.0918 24.8016 12.1451 24.8016C12.518 24.9612 12.731 25.0677 12.7843 25.1741C12.7843 25.1741 12.6778 25.1741 12.6245 25.1741C12.2516 25.2806 11.7189 25.387 11.7189 25.8128C11.7189 26.0789 11.932 26.2918 12.3582 26.6111C12.5712 26.7708 12.8376 26.7708 13.1572 26.6111C13.7965 26.2918 14.3824 25.5467 14.3824 24.6951C14.3824 24.5355 14.3824 24.3758 14.3824 24.2694C14.1694 23.4178 13.7432 22.7259 13.4768 22.4066C13.4768 22.4066 13.4768 22.4066 13.4768 22.3534C13.4768 22.3534 13.5301 22.2469 13.4768 22.1937C13.4768 22.1937 13.4236 22.0873 13.3703 22.0873C13.3703 22.0873 13.2638 22.0873 13.2105 22.0873C12.518 22.5663 11.3993 22.7792 10.5469 22.0873C8.20301 20.5439 7.98992 17.5635 7.98992 16.3926C7.98992 15.5943 8.09647 14.8492 8.25628 14.1573C8.57591 12.1349 9.26843 10.6979 9.48151 10.2722C9.48151 10.9108 9.48151 11.9752 9.74787 13.1461C9.96095 14.0509 10.3339 15.3282 11.2395 15.6475C11.7722 15.8604 12.4114 15.8072 12.8376 15.5411C13.0507 15.3814 13.2105 15.2217 13.2105 14.9556C13.2105 14.6363 13.1572 14.317 13.1039 13.9976C13.1039 13.9976 13.1039 13.9444 13.0507 13.8912C12.6245 13.6251 12.3049 13.1993 12.1451 12.7736C12.1451 12.7736 12.0918 12.6671 12.0385 12.6671C11.6124 12.6139 11.2395 12.7736 10.9198 12.9332C11.0264 12.7736 11.1329 12.5074 11.4525 12.1349C11.5591 12.0285 11.7189 11.922 11.932 11.8688C11.9853 11.8688 12.0385 11.8688 12.0385 11.7623C12.0385 11.5495 12.1451 11.3898 12.2516 11.2834C12.6245 10.964 12.8909 10.8044 13.0507 10.7511C12.8909 11.0173 12.731 11.443 12.7843 11.8688C12.7843 11.8688 12.7843 11.9752 12.8909 11.9752C13.317 12.1349 13.7432 12.4542 14.0096 12.88C14.0096 12.88 14.0096 12.9332 14.1161 12.9332C14.4357 12.9864 14.7553 13.0397 15.075 13.0397C15.5011 12.9864 15.8208 12.401 15.8208 11.7623C15.8208 11.4962 15.8208 11.2834 15.661 11.0705C15.3946 10.4318 14.5423 9.89961 13.1039 9.6335C11.932 9.42062 10.8666 9.36739 10.2273 9.36739C10.6535 9.15451 12.0385 8.46263 14.1694 8.09008C16.3002 7.50465 20.2955 7.61109 22.1067 10.4318C22.4264 10.8044 22.5862 11.2301 22.5862 11.7091C22.5862 12.1881 22.4264 12.6671 22.1067 13.0929C22.1067 13.0929 22.1067 13.1993 22.1067 13.2525C22.1067 13.2525 22.1067 13.359 22.2133 13.359L22.4264 13.359C22.7993 13.6251 23.4385 14.1041 24.3441 14.317C24.8768 14.4766 25.4628 14.317 25.9955 13.9444C26.475 13.5719 26.7946 13.0929 26.7946 12.7203C26.7946 12.5607 26.7946 12.4542 26.6881 12.3478C26.3684 11.8688 26.0488 11.6559 25.7825 11.7091C25.4628 11.7623 25.303 12.2413 25.2497 12.6139L25.2497 12.7203C25.1965 12.6671 25.0367 12.4542 24.9301 12.0817C24.9301 12.0817 24.9301 11.9752 24.9301 11.8156C24.9301 11.443 25.1432 10.964 25.6226 10.7511C25.6226 10.7511 25.6759 10.7511 25.7292 10.7511C25.7292 10.7511 25.7824 10.7511 25.8357 10.7511C25.8357 10.7511 25.9423 10.7511 25.9423 10.6447L25.9423 10.5383C25.9423 10.5383 25.9423 10.485 25.8357 10.4318C25.8357 10.4318 25.7825 10.3786 25.7825 10.3254C25.7292 10.1657 25.6759 10.0593 25.6759 9.8996C25.6759 9.47383 25.9423 9.15451 26.0488 9.10128C26.1553 8.99484 26.2619 8.94162 26.2619 8.94162C26.2619 8.94162 26.2619 8.94162 26.3152 8.94162C26.6881 8.78196 26.9011 8.72874 27.0077 8.72874C27.0077 8.72874 27.0077 8.83518 26.9544 8.83518C26.7946 9.04806 26.6348 9.36739 26.6348 9.58028C26.6348 9.68672 26.6348 9.79316 26.7946 9.8996C26.9544 10.0593 27.274 10.0593 27.8067 10.006C28.2329 10.006 28.4993 9.47383 28.4993 8.78195C28.4993 8.1433 28.2329 7.34498 27.5937 6.97243C26.8479 6.49344 26.0488 6.33378 25.5694 6.28056C25.5694 6.28056 25.5694 6.17411 25.4628 6.12089C25.4628 6.12089 25.303 6.12089 25.2497 6.12089C25.2497 6.12089 25.1965 6.17411 25.1965 6.22733C25.1965 6.22733 25.1965 6.22734 25.1965 6.28056C25.0367 7.1321 24.3974 8.03686 23.2787 8.1433C20.0292 8.78195 17.0993 6.06767 16.0339 4.1517C14.8086 2.44862 14.2759 0.958427 14.1161 0.479436C14.5955 0.905206 15.3413 1.6503 16.3535 2.34218C17.5787 3.1405 18.5376 3.35338 19.1768 3.08728C19.8694 2.76795 20.2955 2.07608 20.2955 1.65031C20.2955 1.49064 20.2955 1.33098 20.1357 1.22454C19.8694 1.01165 19.6563 0.798762 19.3899 0.639098C19.3899 0.639098 19.3367 0.639098 19.2834 0.639098C18.7507 0.74554 18.2712 0.6391 17.7918 0.479436C17.7918 0.479436 17.6853 0.479436 17.632 0.479436C17.3124 0.745542 17.1525 1.17131 17.046 1.49064C16.9927 1.33097 16.8862 1.01165 16.8329 0.532659C16.8329 0.372995 16.8329 0.213329 16.9927 0.0536663L16.6731 0.0536664C16.6731 0.0536664 16.5133 0.372995 16.5133 0.532659L16.5133 0.585876C16.6198 1.49064 16.7796 1.75675 16.8862 1.86319C16.8862 1.96963 16.9927 1.96963 17.046 1.96963C17.1525 1.96963 17.2058 1.86319 17.2591 1.70352C17.3124 1.49064 17.4722 1.06487 17.6853 0.798761C18.1647 1.01165 18.6974 1.06487 19.1768 0.958429C19.3899 1.11809 19.603 1.27776 19.8161 1.43742C20.0292 1.70353 19.6563 2.55506 18.9638 2.87439C18.3778 3.08728 17.5254 2.87439 16.4067 2.12929C15.2881 1.38419 14.489 0.639098 14.0628 0.213329C13.9563 0.160106 13.903 0.0536646 13.8497 0.000443818L13.4236 0.000443837C13.4236 0.000443837 13.4236 0.000443837 13.4236 0.0536665C13.3703 0.0536665 13.317 0.213327 13.2105 0.372991C12.9974 0.639097 12.4647 1.06487 11.7722 1.22454C10.8666 1.49064 9.6946 0.905208 8.52264 0.319774C8.30955 0.213331 8.14974 0.160108 7.93665 0.0536667C7.83011 0.0536667 7.77684 0.000442177 7.72357 -0.0527786L7.13759 -0.0527785L7.13759 0.000444112L7.24413 0.000444107C7.24413 0.000444107 7.61703 0.213331 7.83011 0.319774C8.0432 0.426216 8.20301 0.479433 8.41609 0.585876C9.64133 1.17131 10.8666 1.80997 11.8787 1.49064C12.5712 1.33097 13.0507 0.905208 13.4768 0.532659C13.4768 0.532659 13.4768 0.479434 13.4768 0.426214C13.6899 0.905204 14.1161 2.28896 14.1161 3.40661C14.1161 4.52426 13.5834 4.8968 13.4768 4.95002C13.317 4.8968 12.8376 4.52426 12.8376 3.40661C12.8376 2.76795 12.9974 2.07607 13.1039 1.59708C13.1039 1.54386 13.1039 1.49064 13.0507 1.43742L12.8909 1.43742C12.6778 1.70353 12.4114 1.86319 12.0918 2.07608C10.9731 2.71473 9.42824 2.50184 7.2974 1.49064C6.33852 1.01165 5.59273 0.585878 5.00675 0.266552C5.00675 0.266552 5.00675 0.266552 4.95347 0.266552C4.63385 0.266552 4.36749 0.16011 4.26095 0.10689C4.26095 0.10689 4.26095 0.106888 4.31422 0.0536669L3.94133 0.0536669C3.94133 0.0536669 3.94133 0.106886 3.94133 0.160106C3.94133 0.372991 4.47404 0.532656 4.95347 0.585876C5.53946 0.905205 6.28525 1.33098 7.24413 1.80997C9.48151 2.87439 11.1329 3.08728 12.3581 2.3954C12.518 2.28896 12.6778 2.18252 12.8376 2.07608C12.731 2.50185 12.6778 3.03406 12.6778 3.51305C12.6778 5.00324 13.4768 5.37579 13.6367 5.37579C13.7965 5.37579 14.5955 5.00324 14.5955 3.51305C14.5955 3.1405 14.5955 2.76795 14.489 2.3954C14.7553 2.98083 15.1815 3.67271 15.7142 4.36459C16.8329 6.33377 19.8694 9.15451 23.2787 8.51585C24.4507 8.40941 25.1965 7.45143 25.4096 6.54666C25.4096 6.54666 25.4628 6.54666 25.5161 6.54666C25.9423 6.59988 26.6881 6.70633 27.4339 7.18532C28.0198 7.50465 28.2329 8.19652 28.2329 8.72874C28.2329 9.26095 28.0731 9.6335 27.8067 9.68672C27.274 9.79316 27.1142 9.68672 27.061 9.68672C27.061 9.68672 27.061 9.68672 27.061 9.58028C27.061 9.42061 27.2208 9.15451 27.3273 8.94162C27.4339 8.72874 27.4871 8.67551 27.4871 8.56907L27.4871 8.46263C27.4871 8.46263 27.4871 8.46263 27.3806 8.46263C27.2208 8.40941 26.9011 8.46263 26.3684 8.67551C26.2086 8.67551 26.0488 8.83518 25.9955 8.8884C25.5694 9.31417 25.4096 9.95283 25.6759 10.485C25.6759 10.485 25.6759 10.485 25.6759 10.5383C25.0367 10.8044 24.7703 11.443 24.7703 11.8688C24.7703 11.9752 24.7703 12.1881 24.8768 12.2946C25.1432 12.9332 25.3563 13.0929 25.4628 13.1461C25.4628 13.1461 25.5694 13.1461 25.6226 13.1461C25.7824 13.1461 25.7824 12.9864 25.8357 12.7203C25.889 12.5074 25.9955 12.0817 26.1553 12.0285C26.1553 12.0285 26.3684 12.0285 26.7413 12.5607C26.9544 12.7736 26.5815 13.359 26.1021 13.7315C25.6226 14.0509 25.1432 14.2105 24.717 14.0509C23.8647 13.8912 23.2787 13.4122 22.9058 13.1461C22.9058 13.1461 22.9058 13.1461 22.7993 13.0929C23.0656 12.6671 23.2254 12.1881 23.2254 11.6559C23.2254 11.1237 23.0124 10.5915 22.6927 10.2189C20.775 7.34498 16.6198 7.18532 14.4357 7.77075C13.5301 7.93042 12.731 8.1433 12.0918 8.35619C12.4114 8.1433 12.731 7.8772 12.9974 7.61109C13.6367 6.97243 13.7432 6.44022 13.7432 6.06767C13.7432 5.85479 13.7432 5.69512 13.6367 5.58868C13.5834 5.53546 12.731 5.21613 11.6656 6.22733C11.346 6.54666 11.0264 6.97243 10.76 7.34498C10.76 7.1321 10.76 6.97243 10.6535 6.75955C10.0675 4.79036 7.51049 3.8856 6.65815 3.56627C5.646 3.24694 4.79366 2.98083 4.15441 2.82117C3.72824 2.50184 3.35534 2.34218 3.19553 2.3954C3.19553 2.3954 3.08899 2.50185 3.08899 2.55507L3.08899 2.66151L2.98245 2.66151C2.92918 2.66151 2.8759 2.76795 2.8759 2.82117C2.8759 2.98083 2.98245 3.30016 3.35534 3.72593C3.51516 4.36459 3.78151 5.21613 4.10114 6.22733C4.9002 8.56907 5.96563 9.84638 7.2974 10.2189C7.51049 10.2189 7.6703 10.3254 7.88338 10.3254C7.51049 10.5915 7.08432 10.8576 6.76469 11.1769C6.12544 11.8156 6.0189 12.3478 6.0189 12.7203C6.0189 12.9332 6.0189 13.0929 6.12544 13.1461C6.23198 13.1993 7.08432 13.5187 8.09647 12.5074C8.36282 12.2413 8.57591 11.922 8.84226 11.6027C8.62918 12.2413 8.41609 12.9864 8.25628 13.8912C8.0432 14.5831 7.98992 15.3814 7.98992 16.2329C7.98992 17.457 8.25628 20.5439 10.6535 22.1405C11.5591 22.9388 12.7843 22.7792 13.5301 22.2469C13.5301 22.2469 13.5301 22.3002 13.6367 22.3534C13.903 22.7259 14.3292 23.3114 14.489 24.1097C14.489 24.2161 14.489 24.3226 14.489 24.4822C14.489 25.1741 13.903 25.866 13.4236 26.1321C13.2105 26.2385 13.0507 26.2385 12.9441 26.1321C12.4647 25.8128 12.4114 25.6531 12.4114 25.5467C12.4114 25.387 12.8376 25.2806 13.0507 25.2273C13.317 25.1741 13.4768 25.1209 13.4768 24.9612C13.4768 24.9612 13.4768 24.908 13.4768 24.8548C13.4236 24.6951 13.1572 24.5355 12.6245 24.3226C12.4647 24.2161 12.1983 24.1629 11.932 24.2694C11.4525 24.3758 11.0796 24.6951 10.8666 25.1209C10.2273 24.8548 9.6946 25.1209 9.48151 25.2806C9.21516 25.4402 9.05535 25.6531 9.05535 25.866C8.73572 26.5579 8.84226 26.7708 8.84226 26.8772C8.84226 26.8772 8.84226 26.9836 8.89553 26.9836C9.00208 27.0369 9.10862 26.9836 9.37497 26.824C9.53479 26.7175 9.90768 26.5046 10.0675 26.5579C10.174 26.6111 10.174 26.8772 10.1208 27.3562C10.1208 27.5158 9.90768 27.6755 9.53479 27.7287C8.9488 27.8352 7.93665 27.7287 7.56376 26.9836C7.08432 26.2918 6.97778 25.4934 6.9245 25.0677C6.9245 25.0677 6.9245 25.0145 6.9245 24.9612C7.83011 24.7483 8.78899 24.0565 8.89553 22.8324C8.9488 22.513 9.00207 22.1405 9.00207 21.768C9.00207 18.7876 6.49834 16.2329 4.79366 15.275C4.04787 14.7427 3.35534 14.317 2.71609 13.9976C3.08899 14.0509 3.51516 14.1041 3.88805 14.1041C5.37964 14.1041 5.75254 13.2525 5.75254 13.1461C5.75254 13.0397 5.37964 12.1881 3.88805 12.1881C3.40862 12.1881 2.87591 12.2413 2.44974 12.3478C2.55628 12.1881 2.71609 12.0285 2.76936 11.8688C3.46189 10.6979 3.30207 8.99484 2.18338 6.75955C1.70394 5.80157 1.27777 5.05647 0.958147 4.52426C0.958147 4.04526 0.745063 3.51305 0.531979 3.51305C0.531979 3.51305 0.531979 3.51305 0.478708 3.51305C0.425437 3.51305 0.478708 3.51305 0.425437 3.51305L0.425437 3.8856C0.425437 3.8856 0.425437 3.8856 0.478708 3.83238C0.531979 3.93882 0.638521 4.20493 0.638521 4.52426C0.638521 4.52426 0.638521 4.52425 0.638521 4.57747C0.958147 5.10969 1.38432 5.85479 1.86376 6.86599C2.92918 8.99484 3.08899 10.5915 2.44974 11.7091C2.28992 12.0285 2.07684 12.2946 1.81048 12.5075C1.81048 12.5075 1.75721 12.6139 1.81048 12.6671C1.81048 12.6671 1.91703 12.7736 1.9703 12.7203C2.44974 12.6139 3.14226 12.4542 3.78151 12.4542C4.95348 12.4542 5.2731 12.9864 5.32637 13.0929C5.2731 13.1993 4.9002 13.7315 3.78151 13.7315C2.66282 13.7315 1.27777 13.3058 0.798335 13.0929C0.798335 13.0929 0.798335 13.0929 0.904877 13.0929C1.17123 12.8268 1.70394 12.2946 1.86376 11.5495C1.86376 11.3898 1.91703 11.1769 1.91703 11.0172C1.91703 10.1125 1.38432 9.04807 0.904877 8.03686C0.851606 7.8772 0.745063 7.71753 0.638521 7.55787C0.531979 7.34498 0.478708 7.18532 0.372166 6.97243L0.372166 6.91921L0.265624 6.91921L0.265624 7.55787C0.265624 7.55787 0.318895 7.71753 0.372166 7.77075C0.425437 7.93042 0.531979 8.09008 0.58525 8.24975C1.17123 9.42061 1.75721 10.6447 1.54413 11.6027C1.38432 12.2946 0.904877 12.7736 0.691793 12.9864C0.53198 13.0397 0.425437 13.1461 0.372166 13.1993L0.318895 13.1993L0.318895 13.6251C0.318895 13.6783 0.425437 13.7315 0.53198 13.838C0.958148 14.2638 1.75721 15.0621 2.44974 16.1797C3.19553 17.2974 3.40862 18.1489 3.19553 18.7343C2.98245 19.2666 2.50301 19.5859 2.18338 19.6391C2.02357 19.6391 1.86376 19.6391 1.81048 19.6391C1.5974 19.4262 1.43759 19.2133 1.27777 19.0004C1.38432 18.4682 1.27777 17.9892 1.11796 17.5102C1.38432 17.2441 1.75721 17.1377 2.02357 17.0313C2.18338 17.0313 2.28992 16.9248 2.28992 16.8184C2.28992 16.8184 2.28992 16.7119 2.18338 16.6587C2.07684 16.6055 1.75721 16.3926 0.904877 16.2862C0.745064 16.2862 0.53198 16.2862 0.318896 16.4458L0.318896 16.7652C0.53198 16.6587 0.691793 16.6055 0.851606 16.6055L0.53198 16.6587ZM10.0142 9.68672C10.6002 9.68672 11.7189 9.68672 12.9974 9.95282C14.2759 10.2189 15.075 10.6447 15.3413 11.2301C15.3946 11.443 15.4479 11.6559 15.4479 11.8688C15.4479 12.401 15.2348 12.8268 14.9684 12.88C14.6488 12.88 14.3824 12.8268 14.1161 12.7736C13.7965 12.3478 13.4236 12.0285 12.9441 11.8688C12.9441 11.4962 13.1572 11.1237 13.2638 10.9108C13.317 10.8044 13.3703 10.7511 13.3703 10.6447C13.3703 10.6447 13.3703 10.5383 13.317 10.485C13.317 10.485 13.2105 10.485 13.1572 10.485C13.0507 10.485 12.6778 10.5915 11.9853 11.1769C11.8254 11.2834 11.7189 11.4962 11.6656 11.7091C11.4525 11.7623 11.2395 11.8688 11.1329 12.0285C10.6002 12.7203 10.4937 13.0929 10.4937 13.1993C10.4937 13.2525 10.4937 13.359 10.4937 13.4122C10.6002 13.4122 10.6535 13.4122 10.8133 13.359C11.0264 13.2525 11.3993 13.0397 11.7722 13.0397C11.9853 13.4654 12.3049 13.8912 12.6778 14.2105C12.6778 14.4766 12.7843 14.7427 12.7843 15.0088C12.7843 15.1153 12.6778 15.2217 12.518 15.3282C12.2516 15.4878 11.6656 15.5943 11.1862 15.3814C10.4404 15.0621 10.0675 13.9444 9.90768 13.0929C9.64133 11.8156 9.64133 10.6447 9.64133 10.0593C9.64133 9.89961 9.64133 9.79316 9.64133 9.68672C9.74787 9.68672 9.85441 9.68672 10.0142 9.68672ZM9.42824 9.36739C9.42824 9.36739 9.42824 9.36739 9.37497 9.42062C9.37497 9.42062 9.37497 9.42061 9.37497 9.47383C9.37497 9.47383 9.37497 9.47383 9.37497 9.52706C9.3217 9.52706 9.21516 9.52706 9.00207 9.6335C8.62918 9.6335 7.98992 9.6335 7.35067 9.26095C6.55161 8.78196 6.12544 7.55786 5.69927 6.33377C5.59273 6.12089 5.53946 5.908 5.48619 5.69512C5.48619 5.53546 5.37964 5.42902 5.32637 5.32257C5.43291 5.32257 5.59273 5.42901 5.69927 5.48223C5.91235 5.53546 6.07217 5.6419 6.28525 5.69512C7.51049 6.12089 8.73572 6.54666 9.21516 7.39821C9.53478 7.93042 9.58806 8.51585 9.58806 8.94162C9.58806 8.94162 9.48151 9.20773 9.48151 9.31417L9.42824 9.31417L9.42824 9.36739ZM7.45721 12.4542C6.65815 13.2525 6.0189 13.1461 5.91235 13.0929C5.91235 13.0929 5.91235 12.9864 5.91235 12.88C5.91235 12.5607 6.0189 12.0817 6.55161 11.5495C6.97778 11.1237 7.61703 10.6979 8.0432 10.4318C8.09647 10.4318 8.14974 10.3254 8.09647 10.2722C8.09647 10.2189 7.98992 10.1657 7.93665 10.1657C7.61703 10.1657 7.2974 10.1657 6.97777 10.0593C5.75254 9.68672 4.74039 8.46263 3.9946 6.22733C3.67497 5.21613 3.40862 4.36459 3.2488 3.72593C3.2488 3.72593 3.2488 3.72593 3.2488 3.67271C3.03572 3.4066 2.92918 3.19372 2.8759 3.08728C2.8759 3.08728 2.8759 3.08728 2.98245 3.08728L3.08899 3.08728C3.08899 3.08728 3.08899 3.03406 3.08899 2.98084C3.08899 2.98084 3.08899 2.92761 3.08899 2.87439C3.2488 2.87439 3.40861 3.03406 3.67497 3.24694C3.67497 3.24694 3.67497 3.24694 3.72824 3.24694C4.36749 3.4066 5.21983 3.67271 6.23198 3.99204C7.03105 4.31137 9.53478 5.16291 10.0675 6.97243C10.174 7.29176 10.174 7.66431 10.174 7.98364C10.174 7.98364 10.174 8.09008 10.2806 8.1433C10.3338 8.1433 10.4404 8.1433 10.4404 8.09008C10.7067 7.66431 11.0796 7.07887 11.5591 6.59988C12.3581 5.80156 12.9974 5.90801 13.1039 5.96123C13.1039 6.12089 13.2105 6.75955 12.4647 7.50465C11.6656 8.30296 10.4404 8.94162 9.90768 9.15451C9.90768 9.15451 9.90768 9.1545 9.90768 9.04806L9.90768 8.99484C9.90768 8.51585 9.90768 7.87719 9.48151 7.29176C8.9488 6.387 7.6703 5.908 6.39179 5.48223C6.17871 5.42901 6.0189 5.37579 5.80581 5.26935C5.59273 5.21613 5.37964 5.10969 5.16656 5.00324C5.16656 5.00324 5.00675 5.00324 4.95347 5.00324C4.95347 5.00324 4.95347 5.10969 4.95347 5.16291L4.95347 5.21613C4.95347 5.21613 5.16656 5.58868 5.21983 5.85479C5.2731 6.06767 5.37964 6.28056 5.43291 6.44022C5.85908 7.71753 6.28525 8.99484 7.19086 9.52706C7.83011 9.8996 8.46936 9.95283 9.00207 9.95283C9.00207 9.95283 9.05535 9.95283 9.10862 9.95283C8.89553 10.485 8.20301 11.7624 7.45721 12.5074L7.45721 12.4542Z" fill="#CA943A"/>
<path d="M20.9908 0.638132C20.9908 0.638132 20.9908 0.744574 21.0441 0.851017C21.0441 0.851017 21.0441 0.90424 21.0441 0.957462C21.0441 0.957462 21.0441 1.01068 21.0974 1.01068C21.5235 1.22356 22.0562 1.48967 22.5357 1.75578C24.1338 2.18155 25.9983 2.18155 27.5432 1.86222C29.3011 1.5429 30.3665 1.48967 30.9525 1.48967C30.9525 1.48967 31.0058 1.48967 31.059 1.48967C31.6983 0.851016 32.3908 0.372027 32.9768 0.0526988C32.9768 0.0526988 32.9768 0.0526976 32.9768 -0.000523642L32.4974 -0.000523621C31.9646 0.318804 31.4319 0.691356 30.8992 1.22357C30.3132 1.22357 29.2478 1.22357 27.4899 1.59612C25.9983 1.91544 24.1871 1.91544 22.5889 1.48967C22.1095 1.22356 21.6301 0.957462 21.2039 0.744577C21.2039 0.638134 21.2039 0.584912 21.0974 0.478469C20.9908 0.318805 20.8843 0.159141 20.7245 -0.000523107L20.3516 -0.00052309C20.5646 0.212362 20.7245 0.372024 20.831 0.584909L20.9908 0.638132Z" fill="#CA943A"/>
<path d="M21.9456 17.4565C22.3185 17.9887 22.6382 18.4677 22.9045 18.9999C22.9045 19.0532 23.011 19.1064 23.0643 19.0531C23.1176 19.0531 23.1709 18.9999 23.1709 18.9467L23.1709 18.4677C23.2774 17.8291 23.2774 17.2436 23.2774 16.605C23.2774 16.0728 23.2774 15.647 23.1709 15.2744C23.011 14.1568 22.2653 13.6246 21.9989 13.4117C21.9456 13.4117 21.8391 13.4117 21.7858 13.4117C21.5727 13.5714 21.2531 13.7842 20.8802 13.7842C20.2942 13.8907 19.7082 13.7842 19.2821 13.4649C19.069 13.3053 18.8559 13.0924 18.8559 12.773C18.9624 12.294 19.069 11.9215 19.2821 11.7086C19.2821 11.9215 19.2821 12.2408 19.3886 12.5602C19.3886 12.6134 19.3886 12.7198 19.5484 12.8263C19.8148 12.9859 20.454 12.9859 20.8802 12.7198C21.4129 12.4005 21.4662 11.8151 20.9867 11.1764C19.7082 9.20722 16.6185 8.56856 14.1681 8.78144C13.8484 8.78144 13.5288 8.78144 13.1559 8.78144C13.0494 8.78144 12.9961 8.83467 12.9961 8.94111C12.9961 8.99433 12.9961 9.10077 13.1026 9.10077L13.2092 9.10077C14.2213 9.20721 15.6064 9.31365 16.512 10.591C16.7251 10.9635 16.8849 11.4957 16.8849 11.9747C16.8849 12.7198 16.6185 13.3585 16.1924 13.8375C16.1924 13.8375 16.1924 13.9439 16.1924 13.9971C16.1924 13.9971 16.2456 14.1036 16.2989 14.1036C16.6718 14.1036 17.0447 14.1036 17.4709 14.1568C18.9624 14.5826 20.9335 15.8599 21.8924 17.4565L21.9456 17.4565ZM17.5774 13.8907C17.2578 13.8907 16.9382 13.8907 16.6718 13.8907C17.0447 13.4117 17.2578 12.773 17.2578 12.0812C17.2578 11.4957 17.098 10.9635 16.8316 10.5377C16.2456 9.68621 15.4998 9.31366 14.754 9.10077C17.0447 8.99433 19.655 9.63298 20.7737 11.3893C20.9867 11.6554 21.04 11.8683 21.04 12.0279C21.04 12.3473 20.7737 12.5069 20.5073 12.6134C20.0811 12.773 19.7082 12.6666 19.655 12.6134C19.6017 12.294 19.6017 11.9747 19.5484 11.7618C19.5484 11.5489 19.5484 11.4425 19.4419 11.3893C19.4419 11.3893 19.3353 11.3893 19.2821 11.3893C19.2821 11.3893 19.2821 11.3893 19.2288 11.4425C18.9092 11.6554 18.6428 12.1344 18.5363 12.8795C18.5363 13.252 18.7494 13.5714 19.069 13.8375C19.5484 14.21 20.241 14.3697 20.8802 14.21C21.1998 14.21 21.5195 14.1036 21.8924 13.8375C22.2653 14.1036 22.7447 14.5826 22.8512 15.4341C22.9578 15.8067 22.9578 16.2324 22.9578 16.7114C22.9578 17.2968 22.9578 17.8823 22.8512 18.5209C22.6382 18.1484 22.3718 17.7758 22.1054 17.4033C21.0933 15.7534 19.0157 14.4229 17.4709 13.9971L17.5774 13.8907Z" fill="#CA943A"/>
<path d="M1.33139 40.5016C2.55662 39.65 3.19588 38.4259 3.19588 36.8825C3.19587 35.3391 2.55662 33.636 2.13045 32.7313C2.50335 33.2103 2.98279 33.9554 3.56877 34.9133C3.94167 35.4456 4.20802 36.1374 4.20802 37.0422C4.20802 38.692 3.40896 40.5016 2.34354 41.2999C1.59774 42.045 0.958492 42.7369 0.425781 43.4287L0.425781 43.5352C0.532323 43.8545 0.532323 44.1738 0.532323 44.4399L0.532323 44.5464C0.532323 44.5464 0.532323 44.6528 0.638865 44.7061C0.638865 44.7061 0.745408 44.7061 0.798679 44.7061C1.43793 44.0674 2.34354 43.6949 3.03606 43.6416C3.19588 43.6416 3.30242 43.6416 3.40896 43.6948L3.5155 43.6948C3.5155 43.6948 3.62204 43.6948 3.67531 43.6416C3.67531 43.6416 3.67531 43.5352 3.67531 43.482C3.30242 43.1626 3.08933 42.7901 3.08933 42.4708L3.08933 42.4175C3.08933 41.4596 3.8884 41.1934 4.15475 41.1402C4.52765 41.1402 4.74074 41.2467 4.90055 41.2999C4.10148 41.8321 4.10148 42.0982 4.10148 42.2047C4.10148 42.5772 4.68746 42.6304 4.90055 42.6304C4.90055 42.6304 4.90055 42.6304 4.95382 42.6304C5.80616 42.2047 6.23232 41.1934 6.23232 39.5968C6.23232 38.3195 5.96597 37.0422 5.80616 36.2971C5.80616 36.2439 5.80616 36.1374 5.80616 36.0842C5.80616 36.0842 5.85943 36.0842 5.9127 36.1374C6.33887 36.4035 7.08466 36.989 8.25662 37.0954C9.32204 37.2551 10.7071 37.0954 11.5062 36.4568C11.8791 36.1374 12.0921 35.7649 12.1454 35.2859C12.1454 34.7005 12.0389 34.4343 11.8791 34.3811C11.6127 34.3279 11.2931 34.8069 10.9202 35.4988C10.9202 35.4988 10.9202 35.552 10.8669 35.6052C10.8669 35.4988 10.7604 35.2327 10.7071 34.8601C10.7071 34.8601 10.7071 34.8069 10.7071 34.7537C10.7071 34.3811 10.8136 33.6892 11.6127 33.3699C12.0389 33.2103 12.4118 33.3699 12.6248 33.5296C13.1043 33.8489 13.4772 34.5408 13.4772 35.1262C13.4772 35.2327 13.4772 35.3391 13.4772 35.4455C13.4772 35.4455 13.4772 35.4456 13.4772 35.4988C13.4772 35.4988 13.4772 35.552 13.4772 35.6052C13.9034 36.3503 14.1164 37.1486 14.1164 38.0002C14.1164 38.4259 14.1697 38.8517 14.223 39.3307C14.3295 41.2467 14.4361 43.2691 15.9277 43.7481C16.3538 43.8545 16.6202 43.7481 16.7267 43.5884C16.9398 43.4287 17.0463 43.1094 17.0463 42.7901C17.0463 42.3643 16.8333 41.9918 16.5669 41.8321C16.2473 41.6192 16.0342 41.4596 15.9277 41.3531C16.0875 41.3531 16.4071 41.3531 16.8865 41.3531C16.8865 41.3531 16.9398 41.3531 16.9931 41.4063C16.9931 41.4063 17.1529 41.4063 17.2062 41.4063C17.2062 41.4063 17.2594 41.4063 17.3127 41.2999C17.3127 41.2467 17.3127 41.1402 17.366 41.087C17.6856 40.7145 17.8987 40.5016 18.0052 40.3951C18.0052 40.5548 18.0052 40.8741 17.8987 41.1934C17.8987 41.2467 17.8987 41.3531 17.8987 41.4063C17.8987 41.8853 18.2716 42.3643 18.751 42.524C19.1239 42.6304 19.4968 42.4708 19.7099 42.045C19.8697 41.7789 19.923 41.5128 19.923 41.1934C19.923 40.0226 18.8576 38.8517 17.7921 37.7341C17.4725 37.4147 17.2062 37.0954 16.8865 36.7229C16.3538 36.1374 15.9277 35.4456 15.7146 34.594C15.7146 34.594 15.7146 34.594 15.7146 34.5408C15.1819 34.2215 14.8622 33.5296 14.8622 32.8909C14.8622 32.3587 15.1286 31.9329 15.5015 31.7201C16.4071 31.3475 16.9931 31.9329 17.1529 32.1458C17.4192 32.4652 17.5258 32.678 17.5791 32.7845C17.5791 32.7845 17.5791 32.7845 17.4725 32.7845C16.7267 32.5184 16.2473 32.4119 16.0875 32.5716C16.0342 32.5716 15.9809 32.678 15.9809 32.7845C15.9809 32.8909 15.9809 33.1038 16.4604 33.5296C16.8333 33.8489 17.2594 33.9554 17.7389 33.9021C18.8043 33.7957 19.8697 32.8377 20.509 32.0394C21.2548 31.1346 21.4146 30.1766 21.5211 29.6977C21.5211 29.6977 21.5211 29.6444 21.5211 29.5912C21.5211 29.5912 21.5211 29.6977 21.6277 29.6977C22.3734 30.8153 24.5576 34.3279 26.7417 33.5828C26.7417 33.5828 26.7417 33.5828 26.7949 33.5828C27.1678 33.157 27.2211 32.8377 27.008 32.678C26.8482 32.5184 26.422 32.5184 25.8361 32.678C25.8361 32.5716 25.9959 32.3587 26.209 32.0926C26.422 31.8797 27.1678 31.5072 27.8604 32.1991C28.1267 32.4119 28.2865 32.8909 28.2333 33.3699C28.2333 33.3699 28.2333 33.4764 28.3398 33.5296C28.3931 33.5296 28.4996 33.5296 28.4996 33.4764L28.4996 33.3699C28.4996 33.3699 28.7127 33.157 28.766 33.0506C29.2987 32.6248 30.2043 32.1458 31.1099 32.1991C31.1632 32.1991 31.2164 32.1991 31.2697 32.0926C31.2697 32.0394 31.2697 31.9862 31.2697 31.9329C31.0566 31.7201 30.8435 31.454 30.6305 31.1346C30.6305 31.1346 30.5772 31.0814 30.5239 31.0814C29.6716 30.975 28.7127 30.9217 27.6473 30.9217C26.5819 31.0814 25.0903 30.6024 23.9183 29.7509C22.9594 29.0058 22.3734 28.1542 22.2669 27.3027C22.0006 26.2383 21.8407 25.3867 21.7342 24.7481C22.3734 26.3979 24.0781 30.3895 27.7538 29.6977C28.4996 29.6977 29.2454 29.8041 29.8847 29.9638C29.8847 29.9638 29.9912 29.9638 30.0445 29.9638C30.0445 29.9638 30.0445 29.8573 30.0445 29.8041C29.8847 29.1654 29.7781 28.4736 29.7781 27.6752C29.8314 27.3559 29.8847 27.0898 29.8847 26.8237C29.8847 23.7369 26.3155 22.1934 24.8772 21.608C25.5164 21.7145 26.3688 21.8741 27.4342 22.1402C29.352 22.4063 31.1099 25.0674 31.1099 27.0366C31.1099 27.1962 31.1099 27.3559 31.1099 27.5156C31.1099 28.58 31.1632 29.538 31.323 30.3895C31.323 30.3895 31.323 30.496 31.3763 30.496C31.6959 30.7089 31.9622 30.9217 32.1753 31.1346C32.1753 31.1346 32.2819 31.1878 32.3351 31.1346C32.3351 31.1346 32.4417 31.0814 32.4417 30.975C32.4417 30.0702 32.8146 29.1122 33.2407 28.6864C33.3473 28.58 33.4538 28.5268 33.5604 28.4736L33.6669 28.4736C33.6669 28.4736 33.7735 28.3139 33.6669 28.2607C33.6669 28.2075 33.5604 28.1542 33.5071 28.1542C33.0277 28.1542 32.5482 28.0478 32.3351 27.7817C32.0688 27.5156 31.9622 27.1963 31.9622 26.8769C31.9622 26.5044 32.122 26.2383 32.2286 26.1318C32.4949 25.9189 32.708 25.7593 32.8678 25.7061C32.8678 25.9189 32.8146 26.1318 32.8146 26.3979C32.8146 26.7173 32.8678 26.9301 33.0809 26.9834C33.2407 27.0898 33.5071 26.9834 33.8267 26.664C33.8267 26.664 33.8267 26.664 33.8267 26.6108C33.88 26.3979 33.9333 26.185 33.9333 25.9722C33.9333 24.0562 31.0566 22.1934 29.9912 21.5016C29.9912 21.5016 29.8847 21.4484 29.8314 21.3951C29.8314 21.3951 29.8847 21.3951 29.9379 21.3951C30.4174 21.2887 31.3763 21.129 32.2819 20.3839C33.1875 19.692 34.1463 18.5212 34.1463 17.4035C34.1463 16.9778 34.0398 16.6584 33.7735 16.3391C33.4006 15.9666 33.1342 15.8069 32.9744 15.9133C32.8678 15.9133 32.8146 16.073 32.8146 16.2327C32.8146 16.552 32.9744 17.031 33.0809 17.3503C33.0809 17.3503 33.0809 17.4035 33.0809 17.4568C32.9744 17.4035 32.7613 17.2971 32.3884 17.031C32.2819 16.9245 31.8557 16.552 31.8557 15.9666C31.8557 15.7537 31.8557 15.594 31.9622 15.3811C32.1753 14.8489 32.6548 14.7425 32.9744 14.7425C33.6669 14.6892 34.4127 15.0086 34.7856 15.594C34.7856 15.594 34.7856 15.594 34.8389 15.6472C35.6912 15.8601 36.3837 16.2859 36.9697 16.8713C37.2893 17.1374 37.609 17.4035 37.9286 17.7229C39.3669 19.0002 40.8585 20.3839 42.2968 19.6388C42.6697 19.3727 42.7763 19.1066 42.7763 18.8937C42.7763 18.5744 42.5632 18.2551 42.2968 18.0422C42.0305 17.8293 41.7108 17.7761 41.4445 17.8293C41.0716 17.9357 40.8052 17.9357 40.6454 17.989C40.752 17.8293 40.965 17.6164 41.3379 17.2971C41.3912 17.2971 41.4445 17.2971 41.551 17.2439C41.551 17.2439 41.6043 17.2439 41.6576 17.1374L41.6576 17.031L41.6576 16.9778C41.6576 16.9778 41.551 16.8713 41.551 16.8181C41.551 16.3923 41.551 16.073 41.551 15.8601C41.6576 16.0198 41.8706 16.2327 42.0305 16.4988C42.2435 16.9245 42.8295 17.0842 43.309 16.9778C43.7351 16.8713 43.9482 16.552 43.9482 16.1794C43.9482 16.073 43.9482 15.9666 43.9482 15.8601C43.4688 14.3699 41.4977 14.2635 39.58 14.157C39.1538 14.157 38.6744 14.157 38.2482 14.0506C37.4491 14.0506 36.6501 13.8377 35.851 13.4119C35.851 13.4119 35.7977 13.4119 35.7445 13.4119L35.6912 13.4119C35.1585 13.5184 34.5725 13.3587 34.0931 12.9862C33.6136 12.6136 33.4538 12.0814 33.6136 11.6024C33.9865 10.6444 34.8921 10.6977 35.1052 10.6977C35.5314 10.6977 35.7445 10.8041 35.851 10.8573C35.851 10.8573 35.7977 10.8573 35.7445 10.8573C34.9987 11.2831 34.6258 11.496 34.6258 11.7621C34.6258 12.0814 35.1052 12.1346 35.5314 12.1346C36.8632 12.0282 37.3426 10.4848 37.3426 9.10102C37.3426 8.83491 37.3426 8.51558 37.3426 8.24948C37.2361 7.07861 36.7034 6.28029 36.3837 5.85452C36.3837 5.85452 36.3837 5.85452 36.3305 5.80129C36.3305 5.80129 36.437 5.80129 36.4903 5.80129C37.822 6.0674 41.8174 6.97217 42.8295 4.94975C42.8295 4.94975 42.8295 4.94975 42.8295 4.89653C42.8295 4.63043 42.7763 4.20465 42.5099 4.15143C42.2435 4.09821 41.9239 4.3111 41.4977 4.94975C41.4977 4.84331 41.3912 4.63043 41.3379 4.25788C41.3379 3.93855 41.6576 3.19345 42.6164 3.14023C42.9361 3.14023 43.3622 3.29989 43.6819 3.67244C43.6819 3.67244 43.7884 3.72566 43.8417 3.67244C43.8949 3.67244 43.9482 3.566 43.9482 3.51278L43.9482 3.40634C43.9482 3.40634 43.8949 3.19345 43.8417 3.03378C43.8417 2.34191 44.2146 1.38393 44.9071 0.798494C44.9071 0.798494 44.9604 0.692049 44.9071 0.638826C44.9071 0.585604 44.8006 0.532392 44.7473 0.532392C44.4277 0.532392 44.108 0.532389 43.7351 0.425947L43.6286 0.425947C42.9361 0.958159 42.2435 1.59681 41.4445 2.34191C40.8052 3.24667 39.4202 3.93855 37.9819 4.09822C36.8099 4.25788 35.7445 4.09821 35.052 3.51278C34.0931 2.98057 33.3473 2.44836 32.8678 2.0758C34.466 2.76768 38.5146 4.41754 40.6454 1.27749C41.2314 0.745276 41.7641 0.266283 42.3501 -0.0530452C42.3501 -0.0530452 42.3501 -0.0530452 42.3501 -0.106268L41.9239 -0.106268C41.4445 0.21306 40.965 0.585608 40.4323 1.11782C38.4613 3.99177 34.7323 2.5548 33.1342 1.86293C33.7202 1.33071 34.1463 0.904932 34.466 0.585604L34.5725 0.47917C34.9987 0.47917 35.3183 0.47917 35.4249 0.425948C35.4249 0.425948 35.4249 0.372725 35.4249 0.319502C35.4249 0.319502 35.4249 0.319502 35.4249 0.26628C35.4249 0.213057 35.3183 0.106619 35.2118 0.00017777L34.8389 0.000177787C34.9454 0.106619 34.9987 0.159834 35.052 0.213057C34.9454 0.213057 34.7323 0.213057 34.5192 0.213057L34.4127 0.213057L34.2529 0.372725C33.88 0.692053 33.4006 1.17105 32.7613 1.8097C32.7613 1.8097 32.7613 1.91614 32.7613 1.96936C32.7613 1.96936 32.6548 1.96936 32.6015 1.96936L32.1753 2.39513C31.909 2.66124 31.6426 2.92735 31.3763 3.19345C30.3108 4.20466 29.1389 5.37553 27.7538 5.96096C27.7538 5.96096 27.6473 6.0674 27.6473 6.12062C27.6473 6.17384 27.6473 6.22707 27.7538 6.28029C27.7538 6.28029 27.7538 6.28029 27.8071 6.28029C27.8071 6.28029 27.8071 6.28029 27.9136 6.28029C27.9136 6.28029 29.0856 6.65283 30.151 7.0786L30.7903 7.34471C31.8024 7.82371 32.9744 7.87692 33.6136 7.45115C34.1463 7.13182 34.1996 6.54639 33.7735 5.96096C33.1875 5.21586 32.708 4.84331 32.2819 4.89653C31.8024 4.89653 31.5361 5.48197 31.3763 5.85452C31.3763 5.69485 31.2697 5.42875 31.2697 4.94976C31.1632 4.52399 31.6426 4.045 32.3351 3.88533C33.1875 3.72567 34.3594 3.93855 34.9987 5.3223C35.2118 5.58841 35.3183 5.96096 35.3183 6.38673C35.3183 7.29149 34.7323 8.35591 33.7202 8.5688C32.5482 8.78168 31.6959 8.30269 30.8968 7.93014C30.7903 7.87693 30.6837 7.8237 30.5772 7.77048C30.151 7.50438 29.7248 7.18505 29.2454 6.91894L29.0856 6.91894C29.0856 6.91894 29.0323 7.02539 29.0856 7.0786C29.0856 7.13183 29.1921 7.23827 29.2454 7.34471C29.2454 7.34471 29.2454 7.34471 29.2987 7.39794C29.8314 7.61082 30.9501 8.24947 31.4828 8.83491C32.122 9.52679 31.909 10.1122 31.909 10.2187C31.8024 10.2187 31.2164 10.3783 30.5239 9.63323C30.3108 9.42034 30.151 9.15423 29.9379 8.88813C29.9379 8.88813 29.8314 8.83491 29.7781 8.83491C29.7249 8.83491 29.6716 8.88813 29.6716 8.99457C29.6716 9.63323 29.4052 10.4848 28.2865 10.9638C28.18 10.9638 28.0734 10.9638 28.0202 10.9638C28.0202 10.9638 27.9136 10.9638 27.8604 10.9638C27.8071 10.9638 27.7538 10.9638 27.7538 11.0702C27.7538 11.0702 27.7538 11.1766 27.7538 11.2299L27.8604 11.3363C27.8604 11.3363 27.9669 11.496 28.0202 11.5492C28.3931 12.454 28.2333 13.3055 27.6473 13.9974C27.6473 13.9974 27.6473 14.1038 27.6473 14.157C27.6473 14.157 27.7538 14.2635 27.8071 14.2103C28.1267 14.157 28.4463 14.1038 28.766 14.0506C29.7781 14.0506 30.0977 14.4764 30.151 14.636C30.0977 14.7425 29.7781 15.2747 28.8725 15.3279C28.0734 15.3279 26.8482 15.0086 26.3155 14.7957C26.3155 14.7957 26.2622 14.7957 26.209 14.7957C26.1024 14.7957 25.9959 14.7957 25.8893 14.8489C25.8361 14.8489 25.7828 14.9021 25.7828 15.0086C25.7828 15.115 25.7828 15.115 25.8893 15.1682C26.422 15.2747 26.9548 15.3811 27.4342 15.4876C27.5407 15.4876 27.6473 15.5408 27.8071 15.594C28.6062 15.8601 29.5118 16.1262 30.2043 17.0842C30.4174 17.4035 30.5239 17.7229 30.5239 18.0954C30.5239 19.1598 29.7249 20.171 28.766 20.2775C27.7538 20.65 27.008 20.3839 26.5819 20.0646C25.9959 19.692 25.623 19.0002 25.623 18.468C25.623 18.3083 25.623 18.0422 25.9426 17.8825C26.2622 17.5632 26.5286 17.4035 26.6351 17.3503C26.5286 17.5632 26.422 17.8825 26.422 18.1486C26.422 18.4147 26.5286 18.6276 26.6884 18.7873C27.008 19.0534 27.5407 19.1066 28.3931 19.0002C29.0323 18.8937 29.352 18.5744 29.352 18.0954C29.352 17.2971 28.3931 16.3391 27.2211 15.9133L26.5286 15.594C25.5164 15.1682 24.6108 14.7425 24.5043 14.636L24.3977 14.636L24.1847 14.636C24.1847 14.636 24.1314 14.7425 24.1847 14.7957C24.7706 16.1794 24.7706 17.8293 24.8239 19.3195C24.8239 19.7453 24.8239 20.1178 24.8239 20.4904L24.8239 21.129C24.8239 21.129 24.8239 21.2355 24.9305 21.2355C24.9305 21.2355 24.8772 21.2887 24.8772 21.3419C24.8772 22.2999 24.8772 22.9918 24.8772 23.524L24.8772 23.7369C24.8772 23.7369 24.8772 23.7901 24.9305 23.8433C25.1435 24.003 25.2501 24.1094 25.3034 24.2159C25.2501 24.2159 25.1435 24.2159 25.037 24.2159C24.9305 24.2159 24.8772 24.2691 24.8772 24.3755C24.8772 24.5352 24.8772 24.5884 24.8772 24.6416C24.7706 24.5884 24.6641 24.4287 24.5043 24.2691C24.5043 24.2691 24.451 24.2691 24.3977 24.2159L24.2379 24.2159C23.7052 24.2159 23.0127 24.2159 22.0538 24.2159C22.0538 24.2159 21.9473 24.2159 21.9473 24.2691C21.9473 24.2691 21.8407 24.1626 21.7875 24.1626L21.1482 24.1626C20.7753 24.1626 20.4024 24.1626 20.0295 24.1626C18.5379 24.1626 16.8333 24.1626 15.4482 23.5772C15.4482 23.5772 15.3417 23.5772 15.2884 23.5772C15.2884 23.5772 15.2884 23.6836 15.2884 23.7369C15.2884 23.7369 15.2884 23.7369 15.2884 23.7901C15.2884 23.7901 15.2884 23.7901 15.2884 23.8433C15.3949 23.9498 15.7678 24.7481 16.1407 25.5996C16.3005 25.9189 16.4071 26.2383 16.5669 26.5576C16.9931 27.7817 18.0052 28.7397 18.8576 28.6864C19.1239 28.6864 19.5501 28.5268 19.6566 27.7285C19.7632 26.7705 19.6566 26.1318 19.2837 25.8657C18.9108 25.5996 18.3248 25.8125 18.0052 25.8657C18.0585 25.7593 18.2183 25.4932 18.5379 25.1738C18.6977 24.9077 19.0174 24.8545 19.4435 24.961C20.2426 25.1738 21.0949 26.0254 21.0949 27.143C21.0949 27.4624 21.0417 27.7817 20.8819 28.101C20.8286 28.6864 20.2959 29.2719 19.6034 29.5912C18.9108 29.9105 18.2183 29.8573 17.6323 29.4848C16.6734 28.7929 16.3538 27.8881 16.0875 27.0898C16.0875 26.9834 16.0342 26.8769 15.9809 26.7705C15.9809 26.7705 15.9809 26.7173 15.8744 26.664C15.8744 26.664 15.8744 26.5576 15.8744 26.5044C15.7678 26.0254 15.7146 25.5996 15.608 25.1738C15.608 25.1206 15.5548 25.0674 15.4482 25.0674C15.3417 25.0674 15.2884 25.0674 15.2884 25.1738C15.2884 25.2803 15.2884 25.3867 15.2351 25.44C15.2351 25.44 15.2351 25.4932 15.2351 25.5464C15.3417 25.8125 15.4482 26.185 15.5548 26.5576C15.5548 26.6108 15.5548 26.664 15.6613 26.664C15.6613 26.664 15.608 26.7705 15.6613 26.8237C15.7678 27.3027 15.8211 27.7817 15.8211 28.101C15.8211 29.0058 15.2351 29.3251 15.1286 29.3783C15.022 29.3251 14.5426 29.0058 14.5426 28.101L14.5426 27.9946C14.5426 27.7285 14.5959 27.4091 14.7024 27.0366C14.7024 26.9834 14.7024 26.9301 14.6491 26.8769C14.6491 26.8769 14.5426 26.8769 14.4893 26.8769C14.0099 27.3027 13.2108 27.7285 12.0921 27.3027C11.9856 27.2495 11.9323 27.1963 11.8791 27.143C11.8791 27.143 11.8258 27.0898 11.7725 27.0366C11.7725 27.0366 11.666 27.0366 11.6127 27.0366C11.6127 27.0366 11.5062 27.0898 11.5062 27.143L11.5062 27.2495C11.5062 27.2495 11.5062 27.4624 11.5062 27.5156C11.0267 28.6332 10.1211 28.9526 9.48186 28.9526C9.42859 28.9526 9.37531 28.9526 9.32204 29.059C9.32204 29.1122 9.32204 29.1654 9.37531 29.2187C9.69494 29.4315 9.9613 29.5912 10.1744 29.8041C10.9202 30.496 10.8136 31.0814 10.7604 31.1878C10.6538 31.1878 10.0678 31.4007 9.37531 30.7621C9.10896 30.5492 8.8426 30.1766 8.57625 29.7509C8.57625 29.6977 8.46971 29.6444 8.36317 29.7509C8.30989 29.7509 8.25662 29.8573 8.30989 29.9638C8.30989 30.0702 8.41644 30.1766 8.46971 30.2831C8.78933 30.8685 9.10896 31.5604 9.10896 32.4652C9.10896 32.678 9.10896 32.8377 9.10896 32.9974C9.00242 33.636 8.46971 34.2215 7.77718 34.4876C7.08466 34.7537 6.33887 34.6472 5.80616 34.2747C4.47438 33.6892 4.36784 32.5716 4.36784 32.1458C4.36784 31.5604 4.58092 30.975 4.95382 30.7089C5.11363 30.5492 5.27344 30.5492 5.48653 30.6024C5.96597 30.6024 6.17905 30.6556 6.33887 30.7089C5.96597 30.8685 5.37999 31.1346 5.37999 31.7201C5.37999 32.1458 5.69961 32.6248 6.44541 33.157C6.92485 33.5296 7.29774 33.4764 7.5641 33.3699C7.99027 33.157 8.20335 32.6248 8.20335 31.8797C8.20335 31.2943 8.04354 30.7089 7.77718 30.1766L7.51083 29.4848C7.13793 28.4736 6.76503 27.5156 6.76503 27.3559L6.76503 27.3027L6.76503 27.2495C6.76503 27.2495 6.65849 27.143 6.60522 27.143C6.55195 27.143 6.49868 27.143 6.44541 27.2495C5.85943 28.58 4.74073 29.8041 3.72858 30.8153C3.46223 31.1346 3.1426 31.4007 2.92952 31.6668L2.50335 32.1458C2.50335 32.1458 2.50335 32.2523 2.50335 32.3055L2.39681 32.3055C1.75756 32.9442 1.27812 33.4764 0.90522 33.8489L0.745407 34.0086C0.745407 34.0086 0.745407 34.0618 0.745407 34.115C0.745407 34.3279 0.745407 34.5408 0.745407 34.6472C0.745407 34.6472 0.638865 34.5408 0.532323 34.4343L0.532323 34.8069C0.532323 34.8069 0.745407 34.9666 0.798678 35.0198C0.798678 35.0198 0.798678 35.0198 0.851949 35.0198C0.90522 35.0198 1.06503 35.0198 1.06503 34.4343C1.06503 34.3279 1.06503 34.2215 1.06503 34.115L1.17158 34.0086C1.4912 33.6892 1.91737 33.2103 2.50335 32.6248C2.87625 33.5296 3.46223 35.0198 3.46223 36.51C3.46223 38.0002 2.87625 39.1178 1.70429 39.9161C1.22485 40.3951 0.851949 40.8741 0.532323 41.3531L0.532323 41.8321C0.532323 41.8321 0.532323 41.8321 0.585594 41.8321C0.90522 41.2999 1.38466 40.7145 1.8641 40.1822L1.33139 40.5016ZM24.6641 21.2355C24.6641 21.2355 24.6641 20.9161 24.6641 20.7565C24.6641 20.3839 24.6641 20.0114 24.6641 19.5856C24.6641 18.2551 24.6641 16.7117 24.1847 15.3811C24.451 15.5408 25.037 15.8069 26.1024 16.2327L26.8482 16.552C28.0202 16.9245 28.8192 17.8293 28.8192 18.468C28.8192 18.8937 28.4463 19.0534 28.1267 19.1066C27.2211 19.2131 26.7949 19.1066 26.6351 18.947C26.5286 18.8405 26.4753 18.7341 26.4753 18.5744C26.4753 18.3615 26.5819 18.0422 26.6351 17.8825C26.6351 17.7229 26.7417 17.6696 26.7417 17.5632C26.7417 17.4568 26.7417 17.4035 26.6884 17.4035C26.6884 17.4035 26.5819 17.4035 26.5286 17.4035C26.422 17.4035 26.1024 17.51 25.5697 18.0422C25.3034 18.2019 25.1435 18.468 25.1435 18.8405C25.1435 19.4792 25.5697 20.2243 26.209 20.65C26.9015 21.129 27.8071 21.2355 28.6594 20.9161C29.7249 20.8097 30.6305 19.6388 30.6305 18.468C30.6305 18.0422 30.5239 17.6164 30.2576 17.2439C29.7781 16.552 29.1921 16.1794 28.6062 15.9666C29.7781 15.9666 30.2043 15.115 30.2043 14.9554C30.2043 14.9021 30.0977 14.6892 29.9379 14.5296C29.7249 14.3167 29.2987 14.0506 28.4996 14.1038C28.2865 14.1038 28.1267 14.1038 27.8604 14.157C28.3398 13.4652 28.4463 12.6668 28.0734 11.7089C28.0734 11.6556 28.0202 11.6024 27.9669 11.5492C28.0202 11.5492 28.0734 11.5492 28.18 11.5492C29.0323 11.1766 29.565 10.538 29.7249 9.68645C29.8314 9.84611 29.9912 10.0058 30.0977 10.1654C30.6837 10.7509 31.1632 10.8573 31.5361 10.8573C31.6959 10.8573 31.909 10.8573 31.9622 10.6977C31.9622 10.6977 32.0688 10.4315 32.0688 10.1654C32.0688 9.84611 31.9622 9.42034 31.5361 8.94135C32.122 9.15424 32.7613 9.3139 33.6136 9.15424C34.8389 8.94135 35.4781 7.71726 35.4781 6.70606C35.4781 6.22706 35.3183 5.80129 35.1052 5.48197C34.4127 3.99177 33.0809 3.72566 32.122 3.93855C31.323 4.09821 30.7903 4.5772 30.7903 5.10942C30.7903 5.16264 30.7903 5.26908 30.7903 5.26908C30.7903 6.0674 30.9501 6.33351 31.0034 6.43995C31.0034 6.54639 31.1099 6.5464 31.1632 6.5464C31.323 6.5464 31.3763 6.43995 31.4828 6.17384C31.6426 5.90774 31.8024 5.42875 32.1753 5.37553C32.4949 5.37553 32.9211 5.64163 33.4006 6.28029C33.7202 6.70606 33.7202 7.07861 33.294 7.34471C32.8146 7.66404 31.7491 7.71726 30.737 7.18505L30.0445 6.91894C28.9791 6.49317 28.3398 6.28029 28.0202 6.17384C29.2987 5.53519 30.3641 4.47076 31.3763 3.51278C31.6426 3.24667 31.909 2.98057 32.1753 2.71446L32.5482 2.34191C33.0809 2.71446 33.8267 3.24667 34.7856 3.77889C35.5314 4.36432 36.6501 4.5772 37.9286 4.41754C39.4734 4.20466 40.9118 3.45956 41.6043 2.5548C42.3501 1.8097 43.0426 1.22426 43.6819 0.692049C43.8949 0.745272 44.1613 0.798494 44.3211 0.798494C43.7351 1.43715 43.4688 2.34191 43.4155 2.98057C43.4155 2.98057 43.4155 2.98057 43.4155 3.03378C43.0959 2.76768 42.723 2.66124 42.4034 2.71446C41.3379 2.71446 40.9118 3.566 40.8585 4.15143C40.9118 4.79009 41.0716 5.0562 41.1781 5.16264C41.1781 5.16264 41.1781 5.26908 41.2847 5.26908C41.3912 5.26908 41.4445 5.26908 41.4977 5.16264C42.0837 4.3111 42.2435 4.36432 42.2435 4.36432C42.2435 4.36432 42.3501 4.47076 42.3501 4.79009C41.4445 6.59961 37.609 5.74807 36.3837 5.48197C35.9043 5.37552 35.9043 5.37552 35.7977 5.48197C35.7977 5.48197 35.7445 5.58841 35.7977 5.64163C35.7977 5.74808 35.851 5.85452 36.0108 6.0674C36.2772 6.43995 36.8099 7.18505 36.9164 8.3027C36.9164 8.5688 36.9164 8.83491 36.9164 9.10102C36.9164 10.3783 36.4903 11.7621 35.3716 11.8685C34.8921 11.8685 34.7856 11.8153 34.7323 11.8153C34.7323 11.6556 35.4248 11.3363 35.6912 11.1766C36.0641 10.9638 36.1174 10.9638 36.1174 10.8573L36.1174 10.7509L36.0108 10.7509C35.7978 10.5912 35.3716 10.538 34.9987 10.4848C34.7856 10.4848 33.6669 10.4315 33.1875 11.5492C32.9744 12.1346 33.1875 12.8265 33.7735 13.3055C34.3062 13.7313 34.9987 13.9442 35.6379 13.8377C36.437 14.2635 37.2361 14.4764 38.0884 14.4764C38.5146 14.4764 38.994 14.5296 39.4202 14.5828C41.2314 14.6893 43.1492 14.7957 43.522 16.073C43.522 16.1794 43.522 16.2327 43.522 16.2859C43.522 16.6584 43.2557 16.7649 43.0959 16.8181C42.723 16.9245 42.2968 16.7649 42.137 16.4988C41.7641 15.8601 41.4445 15.594 41.4445 15.594L41.3379 15.594C41.3379 15.594 41.2314 15.594 41.2314 15.6472C41.2314 15.6472 41.1248 15.8601 41.1248 16.3391C41.1248 16.552 41.1249 16.7649 41.1249 16.9778C41.1249 16.9778 41.1249 17.031 41.1249 17.0842C41.1249 17.0842 41.1249 17.0842 41.0716 17.0842C40.2725 17.7229 40.166 18.0422 40.166 18.0954L40.166 18.2019C40.166 18.2019 40.2192 18.2551 40.2725 18.2551C40.2725 18.2551 40.6987 18.2551 41.4445 18.0954C41.6043 18.0422 41.8174 18.0954 42.0305 18.2551C42.2435 18.4147 42.4034 18.6808 42.4034 18.8937C42.4034 19.1066 42.2968 19.2663 42.0837 19.3727C40.8585 20.0114 39.4202 18.7341 38.0351 17.51C37.7155 17.2439 37.3959 16.9245 37.0763 16.6584C36.437 16.073 35.6912 15.6472 34.8921 15.3811C34.466 14.7425 33.6136 14.3699 32.8146 14.4231C32.2286 14.4231 31.8024 14.7425 31.5893 15.2215C31.4828 15.4343 31.4295 15.7005 31.4295 15.9133C31.4295 16.6052 31.909 17.0842 32.0688 17.2439C32.2286 17.3503 32.708 17.7229 33.0277 17.7761C33.0277 17.7761 33.1342 17.8293 33.1875 17.7761C33.2407 17.7761 33.294 17.6696 33.294 17.6164C33.294 17.5632 33.294 17.4568 33.1875 17.1906C33.0809 16.8713 32.9744 16.3923 32.9744 16.1262L32.9744 16.073C32.9744 16.073 33.1342 16.1794 33.4538 16.4456C33.6669 16.7117 33.7735 16.9778 33.7735 17.3503C33.7735 18.3615 32.8146 19.4259 32.0155 20.0646C31.1632 20.7565 30.2576 20.9161 29.7781 21.0226C29.565 21.0226 29.4052 21.0758 29.352 21.1822C29.352 21.1822 29.352 21.2355 29.352 21.2887C29.352 21.3951 29.352 21.3951 29.7781 21.6612C30.737 22.2999 33.6136 24.1094 33.6136 25.9189C33.6136 26.0786 33.6136 26.2383 33.5604 26.3979C33.2407 26.664 33.1342 26.6108 33.1342 26.6108C33.1342 26.6108 33.0809 26.5044 33.0809 26.2915C33.0809 26.0786 33.0809 25.8125 33.1875 25.4932L33.1875 25.4399C33.1875 25.3867 33.1875 25.2803 33.0809 25.2803C33.0809 25.2803 33.0277 25.2803 32.9744 25.2803C32.8678 25.2803 32.5482 25.3867 32.0155 25.8125C31.8557 25.9722 31.6959 26.3447 31.6959 26.7705C31.6959 27.1963 31.8557 27.5688 32.1753 27.8881C32.3884 28.1542 32.708 28.3139 33.1342 28.3671C33.1342 28.3671 33.1342 28.3671 33.0809 28.4203C32.6548 28.8461 32.2286 29.6977 32.1753 30.6024C32.0155 30.4427 31.8557 30.3363 31.6426 30.1766C31.5361 29.3783 31.4828 28.4736 31.4828 27.4091C31.4828 27.2495 31.4828 27.0898 31.4828 26.9301C31.4828 24.8545 29.6183 21.9806 27.594 21.7145C26.4753 21.3951 25.5697 21.2355 24.9305 21.1822L24.6641 21.2355ZM23.7585 24.7481L23.865 24.7481C23.865 24.7481 24.2379 25.1738 24.3977 25.2271L24.5043 25.2271C24.5043 25.2271 24.6108 25.2271 24.6108 25.1206C24.6108 25.0142 24.6641 24.9077 24.6641 24.6948C24.8772 24.6948 24.9837 24.6949 25.0903 24.6416C25.1435 24.6416 25.1968 24.5884 25.1968 24.482C25.1968 24.482 25.1968 24.482 25.1968 24.4287C25.1435 24.3223 24.9305 24.1094 24.7174 23.8965L24.7174 23.7901C24.7174 23.3111 24.7174 22.6724 24.7174 21.8209C26.2622 22.4596 29.4585 23.8433 29.4585 26.7173C29.4585 26.9834 29.4585 27.2495 29.352 27.5688C29.352 28.2607 29.4585 28.9526 29.565 29.538C28.9258 29.3783 28.2865 29.3251 27.594 29.3251C24.1847 29.9638 22.5333 26.3447 21.894 24.6948C22.7463 24.6948 23.3856 24.6948 23.865 24.6948L23.7585 24.7481ZM2.39681 32.5184L2.76971 32.1458C3.03606 31.8797 3.30242 31.5604 3.56877 31.2943C4.52765 30.3363 5.59307 29.2719 6.17905 27.9946C6.28559 28.3139 6.49868 28.9526 6.92485 29.9638L7.1912 30.6556C7.45756 31.1346 7.5641 31.7201 7.5641 32.1991C7.5641 32.8377 7.35102 33.3167 7.08466 33.4231C6.81831 33.5828 6.49868 33.4231 6.28559 33.2635C5.64634 32.7845 5.37999 32.4119 5.37999 32.0926C5.37999 31.7201 5.85943 31.5072 6.12578 31.3475C6.33887 31.2411 6.44541 31.1878 6.44541 31.0814C6.44541 31.0814 6.44541 30.975 6.33887 30.9217C6.23232 30.8685 5.96597 30.7089 5.22017 30.7089C4.95382 30.6556 4.68746 30.7089 4.47438 30.8685C4.04821 31.1878 3.78186 31.8797 3.78186 32.5716C3.78186 33.636 4.36784 34.4876 5.37999 34.9666C5.9127 35.3923 6.76503 35.4988 7.5641 35.1794C8.36316 34.8601 8.94915 34.2747 9.10896 33.4764C9.10896 33.2635 9.10896 33.0506 9.10896 32.8909C9.10896 32.3055 9.00242 31.8265 8.8426 31.4007C9.69494 32.1991 10.5473 31.8797 10.6005 31.8265C10.7071 31.7733 10.7604 31.5604 10.7604 31.3475C10.7604 31.0282 10.6538 30.5492 10.0678 30.017C9.90803 29.8573 9.74821 29.7509 9.5884 29.6444C10.3875 29.4848 11.08 28.9526 11.4529 28.0478C11.4529 27.9946 11.4529 27.9414 11.4529 27.8881C11.4529 27.8881 11.5594 27.9946 11.6127 27.9946C12.465 28.3139 13.3174 28.2607 14.0099 27.7817C14.0099 27.9946 14.0099 28.2075 13.9566 28.3671C13.9566 29.2719 14.2763 29.6977 14.4893 29.9105C14.4893 29.9105 14.7024 30.1234 14.8622 30.0702C15.022 30.0702 15.7678 29.6977 15.8211 28.5268L15.8211 28.4736C16.0875 29.059 16.4604 29.6444 17.1529 30.1234C17.7921 30.5492 18.6445 30.6024 19.3903 30.2831C20.1893 29.9105 20.722 29.2719 20.8286 28.58C20.9351 28.2075 21.0417 27.8881 21.0417 27.5688C21.0417 26.2915 20.1361 25.3867 19.1772 25.1206C18.5912 24.961 18.1118 25.1206 17.952 25.44C17.366 26.0254 17.3127 26.3447 17.3127 26.4512C17.3127 26.4512 17.3127 26.4512 17.3127 26.5044C17.3127 26.5044 17.3127 26.6108 17.4192 26.664C17.5258 26.7173 17.6323 26.664 17.8454 26.664C18.1118 26.5576 18.5912 26.3979 18.8576 26.5576C19.1239 26.7705 19.2305 27.3027 19.1239 28.101C19.1239 28.4203 18.9641 28.7397 18.5912 28.7929C18.0052 28.8461 17.0463 28.0478 16.6202 26.8237C16.4604 26.4512 16.3005 26.1318 16.194 25.8125C15.8211 24.9077 15.5548 24.4287 15.4482 24.1626C16.78 24.6416 18.3248 24.6416 19.7099 24.6416C20.0828 24.6416 20.4557 24.6416 20.8286 24.6416L21.3613 24.6416C21.4678 25.2803 21.6277 26.185 21.894 27.2495C22.0006 28.1542 22.6398 29.1122 23.652 29.9105C24.8772 30.8153 26.422 31.3475 27.594 31.1878C28.6062 31.1878 29.5118 31.1878 30.3641 31.3475C30.4706 31.5604 30.6305 31.7201 30.7903 31.8797C29.8847 31.8797 29.0856 32.3587 28.5529 32.8377C28.5529 32.4119 28.3398 32.0926 28.0734 31.8797C27.2211 31.0814 26.2622 31.5072 25.9959 31.7733C25.623 32.2523 25.5164 32.5184 25.4632 32.678L25.4632 32.8377C25.4632 32.8377 25.5697 32.8377 25.623 32.8377C26.3155 32.678 26.6351 32.7313 26.7417 32.8377C26.7417 32.8377 26.7417 32.9974 26.5286 33.2103C24.6108 33.8489 22.48 30.5492 21.7875 29.4315C21.5211 29.0058 21.5211 29.0058 21.3613 29.0058C21.2548 29.059 21.2015 29.2187 21.2015 29.4848C21.0949 29.9638 20.9884 30.8153 20.2426 31.6668C19.6566 32.4652 18.6445 33.3167 17.6856 33.4231C17.3127 33.4231 16.9398 33.3699 16.6734 33.1038C16.3006 32.7313 16.3005 32.6248 16.2473 32.6248C16.4071 32.5716 17.1529 32.7845 17.366 32.8909C17.7389 32.9974 17.7921 32.9974 17.8454 32.9442C17.8987 32.9442 17.8987 32.7845 17.8454 32.7313C17.8454 32.6248 17.7389 32.3587 17.3127 31.7733C17.1529 31.6136 16.4604 30.8153 15.2884 31.2411C14.7557 31.5072 14.4361 31.9862 14.4361 32.678C14.4361 33.4231 14.809 34.1682 15.3949 34.5408C15.6613 35.3923 16.0342 36.1374 16.6202 36.7229C16.8865 37.0422 17.2062 37.4147 17.5258 37.7341C18.5379 38.8517 19.5501 39.9694 19.5501 41.0338C19.5501 41.2999 19.5501 41.5128 19.3903 41.7257C19.2305 41.9918 19.0174 42.1514 18.751 42.045C18.4314 41.9385 18.1118 41.566 18.1118 41.2467C18.1118 41.2467 18.1118 41.1402 18.1118 41.087C18.2716 40.3951 18.2716 39.9161 18.2716 39.9161C18.2716 39.9161 18.2716 39.8097 18.2183 39.8097C18.2183 39.8097 18.165 39.8097 18.1118 39.8097C18.0585 39.8097 17.7389 39.9161 17.0996 40.7145C17.0996 40.7145 17.0996 40.7145 17.0996 40.8209C17.0996 40.8209 17.0463 40.8209 16.9931 40.8209C15.9809 40.7145 15.6613 40.8209 15.608 40.8741C15.608 40.8741 15.608 40.9273 15.5548 40.9806L15.5548 41.087C15.5548 41.087 15.8211 41.4063 16.4604 41.8321C16.6734 41.9385 16.8333 42.2047 16.8333 42.524C16.8333 42.7369 16.7267 42.9498 16.6202 43.0562C16.4604 43.1626 16.3006 43.2159 16.0875 43.1626C14.7557 42.7369 14.6491 40.8741 14.5426 39.0114C14.5426 38.5856 14.5426 38.1066 14.4361 37.6808C14.4361 36.8293 14.223 35.9778 13.7968 35.2327C13.9566 34.4343 13.5305 33.4764 12.8379 32.9974C12.4118 32.7313 11.9856 32.678 11.5594 32.8377C10.6005 33.2103 10.4407 34.0086 10.4407 34.4876L10.4407 34.594C10.4407 34.594 10.5473 35.3923 10.7604 35.6052C10.7604 35.6052 10.7604 35.7649 10.8669 35.7649C11.0267 35.7649 11.0267 35.7649 11.2398 35.3391C11.3996 35.073 11.7192 34.4343 11.8258 34.3811C11.8258 34.3811 11.9323 34.4876 11.9323 35.0198C11.9323 35.3923 11.7192 35.7117 11.3996 35.9778C10.6538 36.5632 9.37532 36.6696 8.36317 36.51C7.24447 36.4035 6.55195 35.8713 6.12578 35.6052C5.9127 35.4456 5.80616 35.3923 5.69961 35.3923C5.69961 35.3923 5.69961 35.3923 5.64634 35.3923C5.59307 35.3923 5.5398 35.4988 5.5398 35.552C5.5398 35.6052 5.5398 35.7117 5.64634 36.031C5.80616 36.7229 6.07251 38.0002 6.07251 39.2775C6.07251 40.7145 5.69961 41.6192 4.95382 41.9918C4.58092 41.9918 4.47438 41.8853 4.47438 41.8321C4.47438 41.7257 4.63419 41.5128 5.32672 41.087C5.32672 41.087 5.43326 40.9806 5.43326 40.9273C5.43326 40.9273 5.43326 40.8209 5.37999 40.8209C5.27345 40.7145 5.00709 40.608 4.31457 40.5016C3.94167 40.5016 2.98279 40.8741 2.92952 42.045C2.92952 42.3643 3.03606 42.7369 3.30242 43.0562C3.30242 43.0562 3.24915 43.0562 3.19588 43.0562C2.55662 43.0562 1.65101 43.3755 1.01176 43.961C1.01176 43.7481 1.01176 43.5352 0.905221 43.2691C1.38466 42.6304 2.02391 41.9385 2.71644 41.2467C3.83513 40.3951 4.68746 38.5324 4.68746 36.7761C4.68746 35.8181 4.47438 35.073 4.04821 34.4876C3.5155 33.5296 2.98279 32.7313 2.55662 32.2523L2.39681 32.5184Z" fill="#CA943A"/>
<path d="M1.27709 49.6558C1.70326 49.23 2.1827 48.8043 2.66213 48.4317C3.67428 47.6334 4.57989 46.8351 4.84625 45.9835C4.84625 45.8239 4.89952 45.6642 4.89952 45.5045C4.89952 44.9191 4.63316 44.4401 4.42008 44.1208C4.42008 44.1208 4.31354 44.0676 4.26027 44.0676C3.94064 44.1208 3.51447 44.2272 3.14157 44.2805C2.23597 44.7062 1.49017 45.5045 1.4369 46.1432C1.33036 46.3029 1.33036 46.4093 1.4369 46.5157C1.59671 46.6222 1.86307 46.6222 2.28924 46.6222C2.28924 46.6754 2.28924 46.8351 2.07615 47.1012L2.07615 47.2076C2.07615 47.4205 1.70326 47.6866 1.22382 47.6866C0.904191 47.6866 0.158396 47.527 0.158396 46.1964C0.158396 45.8239 0.264938 45.5045 0.424751 45.1852C0.424751 45.1852 0.424751 45.0788 0.424751 45.0256C0.424751 44.9723 0.318209 44.8659 0.264938 44.8127C0.211667 44.7062 0.105125 44.5466 -0.00141677 44.3869C-0.00141677 44.3869 -0.00141677 44.3869 -0.0546878 44.3869L-0.0546878 44.8659C-0.0546878 44.8659 -0.00141675 44.9723 0.0518543 44.9723C0.0518543 45.0256 0.105125 45.0788 0.158396 45.132C0.0518543 45.3449 -0.00141672 45.5045 -0.0546877 45.7174L-0.0546877 46.6754C0.158396 47.8463 0.957462 47.9527 1.27709 47.9527C1.86307 47.9527 2.39578 47.5802 2.39578 47.1544C2.39578 47.1544 2.60886 46.6754 2.60886 46.5157C2.60886 46.4093 2.60886 46.3029 2.60886 46.3029C2.60886 46.1964 2.50232 46.2496 2.34251 46.2496C2.02288 46.2496 1.8098 46.2496 1.70326 46.2496C1.70326 46.2496 1.70326 46.1964 1.70326 46.1432C1.70326 45.611 2.39578 44.8659 3.19485 44.4933C3.56774 44.4933 3.94064 44.3869 4.26027 44.2805C4.47335 44.5466 4.63316 44.9723 4.63316 45.4513C4.63316 45.611 4.63316 45.7174 4.63316 45.8771C4.36681 46.6754 3.4612 47.4205 2.55559 48.2188C2.07615 48.6446 1.54344 49.0171 1.11728 49.4961C0.691107 49.9219 0.31821 50.4009 -0.00141649 50.8267L-0.00141647 51.3057C-0.00141647 51.3057 -0.00141647 51.3057 0.0518546 51.3057C0.31821 50.7735 0.744378 50.2412 1.27709 49.709L1.27709 49.6558Z" fill="#CA943A"/>
<path d="M27.9151 34.3809C28.0217 34.8599 28.2348 35.605 28.9806 36.0308C29.8329 36.4565 31.0049 36.3501 32.2834 36.2437C32.8693 36.1904 33.5086 36.1372 34.0946 36.1372C34.8404 36.1372 35.5329 36.2437 36.1189 36.4033C36.1721 36.4033 36.2254 36.4033 36.2787 36.4033C36.2787 36.4033 36.2787 36.3501 36.2787 36.2969C36.1189 35.7114 36.0123 35.0728 36.0123 34.2745C36.0123 33.689 36.0656 33.0504 36.1189 32.4649C36.1721 31.8795 36.2254 31.2941 36.2254 30.7619C36.2254 30.07 36.1189 29.5378 35.9058 29.112C35.4796 28.3669 34.7871 28.154 34.2544 28.0476C34.2011 28.0476 34.1478 28.0476 34.0946 28.1008C33.9348 28.3669 33.6684 28.7395 33.4553 29.0588C33.2955 29.4313 33.2422 29.8571 33.2422 30.2829C33.2422 30.8151 33.3488 31.2941 33.6151 31.5602C33.6151 31.7198 33.7217 31.7731 33.775 31.8263C33.988 31.8795 34.2544 31.6134 34.5207 31.2941C34.5207 31.3473 34.6806 31.507 34.7338 31.7731C34.7338 31.7731 34.7338 31.8263 34.7871 31.8263C34.8404 31.8795 34.8936 31.986 34.8936 32.0924C34.8936 32.4117 34.6806 32.8375 34.2544 32.9972C33.8282 33.21 33.2955 32.9972 32.7095 32.4649C32.4964 32.1988 32.2834 31.9327 32.1768 31.5602C32.1768 31.5602 32.1768 31.4537 32.0703 31.4537C32.017 31.4537 31.9105 31.4537 31.8039 31.4005C31.6441 31.4005 31.5376 31.3473 31.3245 31.2941C31.3245 31.2941 31.2179 31.2941 31.1647 31.2941C31.1647 31.2941 31.1647 31.4005 31.1647 31.4537C31.1647 31.6666 31.2712 31.7731 31.2712 31.9327C31.2712 32.0392 31.3245 32.1456 31.3245 32.2521C31.3245 32.3053 31.3245 32.3585 31.431 32.3585C31.7507 32.4649 32.0703 32.6246 32.2834 32.8907C32.6563 33.3165 32.8693 33.689 32.8693 34.0616C32.8693 34.5406 32.4964 34.8599 32.1768 34.9663C31.9637 35.0728 31.7507 35.0196 31.6441 34.9663C31.6441 34.9663 31.6441 34.9663 31.5376 34.9663C31.2712 34.8599 31.1114 34.8067 31.0581 34.7535C31.431 34.4341 31.5908 34.2212 31.5908 34.0616C31.5908 34.0084 31.5908 33.8487 31.3245 33.7955C30.845 33.3697 29.7796 33.3165 28.8207 33.6358C28.5011 33.8487 28.1815 34.1148 27.8619 34.2745C27.8619 34.2745 27.8086 34.3809 27.8086 34.4341L27.9151 34.3809ZM31.6974 32.0924C31.6974 32.0924 31.6974 31.9327 31.6974 31.8795C31.6974 31.8263 31.6974 31.7198 31.6441 31.6666C31.7507 31.6666 31.8039 31.6666 31.9105 31.7198C32.017 31.7198 32.0703 31.7198 32.1235 31.7198C32.2301 32.0392 32.3899 32.3053 32.603 32.5714C32.3899 32.3585 32.1235 32.1988 31.8039 32.0924L31.6974 32.0924ZM31.3245 33.9551C31.3245 33.9551 31.3245 33.9551 31.431 33.9551C31.431 33.9551 31.3245 34.168 31.0581 34.3809C30.9516 34.4874 30.8983 34.4874 30.8983 34.5938C30.8983 34.5938 30.8983 34.9131 31.5908 35.126C31.7507 35.2857 32.0703 35.3389 32.3899 35.2325C32.8693 35.0728 33.2955 34.647 33.2955 34.0084C33.2955 33.5826 33.0824 33.1568 32.7095 32.7311C33.5086 33.4761 34.1478 33.3697 34.4675 33.21C35.0002 32.9972 35.2665 32.4117 35.2665 32.0392C35.2665 31.8263 35.2665 31.7198 35.1067 31.6134C34.9469 31.028 34.7338 30.9215 34.6273 30.9215C34.5207 30.9215 34.4675 30.9215 34.3609 31.0812C34.1478 31.2941 34.0413 31.4537 33.9348 31.507C33.9348 31.507 33.9348 31.4537 33.9348 31.4005C33.6151 30.9747 33.5086 29.9635 33.8282 29.1652C34.0413 28.8459 34.2544 28.5266 34.4142 28.3137C34.8936 28.4201 35.4264 28.633 35.7992 29.2184C36.0123 29.591 36.0656 30.07 36.0656 30.7086C36.0656 31.2409 36.0656 31.7731 35.9591 32.4117C35.9591 33.0504 35.8525 33.6358 35.8525 34.2745C35.8525 34.9663 35.9058 35.5518 36.0656 36.1372C35.5329 35.9775 34.8936 35.9243 34.2011 35.9243C33.6151 35.9243 32.9759 35.9775 32.3366 36.0308C31.1114 36.1372 29.9394 36.2437 29.1936 35.8711C28.6077 35.5518 28.3946 35.0196 28.288 34.5406C28.5544 34.3809 28.874 34.168 29.1404 33.9551C29.9927 33.6358 31.0049 33.689 31.3778 34.0616L31.3245 33.9551Z" fill="#CA943A"/>
<path d="M1.49017 31.1875C1.49017 31.1875 1.49017 31.1343 1.49017 31.0811L1.49017 30.8682C1.49017 30.0699 1.59671 28.9523 1.8098 27.6749C1.96961 26.9831 2.02288 26.1847 2.02288 25.3864C2.02288 24.4284 1.91634 23.4705 1.70326 22.6189C1.4369 22.1399 1.17055 21.6609 0.957462 21.1819C0.957462 21.1819 0.957461 21.1287 0.850919 21.1287C0.850919 21.1287 0.797648 21.1287 0.744377 21.1287C0.691106 21.1287 0.637835 21.1287 0.584564 21.0755C0.37148 20.9158 0.158396 20.7562 -0.054688 20.5433L-0.054688 20.9158C-0.054688 20.9158 0.264938 21.1819 0.424751 21.2884C0.531293 21.2884 0.584564 21.3416 0.637835 21.3948C0.850919 21.8206 1.11727 22.2996 1.38363 22.7786C1.59671 23.5769 1.70326 24.5349 1.70326 25.4396C1.70326 26.238 1.59671 26.9831 1.49017 27.6749C1.27709 29.0055 1.17055 30.1231 1.17055 30.9214L1.17055 31.0279C0.637836 31.5601 0.264939 32.1455 -0.0546875 32.6245L-0.0546875 33.1035C-0.0546875 33.1035 -0.0546875 33.1035 -0.00141647 33.1035C0.31821 32.4649 0.797649 31.8262 1.4369 31.1875L1.49017 31.1875Z" fill="#CA943A"/>
<path d="M7.13672 29.0592C7.3498 29.3785 7.61616 29.7511 7.88251 30.1768C7.88251 30.23 8.04233 30.2833 8.0956 30.1768C8.0956 30.1768 8.14887 30.1236 8.14887 30.0704C8.14887 30.0704 8.14887 30.0704 8.14887 30.0172C7.93578 29.6978 7.77597 29.3253 7.66943 29.1124C7.66943 29.1124 7.66943 29.0592 7.61616 29.0592C7.50962 29.0592 7.45634 28.9527 7.40307 28.8995C7.3498 28.8995 7.24326 28.8995 7.18999 28.8995C7.18999 28.8995 7.18999 29.006 7.18999 29.1124L7.13672 29.0592Z" fill="#CA943A"/>
<path d="M29.4609 3.29928L29.7273 2.97995C29.7273 2.97995 29.7273 2.92673 29.7273 2.87351L29.7273 2.82029C29.7273 2.76706 29.6207 2.76707 29.5675 2.76707C28.9815 2.92673 28.4488 3.0864 27.8095 3.19284C26.2114 3.56539 23.8675 3.19284 22.3759 2.39452C22.0562 2.07519 21.7366 1.80908 21.4703 1.5962C21.4703 1.5962 21.3637 1.5962 21.3104 1.5962C21.3104 1.5962 21.2039 1.64942 21.2039 1.70264C21.2039 2.82029 20.245 3.93793 19.1263 4.20404C17.5815 4.52337 16.5161 3.61861 15.7703 2.92673C15.7703 2.92673 15.5572 2.92673 15.5039 2.92673C15.5039 2.92673 15.5039 3.0864 15.5039 3.13962C15.717 3.40572 15.9833 3.67183 16.1964 3.88472C17.7413 5.80068 20.4048 7.50376 22.6955 7.02477C23.6011 6.8651 23.7609 6.38611 23.7609 6.12001C23.7609 5.58779 23.2815 5.00236 22.9086 4.8427C22.7488 4.78947 22.6422 4.8427 22.589 4.8427C22.3226 5.00236 22.0562 5.26847 21.8964 5.37491C21.8964 5.16203 22.003 4.8427 22.3226 4.3637C22.5357 4.15082 22.802 4.0976 23.1749 4.15082C23.7076 4.20404 24.2404 4.57659 24.56 5.05558C24.8263 5.26847 24.8796 5.64101 24.8796 5.90712C24.8796 5.96034 24.9329 6.01357 24.9861 6.06679C25.3058 6.06679 26.2114 6.22645 27.117 5.5878C27.9161 5.05558 28.6618 4.20404 29.4076 3.29928L29.4609 3.29928ZM24.7731 4.8427C24.4002 4.31048 23.8142 3.88472 23.2282 3.83149C22.802 3.83149 22.4291 3.88471 22.1095 4.15082C21.7899 4.62981 21.5768 5.05558 21.5768 5.37491C21.5768 5.48135 21.5768 5.5878 21.5768 5.5878C21.5768 5.5878 21.5768 5.5878 21.5768 5.64102C21.5768 5.64102 21.6301 5.74746 21.6833 5.74746C21.7899 5.74746 21.8432 5.74746 22.003 5.53457C22.1628 5.37491 22.3759 5.16203 22.6955 4.94914C22.6955 4.94914 22.802 4.94914 22.9086 5.1088C23.1217 5.32169 23.388 5.64102 23.388 5.96034C23.388 6.27967 23.1217 6.49256 22.589 6.599C20.5647 7.02477 18.2207 5.64102 16.6759 3.93793C17.3151 4.31048 18.1675 4.57659 19.1263 4.3637C20.2983 4.0976 21.2572 2.97995 21.417 1.86231C21.6301 2.07519 21.8432 2.23486 22.1095 2.50096C23.4946 3.24606 25.8918 3.77827 27.7562 3.3525C28.2357 3.24606 28.6618 3.19284 29.088 3.08639C28.3422 3.93793 27.5964 4.78947 26.8506 5.26847C26.2114 5.74746 25.5189 5.74746 25.0394 5.69424C25.0394 5.26847 24.8263 4.94914 24.6133 4.73626L24.7731 4.8427Z" fill="#CA943A"/>
<path d="M12.5 2.5L13.5 0L14.5 -0.5C14.3333 -1 12.9 -2.2 8.5 -3C4.5 -3 7 -3 2.5 -2.5C-2 -2 1.5 -2.5 -1 -2C-3.5 -1.5 -3 -1 -6 1.5C-9 4 -7 3 -7.5 8.5C-8 14 -5.5 21 -5 21.5C-4.6 21.9 -1.5 23 0 23.5L2.5 22L4.5 20L7.5 16.5L10 12L11.5 8L12 5L12.5 2.5Z" fill="#00664E"/>
</g>
<defs>
<clipPath id="clip0_12_3399">
<rect width="57" height="57" fill="white" transform="translate(0 57) rotate(-90)"/>
</clipPath>
</defs>
</svg>
