<svg width="102" height="92" viewBox="0 0 102 92" fill="none" xmlns="http://www.w3.org/2000/svg">
<g clip-path="url(#clip0_12_2837)">
<path d="M55.79 42.397C56.1401 41.4588 56.3152 40.286 56.4027 38.8787C56.4027 38.8787 56.4027 38.8005 56.4027 38.7224C57.103 38.1751 58.2409 37.0023 59.904 34.8914C61.3045 32.9368 63.5803 30.9822 65.8561 29.7313C66.7314 29.4968 67.6067 29.2622 68.3945 29.0277C68.3945 29.0277 68.482 29.0277 68.5695 29.0277C68.5695 29.0277 68.6571 29.0277 68.7446 29.0277C68.8321 29.0277 68.9197 29.1058 69.0072 29.1058C69.4448 29.1058 69.8825 29.184 70.3202 29.184C70.3202 29.184 70.4077 29.184 70.4952 29.184C70.4952 29.184 70.5828 29.2622 70.4952 29.3404C70.4952 29.7313 70.4952 30.1222 70.5828 30.435C70.5828 30.5131 70.5828 30.6695 70.7578 30.7477C70.7578 30.7477 70.7578 30.8259 70.7578 30.9041C70.7578 30.9041 70.7578 30.9822 70.7578 31.0604C70.4952 31.6859 70.2326 32.4677 69.97 33.3277C68.5695 35.4387 66.4688 37.3933 64.2805 38.6442C61.8296 40.1297 60.6042 41.2242 59.904 41.7715C59.904 41.7715 59.8164 41.7715 59.7289 41.7715C58.2409 41.7715 56.9279 42.0061 55.79 42.3188C55.7025 42.3188 55.6149 42.3188 55.5274 42.3188C55.5274 42.3188 55.5274 42.2406 55.5274 42.1624L55.79 42.397ZM59.904 41.6151C60.6042 40.9897 61.9172 39.9733 64.2805 38.4878C66.3813 37.3151 68.5695 35.2823 69.795 33.3277C70.0576 32.5459 70.3202 31.7641 70.5828 31.1386C70.5828 31.0604 70.4952 30.9041 70.4077 30.7477C70.4077 30.435 70.3202 30.1222 70.3202 29.7313C69.8825 29.7313 69.5324 29.7313 69.0947 29.6531C68.9197 29.6531 68.8321 29.5749 68.7446 29.4968C67.9568 29.7313 67.169 29.9659 66.2937 30.1222C64.1055 31.295 61.8296 33.1714 60.5167 35.1259C58.8536 37.2369 57.7157 38.4096 57.0154 39.0351C57.0154 40.2078 56.7528 41.3024 56.4903 42.1624C57.5406 41.9279 58.6785 41.7715 59.9915 41.6933L59.904 41.6151Z" fill="#CA943A"/>
<path d="M94.0444 91.7309C94.0444 91.7309 94.0444 91.6527 94.0444 91.5745C94.0444 91.5745 94.0444 91.4182 94.0444 91.1836C93.4317 90.3236 91.4185 88.1345 83.7157 88.4472C78.7265 88.6036 72.0741 86.7272 69.4482 82.8962C68.3978 84.8508 65.6843 85.789 63.7587 86.4926C63.4085 86.649 63.0584 86.7272 62.7083 86.8835C60.0824 87.8217 58.8569 88.5254 58.1567 88.9163C57.8066 89.0727 57.6315 89.229 57.4564 89.229C57.4564 89.229 57.4564 89.229 57.3689 89.229C57.2814 89.229 57.1063 89.229 57.1063 88.9163C57.0188 88.9945 56.8437 89.0727 56.7562 88.9945C56.7562 88.9945 56.5811 88.9163 56.5811 88.8381C56.4936 88.6818 56.4061 88.5254 56.3185 88.1345C56.1435 87.4308 55.8809 86.1799 54.743 83.9126C54.6554 83.678 54.4804 83.3653 54.3053 83.0526C53.6051 81.7235 52.8173 80.0816 52.8173 78.3616C52.8173 77.8143 52.8173 77.3452 53.0799 76.8761C48.1781 77.8143 41.9634 74.9997 38.5497 71.716C33.3854 66.7123 30.2343 67.025 29.0964 67.1814C28.9213 67.4159 28.8338 67.4941 28.7462 67.4941C28.7462 67.4941 28.7462 67.4941 28.5712 67.4941C28.3961 67.4941 28.3086 67.4941 28.3086 67.4159L28.2211 67.2596L28.046 67.2596C28.046 67.2596 27.9585 67.1032 27.9585 67.025C27.9585 67.025 27.9585 66.9468 27.9585 66.8686C27.9585 66.8686 28.046 66.7123 28.3086 66.5559C28.3086 66.3214 28.3086 66.0868 28.3086 65.7741C28.3086 63.5068 26.558 61.0049 23.1442 58.1903C20.2557 55.7666 17.1921 51.3102 17.1921 47.0883C17.1921 46.4628 17.1921 45.8374 17.4547 45.2119C15.0914 45.9156 12.4655 44.8992 10.5398 44.1173C10.1897 43.961 9.92707 43.8828 9.57694 43.7264C6.95101 42.7101 5.55051 42.3973 4.76273 42.3191C4.41261 42.3191 4.15002 42.241 3.97495 42.0846C3.97495 42.0846 3.71236 41.85 3.97495 41.6155C3.88743 41.6155 3.7999 41.6155 3.71236 41.5373C3.71236 41.5373 3.62483 41.3809 3.71236 41.2246C3.71236 41.0682 3.88743 40.9118 4.06249 40.5991C4.50015 40.0518 5.28793 38.9573 6.25076 36.6118C6.3383 36.3772 6.51336 36.0645 6.60089 35.7517C7.38867 33.9535 8.43904 31.608 10.6273 30.5917C6.42583 28.168 4.23755 22.3042 4.41261 17.7696C4.76273 10.9677 2.22434 9.16947 1.34902 8.54401C0.998902 8.54401 0.91137 8.54401 0.823838 8.54401C0.823838 8.54401 0.823838 8.54401 0.648774 8.54401C0.47371 8.38764 0.47371 8.30945 0.561242 8.15309L1.52409 8.15309C2.48693 8.70037 5.20039 10.5768 4.85027 17.6914C4.85027 17.8478 4.85027 18.0042 4.85027 18.1605C4.85027 22.617 7.03854 28.2462 11.24 30.2789C11.24 30.2789 11.3276 30.4353 11.3276 30.5135C11.3276 30.5917 11.3276 30.6698 11.1525 30.6698C8.87669 31.5299 7.82633 33.9535 7.03854 35.7517C6.86349 36.0645 6.77595 36.3772 6.68842 36.6118C5.63804 38.9573 4.85027 40.13 4.41261 40.6773C4.32508 40.8337 4.23754 40.9118 4.15002 40.99L4.41261 40.99C4.41261 40.99 4.58767 40.99 4.6752 41.1464C4.6752 41.1464 4.6752 41.3028 4.6752 41.3809C4.58767 41.3809 4.50015 41.5373 4.41261 41.5373C4.50015 41.5373 4.67521 41.5373 4.85027 41.6155C5.63805 41.7719 7.12608 42.0064 9.75201 43.0228C10.0146 43.101 10.3647 43.2573 10.7148 43.4137C12.6405 44.1955 15.354 45.2901 17.6298 44.3519C17.6298 44.3519 17.8049 44.3519 17.8924 44.3519C17.8924 44.3519 17.9799 44.5083 17.8924 44.5864C17.6298 45.2901 17.5423 45.9937 17.5423 46.7756C17.5423 50.8411 20.5183 55.2194 23.3193 57.5649C26.9081 60.4576 28.6587 63.1159 28.6587 65.4614C28.6587 65.8523 28.6587 66.2432 28.5712 66.3996C28.5712 66.3996 28.5712 66.4777 28.4837 66.5559C28.4837 66.5559 28.5712 66.4777 28.6587 66.4777C29.7966 66.3214 33.1228 65.7741 38.6373 71.1687C42.051 74.4524 48.3532 77.267 53.1674 76.0943C53.1674 76.0943 53.3425 76.0943 53.43 76.0943C53.43 76.0943 53.43 76.2506 53.43 76.3288C53.1674 76.8761 53.0799 77.4234 53.0799 77.9707C53.0799 79.5343 53.8677 81.1762 54.5679 82.5053C54.743 82.818 54.918 83.1307 55.0056 83.3653C56.1435 85.7108 56.4936 86.9617 56.6686 87.6654C56.6686 87.8217 56.6686 87.9781 56.7562 88.0563C56.7562 88.0563 56.9312 87.9781 56.9312 87.8999C56.9312 87.8999 57.1063 87.8217 57.1938 87.8999C57.2814 87.8999 57.3689 87.9781 57.3689 88.1345C57.3689 88.2127 57.3689 88.2908 57.3689 88.369C57.3689 88.369 57.6315 88.2127 57.719 88.1345C58.4193 87.7436 59.6447 87.0399 62.3582 86.1017C62.7083 86.0235 63.0584 85.8672 63.4085 85.7108C65.4218 85.0071 68.1352 84.0689 69.0105 82.0362C69.0105 82.0362 69.0981 81.8798 69.2731 81.8798C69.2731 81.8798 69.4482 81.8798 69.5357 81.958C71.9866 85.8672 78.6389 87.8217 83.6282 87.6654C91.6811 87.6654 93.6943 90.0109 94.3945 90.8709L94.3945 91.8091C94.3945 91.8091 94.3945 91.8091 94.307 91.8091C94.307 91.8091 94.1319 91.8091 94.0444 91.7309Z" fill="#CA943A"/>
<path d="M20.8644 8.62254C20.8644 8.62254 20.6018 8.77891 20.5143 8.85709C20.5143 8.85709 20.3392 8.85709 20.2517 8.85709C19.7265 8.62254 19.2013 8.46618 18.5886 8.46618C16.3128 8.46618 16.1377 9.56074 16.1377 10.0298C16.1377 10.4989 16.4003 10.968 16.5754 11.1244C16.5754 11.1244 16.838 11.2808 16.9255 11.2808C16.9255 11.2808 17.013 11.2808 17.1006 11.2808C17.5382 11.5153 17.8008 11.5935 17.8884 11.5935C17.8884 11.2026 17.7133 10.4208 18.1509 10.2644C18.2385 10.2644 18.4135 10.2644 18.6761 10.3426C19.7265 10.4208 21.0395 11.5153 21.7397 12.8444C21.8273 13.3917 22.0023 14.0172 22.0898 14.4863C22.0898 14.5645 22.0898 14.6426 22.0023 14.7208C21.3021 15.1117 20.1642 15.659 18.8512 15.3463C17.3632 14.9554 16.1377 13.5481 14.8248 12.0626C14.2121 11.359 13.5118 10.6553 12.8116 10.0298C11.9362 9.24801 11.0609 8.62254 10.1856 8.23163C10.1856 8.23163 10.1856 8.23163 10.1856 8.15344L10.9734 8.15344C11.7612 8.54436 12.4614 9.09164 13.2492 9.79529C13.9495 10.4208 14.6497 11.1244 15.2624 11.9062C16.5754 13.3135 17.8008 14.6426 19.1138 15.0336C20.1642 15.2681 21.0395 14.9554 21.7397 14.5645C21.6522 14.0954 21.4771 13.5481 21.3896 13.0008C20.7769 11.8281 19.5514 10.8117 18.5886 10.8117C18.5886 10.8117 18.5011 10.8117 18.4135 10.8117C18.4135 10.8117 18.4135 10.968 18.4135 11.2026C18.4135 11.3589 18.4135 11.5935 18.4135 11.6717C18.4135 11.7499 18.4135 11.828 18.4135 11.9062C18.4135 11.9844 18.4135 12.0626 18.2385 12.1408C18.2385 12.1408 18.2385 12.1408 18.1509 12.1408C17.9759 12.1408 17.6258 12.1408 16.9255 11.8281C16.6629 11.8281 16.4879 11.828 16.3128 11.5935C15.8751 11.2808 15.6125 10.7335 15.6125 10.1862C15.6125 9.79529 15.8751 8.62254 17.8008 8.30981L19.2889 8.30981C19.2889 8.30981 19.9891 8.46617 20.3392 8.62254C20.3392 8.62254 20.5143 8.54436 20.6018 8.46618C20.6018 8.46618 20.7769 8.46617 20.7769 8.38799L21.4771 8.38799C21.4771 8.38799 21.4771 8.38799 21.4771 8.46618C21.2145 8.62254 20.9519 8.77891 20.7769 8.85709L20.8644 8.62254Z" fill="#CA943A"/>
<path d="M63.319 42.1626C63.319 42.1626 63.144 42.1626 63.144 42.0063C63.144 42.0063 63.144 41.8499 63.319 41.8499C64.1944 41.459 64.9821 40.9899 65.8574 40.4426C68.4834 39.0353 70.5841 36.0644 71.2844 33.9534C71.2844 33.3279 71.2844 32.7025 71.3719 32.1552C71.3719 32.077 71.3719 31.9988 71.547 31.9988C71.547 31.9988 71.722 31.9988 71.8096 31.9988C73.1225 33.1716 75.4859 33.3279 77.1489 32.4679C79.2497 31.217 79.5123 29.1061 79.5998 27.6206L79.5998 27.4642C79.5998 27.4642 79.6873 27.2297 79.8624 27.2297C80.0375 27.2297 80.125 27.2297 80.125 27.386C80.125 28.0115 80.125 28.4806 80.125 28.9497C80.125 29.4188 80.125 29.9661 80.125 30.5134C80.125 34.4225 78.637 37.5498 76.0986 39.0353C75.3983 39.5044 74.6981 39.6608 74.1729 39.4262C73.4726 39.1135 73.21 38.3317 73.21 37.628C73.21 37.3935 73.21 37.0026 73.4726 36.768C73.4726 36.768 73.6477 36.6898 73.7352 36.6898C74.2604 36.5335 74.7856 36.5335 75.1357 36.5335C74.7856 36.2207 74.1729 36.0644 73.4726 35.908C72.4223 35.908 71.6345 37.0026 71.6345 38.2535C71.6345 38.488 71.6345 38.7226 71.6345 38.879C71.6345 38.879 71.6345 38.879 71.6345 38.9571C71.6345 39.3481 71.8096 39.8172 72.2472 40.2081C72.2472 40.2081 72.2472 40.3644 72.2472 40.5208C71.4594 41.459 70.4966 42.0845 69.2712 42.2408C67.7831 42.5536 65.945 42.3972 64.0193 42.2408L63.2315 42.2408L63.319 42.1626ZM69.2712 41.7717C70.5841 41.5372 71.3719 40.9117 71.8971 40.3644C71.4594 39.8953 71.2844 39.4262 71.2844 38.9571C71.2844 38.7226 71.2844 38.488 71.2844 38.1753C71.2844 36.6898 72.3347 35.5171 73.6477 35.4389C74.7856 35.5953 75.5734 35.908 75.9235 36.4553C75.9235 36.4553 75.9235 36.4553 76.011 36.5335C76.011 36.5335 75.7484 36.768 75.3983 36.768C75.0482 36.768 74.523 36.768 73.9103 36.9244C73.9103 36.9244 73.8228 37.1589 73.8228 37.4717C73.8228 38.0189 74.0854 38.6444 74.523 38.879C74.9607 39.1135 75.5734 38.879 75.9235 38.5662C78.7245 36.9244 79.7749 33.328 79.7749 30.4352C79.7749 30.2006 79.7749 29.9661 79.7749 29.7315C79.5123 30.8261 78.812 31.9207 77.4115 32.7807C75.7484 33.7189 73.2976 33.5625 71.8096 32.5461C71.8096 32.937 71.8096 33.4061 71.722 33.9534C71.0218 36.2207 68.8335 39.1917 66.12 40.6772C65.5073 41.0681 64.8946 41.459 64.2819 41.7717C66.2076 41.9281 67.9582 42.0063 69.4462 41.7717L69.2712 41.7717Z" fill="#CA943A"/>
<path d="M88.963 51.3888C87.475 50.216 86.0745 49.1996 85.2867 48.0269C84.7615 47.3232 84.4114 46.5414 84.4114 45.6814C84.4114 45.4468 84.4114 45.2123 84.4114 44.8995C84.4114 44.8214 84.499 44.7432 84.674 44.7432C85.1117 44.7432 85.7244 44.5868 86.162 44.1959C87.0374 43.6486 87.6501 42.7886 87.6501 41.9286C87.6501 41.5377 87.475 41.2249 87.2999 40.9904C86.6872 40.5995 86.0745 40.3649 85.6369 40.2867C85.8995 40.5213 86.2496 40.834 86.5122 41.2249C86.5122 41.2249 86.5997 41.3813 86.5997 41.5377C86.5997 42.085 85.5493 42.945 84.5865 43.0232C84.0613 43.0232 83.2735 42.8668 83.0109 41.5377C82.9234 41.1468 82.8359 40.6777 82.8359 40.2867C82.8359 37.003 85.7244 33.7975 88.0877 31.9993C88.4379 31.6866 88.8755 31.3739 89.3132 30.9829C89.4007 30.9048 89.5758 30.9829 89.6633 30.9829C89.6633 30.9829 89.6633 31.2175 89.6633 31.2957L89.6633 31.3739C88.6129 32.3121 87.3875 33.6412 87.3875 35.4394C87.3875 35.7521 87.3875 36.0648 87.475 36.3776C87.9127 38.0976 89.7508 39.4267 91.589 39.4267C91.6765 39.4267 91.764 39.4267 91.8516 39.5831C91.8516 39.5831 91.8516 39.7395 91.8516 39.8176C91.5014 40.2086 90.9763 40.6777 90.5386 41.0686C89.1381 43.2577 88.5254 46.6978 89.1381 49.1214C89.3132 50.0596 89.4882 50.8415 89.8383 51.7015C89.8383 51.7797 89.8383 51.8579 89.7508 51.936C89.7508 51.936 89.5758 51.936 89.4882 51.936L88.963 51.4669L88.963 51.3888ZM88.788 49.1214C88.6129 48.496 88.5254 47.7141 88.5254 46.9323C88.5254 44.8214 89.1381 42.4759 90.1885 40.7558C90.5386 40.3649 90.8887 40.0522 91.1513 39.7395C89.3132 39.5049 87.475 38.0976 87.0374 36.3776C87.0374 36.0648 86.9498 35.6739 86.9498 35.3612C86.9498 34.3448 87.2999 33.4848 87.8251 32.703C85.6369 34.5012 83.3611 37.3158 83.3611 40.2086C83.3611 40.5995 83.3611 40.9904 83.5361 41.3813C83.7112 42.1631 84.0613 42.5541 84.5865 42.5541C85.3743 42.5541 86.162 41.7722 86.162 41.5377C85.8119 41.1468 85.4618 40.7558 85.1992 40.5213C84.9366 40.2867 84.8491 40.2086 84.8491 40.1304C84.8491 40.0522 84.8491 39.974 85.0241 39.8958C85.0241 39.8958 85.0241 39.8958 85.1117 39.8958C85.8119 39.7395 86.5997 39.974 87.5625 40.6777C87.9127 40.9904 88.0877 41.4595 88.0877 41.9286C88.0877 42.8668 87.3875 43.8832 86.4246 44.5086C86.0745 44.8995 85.5493 45.0559 84.8491 45.1341C84.674 46.1505 84.9366 47.0105 85.5493 47.7923C86.3371 48.8869 87.7376 49.9033 89.1381 50.9978C88.963 50.3724 88.788 49.7469 88.7004 49.1214L88.788 49.1214Z" fill="#CA943A"/>
<path d="M93.7818 89.2291C92.7314 87.5873 88.8801 85.8672 83.7157 86.1018C78.9015 86.18 72.4242 85.0072 69.9734 81.1762C68.6604 79.0653 68.3103 76.9544 68.1352 75.5471C68.1352 75.8598 68.1352 76.2507 68.1352 76.6416C68.1352 77.9707 68.3978 79.2998 68.8355 80.629C68.8355 80.629 68.8355 80.629 68.8355 80.7853C68.6604 81.2544 68.4853 81.6453 68.2227 81.9581C67.6976 82.7399 66.5597 83.1308 65.6843 83.4436C65.6843 83.4436 65.5093 83.4436 65.4218 83.4436C65.3342 83.4436 65.4218 83.2872 65.4218 83.209C65.5968 82.8181 65.7719 82.349 65.8594 81.9581C65.8594 80.4726 66.2095 78.0489 67.3474 74.4525C66.2971 75.4689 63.8462 78.6744 63.7587 81.5672C63.4961 82.5054 63.4085 83.2872 63.321 83.9908C63.321 84.069 63.321 84.1472 63.1459 84.1472C62.7083 84.3036 62.1831 84.4599 61.7454 84.6163C60.1699 85.1636 58.9445 85.9454 58.2442 86.7272C58.2442 86.7272 58.0691 86.8054 57.9816 86.7272C57.9816 86.7272 57.8066 86.5709 57.8066 86.4927C57.9816 85.3981 57.8065 84.2254 57.1063 82.8181C56.9312 82.4272 56.6686 81.9581 56.4936 81.6453C56.4936 81.6453 56.4936 81.489 56.4936 81.4108C57.0188 80.8635 57.544 80.238 58.1567 79.378C60.2574 77.3453 61.1327 73.5925 61.2203 72.1852C60.52 73.3579 58.6819 76.2507 56.4061 78.4398C56.1435 78.8307 55.8809 79.2217 55.7058 79.6126C55.7058 79.6126 55.6183 79.7689 55.4432 79.7689C55.4432 79.7689 55.2682 79.7689 55.2682 79.6126C54.743 78.6744 54.5679 77.9707 54.5679 77.4234C54.5679 77.2671 54.5679 77.1107 54.5679 76.9543C54.5679 76.5634 54.8305 76.1725 55.0056 75.7816C55.0056 75.7816 55.0056 75.7816 55.0931 75.7816C57.2814 74.7652 58.7694 73.4361 59.6447 72.5761C58.4193 73.4361 56.4936 74.687 53.8677 75.3907C49.141 76.4853 43.6265 73.2797 40.3003 70.1524C36.7991 66.7124 32.8602 65.5396 30.7595 66.0087C30.3218 66.1651 29.8841 66.3214 29.534 66.4778C29.534 66.4778 29.359 66.4778 29.2714 66.4778C29.2714 66.4778 29.2714 66.3214 29.2714 66.2433C29.4465 65.9305 29.6216 65.5396 29.7966 65.2269C29.7966 64.9141 29.9717 64.6014 29.9717 64.2887C29.9717 62.5686 28.7462 59.5195 25.1575 56.6267C22.1814 54.1249 19.0303 50.0593 19.0303 46.2284C19.0303 45.6029 19.1178 44.9774 19.2929 44.4302C20.0807 42.0847 21.4812 40.3646 22.444 39.2701C21.3936 40.0519 19.9931 41.3028 18.8552 43.2574C18.8552 43.2574 18.8552 43.2574 18.7677 43.3356C18.33 43.5701 17.8924 43.7265 17.4547 43.8047C16.4044 43.9611 15.354 43.5701 14.4787 43.2574C14.4787 43.2574 14.3036 43.1792 14.3036 43.0229C14.3036 42.8665 14.3036 42.8665 14.4787 42.7883C14.9163 42.6319 15.354 42.3974 15.7041 42.1628C18.155 40.1301 21.4812 38.4882 22.7066 37.8628C21.131 37.8628 16.842 38.6446 14.5662 40.5992C13.6909 41.0683 12.9907 41.6156 12.3779 42.0847C12.3779 42.0847 12.2029 42.0847 12.1153 42.0847C11.6777 41.8501 11.24 41.6937 10.8024 41.5374C9.22681 40.9901 7.82632 40.7555 6.68842 40.9119C6.60088 40.9119 6.51335 40.9119 6.42582 40.7555C6.42582 40.6774 6.42582 40.5992 6.42582 40.521C7.38866 39.8955 8.17645 38.801 8.87669 37.3937C9.05175 37.0028 9.22681 36.5337 9.31435 36.1427C9.31435 36.0646 9.40189 35.9864 9.57694 35.9864C10.3647 35.9864 11.24 35.83 12.2904 35.5955C15.4415 35.5955 19.0303 33.4063 20.1682 32.3899C16.9296 33.25 14.1286 33.7191 11.8527 33.7191C11.4151 33.7972 10.8899 33.9536 10.4522 34.11C10.3647 34.11 10.2772 34.11 10.1897 34.11C10.1897 34.11 10.1897 33.9536 10.1897 33.8754C10.5398 33.0936 10.9774 32.1554 11.8527 31.6081C12.2029 31.3736 12.6405 31.2172 13.0782 31.0608C13.0782 31.0608 13.0782 31.0608 13.2532 31.0608C15.6166 31.7645 17.7173 31.7645 19.0303 31.6081C17.4547 31.4517 15.0914 31.139 12.7281 29.9663C8.70163 27.8553 7.30114 22.3043 7.30114 18.1606L7.30114 17.6915C7.56373 13.0787 5.63804 9.63865 3.79989 8.70045C3.36224 8.54408 3.01212 8.38772 2.57446 8.30953C2.57446 8.30953 2.57446 8.30954 2.48692 8.23135L3.62483 8.23135C3.62483 8.23135 3.88743 8.30953 4.06249 8.38772C5.90064 9.24773 7.82632 12.3751 7.82632 16.9879C7.82632 17.2224 7.82632 17.5351 7.82632 17.7697C7.65125 21.8352 9.05176 27.5426 13.0782 29.6535C15.7041 30.9826 18.4176 31.139 19.8181 31.2954C19.9931 31.2954 20.0807 31.2954 20.2557 31.2954C20.2557 31.139 20.2557 30.9826 20.4308 30.7481C21.4812 28.1681 24.1946 27.4644 26.4704 27.1517C27.6959 27.1517 29.0088 27.1517 30.0592 27.308C30.847 27.308 31.6348 27.4644 32.335 27.4644C33.0353 27.5426 33.648 27.5426 34.3482 27.4644C32.7727 26.5262 31.8098 24.728 31.8098 22.5389C31.8098 21.4443 32.0724 20.4279 32.4225 19.8025C32.6851 19.0988 33.0353 18.3952 33.5605 17.8479C33.0353 18.0824 32.4225 18.317 31.8098 18.4733C29.1839 19.4115 24.1946 19.6461 22.3565 16.1278C22.269 15.8933 22.1814 15.7369 22.1814 15.5024C21.3936 16.1279 20.3433 16.4406 19.0303 16.5188C16.2293 16.206 14.2161 14.2515 12.553 12.766C12.1153 12.3751 11.6777 11.906 11.24 11.5932C10.0146 10.4205 8.87669 9.56046 7.73879 8.935C6.77596 8.935 5.81311 8.62227 5.81311 8.30953C5.81311 8.30953 5.81311 8.15317 5.90064 8.15317L6.60089 8.15317L6.60089 8.23135C6.60089 8.23135 6.60088 8.23135 6.51336 8.23135C6.77595 8.30954 7.2136 8.4659 7.82632 8.4659C7.82632 8.4659 7.82632 8.4659 7.91385 8.4659C9.05176 9.09137 10.2772 10.0296 11.5026 11.2023C11.9403 11.515 12.3779 11.9841 12.8156 12.3751C14.4787 13.9387 16.4044 15.7369 18.9428 16.0497C20.2557 16.0497 21.3061 15.5806 22.0939 14.8769C22.0939 14.8769 22.269 14.7987 22.3565 14.8769C22.3565 14.8769 22.5315 14.9551 22.5315 15.1115C22.5315 15.5024 22.5315 15.7369 22.7066 16.0497C24.6323 19.6461 29.8841 18.7861 31.5472 18.1606C32.5976 17.8479 33.648 17.3788 34.6108 16.9097C34.6984 16.9097 34.8734 16.9097 34.9609 16.9097C34.9609 16.9879 34.9609 17.1442 34.9609 17.2224C33.9981 17.9261 33.2979 18.8643 32.8602 20.037C32.5101 20.6625 32.2475 21.6007 32.2475 22.617C32.2475 23.4771 32.5101 26.448 35.136 27.4644C35.2235 27.4644 35.3111 27.6208 35.3111 27.699C35.3111 27.7771 35.3111 27.8553 35.136 27.8553C34.1732 28.0117 33.2103 28.0117 32.335 27.8553C31.6348 27.8553 30.847 27.8553 30.0592 27.699C28.9213 27.6208 27.7834 27.4644 26.558 27.5426C24.4572 27.8553 21.9188 28.4808 20.956 30.8263C20.956 31.0608 20.8684 31.2172 20.7809 31.4517C20.7809 31.4517 20.7809 31.4517 20.7809 31.5299C20.7809 31.5299 20.7809 31.6863 20.7809 31.7645L20.7809 31.8427C20.7809 31.8427 20.7809 32.0772 20.6059 32.0772C20.6059 32.0772 20.7809 32.1554 20.8685 32.2336C21.131 33.25 22.0939 33.9536 22.8817 34.2663C22.8817 34.2663 22.9692 34.2663 23.0567 34.4227C23.0567 34.4227 23.0567 34.5009 23.0567 34.5791C22.6191 35.4391 22.7066 36.5337 23.2318 37.3155C23.2318 37.3155 23.2318 37.4719 23.2318 37.55C23.2318 37.55 23.4944 37.55 23.5819 37.55L23.5819 37.6282C23.5819 37.6282 23.757 37.7846 23.8445 37.8628C23.8445 37.8628 23.8445 37.8628 23.932 37.8628C24.1071 38.0191 24.2822 38.1755 24.5448 38.2537C27.1707 39.3482 29.534 38.0973 31.0221 37.0809C31.8974 36.3773 32.6851 35.5173 33.3854 34.7354C33.9106 34.1882 34.4358 33.6409 34.8734 33.1718C35.3986 32.4681 36.0989 31.9208 36.8866 31.4517C36.8866 31.4517 37.0617 31.4517 37.1492 31.4517C37.2368 31.4517 37.3243 31.6081 37.1492 31.6863C36.9742 32.0772 36.8866 32.5463 36.8866 33.0154C36.8866 35.5173 39.6001 37.8628 41.4382 38.41C42.5761 38.9573 43.8891 39.1137 45.1145 39.0355C45.2896 39.0355 45.3771 39.0355 45.3771 39.1919C45.3771 39.2701 45.3771 39.4264 45.2021 39.4264C44.5018 39.5828 43.3639 39.8955 42.051 40.4428C40.1253 41.2246 37.1492 43.3356 37.1492 45.9938C37.1492 46.4629 37.2368 47.0102 37.4118 47.4793C37.4993 47.792 37.7619 48.0266 38.0245 48.2611C38.0245 48.2611 38.0245 48.4175 38.0245 48.4957C38.0245 48.4957 37.8495 48.652 37.7619 48.5739C36.624 48.5739 35.5737 48.8866 34.6108 49.6684C33.2979 51.1539 33.1228 53.1867 33.1228 54.9849C33.1228 55.3758 33.1228 55.7667 33.1228 56.1576C33.1228 56.7831 33.1228 57.3304 33.1228 57.7995C33.1228 58.034 33.1228 58.2686 33.1228 58.5031C33.1228 59.9104 33.0353 61.0832 32.7727 62.0995C32.7727 62.0995 32.7727 62.0995 32.7727 62.1777C32.335 62.5686 32.16 62.9596 32.0724 63.1941C32.0724 63.1941 32.0724 63.1941 32.16 63.1941C32.16 63.1941 32.335 63.1941 32.4225 63.1941C32.4225 63.1941 32.4225 63.3505 32.4225 63.4287C32.4225 63.4287 32.4225 63.4287 32.4225 63.5068C32.6851 63.4287 33.0353 63.2723 33.4729 62.8814C33.4729 62.8814 33.4729 62.8814 33.5605 62.8814C34.8734 62.6468 36.449 62.4905 38.3747 62.5686C38.9874 62.5686 39.6001 62.5686 40.3003 62.5686C42.7512 62.5686 45.4647 62.6468 47.4779 61.2395C48.3532 60.4577 48.7909 59.5977 48.7909 58.6595C48.7909 58.6595 48.7909 58.5031 48.7909 58.4249C48.7909 58.3468 48.7909 58.2686 48.9659 58.1904C49.0534 58.1904 49.141 58.1904 49.2285 58.1904C49.4911 58.4249 49.7537 58.5813 50.1038 58.7377C54.0427 59.9886 57.1063 56.5485 57.9816 54.594C58.5068 53.6558 58.8569 52.7176 59.1195 51.7794C59.1195 51.7012 59.2946 51.623 59.3821 51.623C59.4696 51.623 59.5572 51.7012 59.5572 51.8576C59.5572 52.0139 59.5572 52.1703 59.5572 52.4048C59.5572 53.343 59.8198 54.2812 60.345 55.2194C60.6951 56.314 62.1831 57.9558 64.0213 58.8159C64.9841 59.2068 66.3846 59.5977 67.8726 59.1286C67.8726 59.1286 68.0477 59.1286 68.1352 59.1286C68.1352 59.1286 68.1352 59.285 68.1352 59.3631C67.5225 60.0668 66.9098 60.6923 66.2095 61.1614C65.6843 61.6305 65.0716 62.0214 64.4589 62.4905C63.5836 63.1159 62.6208 63.7414 61.833 64.6014C60.6075 66.0869 59.9948 67.416 59.9948 68.5888C59.9948 69.2142 60.1699 69.8397 60.4325 70.4651C60.52 70.6215 60.6951 70.7779 60.8701 71.0124C60.8701 71.0124 60.8701 71.0124 60.8701 71.0906C60.9577 71.1688 61.0452 71.247 61.1327 71.3252C61.1327 71.3252 61.3078 71.4815 61.3078 71.5597C61.3078 71.5597 61.4829 71.5597 61.5704 71.5597C62.6208 72.107 63.8462 72.0288 64.634 71.7161C64.7215 71.7161 64.8966 71.7161 64.9841 71.8724C65.3342 72.5761 66.0345 73.4361 67.2599 73.6707C67.2599 73.6707 67.435 73.6707 67.435 73.827C67.435 73.827 67.61 73.6707 67.6976 73.6707C67.6976 73.6707 68.0477 73.6707 68.1352 73.6707C68.1352 73.6707 68.1352 73.6707 68.2227 73.6707C68.4853 73.6707 68.6604 73.6707 68.923 73.5143C71.5489 72.6543 72.2492 70.387 72.5993 68.5106C72.5993 67.416 72.5993 66.3996 72.4242 65.3832C72.3367 64.6796 72.2492 63.9759 72.2492 63.3505C72.0741 62.4905 72.1616 61.7086 72.2492 60.7704C72.2492 60.6923 72.3367 60.6141 72.5118 60.6141C72.5993 60.6141 72.6868 60.6141 72.7744 60.7704C73.3871 62.0214 74.7 62.6468 75.6629 62.9596C77.6761 63.585 79.9519 63.3505 81.1773 62.8032C82.4028 62.4123 83.5407 61.7868 84.3285 60.9268C84.3285 60.8486 84.5911 60.8486 84.6786 60.9268C84.7661 60.9268 84.8536 61.0832 84.6786 61.2395C84.0659 62.0996 83.6282 63.0377 83.1906 64.0541C82.7529 64.9141 82.5778 66.0869 82.5778 67.1815C82.5778 68.8233 83.103 70.9342 85.5539 71.9506C85.904 72.107 86.1666 72.107 86.6043 72.107C86.6918 72.107 86.7793 72.107 86.8669 72.2634C86.8669 72.3415 86.8669 72.4197 86.8669 72.4979C85.9916 73.2016 85.5539 74.1398 85.5539 75.3125C85.904 77.5798 87.8297 79.2998 89.5803 80.8635C90.018 81.2544 90.5432 81.6453 90.8933 82.0363C92.2063 83.209 93.2566 84.2254 94.0444 85.2418C94.0444 85.2418 94.0444 85.2418 94.0444 85.32C94.0444 85.8672 94.2195 86.2581 94.307 86.4927C94.307 86.4927 94.307 86.4927 94.307 86.4145C94.307 86.4145 94.307 86.4145 94.3945 86.4145L94.3945 87.04C94.3945 87.04 94.307 87.1182 94.1319 87.1182C93.7818 87.1182 93.4317 86.2581 93.4317 85.3981C92.7314 84.4599 91.7686 83.4436 90.4556 82.2708C90.1055 81.8799 89.5803 81.489 89.1427 81.0981C87.392 79.6126 85.2913 77.8144 84.9412 75.3125C84.9412 74.2179 85.3788 73.2797 86.0791 72.4979C85.8165 72.4979 85.6414 72.4197 85.3788 72.3415C83.2781 71.4815 82.1402 69.6051 82.1402 67.1815C82.1402 66.0869 82.4028 64.836 82.8404 63.9759C83.0155 63.4287 83.2781 62.8814 83.5407 62.3341C82.928 62.8032 82.1402 63.1159 81.3524 63.3505C80.127 63.9759 77.6761 64.2105 75.4878 63.5068C74.2624 63.1159 73.2995 62.4905 72.6868 61.6305C72.6868 62.2559 72.6868 62.8032 72.6868 63.4287C72.6868 64.0541 72.6868 64.7578 72.8619 65.4614C72.9494 66.3214 73.1245 67.1815 73.1245 68.1197C73.1245 68.276 73.1245 68.4324 73.1245 68.5888C72.7744 70.5433 71.9866 72.967 69.0981 73.9052C68.923 73.9052 68.7479 73.9834 68.4853 74.0616C68.4853 74.2179 68.4853 74.2961 68.4853 74.4525C68.6604 75.7034 68.8355 78.0489 70.3235 80.4726C72.5118 83.8345 78.6389 85.2418 83.6282 85.1636C89.1427 85.4763 93.0816 87.1963 94.2195 89.0727C94.2195 89.2291 94.307 89.3073 94.3945 89.3855L94.3945 90.4019C94.3945 90.4019 94.307 90.4019 94.2195 90.4019C94.1319 90.0891 93.9569 89.6982 93.7818 89.3073L93.7818 89.2291ZM19.9056 31.9208C18.6802 32.0772 16.2293 32.3118 12.9907 31.4517C12.553 31.5299 12.2029 31.6863 11.9403 31.9208C11.4151 32.2336 11.065 32.7809 10.6273 33.5627C10.9774 33.4845 11.24 33.4063 11.6777 33.3281C13.9535 33.3281 16.667 32.7809 19.9056 31.999L19.9056 31.9208ZM22.1814 37.4719C21.7438 36.69 21.7438 35.6736 22.0939 34.8136C21.3061 34.5009 20.5183 33.8754 20.0807 32.9372C18.6802 34.0318 15.1789 35.9082 12.2029 35.9864C11.24 36.2209 10.3647 36.2991 9.57694 36.3773C9.48942 36.7682 9.31435 37.1591 9.13929 37.55C8.61411 38.801 7.91385 39.7392 7.12607 40.4428C8.17645 40.4428 9.40188 40.6774 10.8024 41.1465C11.24 41.3028 11.5902 41.4592 12.0278 41.6937C12.6405 41.2246 13.3408 40.7555 14.1286 40.2864C16.3168 38.41 20.3433 37.6282 22.1814 37.4719ZM22.7941 38.3319C21.4812 38.9573 18.33 40.5992 15.8792 42.6319C15.6166 42.7883 15.2665 42.9447 15.0039 43.101C15.9667 43.4138 16.667 43.5701 17.2797 43.4138C17.6298 43.4138 17.9799 43.2574 18.33 43.101C19.9056 40.521 21.8313 39.0355 22.7941 38.41L22.7941 38.3319ZM59.8198 71.7161C59.8198 71.7161 60.0824 71.5597 60.1699 71.4815C60.0824 71.3252 59.9073 71.1688 59.8198 71.0124C59.4696 70.387 59.2946 69.6833 59.2946 68.9797C59.2946 67.6506 59.9073 66.3214 61.2203 64.6796C62.0956 63.8196 63.0584 63.1159 63.9337 62.5686C64.5464 62.0995 65.1592 61.7086 65.6843 61.2395C66.2095 60.9268 66.6472 60.4577 67.0848 60.0668C66.0345 60.3013 64.809 60.0668 63.6711 59.5977C61.6579 58.6595 60.1699 57.0176 59.7322 55.8449C59.3821 55.1412 59.1195 54.4376 58.9445 53.734C58.7694 54.2812 58.5068 54.8285 58.2442 55.2976C57.2814 57.3304 54.0427 61.005 49.7537 59.5977C49.4911 59.5977 49.316 59.4413 49.141 59.285C49.141 60.2232 48.6158 61.1614 47.7405 62.0214C45.5522 63.5068 42.5761 63.5068 40.2128 63.4287C39.5126 63.4287 38.8998 63.4287 38.2871 63.4287C36.449 63.4287 34.9609 63.4287 33.648 63.7414C32.8602 64.3669 32.0724 64.6014 31.8974 64.5232C31.8098 64.5232 31.7223 64.3669 31.8098 64.2887L31.8098 64.2105C31.8098 64.2105 31.8098 64.2105 31.7223 64.2105C31.5472 64.2105 31.4597 64.0541 31.4597 63.9759C31.4597 63.8196 31.6348 63.1941 32.335 62.4905C32.5976 61.4741 32.6851 60.3795 32.6851 59.0504L32.6851 58.3468C32.6851 57.7995 32.6851 57.2522 32.6851 56.7049C32.6851 56.314 32.6851 55.9231 32.6851 55.5322C32.6851 53.6558 32.8602 51.5448 34.3482 49.903C35.3111 49.1211 36.2739 48.7302 37.3243 48.652C37.1492 48.4957 37.0617 48.2611 36.9742 48.0266C36.7116 47.4793 36.624 46.932 36.624 46.3847C36.624 43.492 39.6876 41.2246 41.7884 40.4428C42.4011 40.1301 43.0138 39.9737 43.539 39.8173C42.7512 39.7392 41.9634 39.5046 41.2632 39.1919C39.25 38.6446 36.3614 36.0646 36.3614 33.4063C36.3614 33.0936 36.3614 32.859 36.449 32.5463C35.9238 32.9372 35.4861 33.3281 35.136 33.7972C34.6108 34.2663 34.1732 34.7354 33.648 35.2827C32.9477 36.0646 32.16 36.9246 31.1971 37.7064C29.534 38.801 27.0831 40.1301 24.1946 38.9573C24.0196 38.8791 23.8445 38.801 23.6694 38.6446C23.6694 38.7228 23.4944 38.8791 23.4069 38.9573C22.5315 39.8955 20.7809 41.7719 19.9931 44.352C19.8181 44.8992 19.7305 45.4465 19.7305 45.9938C19.7305 49.6684 22.7941 53.5776 25.6827 56.0794C28.6587 58.5031 30.5844 61.6305 30.5844 64.0541C30.5844 64.445 30.5844 64.7578 30.4093 65.1487C30.3218 65.3832 30.2343 65.5396 30.1467 65.696C30.3218 65.696 30.5844 65.5396 30.847 65.4614C33.1228 64.9141 37.2368 66.1651 40.9131 69.6833C44.1517 72.7325 49.4911 75.8598 54.0427 74.8434C57.0188 74.0616 59.032 72.5761 60.1699 71.7161L59.8198 71.7161ZM60.6951 72.0288C59.9948 72.8888 58.4193 74.687 55.4432 76.0943C55.2682 76.4071 55.0931 76.7198 55.0931 77.0325C55.0056 77.5798 55.0931 78.2053 55.4432 79.0653C55.6183 78.7526 55.7933 78.518 55.9684 78.2053C58.1567 76.0943 59.9948 73.2016 60.6951 72.0288ZM66.6472 74.4525C65.5968 74.1398 64.8966 73.3579 64.5464 72.6543C63.7587 72.8888 62.6208 72.967 61.5704 72.5761C61.3953 74.2179 60.52 77.8144 58.4193 79.6908C57.8941 80.4726 57.3689 81.0981 56.8437 81.6453C57.0188 81.9581 57.1938 82.349 57.4564 82.7399C57.9816 83.9127 58.2442 85.0072 58.2442 85.9454C59.032 85.2418 60.0824 84.6163 61.4829 84.1472C61.9205 83.9908 62.3582 83.8345 62.7958 83.7563C62.7958 83.0526 62.9709 82.2708 63.2335 81.4108C63.2335 78.6744 65.4218 75.6252 66.6472 74.3743L66.6472 74.4525ZM67.7851 74.6089C66.6472 78.1271 66.3846 80.5508 66.2971 82.0363C66.2971 82.349 66.122 82.5835 66.0345 82.8963C66.9973 82.5835 67.5225 82.1926 67.8726 81.7235C68.1352 81.4108 68.2227 81.0981 68.3978 80.7853C67.9602 79.4562 67.6976 78.1271 67.6976 76.7198C67.6976 75.8598 67.6976 75.078 67.8726 74.6089L67.7851 74.6089Z" fill="#CA943A"/>
<path d="M93.5155 32.5468C92.7277 32.625 92.29 32.7032 92.0274 32.8595C92.4651 33.0159 93.1653 33.2505 93.603 33.7195C93.603 33.7195 93.603 33.8759 93.603 33.9541C93.2529 34.5796 93.1653 35.3614 93.3404 36.1432C93.3404 36.1432 93.3404 36.2214 93.3404 36.2996C93.0778 36.6905 92.7277 37.0032 92.3776 37.3942C92.115 37.6287 91.7648 37.6287 91.3272 37.5505C90.6269 37.3942 89.7516 36.8469 89.314 35.9869C88.8763 35.0487 89.314 33.6414 90.5394 31.8432C91.5898 30.3577 92.8152 29.1849 93.603 28.5595C92.8152 28.794 90.3644 29.5758 87.5634 31.3741C84.4998 32.9377 79.8606 37.1596 80.9985 42.0851C81.0861 43.727 82.6616 44.6652 84.0621 44.8216C84.0621 44.8216 84.0621 44.8216 84.1496 44.8216C84.1496 44.8216 84.4122 44.8216 84.4122 44.8997C84.4122 44.8997 84.4122 45.0561 84.4122 45.1343L84.4122 45.2125C84.4122 45.2125 84.2372 45.3688 84.1496 45.3688C84.0621 45.9943 83.8871 47.2452 83.0117 48.3398C82.3115 49.5125 80.5609 49.9035 79.3354 49.6689C78.5477 49.5125 78.0225 49.1998 78.0225 48.7307C77.8474 47.8707 78.0225 47.3234 78.3726 47.1671C78.8103 46.9325 79.5105 47.3234 79.9482 47.558C79.9482 47.558 80.1232 47.558 80.1232 47.6362C80.1232 47.4798 80.1232 47.1671 79.7731 46.6198C79.7731 46.6198 79.7731 46.6198 79.7731 46.5416C79.7731 46.5416 79.598 46.2289 79.2479 45.9943C78.9853 45.8379 78.2851 45.5252 77.4973 45.8379C77.4973 45.8379 77.4098 45.8379 77.3222 45.9161C77.3222 45.9161 77.2347 45.9161 77.1472 45.9943C77.1472 45.9943 76.9721 45.9943 76.8846 45.9943C76.8846 45.9943 76.7095 45.9161 76.7095 45.8379L76.7095 45.6816L76.7095 45.5252C76.3594 44.8216 75.7467 44.587 75.309 44.5088C74.8714 44.4306 74.5212 44.5088 74.5212 44.5088C74.5212 44.5088 74.5212 44.5088 74.4337 44.5088C73.821 44.7434 73.4709 44.8997 73.3833 45.0561C73.3833 45.0561 73.5584 45.0561 73.6459 45.0561C74.2586 45.2125 75.1339 45.3688 75.1339 45.9943C75.1339 46.3852 74.7838 46.698 74.0836 47.1671C73.7334 47.4016 73.2958 47.4016 72.7706 47.1671C71.7202 46.698 70.7574 45.6034 70.7574 44.3525C70.7574 44.1179 70.7574 43.8834 70.7574 43.727C71.1075 42.4761 71.8078 41.4597 72.2454 40.9906C72.2454 40.9906 72.2454 40.9906 72.2454 40.9124C72.2454 40.9124 72.1579 40.756 72.2454 40.6778C72.2454 40.6778 72.333 40.5215 72.4205 40.5215C72.4205 40.5215 72.5955 40.5215 72.6831 40.5215C73.821 41.2251 75.6591 41.5379 77.0596 40.5215C80.911 38.2542 81.2611 33.8759 81.2611 32.1559C81.2611 30.9831 81.0861 29.8886 80.8235 28.8722C80.2983 25.9012 79.1604 23.7903 78.8103 23.1648C78.8103 24.103 78.8103 25.6667 78.3726 27.3867C78.0225 28.7158 77.4098 30.5922 75.9217 31.0613C75.0464 31.3741 73.996 31.2959 73.2958 30.905C72.9457 30.6704 72.6831 30.4359 72.6831 30.0449C72.6831 29.5758 72.7706 29.1067 72.8581 28.6376C72.8581 28.6376 72.8581 28.5595 72.9457 28.4813C73.6459 28.0904 74.1711 27.4649 74.4337 26.8394C74.4337 26.8394 74.5212 26.6831 74.6088 26.6831C75.309 26.6049 75.9217 26.8394 76.4469 27.074C76.2719 26.8394 76.0968 26.4485 75.5716 25.9012C75.3965 25.7449 75.1339 25.5885 74.7838 25.5103C74.6963 25.5103 74.6088 25.5103 74.6088 25.3539C74.6088 25.0412 74.4337 24.8067 74.2586 24.6503C73.6459 24.1812 73.2083 23.9467 72.9457 23.8685C73.2083 24.2594 73.4709 24.8849 73.3833 25.5103C73.3833 25.5103 73.3833 25.6667 73.2083 25.6667C72.508 25.9012 71.8078 26.3703 71.3701 26.9958C71.3701 26.9958 71.3701 27.074 71.195 27.074C70.6699 27.1522 70.1447 27.2303 69.6195 27.2303C68.9192 27.1522 68.3941 26.2921 68.3941 25.3539C68.3941 24.963 68.3941 24.6503 68.6566 24.3376C69.0943 23.3994 70.4948 22.6175 72.8581 22.2266C74.7838 21.9139 76.5344 21.8357 77.5848 21.8357C76.8846 21.523 74.6088 20.5066 71.1075 19.9593C67.6063 19.0993 61.0414 19.2557 58.0654 23.3994C57.5402 23.9467 57.2776 24.5721 57.2776 25.2758C57.2776 25.9794 57.5402 26.6831 58.0654 27.3085C58.0654 27.3085 58.0654 27.4649 58.0654 27.5431C58.0654 27.5431 58.0654 27.6994 57.8903 27.6994L57.5402 27.6994C56.9275 28.0904 55.8771 28.794 54.3891 29.1067C53.5138 29.3413 52.5509 29.1067 51.6756 28.5595C50.8878 28.0122 50.3627 27.3085 50.3627 26.7612C50.3627 26.5267 50.3627 26.3703 50.5377 26.214C51.0629 25.5103 51.5881 25.1976 52.0257 25.2758C52.5509 25.3539 52.8135 26.0576 52.9011 26.6049L52.9011 26.7612C52.9886 26.6831 53.2512 26.3703 53.4262 25.823C53.4262 25.823 53.4262 25.6667 53.4262 25.4321C53.4262 24.8848 53.0761 24.1812 52.2883 23.8685C52.2883 23.8685 52.2008 23.8685 52.1133 23.8685C52.1133 23.8685 52.0257 23.8685 51.9382 23.8685C51.9382 23.8685 51.7632 23.8685 51.7632 23.7121L51.7632 23.5557C51.7632 23.5557 51.7632 23.4776 51.9382 23.3994C51.9382 23.3994 52.0257 23.3212 52.0257 23.243C52.1133 23.0084 52.2008 22.8521 52.2008 22.6175C52.2008 21.9921 51.7632 21.523 51.5881 21.4448C51.413 21.2884 51.238 21.2102 51.238 21.2102C51.238 21.2102 51.238 21.2102 51.1504 21.2102C50.5377 20.9757 50.1876 20.8975 50.0125 20.8975C50.0125 20.8975 50.0125 21.0539 50.1001 21.0539C50.3627 21.3666 50.6253 21.8357 50.6253 22.1484C50.6253 22.3048 50.6252 22.4612 50.3627 22.6175C50.1001 22.8521 49.5749 22.8521 48.6996 22.7739C47.9993 22.7739 47.5617 21.9921 47.5617 20.9757C47.5617 20.0375 47.9993 18.8647 49.0497 18.3175C50.2751 17.6138 51.5881 17.3793 52.3759 17.3011C52.3759 17.3011 52.3759 17.1447 52.5509 17.0665C52.5509 17.0665 52.8135 17.0665 52.9011 17.0665C52.9011 17.0665 52.9886 17.1447 52.9886 17.2229C52.9886 17.2229 52.9886 17.2229 52.9886 17.3011C53.2512 18.552 54.3016 19.8811 56.1397 20.0375C61.4791 20.9757 66.2933 16.9883 68.0439 14.1737C70.0571 11.6719 70.9325 9.48276 71.195 8.77911C70.4073 9.40458 69.1818 10.4991 67.5187 11.5155C65.5055 12.6883 63.93 13.001 62.8796 12.6101C61.7417 12.141 61.0414 11.1246 61.0414 10.4991C61.0414 10.2646 61.0414 10.03 61.304 9.87368C61.7417 9.56095 62.0918 9.24821 62.5295 9.01366C62.5295 9.01366 62.617 9.01366 62.7045 9.01366C63.5798 9.17003 64.3676 9.01366 65.1554 8.77911C65.1554 8.77911 65.3305 8.77911 65.418 8.77911C65.9432 9.17003 66.2058 9.79549 66.3808 10.2646C66.4684 10.03 66.6434 9.56095 66.731 8.8573C66.731 8.62275 66.731 8.3882 66.4684 8.15365L66.9936 8.15365C66.9936 8.15365 67.2562 8.62275 67.2562 8.8573L67.2562 8.93547C67.0811 10.2646 66.8185 10.6555 66.6434 10.8119C66.6434 10.9682 66.4684 10.9682 66.3808 10.9682C66.2058 10.9682 66.1182 10.8119 66.0307 10.5773C65.9432 10.2646 65.6806 9.63913 65.3305 9.24821C64.5427 9.56094 63.6674 9.63913 62.8796 9.48276C62.5295 9.71731 62.1794 9.95186 61.8292 10.1864C61.4791 10.5773 62.0918 11.8283 63.2297 12.2974C64.1926 12.6101 65.5931 12.2974 67.4312 11.2028C69.2694 10.1082 70.5823 9.01366 71.2826 8.38819C71.4576 8.31001 71.5452 8.15365 71.6327 8.07546L72.333 8.07546C72.333 8.07546 72.333 8.07547 72.333 8.15365C72.4205 8.15365 72.508 8.38819 72.6831 8.62275C73.0332 9.01366 73.9085 9.63913 75.0464 9.87368C76.5344 10.2646 78.4601 9.40458 80.3858 8.54457C80.7359 8.3882 80.9985 8.31002 81.3487 8.15365C81.5237 8.15365 81.6112 8.07546 81.6988 7.99728L82.6616 7.99728L82.6616 8.07546L82.4866 8.07546C82.4866 8.07546 81.8738 8.3882 81.5237 8.54457C81.1736 8.70093 80.911 8.77911 80.5609 8.93547C78.5477 9.79549 76.5344 10.7337 74.8714 10.2646C73.7335 10.03 72.9457 9.40458 72.2454 8.8573C72.2454 8.8573 72.2454 8.77911 72.2454 8.70093C71.8953 9.40458 71.195 11.4373 71.195 13.0792C71.195 14.721 72.0704 15.2683 72.2454 15.3465C72.508 15.2683 73.2958 14.721 73.2958 13.0792C73.2958 12.141 73.0332 11.1246 72.8581 10.421C72.8581 10.3428 72.8581 10.2646 72.9457 10.1864L73.2083 10.1864C73.5584 10.5773 73.996 10.8119 74.5212 11.1246C76.3594 12.0628 78.8978 11.7501 82.399 10.2646C83.9746 9.56094 85.2 8.93548 86.1629 8.46638C86.1629 8.46638 86.1629 8.46638 86.2504 8.46638C86.7756 8.46638 87.2132 8.31002 87.3883 8.23183C87.3883 8.23183 87.3883 8.23183 87.3008 8.15365L87.9135 8.15365C87.9135 8.15365 87.9135 8.23183 87.9135 8.31001C87.9135 8.62275 87.0382 8.85729 86.2504 8.93547C85.2876 9.40458 84.0621 10.03 82.4866 10.7337C78.8103 12.2974 76.0968 12.6101 74.0836 11.5937C73.821 11.4373 73.5584 11.281 73.2958 11.1246C73.4709 11.7501 73.5584 12.5319 73.5584 13.2356C73.5584 15.4247 72.2454 15.972 71.9828 15.972C71.7202 15.972 70.4073 15.4247 70.4073 13.2356C70.4073 12.6883 70.4073 12.141 70.5823 11.5937C70.1447 12.4537 69.4444 13.4701 68.5691 14.4865C66.731 17.3793 61.7417 21.523 56.1397 20.5848C54.214 20.4284 52.9886 19.0211 52.6385 17.692C52.6385 17.692 52.5509 17.692 52.4634 17.692C51.7632 17.7702 50.5377 17.9265 49.3123 18.6302C48.3494 19.0993 47.9993 20.1157 47.9993 20.8975C47.9993 21.6793 48.2619 22.2266 48.6996 22.3048C49.5749 22.4612 49.8375 22.3048 49.925 22.3048C49.925 22.3048 49.925 22.3048 49.925 22.1484C49.925 21.9139 49.6624 21.523 49.4873 21.2102C49.3123 20.8975 49.2248 20.8193 49.2248 20.663L49.2248 20.5066C49.2248 20.5066 49.2248 20.5066 49.3998 20.5066C49.6624 20.4284 50.1876 20.5066 51.0629 20.8193C51.3255 20.8193 51.5881 21.0539 51.6756 21.1321C52.3759 21.7575 52.6385 22.6957 52.2008 23.4776C52.2008 23.4776 52.2008 23.4776 52.2008 23.5557C53.2512 23.9467 53.6888 24.8849 53.6888 25.5103C53.6888 25.6667 53.6888 25.9794 53.5138 26.1358C53.0761 27.074 52.726 27.3085 52.5509 27.3867C52.5509 27.3867 52.3759 27.3867 52.2883 27.3867C52.0257 27.3867 52.0257 27.1522 51.9382 26.7612C51.8507 26.4485 51.6756 25.823 51.413 25.7449C51.413 25.7449 51.0629 25.7449 50.4502 26.5267C50.1001 26.8394 50.7128 27.6994 51.5006 28.2467C52.2883 28.7158 53.0761 28.9504 53.7764 28.7158C55.1769 28.4813 56.1397 27.7776 56.7524 27.3867C56.7524 27.3867 56.7524 27.3867 56.9275 27.3085C56.4898 26.6831 56.2272 25.9794 56.2272 25.1976C56.2272 24.4157 56.5774 23.6339 57.1025 23.0866C60.2537 18.8647 67.0811 18.6302 70.6699 19.4902C72.1579 19.7248 73.4709 20.0375 74.5212 20.3502C73.996 20.0375 73.4709 19.6466 73.0332 19.2557C71.9828 18.3175 71.8078 17.5356 71.8078 16.9883C71.8078 16.6756 71.8078 16.4411 71.9828 16.2847C72.0704 16.2065 73.4709 15.7374 75.2215 17.2229C75.7467 17.692 76.2719 18.3175 76.7095 18.8647C76.7095 18.552 76.7095 18.3175 76.8846 18.0047C77.8474 15.112 82.0489 13.7828 83.4494 13.3137C85.1125 12.8446 86.513 12.4537 87.5634 12.2192C88.2636 11.7501 88.8763 11.5155 89.1389 11.5937C89.1389 11.5937 89.314 11.7501 89.314 11.8283L89.314 11.9846L89.489 11.9846C89.5766 11.9846 89.6641 12.141 89.6641 12.2192C89.6641 12.4537 89.489 12.9228 88.8763 13.5483C88.6137 14.4865 88.1761 15.7374 87.6509 17.2229C86.3379 20.663 84.5873 22.5394 82.399 23.0866C82.0489 23.0866 81.7863 23.243 81.4362 23.243C82.0489 23.6339 82.7491 24.0248 83.2743 24.4939C84.3247 25.4321 84.4998 26.214 84.4998 26.7612C84.4998 27.074 84.4998 27.3085 84.3247 27.3867C84.1496 27.4649 82.7491 27.934 81.0861 26.4485C80.6484 26.0576 80.2983 25.5885 79.8606 25.1194C80.2107 26.0576 80.5609 27.1522 80.8235 28.4813C81.1736 29.4977 81.2611 30.6704 81.2611 31.9213C81.2611 33.7195 80.8235 38.2542 76.8846 40.5997C75.3965 41.7724 73.3833 41.5379 72.1579 40.756C72.1579 40.756 72.1579 40.8342 71.9828 40.9124C71.5452 41.4597 70.8449 42.3197 70.5823 43.4924C70.5823 43.6488 70.5823 43.8052 70.5823 44.0397C70.5823 45.0561 71.5452 46.0725 72.333 46.4634C72.6831 46.6198 72.9457 46.6198 73.1207 46.4634C73.9085 45.9943 73.996 45.7598 73.996 45.6034C73.996 45.3688 73.2958 45.2125 72.9457 45.1343C72.508 45.0561 72.2454 44.9779 72.2454 44.7434C72.2454 44.7434 72.2454 44.6652 72.2454 44.587C72.333 44.3525 72.7706 44.1179 73.6459 43.8052C73.9085 43.6488 74.3462 43.5706 74.7838 43.727C75.5716 43.8834 76.1843 44.3525 76.5344 44.9779C77.5848 44.587 78.4601 44.9779 78.8103 45.2125C79.2479 45.447 79.5105 45.7598 79.5105 46.0725C80.0357 47.0889 79.8606 47.4016 79.8606 47.558C79.8606 47.558 79.8606 47.7143 79.7731 47.7143C79.598 47.7925 79.423 47.7143 78.9853 47.4798C78.7227 47.3234 78.11 47.0107 77.8474 47.0889C77.6723 47.1671 77.6723 47.558 77.7599 48.2616C77.7599 48.4962 78.11 48.7307 78.7227 48.8089C79.6856 48.9653 81.3487 48.8089 81.9614 47.7143C82.7491 46.698 82.9242 45.5252 83.0117 44.8997C83.0117 44.8997 83.0117 44.8216 83.0117 44.7434C81.5237 44.4306 79.9482 43.4143 79.7731 41.616C79.6856 41.1469 79.598 40.5997 79.598 40.0524C79.598 35.6741 83.712 31.9213 86.513 30.514C87.7384 29.7322 88.8763 29.1067 89.9267 28.6376C89.314 28.7158 88.6137 28.794 88.001 28.794C85.5501 28.794 84.9374 27.5431 84.9374 27.3867C84.9374 27.2303 85.5501 25.9794 88.001 25.9794C88.7888 25.9794 89.6641 26.0576 90.3644 26.214C90.1893 25.9794 89.9267 25.7449 89.8392 25.5103C88.7013 23.7903 88.9639 21.2884 90.802 18.0047C91.5898 16.5974 92.29 15.5029 92.8152 14.721C92.8152 14.0174 93.1653 13.2356 93.5155 13.2356C93.5155 13.2356 93.5155 13.2356 93.603 13.2356C93.6905 13.2356 93.603 13.2356 93.6905 13.2356L93.6905 13.7828C93.6905 13.7828 93.6905 13.7828 93.603 13.7047C93.5155 13.861 93.3404 14.2519 93.3404 14.721C93.3404 14.721 93.3404 14.721 93.3404 14.7992C92.8152 15.581 92.115 16.6756 91.3272 18.1611C89.5766 21.2884 89.314 23.6339 90.3644 25.2758C90.6269 25.7449 90.9771 26.1358 91.4147 26.4485C91.4147 26.4485 91.5023 26.6049 91.4147 26.6831C91.4147 26.6831 91.2397 26.8394 91.1521 26.7612C90.3644 26.6049 89.2264 26.3703 88.1761 26.3703C86.2504 26.3703 85.7252 27.1522 85.6377 27.3085C85.7252 27.4649 86.3379 28.2467 88.1761 28.2467C90.0142 28.2467 92.29 27.6213 93.0778 27.3085C93.0778 27.3085 93.0778 27.3085 92.9028 27.3085C92.4651 26.9176 91.5898 26.1358 91.3272 25.0412C91.3272 24.8067 91.2397 24.4939 91.2397 24.2594C91.2397 22.9303 92.115 21.3666 92.9028 19.8811C92.9903 19.6466 93.1653 19.412 93.3404 19.1775C93.5155 18.8647 93.603 18.6302 93.7781 18.3175L93.7781 18.2393L93.9531 18.2393L93.9531 19.1775C93.9531 19.1775 93.8656 19.412 93.7781 19.4902C93.6905 19.7248 93.5155 19.9593 93.4279 20.1939C92.4651 21.9139 91.5023 23.7121 91.8524 25.1194C92.115 26.1358 92.9028 26.8394 93.2529 27.1522C93.5155 27.2303 93.6905 27.3867 93.7781 27.4649L93.8656 27.4649L93.8656 28.0904C93.8656 28.1685 93.6905 28.2467 93.5155 28.4031C92.8152 29.0286 91.5023 30.2013 90.3644 31.8432C89.1389 33.485 88.7888 34.7359 89.1389 35.5959C89.489 36.3778 90.2768 36.8469 90.802 36.9251C91.0646 36.9251 91.3272 36.9251 91.4147 36.9251C91.7648 36.6123 92.0274 36.2996 92.29 35.9869C92.115 35.205 92.29 34.5014 92.5526 33.7977C92.115 33.4068 91.5023 33.2504 91.0646 33.0941C90.802 33.0941 90.6269 32.9377 90.6269 32.7813C90.6269 32.7813 90.6269 32.625 90.802 32.5468C90.9771 32.4686 91.5023 32.1559 92.9028 31.9995C93.1653 31.9995 93.5155 31.9995 93.8656 32.2341L93.8656 32.7032C93.5155 32.5468 93.2529 32.4686 92.9903 32.4686L93.5155 32.5468ZM77.9349 22.3048C76.9721 22.3048 75.1339 22.3048 73.0332 22.6957C70.9325 23.0866 69.6195 23.7121 69.1818 24.5721C69.0943 24.8848 69.0068 25.1976 69.0068 25.5103C69.0068 26.2921 69.3569 26.9176 69.7946 26.9958C70.3197 26.9958 70.7574 26.9176 71.195 26.8394C71.7202 26.214 72.333 25.7449 73.1207 25.5103C73.1207 24.963 72.7706 24.4158 72.5955 24.103C72.508 23.9467 72.4205 23.8685 72.4205 23.7121C72.4205 23.7121 72.4205 23.5557 72.508 23.4776C72.508 23.4776 72.6831 23.4776 72.7706 23.4776C72.9457 23.4776 73.5584 23.6339 74.6963 24.4939C74.9589 24.6503 75.1339 24.963 75.2215 25.2758C75.5716 25.3539 75.9217 25.5103 76.0968 25.7449C76.9721 26.7612 77.1472 27.3085 77.1472 27.4649C77.1472 27.5431 77.1472 27.6994 77.1472 27.7776C76.9721 27.7776 76.8846 27.7776 76.622 27.6994C76.2719 27.5431 75.6591 27.2303 75.0464 27.2303C74.6963 27.8558 74.1711 28.4813 73.5584 28.9504C73.5584 29.3413 73.3833 29.7322 73.3833 30.1231C73.3833 30.2795 73.5584 30.4359 73.821 30.5922C74.2586 30.8268 75.2215 30.9831 76.0093 30.6704C77.2347 30.2013 77.8474 28.5595 78.11 27.3085C78.5477 25.4321 78.5477 23.7121 78.5477 22.8521C78.5477 22.6175 78.5477 22.4612 78.5477 22.3048C78.3726 22.3048 78.1975 22.3048 77.9349 22.3048ZM78.8978 21.8357C78.8978 21.8357 78.8978 21.8357 78.9853 21.9139C78.9853 21.9139 78.9853 21.9139 78.9853 21.9921C78.9853 21.9921 78.9853 21.9921 78.9853 22.0703C79.0728 22.0703 79.2479 22.0703 79.598 22.2266C80.2107 22.2266 81.2611 22.2266 82.3115 21.6793C83.6245 20.9757 84.3247 19.1775 85.025 17.3793C85.2 17.0665 85.2876 16.7538 85.3751 16.4411C85.3751 16.2065 85.5501 16.0501 85.6377 15.8938C85.4626 15.8938 85.2 16.0501 85.025 16.1283C84.6748 16.2065 84.4122 16.3629 84.0621 16.4411C82.0489 17.0665 80.0357 17.692 79.2479 18.9429C78.7227 19.7248 78.6352 20.5848 78.6352 21.2102C78.6352 21.2102 78.8103 21.6012 78.8103 21.7575L78.8978 21.7575L78.8978 21.8357ZM82.1364 26.3703C83.4494 27.5431 84.4998 27.3867 84.6748 27.3085C84.6748 27.3085 84.6748 27.1522 84.6748 26.9958C84.6748 26.5267 84.4998 25.823 83.6245 25.0412C82.9242 24.4158 81.8738 23.7903 81.1736 23.3994C81.0861 23.3994 80.9985 23.243 81.0861 23.1648C81.0861 23.0866 81.2611 23.0085 81.3487 23.0085C81.8738 23.0085 82.399 23.0085 82.9242 22.8521C84.9374 22.3048 86.6005 20.5066 87.826 17.2229C88.3511 15.7374 88.7888 14.4865 89.0514 13.5483C89.0514 13.5483 89.0514 13.5483 89.0514 13.4701C89.4015 13.0792 89.5766 12.7665 89.6641 12.6101C89.6641 12.6101 89.6641 12.6101 89.489 12.6101L89.314 12.6101C89.314 12.6101 89.314 12.5319 89.314 12.4537C89.314 12.4537 89.314 12.3755 89.314 12.2974C89.0514 12.2974 88.7888 12.5319 88.3511 12.8446C88.3511 12.8446 88.3511 12.8446 88.2636 12.8446C87.2132 13.0792 85.8127 13.4701 84.1496 13.9392C82.8367 14.4083 78.7227 15.6592 77.8474 18.3175C77.6723 18.7866 77.6723 19.3338 77.6723 19.8029C77.6723 19.8029 77.6723 19.9593 77.4973 20.0375C77.4098 20.0375 77.2347 20.0375 77.2347 19.9593C76.797 19.3338 76.1843 18.4738 75.3965 17.7702C74.0836 16.5974 73.0332 16.7538 72.8581 16.832C72.8581 17.0665 72.6831 18.0047 73.9085 19.0993C75.2215 20.272 77.2347 21.2102 78.11 21.523C78.11 21.523 78.11 21.523 78.11 21.3666L78.11 21.2884C78.11 20.5848 78.11 19.6466 78.8103 18.7866C79.6856 17.4574 81.7863 16.7538 83.8871 16.1283C84.2372 16.0501 84.4998 15.972 84.8499 15.8156C85.2 15.7374 85.5501 15.581 85.9003 15.4247C85.9003 15.4247 86.1629 15.4247 86.2504 15.4247C86.2504 15.4247 86.2504 15.5811 86.2504 15.6592L86.2504 15.7374C86.2504 15.7374 85.9003 16.2847 85.8127 16.6756C85.7252 16.9883 85.5501 17.3011 85.4626 17.5356C84.7624 19.412 84.0621 21.2884 82.5741 22.0703C81.5237 22.6175 80.4733 22.6957 79.598 22.6957C79.598 22.6957 79.5105 22.6957 79.423 22.6957C79.7731 23.4776 80.911 25.354 82.1364 26.4485L82.1364 26.3703Z" fill="#CA943A"/>
<path d="M59.9067 9.0134C59.9067 9.0134 59.9067 9.16977 59.8191 9.32613C59.8191 9.32613 59.8191 9.40432 59.8191 9.4825C59.8191 9.4825 59.8191 9.56068 59.7316 9.56068C59.0313 9.87341 58.156 10.2643 57.3683 10.6552C54.7423 11.2807 51.6787 11.2807 49.1403 10.8116C46.2518 10.3425 44.5012 10.2643 43.5383 10.2643C43.5383 10.2643 43.4508 10.2643 43.3633 10.2643C42.3129 9.32613 41.175 8.62249 40.2122 8.15339C40.2122 8.15339 40.2122 8.15339 40.2122 8.0752L41 8.0752C41.8753 8.5443 42.7506 9.09159 43.6259 9.87342C44.5887 9.87342 46.3393 9.87342 49.2279 10.4207C51.6787 10.8898 54.6548 10.8898 57.2807 10.2643C58.0685 9.87341 58.8563 9.4825 59.5565 9.16977C59.5565 9.0134 59.5565 8.93522 59.7316 8.77885C59.9067 8.5443 60.0817 8.30975 60.3443 8.0752L60.957 8.0752C60.6069 8.38794 60.3443 8.62248 60.1693 8.93522L59.9067 9.0134Z" fill="#CA943A"/>
<path d="M58.326 33.7193C57.7133 34.5011 57.1881 35.2048 56.7505 35.9866C56.7505 36.0648 56.5754 36.143 56.4879 36.0648C56.4003 36.0648 56.3128 35.9866 56.3128 35.9084L56.3128 35.2048C56.1378 34.2666 56.1378 33.4066 56.1378 32.4684C56.1378 31.6865 56.1378 31.0611 56.3128 30.5138C56.5754 28.8719 57.8008 28.0901 58.2385 27.7774C58.326 27.7774 58.5011 27.7774 58.5886 27.7774C58.9387 28.0119 59.4639 28.3247 60.0767 28.3247C61.0395 28.481 62.0023 28.3246 62.7026 27.8555C63.0527 27.621 63.4028 27.3083 63.4028 26.8392C63.2278 26.1355 63.0527 25.5882 62.7026 25.2755C62.7026 25.5882 62.7026 26.0573 62.5275 26.5264C62.5275 26.6046 62.5275 26.761 62.2649 26.9174C61.8273 27.1519 60.7769 27.1519 60.0767 26.761C59.2013 26.2919 59.1138 25.4319 59.9016 24.4937C62.0023 21.6009 67.0791 20.6627 71.1056 20.9754C71.6308 20.9754 72.1559 20.9754 72.7687 20.9754C72.9437 20.9754 73.0313 21.0536 73.0313 21.21C73.0313 21.2882 73.0313 21.4445 72.8562 21.4445L72.6811 21.4445C71.018 21.6009 68.7422 21.7573 67.2542 23.6337C66.9041 24.1809 66.6415 24.9628 66.6415 25.6664C66.6415 26.761 67.0791 27.6992 67.7794 28.4028C67.7794 28.4028 67.7794 28.5592 67.7794 28.6374C67.7794 28.6374 67.6919 28.7937 67.6043 28.7937C66.9916 28.7937 66.3789 28.7937 65.6786 28.8719C63.2278 29.4974 59.9891 31.3738 58.4136 33.7193L58.326 33.7193ZM65.5036 28.481C66.0288 28.481 66.554 28.481 66.9916 28.481C66.3789 27.7774 66.0288 26.8392 66.0288 25.8228C66.0288 24.9628 66.2914 24.1809 66.729 23.5555C67.6919 22.3045 68.9173 21.7573 70.1427 21.4445C66.3789 21.2882 62.0899 22.2264 60.2517 24.8064C59.9016 25.1973 59.8141 25.5101 59.8141 25.7446C59.8141 26.2137 60.2517 26.4483 60.6894 26.6046C61.3896 26.8392 62.0023 26.6828 62.0899 26.6046C62.1774 26.1355 62.1774 25.6664 62.2649 25.3537C62.2649 25.041 62.2649 24.8846 62.44 24.8064C62.44 24.8064 62.6151 24.8064 62.7026 24.8064C62.7026 24.8064 62.7026 24.8064 62.7901 24.8846C63.3153 25.1973 63.753 25.901 63.928 26.9955C63.928 27.5428 63.5779 28.0119 63.0527 28.4028C62.2649 28.9501 61.127 29.1847 60.0767 28.9501C59.5515 28.9501 59.0263 28.7938 58.4136 28.4028C57.8008 28.7938 57.0131 29.4974 56.838 30.7483C56.6629 31.2956 56.6629 31.9211 56.6629 32.6247C56.6629 33.4847 56.6629 34.3448 56.838 35.283C57.1881 34.7357 57.6258 34.1884 58.0634 33.6411C59.7265 31.2174 63.1402 29.2628 65.6786 28.6374L65.5036 28.481Z" fill="#CA943A"/>
<path d="M92.2034 67.5721C90.1902 66.3211 89.1398 64.5229 89.1398 62.2556C89.1398 59.9883 90.1902 57.4864 90.8904 56.1573C90.2777 56.861 89.4899 57.9555 88.5271 59.3628C87.9144 60.1447 87.4767 61.161 87.4767 62.4902C87.4767 64.9138 88.7897 67.5721 90.5403 68.7448C91.7657 69.8394 92.8161 70.8558 93.6914 71.8721L93.6914 72.0285C93.5163 72.4976 93.5163 72.9667 93.5163 73.3576L93.5163 73.514C93.5163 73.514 93.5163 73.6704 93.3413 73.7485C93.3413 73.7485 93.1662 73.7485 93.0787 73.7485C92.0283 72.8103 90.5403 72.2631 89.4024 72.1849C89.1398 72.1849 88.9647 72.1849 88.7897 72.2631L88.6146 72.2631C88.6146 72.2631 88.4395 72.2631 88.352 72.1849C88.352 72.1849 88.352 72.0285 88.352 71.9503C88.9647 71.4812 89.3149 70.9339 89.3149 70.4648L89.3149 70.3867C89.3149 68.9794 88.0019 68.5884 87.5642 68.5103C86.9515 68.5103 86.6014 68.6666 86.3388 68.7448C87.6518 69.5266 87.6518 69.9176 87.6518 70.0739C87.6518 70.6212 86.6889 70.6994 86.3388 70.6994C86.3388 70.6994 86.3388 70.6994 86.2513 70.6994C84.8508 70.0739 84.1505 68.5884 84.1505 66.243C84.1505 64.3666 84.5882 62.4902 84.8508 61.3956C84.8508 61.3174 84.8508 61.161 84.8508 61.0829C84.8508 61.0829 84.7632 61.0829 84.6757 61.161C83.9755 61.552 82.75 62.412 80.8243 62.5683C79.0737 62.8029 76.7979 62.5683 75.4849 61.6301C74.8722 61.161 74.5221 60.6138 74.4346 59.9101C74.4346 59.0501 74.6096 58.6592 74.8722 58.581C75.3099 58.5028 75.8351 59.2065 76.4478 60.2228C76.4478 60.2228 76.4478 60.301 76.5353 60.3792C76.5353 60.2228 76.7104 59.8319 76.7979 59.2846C76.7979 59.2846 76.7979 59.2065 76.7979 59.1283C76.7979 58.581 76.6229 57.5646 75.3099 57.0955C74.6096 56.861 73.9969 57.0955 73.6468 57.3301C72.859 57.7992 72.2463 58.8155 72.2463 59.6756C72.2463 59.8319 72.2463 59.9883 72.2463 60.1447C72.2463 60.1447 72.2463 60.1447 72.2463 60.2228C72.2463 60.2228 72.2463 60.301 72.2463 60.3792C71.546 61.4738 71.1959 62.6465 71.1959 63.8975C71.1959 64.5229 71.1084 65.1484 71.0209 65.852C70.8458 68.6666 70.6707 71.6376 68.2199 72.3412C67.5196 72.4976 67.082 72.3412 66.9069 72.1067C66.5568 71.8721 66.3817 71.403 66.3817 70.9339C66.3817 70.3085 66.7318 69.7612 67.1695 69.5266C67.6947 69.2139 68.0448 68.9794 68.2199 68.823C67.9573 68.823 67.4321 68.823 66.6443 68.823C66.6443 68.823 66.5568 68.823 66.4692 68.9012C66.4692 68.9012 66.2067 68.9012 66.1191 68.9012C66.1191 68.9012 66.0316 68.9012 65.9441 68.7448C65.9441 68.6666 65.9441 68.5103 65.8565 68.4321C65.3313 67.8848 64.9812 67.5721 64.8062 67.4157C64.8062 67.6502 64.8062 68.1193 64.9812 68.5884C64.9812 68.6666 64.9812 68.823 64.9812 68.9012C64.9812 69.6048 64.3685 70.3085 63.5807 70.543C62.968 70.6994 62.3553 70.4648 62.0052 69.8394C61.7426 69.4485 61.655 69.0575 61.655 68.5884C61.655 66.8684 63.4057 65.1484 65.1563 63.5065C65.6815 63.0374 66.1191 62.5683 66.6443 62.0211C67.5196 61.161 68.2199 60.1447 68.57 58.8937C68.57 58.8937 68.57 58.8937 68.57 58.8156C69.4453 58.3465 69.9705 57.3301 69.9705 56.3919C69.9705 55.61 69.5328 54.9846 68.9201 54.6718C67.4321 54.1246 66.4692 54.9846 66.2067 55.2973C65.769 55.7664 65.5939 56.0791 65.5064 56.2355C65.5064 56.2355 65.5064 56.2355 65.6815 56.2355C66.9069 55.8446 67.6947 55.6882 67.9573 55.9228C68.0448 55.9228 68.1323 56.0791 68.1323 56.2355C68.1323 56.3919 68.1323 56.7046 67.3446 57.3301C66.7318 57.7992 66.0316 57.9555 65.2438 57.8773C63.4932 57.721 61.7426 56.3137 60.6922 55.1409C59.4668 53.8118 59.2042 52.4045 59.0291 51.7009C59.0291 51.7009 59.0291 51.6227 59.0291 51.5445C59.0291 51.5445 59.0291 51.7009 58.854 51.7009C57.6286 53.3427 54.0398 58.5028 50.4511 57.4083C50.4511 57.4083 50.4511 57.4083 50.3635 57.4083C49.7508 56.7828 49.6633 56.3137 50.0134 56.0791C50.276 55.8446 50.9763 55.8446 51.9391 56.0791C51.9391 55.9228 51.6765 55.61 51.3264 55.2191C50.9763 54.9064 49.7508 54.3591 48.6129 55.3755C48.1753 55.6882 47.9127 56.3919 48.0002 57.0955C48.0002 57.0955 48.0002 57.2519 47.8251 57.3301C47.7376 57.3301 47.5625 57.3301 47.5625 57.2519L47.5625 57.0955C47.5625 57.0955 47.2124 56.7828 47.1249 56.6264C46.2496 56.001 44.7615 55.2973 43.2735 55.3755C43.186 55.3755 43.0985 55.3755 43.0109 55.2191C43.0109 55.1409 43.0109 55.0628 43.0109 54.9846C43.3611 54.6718 43.7112 54.2809 44.0613 53.8118C44.0613 53.8118 44.1488 53.7336 44.2364 53.7336C45.6369 53.5773 47.2124 53.4991 48.963 53.4991C50.7137 53.7336 53.1645 53.03 55.0902 51.7791C56.6658 50.6845 57.6286 49.4336 57.8037 48.1826C58.2413 46.619 58.5039 45.368 58.679 44.4298C57.6286 46.8535 54.8276 52.7173 48.788 51.7009C47.5625 51.7009 46.3371 51.8572 45.2867 52.0918C45.2867 52.0918 45.1117 52.0918 45.0241 52.0918C45.0241 52.0918 45.0241 51.9354 45.0241 51.8572C45.2867 50.919 45.4618 49.9027 45.4618 48.7299C45.3743 48.2608 45.2867 47.8699 45.2867 47.479C45.2867 42.9444 51.1513 40.6771 53.5147 39.817C52.4643 39.9734 51.0638 40.208 49.3132 40.5989C46.162 40.9898 43.2735 44.8989 43.2735 47.7917C43.2735 48.0263 43.2735 48.2608 43.2735 48.4954C43.2735 50.059 43.186 51.4663 42.9234 52.7173C42.9234 52.7173 42.9234 52.8736 42.8359 52.8736C42.3107 53.1864 41.873 53.4991 41.5229 53.8118C41.5229 53.8118 41.3478 53.89 41.2603 53.8118C41.2603 53.8118 41.0852 53.7336 41.0852 53.5773C41.0852 52.2482 40.4725 50.8409 39.7723 50.2154C39.5972 50.059 39.4222 49.9808 39.2471 49.9027L39.072 49.9027C39.072 49.9027 38.897 49.6681 39.072 49.5899C39.072 49.5118 39.2471 49.4336 39.3346 49.4336C40.1224 49.4336 40.9102 49.2772 41.2603 48.8863C41.698 48.4954 41.873 48.0263 41.873 47.5572C41.873 47.0099 41.6104 46.619 41.4354 46.4626C40.9977 46.1499 40.6476 45.9153 40.385 45.8371C40.385 46.1499 40.4725 46.4626 40.4725 46.8535C40.4725 47.3226 40.385 47.6354 40.0349 47.7135C39.7723 47.8699 39.3346 47.7135 38.8094 47.2444C38.8094 47.2444 38.8094 47.2444 38.8094 47.1663C38.7219 46.8535 38.6344 46.5408 38.6344 46.2281C38.6344 43.4135 43.3611 40.6771 45.1117 39.6607C45.1117 39.6607 45.2867 39.5825 45.3743 39.5043C45.3743 39.5043 45.2867 39.5043 45.1992 39.5043C44.4114 39.3479 42.8359 39.1134 41.3478 38.0188C39.8598 37.0024 38.2843 35.2824 38.2843 33.6406C38.2843 33.0151 38.4593 32.546 38.897 32.0769C39.5097 31.5296 39.9473 31.2951 40.2099 31.4514C40.385 31.4514 40.4725 31.686 40.4725 31.9205C40.4725 32.3896 40.2099 33.0933 40.0349 33.5624C40.0349 33.5624 40.0349 33.6406 40.0349 33.7188C40.2099 33.6406 40.5601 33.4842 41.1728 33.0933C41.3478 32.9369 42.0481 32.3896 42.0481 31.5296C42.0481 31.2169 42.0481 30.9823 41.873 30.6696C41.5229 29.8878 40.7351 29.7314 40.2099 29.7314C39.072 29.6532 37.8466 30.1223 37.2339 30.9823C37.2339 30.9823 37.2339 30.9823 37.1463 31.0605C35.7459 31.3733 34.6079 31.9987 33.6451 32.8587C33.1199 33.2497 32.5947 33.6406 32.0695 34.1097C29.7062 35.9861 27.2553 38.0188 24.892 36.9243C24.2793 36.5333 24.1042 36.1424 24.1042 35.8297C24.1042 35.3606 24.4543 34.8915 24.892 34.5788C25.3297 34.266 25.8548 34.1879 26.2925 34.266C26.9052 34.4224 27.3429 34.4224 27.6055 34.5006C27.4304 34.266 27.0803 33.9533 26.4676 33.4842C26.38 33.4842 26.2925 33.4842 26.1174 33.406C26.1174 33.406 26.0299 33.406 25.9424 33.2497L25.9424 33.0933L25.9424 33.0151C25.9424 33.0151 26.1174 32.8587 26.1174 32.7806C26.1174 32.1551 26.1174 31.686 26.1174 31.3733C25.9424 31.6078 25.5922 31.9205 25.3297 32.3115C24.9795 32.9369 24.0167 33.1715 23.2289 33.0151C22.5287 32.8587 22.1785 32.3896 22.1785 31.8424C22.1785 31.686 22.1785 31.5296 22.1785 31.3733C22.9663 29.1841 26.205 29.0278 29.3561 28.8714C30.0563 28.8714 30.8441 28.8714 31.5444 28.715C32.8573 28.715 34.1703 28.4023 35.4833 27.7768C35.4833 27.7768 35.5708 27.7768 35.6583 27.7768L35.7459 27.7768C36.6212 27.9332 37.584 27.6986 38.3718 27.1514C39.1596 26.6041 39.4222 25.8223 39.1596 25.1186C38.5468 23.7113 37.0588 23.7895 36.7087 23.7895C36.0084 23.7895 35.6583 23.9459 35.4833 24.024C35.4833 24.024 35.5708 24.024 35.6583 24.024C36.8838 24.6495 37.4965 24.9622 37.4965 25.3532C37.4965 25.8222 36.7087 25.9004 36.0084 25.9004C33.8202 25.7441 33.0324 23.4768 33.0324 21.444C33.0324 21.0531 33.0324 20.584 33.0324 20.1931C33.2074 18.473 34.0828 17.3003 34.6079 16.6748C34.6079 16.6748 34.6079 16.6748 34.6955 16.5966C34.6955 16.5966 34.5204 16.5966 34.4329 16.5966C32.2446 16.9876 25.6798 18.3167 24.0167 15.3457C24.0167 15.3457 24.0167 15.3457 24.0167 15.2675C24.0167 14.8766 24.1042 14.2511 24.5419 14.173C24.9795 14.0948 25.5047 14.4075 26.205 15.3457C26.205 15.1893 26.38 14.8766 26.4676 14.3293C26.4676 13.8602 25.9424 12.7657 24.3668 12.6875C23.8416 12.6875 23.1414 12.922 22.6162 13.4693C22.6162 13.4693 22.4411 13.5475 22.3536 13.4693C22.2661 13.4693 22.1785 13.3129 22.1785 13.2348L22.1785 13.0784C22.1785 13.0784 22.2661 12.7657 22.3536 12.5311C22.3536 11.5147 21.7409 10.1074 20.603 9.24742C20.603 9.24742 20.5154 9.09105 20.603 9.01286C20.603 8.93468 20.778 8.85651 20.8656 8.85651C21.3908 8.85651 21.9159 8.85651 22.5287 8.70014L22.7037 8.70014C23.8416 9.48197 24.9795 10.4202 26.2925 11.5147C27.3429 12.8438 29.6187 13.8602 31.982 14.0948C33.9077 14.3293 35.6583 14.0948 36.7962 13.2348C38.3718 12.4529 39.5972 11.6711 40.385 11.1238C37.7591 12.1402 31.1067 14.5639 27.6055 9.95107C26.6426 9.16923 25.7673 8.46559 24.8045 7.99649C24.8045 7.99649 24.8045 7.99649 24.8045 7.9183L25.5047 7.9183C26.2925 8.3874 27.0803 8.93468 27.9556 9.71651C31.1942 13.9384 37.3214 11.8275 39.9473 10.8111C38.9845 10.0293 38.2843 9.40378 37.7591 8.93468L37.584 8.77833C36.8838 8.77833 36.3586 8.77832 36.1835 8.70014C36.1835 8.70014 36.1835 8.62196 36.1835 8.54377C36.1835 8.54377 36.1835 8.54377 36.1835 8.46558C36.1835 8.3874 36.3586 8.23104 36.5336 8.07468L37.1463 8.07468C36.9713 8.23104 36.8838 8.30922 36.7962 8.3874C36.9713 8.3874 37.3214 8.3874 37.6715 8.3874L37.8466 8.3874L38.1092 8.62196C38.7219 9.09106 39.5097 9.79471 40.5601 10.7329C40.5601 10.7329 40.5601 10.8893 40.5601 10.9674C40.5601 10.9674 40.7351 10.9674 40.8227 10.9674L41.5229 11.5929C41.9606 11.9838 42.3982 12.3747 42.8359 12.7657C44.5865 14.2511 46.5122 15.9712 48.788 16.8312C48.788 16.8312 48.963 16.9875 48.963 17.0657C48.963 17.1439 48.963 17.2221 48.788 17.3003C48.788 17.3003 48.788 17.3003 48.7004 17.3003C48.7004 17.3003 48.7004 17.3003 48.5254 17.3003C48.5254 17.3003 46.5997 17.8476 44.8491 18.473L43.7987 18.8639C42.1356 19.5676 40.2099 19.6458 39.1596 19.0203C38.2843 18.5512 38.1967 17.6912 38.897 16.8312C39.8598 15.7366 40.6476 15.1893 41.3478 15.2675C42.1356 15.2675 42.5733 16.1275 42.8359 16.6748C42.8359 16.4403 43.0109 16.0494 43.0109 15.3457C43.186 14.7202 42.3982 14.0166 41.2603 13.782C39.8598 13.5475 37.9341 13.8602 36.8838 15.893C36.5336 16.2839 36.3586 16.8312 36.3586 17.4566C36.3586 18.7858 37.3214 20.3494 38.9845 20.6622C40.9102 20.9749 42.3107 20.2712 43.6236 19.724C43.7987 19.6458 43.9738 19.5676 44.1488 19.4894C44.8491 19.0985 45.5493 18.6294 46.3371 18.2385L46.5997 18.2385C46.5997 18.2385 46.6872 18.3949 46.5997 18.473C46.5997 18.5512 46.4246 18.7076 46.3371 18.8639C46.3371 18.8639 46.3371 18.864 46.2496 18.9421C45.3743 19.2549 43.5361 20.1931 42.6608 21.0531C41.6104 22.0695 41.9606 22.9295 41.9606 23.0858C42.1356 23.0858 43.0985 23.3204 44.2364 22.2258C44.5865 21.9131 44.8491 21.5222 45.1992 21.1313C45.1992 21.1313 45.3743 21.0531 45.4618 21.0531C45.5493 21.0531 45.6369 21.1313 45.6369 21.2876C45.6369 22.2258 46.0745 23.4768 47.9127 24.1804C48.0877 24.1804 48.2628 24.1804 48.3503 24.1804C48.3503 24.1804 48.5254 24.1804 48.6129 24.1804C48.7004 24.1804 48.788 24.1804 48.788 24.3368C48.788 24.3368 48.788 24.4931 48.788 24.5713L48.6129 24.7277C48.6129 24.7277 48.4379 24.9622 48.3503 25.0404C47.7376 26.3695 48.0002 27.6205 48.963 28.6368C48.963 28.6368 48.963 28.7932 48.963 28.8714C48.963 28.8714 48.788 29.0278 48.7004 28.9496C48.1753 28.8714 47.6501 28.7932 47.1249 28.715C45.4618 28.715 44.9366 29.3405 44.8491 29.575C44.9366 29.7314 45.4618 30.5132 46.9498 30.5914C48.2628 30.5914 50.276 30.1223 51.1513 29.8096C51.1513 29.8096 51.2388 29.8096 51.3264 29.8096C51.5014 29.8096 51.6765 29.8096 51.8516 29.8878C51.9391 29.8878 52.0266 29.966 52.0266 30.1223C52.0266 30.2787 52.0266 30.2787 51.8516 30.3569C50.9763 30.5132 50.1009 30.6696 49.3132 30.826C49.1381 30.826 48.963 30.9042 48.7004 30.9823C47.3875 31.3733 45.8995 31.7642 44.7615 33.1715C44.4114 33.6406 44.2364 34.1097 44.2364 34.657C44.2364 36.2206 45.5493 37.7061 47.1249 37.8625C48.788 38.4097 50.0134 38.0188 50.7137 37.5497C51.6765 37.0024 52.2892 35.9861 52.2892 35.2042C52.2892 34.9697 52.2892 34.5788 51.764 34.3442C51.2388 33.8751 50.8012 33.6406 50.6261 33.5624C50.8012 33.8751 50.9763 34.3442 50.9763 34.7351C50.9763 35.126 50.8012 35.4388 50.5386 35.6733C50.0134 36.0642 49.1381 36.1424 47.7376 35.9861C46.6872 35.8297 46.162 35.3606 46.162 34.657C46.162 33.4842 47.7376 32.0769 49.6633 31.4514L50.8012 30.9823C52.4643 30.3569 53.9523 29.7314 54.1274 29.575L54.3024 29.575L54.6526 29.575C54.6526 29.575 54.7401 29.7314 54.6526 29.8096C53.6897 31.8424 53.6897 34.266 53.6022 36.4552C53.6022 37.0806 53.6022 37.6279 53.6022 38.1752L53.6022 39.1134C53.6022 39.1134 53.6022 39.2698 53.4271 39.2698C53.4271 39.2698 53.5147 39.3479 53.5147 39.4261C53.5147 40.8334 53.5147 41.8498 53.5147 42.6316L53.5147 42.9444C53.5147 42.9444 53.5147 43.0225 53.4271 43.1007C53.077 43.3353 52.9019 43.4916 52.8144 43.648C52.9019 43.648 53.077 43.648 53.2521 43.648C53.4271 43.648 53.5147 43.7262 53.5147 43.8826C53.5147 44.1171 53.5147 44.1953 53.5147 44.2735C53.6897 44.1953 53.8648 43.9607 54.1274 43.7262C54.1274 43.7262 54.2149 43.7262 54.3024 43.648L54.565 43.648C55.4403 43.648 56.5782 43.648 58.1538 43.648C58.1538 43.648 58.3289 43.648 58.3289 43.7262C58.3289 43.7262 58.5039 43.5698 58.5915 43.5698L59.6418 43.5698C60.2545 43.5698 60.8673 43.5698 61.48 43.5698C63.9308 43.5698 66.7318 43.5698 69.0076 42.7098C69.0076 42.7098 69.1827 42.7098 69.2702 42.7098C69.2702 42.7098 69.2702 42.8662 69.2702 42.9444C69.2702 42.9444 69.2702 42.9444 69.2702 43.0226C69.2702 43.0226 69.2702 43.0225 69.2702 43.1007C69.0952 43.2571 68.4825 44.4298 67.8697 45.6808C67.6072 46.1499 67.4321 46.619 67.1695 47.0881C66.4693 48.8863 64.8062 50.2936 63.4057 50.2154C62.968 50.2154 62.2678 49.9809 62.0927 48.8081C61.9176 47.4008 62.0927 46.4626 62.7054 46.0717C63.3181 45.6808 64.281 45.9935 64.8062 46.0717C64.7186 45.9153 64.456 45.5244 63.9308 45.0553C63.6683 44.6644 63.1431 44.5862 62.4428 44.7426C61.1299 45.0553 59.7294 46.3062 59.7294 47.9481C59.7294 48.4172 59.8169 48.8863 60.0795 49.3554C60.167 50.2154 61.0423 51.0754 62.1802 51.5445C63.3181 52.0136 64.456 51.9354 65.4189 51.3881C66.9944 50.3718 67.5196 49.0427 67.9573 47.8699C67.9573 47.7135 68.0448 47.5572 68.1323 47.4008C68.1323 47.4008 68.1323 47.3226 68.3074 47.2444C68.3074 47.2444 68.3074 47.0881 68.3074 47.0099C68.4825 46.3062 68.57 45.6808 68.7451 45.0553C68.7451 44.9771 68.8326 44.8989 69.0076 44.8989C69.1827 44.8989 69.2702 44.8989 69.2702 45.0553C69.2702 45.2117 69.2702 45.368 69.3578 45.4462C69.3578 45.4462 69.3578 45.5244 69.3578 45.6026C69.1827 45.9935 69.0076 46.5408 68.8326 47.0881C68.8326 47.1663 68.8326 47.2444 68.6575 47.2444C68.6575 47.2444 68.7451 47.4008 68.6575 47.479C68.4825 48.1826 68.3949 48.8863 68.3949 49.3554C68.3949 50.6845 69.3578 51.1536 69.5328 51.2318C69.7079 51.1536 70.4957 50.6845 70.4957 49.3554L70.4957 49.199C70.4957 48.8081 70.4081 48.339 70.2331 47.7917C70.2331 47.7135 70.2331 47.6354 70.3206 47.5572C70.3206 47.5572 70.4957 47.5572 70.5832 47.5572C71.371 48.1826 72.684 48.8081 74.5221 48.1826C74.6972 48.1045 74.7847 48.0263 74.8722 47.9481C74.8722 47.9481 74.9598 47.8699 75.0473 47.7917C75.0473 47.7917 75.2224 47.7917 75.3099 47.7917C75.3099 47.7917 75.4849 47.8699 75.4849 47.9481L75.4849 48.1045C75.4849 48.1045 75.4849 48.4172 75.4849 48.4954C76.2727 50.1372 77.7608 50.6063 78.8111 50.6063C78.8987 50.6063 78.9862 50.6063 79.0737 50.7627C79.0737 50.8409 79.0737 50.9191 78.9862 50.9972C78.461 51.31 78.0233 51.5445 77.6732 51.8572C76.4478 52.8736 76.6229 53.7336 76.7104 53.89C76.8854 53.89 77.8483 54.2027 78.9862 53.2645C79.4238 52.9518 79.8615 52.4045 80.2992 51.7791C80.2992 51.7009 80.4742 51.6227 80.6493 51.7791C80.7368 51.7791 80.8243 51.9354 80.7368 52.0918C80.7368 52.2482 80.5617 52.4045 80.4742 52.5609C79.949 53.4209 79.4238 54.4373 79.4238 55.7664C79.4238 56.0791 79.4238 56.3137 79.4238 56.5482C79.5989 57.4864 80.4742 58.3464 81.6121 58.7374C82.75 59.1283 83.9755 58.9719 84.8508 58.4246C87.039 57.5646 87.2141 55.9228 87.2141 55.2973C87.2141 54.4373 86.864 53.5773 86.2513 53.1864C85.9887 52.9518 85.7261 52.9518 85.376 53.03C84.5882 53.03 84.2381 53.1082 83.9755 53.1864C84.5882 53.4209 85.551 53.8118 85.551 54.6718C85.551 55.2973 85.0258 56.001 83.8004 56.7828C83.0126 57.3301 82.3999 57.2519 81.9622 57.0955C81.262 56.7828 80.9119 56.001 80.9119 54.9064C80.9119 54.0464 81.1745 53.1864 81.6121 52.4045L82.0498 51.3881C82.6625 49.9027 83.2752 48.4954 83.2752 48.2608L83.2752 48.1826L83.2752 48.1045C83.2752 48.1045 83.4503 47.9481 83.5378 47.9481C83.6253 47.9481 83.7129 47.9481 83.8004 48.1045C84.7632 50.059 86.6014 51.8572 88.2645 53.3427C88.7021 53.8118 89.2273 54.2027 89.5774 54.5937L90.2777 55.2973C90.2777 55.2973 90.2777 55.4537 90.2777 55.5319L90.4528 55.5319C91.5031 56.4701 92.2909 57.2519 92.9036 57.7992L93.1662 58.0337C93.1662 58.0337 93.1662 58.1119 93.1662 58.1901C93.1662 58.5028 93.1662 58.8156 93.1662 58.9719C93.1662 58.9719 93.3413 58.8156 93.5163 58.6592L93.5163 59.2065C93.5163 59.2065 93.1662 59.441 93.0787 59.5192C93.0787 59.5192 93.0787 59.5192 92.9912 59.5192C92.9036 59.5192 92.641 59.5192 92.641 58.6592C92.641 58.5028 92.641 58.3464 92.641 58.1901L92.466 58.0337C91.9408 57.5646 91.2405 56.861 90.2777 56.001C89.665 57.3301 88.7021 59.5192 88.7021 61.7083C88.7021 63.8975 89.665 65.5393 91.5907 66.712C92.3784 67.4157 92.9912 68.1193 93.5163 68.823L93.5163 69.5266C93.5163 69.5266 93.5163 69.5266 93.4288 69.5266C92.9036 68.7448 92.1158 67.8848 91.3281 67.103L92.2034 67.5721ZM53.8648 39.2698C53.8648 39.2698 53.8648 38.8007 53.8648 38.5661C53.8648 38.0188 53.8648 37.4715 53.8648 36.8461C53.8648 34.8915 53.8648 32.6242 54.6526 30.6696C54.2149 30.9042 53.2521 31.2951 51.5014 31.9205L50.276 32.3896C48.3503 32.9369 47.0374 34.266 47.0374 35.2042C47.0374 35.8297 47.6501 36.0642 48.1753 36.1424C49.6633 36.2988 50.3635 36.1424 50.6261 35.9079C50.8012 35.7515 50.8887 35.5951 50.8887 35.3606C50.8887 35.0479 50.7137 34.5788 50.6261 34.3442C50.6261 34.1097 50.4511 34.0315 50.4511 33.8751C50.4511 33.7188 50.4511 33.6406 50.5386 33.6406C50.5386 33.6406 50.7137 33.6406 50.8012 33.6406C50.9763 33.6406 51.5014 33.7969 52.3767 34.5788C52.8144 34.8133 53.077 35.2042 53.077 35.7515C53.077 36.6897 52.3767 37.7843 51.3264 38.4097C50.1885 39.1134 48.7004 39.2698 47.2999 38.8007C45.5493 38.6443 44.0613 36.9243 44.0613 35.2042C44.0613 34.5788 44.2364 33.9533 44.674 33.406C45.4618 32.3896 46.4246 31.8424 47.3875 31.5296C45.4618 31.5296 44.7615 30.2787 44.7615 30.0441C44.7615 29.966 44.9366 29.6532 45.1992 29.4187C45.5493 29.1059 46.2496 28.715 47.5625 28.7932C47.9127 28.7932 48.1753 28.7932 48.6129 28.8714C47.8251 27.855 47.6501 26.6823 48.2628 25.275C48.2628 25.1968 48.3503 25.1186 48.4379 25.0404C48.3503 25.0404 48.2628 25.0404 48.0877 25.0404C46.6872 24.4931 45.8119 23.5549 45.5493 22.304C45.3743 22.5386 45.1117 22.7731 44.9366 23.0077C43.9738 23.8677 43.186 24.024 42.5733 24.024C42.3107 24.024 41.9606 24.024 41.873 23.7895C41.873 23.7895 41.698 23.3986 41.698 23.0077C41.698 22.5386 41.873 21.9131 42.5733 21.2094C41.6104 21.5222 40.5601 21.7567 39.1596 21.5222C37.1463 21.2094 36.096 19.4112 36.096 17.9258C36.096 17.2221 36.3586 16.5966 36.7087 16.1275C37.8466 13.9384 40.0349 13.5475 41.6104 13.8602C42.9234 14.0948 43.7987 14.7984 43.7987 15.5803C43.7987 15.6584 43.7987 15.8148 43.7987 15.8148C43.7987 16.9876 43.5361 17.3785 43.4486 17.5348C43.4486 17.6912 43.2735 17.6912 43.186 17.6912C42.9234 17.6912 42.8359 17.5348 42.6608 17.1439C42.3982 16.753 42.1356 16.0494 41.5229 15.9712C40.9977 15.9712 40.2975 16.3621 39.5097 17.3003C38.9845 17.9258 38.9845 18.473 39.6847 18.8639C40.4725 19.333 42.2231 19.4112 43.8862 18.6294L45.0241 18.2385C46.7748 17.613 47.8251 17.3003 48.3503 17.1439C46.2496 16.2057 44.499 14.6421 42.8359 13.2348C42.3982 12.8438 41.9606 12.4529 41.5229 12.062L40.9102 11.5147C40.0349 12.062 38.8094 12.8438 37.2339 13.6257C36.0084 14.4857 34.1703 14.7984 32.0695 14.5639C29.5311 14.2511 27.1678 13.1566 26.0299 11.8275C24.8045 10.7329 23.6666 9.87288 22.6162 9.09105C22.2661 9.16923 21.8284 9.24742 21.5658 9.24742C22.5287 10.1856 22.9663 11.5147 23.0538 12.4529C23.0538 12.4529 23.0538 12.4529 23.0538 12.5311C23.579 12.1402 24.1918 11.9838 24.7169 12.062C26.4676 12.062 27.1678 13.3129 27.2553 14.173C27.1678 15.1112 26.9052 15.5021 26.7301 15.6584C26.7301 15.6584 26.7301 15.8148 26.5551 15.8148C26.38 15.8148 26.2925 15.8148 26.205 15.6584C25.2421 14.4075 24.9795 14.4857 24.9795 14.4857C24.9795 14.4857 24.8045 14.6421 24.8045 15.1112C26.2925 17.7694 32.5947 16.5185 34.6079 16.1275C35.3957 15.9712 35.3957 15.9712 35.5708 16.1275C35.5708 16.1275 35.6583 16.2839 35.5708 16.3621C35.5708 16.5185 35.4833 16.6748 35.2207 16.9876C34.783 17.5348 33.9077 18.6294 33.7326 20.2713C33.7326 20.6622 33.7326 21.0531 33.7326 21.444C33.7326 23.3204 34.4329 25.3532 36.271 25.5095C37.0588 25.5095 37.2339 25.4313 37.3214 25.4313C37.3214 25.1968 36.1835 24.7277 35.7459 24.4931C35.1331 24.1804 35.0456 24.1804 35.0456 24.024L35.0456 23.8677L35.2207 23.8677C35.5708 23.6331 36.271 23.5549 36.8838 23.4768C37.2339 23.4768 39.072 23.3986 39.8598 25.0404C40.2099 25.9004 39.8598 26.9168 38.897 27.6205C38.0217 28.2459 36.8838 28.5587 35.8334 28.4023C34.5204 29.0278 33.2074 29.3405 31.807 29.3405C31.1067 29.3405 30.3189 29.4187 29.6187 29.4969C26.6426 29.6532 23.4915 29.8096 22.8788 31.686C22.8788 31.8424 22.8788 31.9205 22.8788 31.9987C22.8788 32.546 23.3164 32.7024 23.579 32.7806C24.1918 32.9369 24.892 32.7024 25.1546 32.3115C25.7673 31.3733 26.2925 30.9823 26.2925 30.9823L26.4676 30.9823C26.4676 30.9823 26.6426 30.9823 26.6426 31.0605C26.6426 31.0605 26.8177 31.3733 26.8177 32.0769C26.8177 32.3896 26.8177 32.7024 26.8177 33.0151C26.8177 33.0151 26.8177 33.0933 26.8177 33.1715C26.8177 33.1715 26.8177 33.1715 26.9052 33.1715C28.2182 34.1097 28.3932 34.5788 28.3932 34.657L28.3932 34.8133C28.3932 34.8133 28.3057 34.8915 28.2182 34.8915C28.2182 34.8915 27.5179 34.8915 26.2925 34.657C26.0299 34.5788 25.6798 34.6569 25.3297 34.8915C24.9795 35.126 24.7169 35.517 24.7169 35.8297C24.7169 36.1424 24.892 36.377 25.2421 36.5333C27.2553 37.4715 29.6187 35.5951 31.8945 33.7969C32.4197 33.406 32.9449 32.9369 33.47 32.546C34.5204 31.686 35.7458 31.0605 37.0588 30.6696C37.7591 29.7314 39.1596 29.1841 40.4725 29.2623C41.4354 29.2623 42.1356 29.7314 42.4857 30.4351C42.6608 30.7478 42.7483 31.1387 42.7483 31.4514C42.7483 32.4678 41.9606 33.1715 41.698 33.406C41.4354 33.5624 40.6476 34.1097 40.1224 34.1879C40.1224 34.1879 39.9473 34.266 39.8598 34.1879C39.7723 34.1879 39.6847 34.0315 39.6847 33.9533C39.6847 33.8751 39.6847 33.7187 39.8598 33.3278C40.0349 32.8587 40.2099 32.1551 40.2099 31.7642L40.2099 31.686C40.2099 31.686 39.9473 31.8424 39.4222 32.2333C39.072 32.6242 38.897 33.0151 38.897 33.5624C38.897 35.0479 40.4725 36.6115 41.7855 37.5497C43.186 38.5661 44.674 38.8007 45.4618 38.957C45.8119 38.957 46.0745 39.0352 46.162 39.1916C46.162 39.1916 46.162 39.2698 46.162 39.3479C46.162 39.5043 46.162 39.5043 45.4618 39.8952C43.8862 40.8334 39.1596 43.4916 39.1596 46.1499C39.1596 46.3844 39.1596 46.619 39.2471 46.8535C39.7723 47.2444 39.9473 47.1663 39.9473 47.1663C39.9473 47.1663 40.0349 47.0099 40.0349 46.6972C40.0349 46.3844 40.0349 45.9935 39.8598 45.5244L39.8598 45.4462C39.8598 45.368 39.8598 45.2117 40.0349 45.2117C40.0349 45.2117 40.1224 45.2117 40.2099 45.2117C40.385 45.2117 40.9102 45.368 41.7855 45.9935C42.0481 46.2281 42.3107 46.7753 42.3107 47.4008C42.3107 48.0263 42.0481 48.5736 41.5229 49.0427C41.1728 49.4336 40.6476 49.6681 39.9473 49.7463C39.9473 49.7463 39.9473 49.7463 40.0349 49.8245C40.7351 50.45 41.4354 51.7009 41.5229 53.03C41.7855 52.7954 42.0481 52.6391 42.3982 52.4045C42.5733 51.2318 42.6608 49.9027 42.6608 48.339C42.6608 48.1045 42.6608 47.8699 42.6608 47.6354C42.6608 44.5862 45.7244 40.3643 49.0506 39.9734C50.8887 39.5043 52.3768 39.2698 53.4271 39.1916L53.8648 39.2698ZM55.3528 44.4298L55.1777 44.4298C55.1777 44.4298 54.565 45.0553 54.3024 45.1335L54.1274 45.1335C54.1274 45.1335 53.9523 45.1335 53.9523 44.9771C53.9523 44.8208 53.8648 44.6644 53.8648 44.3517C53.5147 44.3517 53.3396 44.3517 53.1645 44.2735C53.077 44.2735 52.9895 44.1953 52.9895 44.0389C52.9895 44.0389 52.9895 44.0389 52.9895 43.9607C53.077 43.8044 53.4271 43.4916 53.7772 43.1789L53.7772 43.0226C53.7772 42.3189 53.7772 41.3807 53.7772 40.1298C51.2388 41.068 45.987 43.1007 45.987 47.3226C45.987 47.7135 45.987 48.1045 46.162 48.5736C46.162 49.5899 45.987 50.6063 45.8119 51.4663C46.8623 51.2318 47.9127 51.1536 49.0506 51.1536C54.6526 52.0918 57.366 46.7753 58.4164 44.3517C57.0159 44.3517 55.9655 44.3517 55.1777 44.3517L55.3528 44.4298ZM90.4528 55.8446L89.84 55.2973C89.4024 54.9064 88.9647 54.4373 88.5271 54.0464C86.9515 52.6391 85.2009 51.0754 84.2381 49.199C84.063 49.6681 83.7129 50.6063 83.0126 52.0918L82.575 53.1082C82.1373 53.8118 81.9622 54.6718 81.9622 55.3755C81.9622 56.3137 82.3124 57.0173 82.75 57.1737C83.1877 57.4083 83.7129 57.1737 84.063 56.9392C85.1134 56.2355 85.551 55.6882 85.551 55.2191C85.551 54.6718 84.7632 54.3591 84.3256 54.1246C83.9755 53.9682 83.8004 53.89 83.8004 53.7336C83.8004 53.7336 83.8004 53.5773 83.9755 53.4991C84.1505 53.4209 84.5882 53.1864 85.8136 53.1864C86.2513 53.1082 86.6889 53.1864 87.039 53.4209C87.7393 53.89 88.177 54.9064 88.177 55.9228C88.177 57.4864 87.2141 58.7374 85.551 59.441C84.6757 60.0665 83.2752 60.2228 81.9622 59.7537C80.6493 59.2846 79.6864 58.4246 79.4238 57.2519C79.4238 56.9392 79.4238 56.6264 79.4238 56.3919C79.4238 55.5319 79.5989 54.8282 79.8615 54.2027C78.461 55.3755 77.0605 54.9064 76.973 54.8282C76.7979 54.75 76.7104 54.4373 76.7104 54.1246C76.7104 53.6555 76.8854 52.9518 77.8483 52.17C78.1109 51.9354 78.3735 51.7791 78.6361 51.6227C77.3231 51.3881 76.1852 50.6063 75.5725 49.2772C75.5725 49.199 75.5725 49.1208 75.5725 49.0427C75.5725 49.0427 75.3974 49.199 75.3099 49.199C73.9094 49.6681 72.5089 49.5899 71.371 48.8863C71.371 49.199 71.371 49.5118 71.4585 49.7463C71.4585 51.0754 70.9333 51.7009 70.5832 52.0136C70.5832 52.0136 70.2331 52.3263 69.9705 52.2482C69.7079 52.2482 68.4825 51.7009 68.3949 49.9809L68.3949 49.9027C67.9573 50.7627 67.3446 51.6227 66.2067 52.3263C65.1563 52.9518 63.7558 53.03 62.5303 52.5609C61.2174 52.0136 60.3421 51.0754 60.167 50.059C59.992 49.5118 59.8169 49.0427 59.8169 48.5736C59.8169 46.6972 61.3049 45.368 62.8805 44.9771C63.8433 44.7426 64.6311 44.9771 64.8937 45.4462C65.8565 46.3062 65.9441 46.7753 65.9441 46.9317C65.9441 46.9317 65.9441 46.9317 65.9441 47.0099C65.9441 47.0099 65.9441 47.1663 65.769 47.2444C65.5939 47.3226 65.4189 47.2444 65.0688 47.2444C64.6311 47.0881 63.8433 46.8535 63.4057 47.0881C62.968 47.4008 62.7929 48.1826 62.968 49.3554C62.968 49.8245 63.2306 50.2936 63.8433 50.3718C64.8062 50.4499 66.3817 49.2772 67.082 47.479C67.3446 46.9317 67.6072 46.4626 67.7822 45.9935C68.3949 44.6644 68.8326 43.9607 69.0076 43.5698C66.8194 44.2735 64.281 44.2735 62.0052 44.2735C61.3924 44.2735 60.7797 44.2735 60.167 44.2735L59.2917 44.2735C59.1166 45.2117 58.854 46.5408 58.4164 48.1045C58.2413 49.4336 57.191 50.8409 55.5279 52.0136C53.5147 53.3427 50.9763 54.1246 49.0506 53.89C47.3875 53.89 45.8995 53.89 44.499 54.1246C44.3239 54.4373 44.0613 54.6718 43.7987 54.9064C45.2867 54.9064 46.5997 55.61 47.475 56.3137C47.475 55.6882 47.8251 55.2191 48.2628 54.9064C49.6633 53.7336 51.2388 54.3591 51.6765 54.75C52.2892 55.4537 52.4643 55.8446 52.5518 56.0791L52.5518 56.3137C52.5518 56.3137 52.3768 56.3137 52.2892 56.3137C51.1513 56.0791 50.6261 56.1573 50.4511 56.3137C50.4511 56.3137 50.4511 56.5482 50.8012 56.861C53.9523 57.7992 57.4535 52.9518 58.5915 51.31C59.0291 50.6845 59.0291 50.6845 59.2917 50.6845C59.4668 50.7627 59.5543 50.9972 59.5543 51.3881C59.7294 52.0918 59.9044 53.3427 61.1299 54.5937C62.0927 55.7664 63.7558 57.0173 65.3313 57.1737C65.9441 57.1737 66.5568 57.0955 66.9944 56.7046C67.6072 56.1573 67.6072 56.001 67.6947 56.001C67.4321 55.9228 66.2067 56.2355 65.8565 56.3919C65.2438 56.5482 65.1563 56.5482 65.0688 56.4701C64.9812 56.4701 64.9812 56.2355 65.0688 56.1573C65.0688 56.001 65.2438 55.61 65.9441 54.75C66.2067 54.5155 67.3446 53.3427 69.2702 53.9682C70.1456 54.3591 70.6707 55.0628 70.6707 56.0791C70.6707 57.1737 70.058 58.2683 69.0952 58.8156C68.6575 60.0665 68.0448 61.161 67.082 62.0211C66.6443 62.4902 66.1191 63.0374 65.5939 63.5065C63.9308 65.1484 62.2678 66.7902 62.2678 68.3539C62.2678 68.7448 62.2678 69.0575 62.5303 69.3703C62.7929 69.7612 63.1431 69.9957 63.5807 69.8394C64.1059 69.683 64.6311 69.1357 64.6311 68.6666C64.6311 68.6666 64.6311 68.5103 64.6311 68.4321C64.3685 67.4157 64.3685 66.712 64.3685 66.712C64.3685 66.712 64.3685 66.5557 64.456 66.5557C64.456 66.5557 64.5436 66.5557 64.6311 66.5557C64.7186 66.5557 65.2438 66.712 66.2942 67.8848C66.2942 67.8848 66.2942 67.8848 66.2942 68.0412C66.2942 68.0412 66.3817 68.0412 66.4692 68.0412C68.1323 67.8848 68.6575 68.0412 68.7451 68.1193C68.7451 68.1193 68.7451 68.1975 68.8326 68.2757L68.8326 68.4321C68.8326 68.4321 68.3949 68.9012 67.3446 69.5266C66.9944 69.683 66.7318 70.0739 66.7318 70.543C66.7318 70.8558 66.9069 71.1685 67.082 71.3249C67.3446 71.4812 67.6072 71.5594 67.9573 71.4812C70.1456 70.8558 70.3206 68.1193 70.4957 65.3829C70.4957 64.7575 70.4957 64.0538 70.6707 63.4284C70.6707 62.1774 71.0209 60.9265 71.7211 59.8319C71.4585 58.6592 72.1588 57.2519 73.2967 56.5482C73.9969 56.1573 74.6972 56.0791 75.3974 56.3137C76.973 56.861 77.2356 58.0337 77.2356 58.7374L77.2356 58.8937C77.2356 58.8937 77.0605 60.0665 76.7104 60.3792C76.7104 60.3792 76.7104 60.6138 76.5353 60.6138C76.2727 60.6138 76.2727 60.6138 75.9226 59.9883C75.66 59.5974 75.1348 58.6592 74.9598 58.581C74.9598 58.581 74.7847 58.7374 74.7847 59.5192C74.7847 60.0665 75.1348 60.5356 75.66 60.9265C76.8854 61.7865 78.9862 61.9429 80.6493 61.7083C82.4874 61.552 83.6253 60.7701 84.3256 60.3792C84.6757 60.1447 84.8508 60.0665 85.0258 60.0665C85.0258 60.0665 85.0258 60.0665 85.1134 60.0665C85.2009 60.0665 85.2884 60.2228 85.2884 60.301C85.2884 60.3792 85.2884 60.5356 85.1134 61.0047C84.8508 62.0211 84.4131 63.8975 84.4131 65.7739C84.4131 67.8848 85.0258 69.2139 86.2513 69.7612C86.864 69.7612 87.039 69.6048 87.039 69.5266C87.039 69.3703 86.7765 69.0575 85.6385 68.4321C85.6385 68.4321 85.4635 68.2757 85.4635 68.1975C85.4635 68.1975 85.4635 68.0412 85.551 68.0412C85.7261 67.8848 86.1637 67.7284 87.3016 67.5721C87.9144 67.5721 89.4899 68.1193 89.5774 69.8394C89.5774 70.3085 89.4024 70.8558 88.9647 71.3249C88.9647 71.3249 89.0523 71.3249 89.1398 71.3249C90.1902 71.3249 91.6782 71.794 92.7286 72.654C92.7286 72.3412 92.7286 72.0285 92.9036 71.6376C92.1158 70.6994 91.0655 69.683 89.9276 68.6666C88.0894 67.4157 86.6889 64.6793 86.6889 62.0992C86.6889 60.6919 87.039 59.5974 87.7393 58.7374C88.6146 57.3301 89.4899 56.1573 90.1902 55.4537L90.4528 55.8446Z" fill="#CA943A"/>
<path d="M92.2922 81.0202C91.5919 80.3947 90.8042 79.7692 90.0164 79.222C88.3533 78.0492 86.8653 76.8765 86.4276 75.6255C86.4276 75.391 86.3401 75.1564 86.3401 74.9219C86.3401 74.0619 86.7777 73.3582 87.1279 72.8891C87.1279 72.8891 87.3029 72.8109 87.3905 72.8109C87.9156 72.8891 88.6159 73.0455 89.2286 73.1237C90.7166 73.7491 91.9421 74.9219 92.0296 75.8601C92.2047 76.0946 92.2047 76.251 92.0296 76.4074C91.767 76.5637 91.3294 76.5637 90.6291 76.5637C90.6291 76.6419 90.6291 76.8765 90.9792 77.2674L90.9792 77.4237C90.9792 77.7365 91.5919 78.1274 92.3797 78.1274C92.9049 78.1274 94.1303 77.8928 94.1303 75.9383C94.1303 75.391 93.9553 74.9219 93.6927 74.4528C93.6927 74.4528 93.6927 74.2964 93.6927 74.2182C93.6927 74.1401 93.8678 73.9837 93.9553 73.9055C94.0428 73.7491 94.2179 73.5146 94.3929 73.28C94.3929 73.28 94.3929 73.28 94.4805 73.28L94.4805 73.9837C94.4805 73.9837 94.3929 74.1401 94.3054 74.1401C94.3054 74.2182 94.2179 74.2964 94.1303 74.3746C94.3054 74.6873 94.3929 74.9219 94.4805 75.2346L94.4805 76.6419C94.1303 78.3619 92.8174 78.5183 92.2922 78.5183C91.3294 78.5183 90.454 77.971 90.454 77.3456C90.454 77.3456 90.1039 76.6419 90.1039 76.4074C90.1039 76.251 90.1039 76.0946 90.1039 76.0946C90.1039 75.9383 90.279 76.0164 90.5416 76.0164C91.0668 76.0164 91.4169 76.0164 91.5919 76.0164C91.5919 76.0164 91.5919 75.9383 91.5919 75.8601C91.5919 75.0782 90.454 73.9837 89.1411 73.4364C88.5284 73.4364 87.9156 73.28 87.3905 73.1237C87.0403 73.5146 86.7777 74.1401 86.7777 74.8437C86.7777 75.0782 86.7777 75.2346 86.7777 75.4692C87.2154 76.6419 88.7034 77.7365 90.1914 78.9092C90.9792 79.5347 91.8545 80.082 92.5548 80.7856C93.255 81.4111 93.8678 82.1147 94.3929 82.7402L94.3929 83.4438C94.3929 83.4438 94.3929 83.4438 94.3054 83.4438C93.8678 82.662 93.1675 81.8802 92.2922 81.0984L92.2922 81.0202Z" fill="#CA943A"/>
<path d="M48.5281 58.5813C48.353 59.2849 48.0029 60.3795 46.7774 61.005C45.3769 61.6304 43.4513 61.4741 41.3505 61.3177C40.3877 61.2395 39.3373 61.1613 38.3745 61.1613C37.149 61.1613 36.0111 61.3177 35.0483 61.5522C34.9607 61.5522 34.8732 61.5522 34.7857 61.5522C34.7857 61.5522 34.7857 61.4741 34.7857 61.3959C35.0483 60.5359 35.2233 59.5977 35.2233 58.4249C35.2233 57.5649 35.1358 56.6267 35.0483 55.7667C34.9607 54.9067 34.8732 54.0467 34.8732 53.2648C34.8732 52.2484 35.0483 51.4666 35.3984 50.8412C36.0987 49.7466 37.2366 49.4339 38.1119 49.2775C38.1994 49.2775 38.2869 49.2775 38.3745 49.3557C38.6371 49.7466 39.0747 50.2939 39.4248 50.763C39.6874 51.3103 39.775 51.9357 39.775 52.5612C39.775 53.343 39.5999 54.0467 39.1622 54.4376C39.1622 54.6721 38.9872 54.7503 38.8996 54.8285C38.5495 54.9067 38.1119 54.5158 37.6742 54.0467C37.6742 54.1248 37.4116 54.3594 37.3241 54.7503C37.3241 54.7503 37.3241 54.8285 37.2366 54.8285C37.149 54.9067 37.0615 55.063 37.0615 55.2194C37.0615 55.6885 37.4116 56.314 38.1119 56.5485C38.8121 56.8613 39.6874 56.5485 40.6503 55.7667C41.0004 55.3758 41.3505 54.9849 41.5256 54.4376C41.5256 54.4376 41.5256 54.2812 41.7006 54.2812C41.7882 54.2812 41.9632 54.2812 42.1383 54.203C42.4009 54.203 42.5759 54.1248 42.9261 54.0467C42.9261 54.0467 43.1011 54.0467 43.1887 54.0467C43.1887 54.0467 43.1887 54.203 43.1887 54.2812C43.1887 54.5939 43.0136 54.7503 43.0136 54.9849C43.0136 55.1412 42.9261 55.2976 42.9261 55.454C42.9261 55.5321 42.9261 55.6103 42.751 55.6103C42.2258 55.7667 41.7006 56.0012 41.3505 56.3922C40.7378 57.0176 40.3877 57.5649 40.3877 58.1122C40.3877 58.8158 41.0004 59.2849 41.5256 59.4413C41.8757 59.5977 42.2258 59.5195 42.4009 59.4413C42.4009 59.4413 42.4009 59.4413 42.5759 59.4413C43.0136 59.2849 43.2762 59.2068 43.3637 59.1286C42.751 58.6595 42.4884 58.3467 42.4884 58.1122C42.4884 58.034 42.4884 57.7995 42.9261 57.7213C43.7139 57.0958 45.4645 57.0176 47.04 57.4867C47.5652 57.7995 48.0904 58.1904 48.6156 58.4249C48.6156 58.4249 48.7031 58.5813 48.7031 58.6595L48.5281 58.5813ZM42.3134 55.2194C42.3134 55.2194 42.3134 54.9849 42.3134 54.9067C42.3134 54.8285 42.3134 54.6721 42.4009 54.5939C42.2258 54.5939 42.1383 54.5939 41.9632 54.6721C41.7882 54.6721 41.7006 54.6721 41.6131 54.6721C41.438 55.1412 41.1755 55.5321 40.8253 55.9231C41.1755 55.6103 41.6131 55.3758 42.1383 55.2194L42.3134 55.2194ZM42.9261 57.9558C42.9261 57.9558 42.9261 57.9558 42.751 57.9558C42.751 57.9558 42.9261 58.2686 43.3637 58.5813C43.5388 58.7377 43.6263 58.7377 43.6263 58.894C43.6263 58.894 43.6263 59.3631 42.4884 59.6758C42.2258 59.9104 41.7006 59.9886 41.1755 59.8322C40.3877 59.5977 39.6874 58.9722 39.6874 58.034C39.6874 57.4085 40.0376 56.7831 40.6503 56.1576C39.3373 57.2522 38.2869 57.0958 37.7617 56.8613C36.8864 56.5485 36.4488 55.6885 36.4488 55.1412C36.4488 54.8285 36.4488 54.6721 36.7114 54.5158C36.974 53.6557 37.3241 53.4994 37.4991 53.4994C37.6742 53.4994 37.7617 53.4994 37.9368 53.7339C38.2869 54.0467 38.462 54.2812 38.6371 54.3594C38.6371 54.3594 38.6371 54.2812 38.6371 54.203C39.1622 53.5776 39.3373 52.0921 38.8121 50.9193C38.462 50.4502 38.1119 49.9811 37.8493 49.6684C37.0615 49.8248 36.1862 50.1375 35.5735 50.9975C35.2233 51.5448 35.1358 52.2484 35.1358 53.1866C35.1358 53.9685 35.1358 54.7503 35.3109 55.6885C35.3109 56.6267 35.4859 57.4867 35.4859 58.4249C35.4859 59.4413 35.3984 60.3013 35.1358 61.1613C36.0111 60.9268 37.0615 60.8486 38.1994 60.8486C39.1622 60.8486 40.2126 60.9268 41.263 61.005C43.2762 61.1613 45.2019 61.3177 46.4273 60.7704C47.3902 60.3013 47.7403 59.5195 47.9153 58.8158C47.4777 58.5813 46.9525 58.2686 46.5148 57.9558C45.1144 57.4867 43.4513 57.5649 42.8385 58.1122L42.9261 57.9558Z" fill="#CA943A"/>
<path d="M91.9421 53.891C91.9421 53.891 91.9421 53.8128 91.9421 53.7346L91.9421 53.4219C91.9421 52.2491 91.767 50.6073 91.4169 48.7309C91.1543 47.7145 91.0668 46.5418 91.0668 45.369C91.0668 43.9617 91.2418 42.5544 91.5919 41.3035C92.0296 40.5998 92.4673 39.8962 92.8174 39.1925C92.8174 39.1925 92.8174 39.1144 92.9924 39.1144C92.9924 39.1144 93.08 39.1144 93.1675 39.1144C93.255 39.1144 93.3426 39.1144 93.4301 39.0362C93.7802 38.8016 94.1303 38.5671 94.4805 38.2543L94.4805 38.8016C94.4805 38.8016 93.9553 39.1925 93.6927 39.3489C93.5176 39.3489 93.4301 39.4271 93.3426 39.5053C92.9924 40.1307 92.5548 40.8344 92.1171 41.538C91.767 42.7108 91.5919 44.1181 91.5919 45.4472C91.5919 46.6199 91.767 47.7145 91.9421 48.7309C92.2922 50.6855 92.4673 52.3273 92.4673 53.5001L92.4673 53.6564C93.3426 54.4383 93.9553 55.2983 94.4805 56.0019L94.4805 56.7056C94.4805 56.7056 94.4805 56.7056 94.3929 56.7056C93.8678 55.7674 93.08 54.8292 92.0296 53.891L91.9421 53.891Z" fill="#CA943A"/>
<path d="M82.6641 50.7635C82.3139 51.2326 81.8763 51.7799 81.4386 52.4053C81.4386 52.4835 81.176 52.5617 81.0885 52.4053C81.0885 52.4053 81.001 52.3271 81.001 52.249C81.001 52.249 81.001 52.249 81.001 52.1708C81.3511 51.7017 81.6137 51.1544 81.7888 50.8417C81.7888 50.8417 81.7888 50.7635 81.8763 50.7635C82.0513 50.7635 82.1389 50.6071 82.2264 50.5289C82.3139 50.5289 82.489 50.5289 82.5765 50.5289C82.5765 50.5289 82.5765 50.6853 82.5765 50.8417L82.6641 50.7635Z" fill="#CA943A"/>
<path d="M45.9887 12.9223L45.5511 12.4532C45.5511 12.4532 45.5511 12.375 45.5511 12.2969L45.5511 12.2187C45.5511 12.1405 45.7261 12.1405 45.8137 12.1405C46.7765 12.3751 47.6518 12.6096 48.7022 12.766C51.3281 13.3133 55.1795 12.766 57.6304 11.5932C58.1556 11.1241 58.6807 10.7332 59.1184 10.4205C59.1184 10.4205 59.2935 10.4205 59.381 10.4205C59.381 10.4205 59.5561 10.4987 59.5561 10.5768C59.5561 12.2187 61.1316 13.8605 62.9698 14.2514C65.5082 14.7205 67.2588 13.3914 68.4842 12.3751C68.4842 12.3751 68.8343 12.3751 68.9219 12.3751C68.9219 12.3751 68.9219 12.6096 68.9219 12.6878C68.5718 13.0787 68.1341 13.4696 67.784 13.7824C65.2456 16.5969 60.869 19.0988 57.1052 18.3952C55.6172 18.1606 55.3546 17.457 55.3546 17.066C55.3546 16.2842 56.1423 15.4242 56.7551 15.1896C57.0177 15.1115 57.1927 15.1896 57.2802 15.1896C57.7179 15.4242 58.1556 15.8151 58.4181 15.9715C58.4181 15.6587 58.2431 15.1896 57.7179 14.486C57.3678 14.1733 56.9301 14.0951 56.3174 14.1733C55.4421 14.2514 54.5668 14.7987 54.0416 15.5024C53.6039 15.8151 53.5164 16.3624 53.5164 16.7533C53.5164 16.8315 53.4289 16.9097 53.3413 16.9879C52.8162 16.9879 51.3281 17.2224 49.8401 16.2842C48.5271 15.5024 47.3017 14.2514 46.0763 12.9223L45.9887 12.9223ZM53.6915 15.1896C54.3042 14.4078 55.267 13.7823 56.2299 13.7042C56.9301 13.7042 57.5428 13.7823 58.068 14.1733C58.5932 14.8769 58.9433 15.5024 58.9433 15.9715C58.9433 16.1278 58.9433 16.2842 58.9433 16.2842C58.9433 16.2842 58.9433 16.2842 58.9433 16.3624C58.9433 16.3624 58.8558 16.5188 58.7683 16.5188C58.5932 16.5188 58.5057 16.5188 58.2431 16.206C57.9805 15.9715 57.6304 15.6587 57.1052 15.346C57.1052 15.346 56.9301 15.346 56.7551 15.5806C56.4049 15.8933 55.9673 16.3624 55.9673 16.8315C55.9673 17.3006 56.4049 17.6133 57.2802 17.7697C60.6064 18.3952 64.4578 16.3624 66.9962 13.8605C65.9458 14.4078 64.5453 14.7987 62.9698 14.486C61.0441 14.0951 59.4685 12.4532 59.2059 10.8114C58.8558 11.1241 58.5057 11.3587 58.068 11.7496C55.7922 12.8442 51.8533 13.626 48.7897 13.0005C48.002 12.8441 47.3017 12.766 46.6015 12.6096C47.8269 13.8605 49.0523 15.1115 50.2778 15.8151C51.3281 16.5188 52.466 16.5188 53.2538 16.4406C53.2538 15.8151 53.6039 15.346 53.9541 15.0333L53.6915 15.1896Z" fill="#CA943A"/>
</g>
<path d="M86.0216 23.5809C69.0493 18.1742 61.1984 10.0444 58.7305 4.66313C60.6619 3.93882 64.5366 2.95598 65.8242 3.20434C67.4338 3.5148 78.3786 0.720404 85.4606 0.0994878C92.5425 -0.521429 90.6111 2.2727 92.2206 4.13545C93.8302 5.9982 100.908 19.5482 100.908 20.4796C100.908 21.411 104.166 29.3608 86.0216 23.5809Z" fill="#00664E"/>
<defs>
<clipPath id="clip0_12_2837">
<rect width="83.7342" height="93.6582" fill="white" transform="matrix(1.19249e-08 -1 -1 -1.19249e-08 94.3945 91.8091)"/>
</clipPath>
</defs>
</svg>
