<svg width="75" height="66" viewBox="0 0 75 66" fill="none" xmlns="http://www.w3.org/2000/svg">
<path fill-rule="evenodd" clip-rule="evenodd" d="M24.6804 0.212791C22.5277 1.0342 19.1682 2.83864 16.7373 4.47897C13.8288 6.44153 9.83271 10.1846 7.84268 12.8104C4.26819 17.5267 2.39826 22.3236 1.32376 29.5342C0.601118 34.3829 0.54973 35.6139 0.483058 49.6873C0.412165 64.6547 0.347529 63.7152 1.52903 64.9011C2.66904 66.0456 1.99458 65.9941 15.8805 65.9941C29.2921 65.9941 28.8226 66.0216 29.9306 65.1732C30.2136 64.9566 30.6219 64.4773 30.8383 64.1082L31.2313 63.4368L31.2708 50.6846L31.3104 37.9324L30.9958 37.1984C30.6264 36.3366 29.6128 35.3763 28.8472 35.1628C28.5333 35.0754 25.9179 35.0155 22.3875 35.015L16.4553 35.0141L16.4553 34.0953C16.4553 32.0031 17.0495 28.4525 17.7934 26.1001C18.7823 22.9726 20.2912 20.4509 22.4769 18.2731C24.2601 16.4963 26.3249 15.0852 29.2276 13.6596C31.3501 12.6172 31.6685 12.3586 32.2516 11.2025C32.4061 10.8964 32.509 10.3507 32.5141 9.81133C32.5214 9.03054 32.4244 8.71344 31.7075 7.17306C28.9791 1.31156 28.7559 0.939652 27.6162 0.356001C26.7804 -0.0720201 25.5803 -0.130473 24.6804 0.212791ZM67.7291 0.105669C66.9223 0.255162 63.1287 2.11864 61.0745 3.3745C54.8424 7.1846 49.9776 12.2891 47.1309 18.0054C45.0493 22.1852 44.0182 26.4075 43.292 33.7267C43.099 35.6717 43.0437 38.5799 42.9916 49.54C42.9195 64.6716 42.8543 63.7135 44.0374 64.9011C45.1774 66.0454 44.5038 65.9941 58.3813 65.9941C71.9079 65.9941 71.4337 66.0237 72.5337 65.1135C72.8222 64.8748 73.228 64.3376 73.4354 63.9198L73.8125 63.1602L73.8093 50.512C73.8061 38.1034 73.8004 37.8513 73.5095 37.2061C73.1687 36.4502 72.6489 35.8614 71.92 35.4058C71.4222 35.0945 71.2659 35.0855 65.1527 35.0141L58.8949 34.9411L58.9393 33.772C59.0542 30.7525 59.7803 27.159 60.7889 24.6203C61.8258 22.0101 63.0677 20.1062 64.9524 18.2374C66.6675 16.5368 68.4187 15.3249 71.1675 13.9366C73.8025 12.6058 74.539 11.9925 74.8373 10.8807C75.1903 9.5648 75.0044 8.9018 73.267 5.27626C72.2973 3.25292 71.4368 1.65978 71.1049 1.27341C70.2617 0.291841 69.0278 -0.135011 67.7291 0.105669Z" fill="black" fill-opacity="0.1"/>
</svg>
