<svg width="97" height="97" viewBox="0 0 97 97" fill="none" xmlns="http://www.w3.org/2000/svg">
<g clip-path="url(#clip0_12_3044)">
<path d="M39.9784 39.7598C39.6158 38.6729 39.4345 37.3144 39.3439 35.6841C39.3439 35.6841 39.3439 35.5936 39.3439 35.503C38.6186 34.869 37.4401 33.5105 35.7177 31.0651C34.2672 28.8009 31.9102 26.5366 29.5532 25.0875C28.6467 24.8158 27.7401 24.5441 26.9242 24.2724C26.9242 24.2724 26.8336 24.2724 26.7429 24.2724C26.7429 24.2724 26.6523 24.2724 26.5616 24.2724C26.471 24.2724 26.3803 24.3629 26.2896 24.3629C25.8364 24.3629 25.3831 24.4535 24.9298 24.4535C24.9298 24.4535 24.8392 24.4535 24.7485 24.4535C24.7485 24.4535 24.6579 24.5441 24.7485 24.6347C24.7485 25.0875 24.7485 25.5403 24.6579 25.9026C24.6579 25.9932 24.6579 26.1743 24.4766 26.2649C24.4766 26.2649 24.4766 26.3555 24.4766 26.446C24.4766 26.446 24.4766 26.5366 24.4766 26.6272C24.7485 27.3517 25.0205 28.2574 25.2924 29.2537C26.7429 31.6991 28.9186 33.9633 31.185 35.4124C33.7233 37.1332 34.9925 38.4012 35.7177 39.0352C35.7177 39.0352 35.8083 39.0352 35.899 39.0352C37.4401 39.0352 38.7999 39.3069 39.9784 39.6692C40.0691 39.6692 40.1597 39.6692 40.2504 39.6692C40.2504 39.6692 40.2504 39.5786 40.2504 39.4881L39.9784 39.7598ZM35.7177 38.8541C34.9925 38.1295 33.6326 36.9521 31.185 35.2313C29.0093 33.8727 26.7429 31.5179 25.4738 29.2537C25.2018 28.348 24.9298 27.4423 24.6579 26.7178C24.6579 26.6272 24.7485 26.446 24.8392 26.2649C24.8392 25.9026 24.9298 25.5403 24.9298 25.0875C25.3831 25.0875 25.7457 25.0875 26.199 24.9969C26.3803 24.9969 26.471 24.9064 26.5616 24.8158C27.3775 25.0875 28.1934 25.3592 29.0999 25.5403C31.3663 26.8989 33.7233 29.0726 35.0831 31.3368C36.8055 33.7822 37.984 35.1407 38.7093 35.8653C38.7093 37.2238 38.9812 38.4918 39.2532 39.4881C38.1653 39.2164 36.9868 39.0352 35.627 38.9446L35.7177 38.8541Z" fill="#CA943A"/>
<path d="M0.362617 96.9094C0.362617 96.9094 0.362617 96.8189 0.362617 96.7283C0.362617 96.7283 0.362617 96.5472 0.362617 96.2754C0.997196 95.2792 3.08224 92.7432 11.0598 93.1055C16.2271 93.2866 23.1168 91.113 25.8365 86.6751C26.9243 88.9393 29.7346 90.0261 31.729 90.8413C32.0916 91.0224 32.4542 91.113 32.8168 91.2941C35.5365 92.381 36.8056 93.1961 37.5308 93.6489C37.8935 93.8301 38.0748 94.0112 38.2561 94.0112C38.2561 94.0112 38.2561 94.0112 38.3467 94.0112C38.4374 94.0112 38.6187 94.0112 38.6187 93.6489C38.7094 93.7395 38.8907 93.8301 38.9813 93.7395C38.9813 93.7395 39.1626 93.6489 39.1626 93.5584C39.2533 93.3772 39.3439 93.1961 39.4346 92.7432C39.6159 91.9281 39.8879 90.479 41.0664 87.8525C41.157 87.5808 41.3383 87.2185 41.5196 86.8562C42.2449 85.3165 43.0608 83.4146 43.0608 81.422C43.0608 80.788 43.0608 80.2446 42.7888 79.7012C47.8654 80.788 54.3019 77.5275 57.8374 73.7236C63.186 67.9272 66.4495 68.2894 67.6281 68.4706C67.8094 68.7423 67.9 68.8329 67.9907 68.8329C67.9907 68.8329 67.9907 68.8329 68.172 68.8329C68.3533 68.8329 68.4439 68.8329 68.4439 68.7423L68.5346 68.5612L68.7159 68.5612C68.7159 68.5612 68.8066 68.38 68.8066 68.2894C68.8066 68.2894 68.8066 68.1989 68.8066 68.1083C68.8066 68.1083 68.7159 67.9272 68.4439 67.746C68.4439 67.4743 68.4439 67.2026 68.4439 66.8403C68.4439 64.2138 70.257 61.3156 73.7925 58.0551C76.7841 55.2474 79.957 50.085 79.957 45.1942C79.957 44.4697 79.957 43.7451 79.6851 43.0205C82.1327 43.8357 84.8523 42.6583 86.8467 41.7526C87.2094 41.5714 87.4813 41.4809 87.8439 41.2997C90.5636 40.1223 92.014 39.76 92.8299 39.6695C93.1925 39.6695 93.4645 39.5789 93.6458 39.3978C93.6458 39.3978 93.9178 39.126 93.6458 38.8543C93.7365 38.8543 93.8271 38.8543 93.9178 38.7638C93.9178 38.7638 94.0084 38.5826 93.9178 38.4015C93.9178 38.2204 93.7365 38.0392 93.5552 37.6769C93.1019 37.0429 92.286 35.775 91.2888 33.0579C91.1981 32.7862 91.0168 32.4239 90.9262 32.0616C90.1103 29.9785 89.0224 27.2614 86.7561 26.084C91.1075 23.2764 93.3738 16.4837 93.1925 11.2306C92.8299 3.35106 95.4589 1.26797 96.3654 0.543415C96.7281 0.543415 96.8187 0.543415 96.9094 0.543415C96.9094 0.543415 96.9094 0.543415 97.0907 0.543415C97.272 0.362278 97.272 0.271701 97.1813 0.0905643L96.1841 0.0905643C95.1869 0.724552 92.3766 2.89823 92.7393 11.1401C92.7393 11.3212 92.7393 11.5023 92.7393 11.6835C92.7393 16.8459 90.4729 23.3669 86.1215 25.7218C86.1215 25.7218 86.0309 25.9029 86.0309 25.9935C86.0309 26.084 86.0309 26.1746 86.2122 26.1746C88.5692 27.1709 89.657 29.9785 90.4729 32.0616C90.6542 32.4239 90.7449 32.7862 90.8355 33.0579C91.9234 35.775 92.7393 37.1335 93.1925 37.7675C93.2832 37.9486 93.3738 38.0392 93.4645 38.1298L93.1925 38.1298C93.1925 38.1298 93.0112 38.1298 92.9206 38.3109C92.9206 38.3109 92.9206 38.4921 92.9206 38.5826C93.0112 38.5826 93.1019 38.7638 93.1925 38.7638C93.1019 38.7638 92.9206 38.7638 92.7393 38.8543C91.9234 39.0355 90.3823 39.3072 87.6626 40.4846C87.3907 40.5752 87.0281 40.7563 86.6654 40.9374C84.671 41.8431 81.8608 43.1111 79.5038 42.0243C79.5038 42.0243 79.3224 42.0243 79.2318 42.0243C79.2318 42.0243 79.1411 42.2054 79.2318 42.296C79.5037 43.1111 79.5944 43.9262 79.5944 44.8319C79.5944 49.5415 76.5122 54.6134 73.6112 57.3305C69.8944 60.6816 68.0813 63.761 68.0813 66.4781C68.0813 66.9309 68.0813 67.3837 68.172 67.5649C68.172 67.5649 68.172 67.6555 68.2626 67.746C68.2626 67.746 68.172 67.6555 68.0813 67.6555C66.9028 67.4743 63.458 66.8403 57.7467 73.0896C54.2112 76.8936 47.6841 80.1541 42.6981 78.7955C42.6981 78.7955 42.5168 78.7955 42.4262 78.7955C42.4262 78.7955 42.4262 78.9767 42.4262 79.0672C42.6981 79.7012 42.7888 80.3352 42.7888 80.9692C42.7888 82.7806 41.9729 84.6825 41.2477 86.2222C41.0664 86.5845 40.8851 86.9468 40.7944 87.2185C39.6159 89.9356 39.2533 91.3847 39.072 92.1998C39.072 92.381 39.072 92.5621 38.9813 92.6527C38.9813 92.6527 38.8 92.5621 38.8 92.4715C38.8 92.4715 38.6187 92.381 38.528 92.4715C38.4374 92.4715 38.3467 92.5621 38.3467 92.7432C38.3467 92.8338 38.3467 92.9244 38.3467 93.0149C38.3467 93.0149 38.0748 92.8338 37.9841 92.7432C37.2589 92.2904 35.9897 91.4753 33.1794 90.3884C32.8168 90.2979 32.4542 90.1167 32.0916 89.9356C30.0065 89.1204 27.1963 88.0336 26.2897 85.6788C26.2897 85.6788 26.1991 85.4977 26.0178 85.4977C26.0178 85.4977 25.8365 85.4977 25.7458 85.5882C23.2075 90.1167 16.3178 92.381 11.1505 92.1998C2.81028 92.1998 0.725234 94.9169 -4.75071e-08 95.9132L0 97C0 97 0 97 0.0906542 97C0.0906542 97 0.271963 97 0.362617 96.9094Z" fill="#CA943A"/>
<path d="M76.152 0.633934C76.152 0.633934 76.4239 0.81508 76.5146 0.905649C76.5146 0.905649 76.6959 0.905649 76.7866 0.905649C77.3305 0.63394 77.8744 0.4528 78.509 0.4528C80.866 0.4528 81.0473 1.72077 81.0473 2.26419C81.0473 2.80761 80.7753 3.35103 80.594 3.53217C80.594 3.53217 80.3221 3.7133 80.2314 3.7133C80.2314 3.7133 80.1408 3.7133 80.0501 3.7133C79.5968 3.98501 79.3249 4.07558 79.2342 4.07558C79.2342 3.62273 79.4155 2.71703 78.9623 2.5359C78.8716 2.5359 78.6903 2.5359 78.4183 2.62647C77.3305 2.71704 75.9707 3.98501 75.2454 5.52469C75.1548 6.15868 74.9735 6.88323 74.8828 7.42665C74.8828 7.51722 74.8828 7.6078 74.9735 7.69837C75.6987 8.15121 76.8772 8.7852 78.237 8.42292C79.7781 7.97007 81.0473 6.33982 82.4071 4.619C83.0417 3.80387 83.7669 2.98875 84.4922 2.26419C85.3987 1.35849 86.3052 0.633941 87.2118 0.181093C87.2118 0.181093 87.2118 0.181091 87.2118 0.0905213L86.3959 0.0905213C85.58 0.543369 84.8548 1.17736 84.0389 1.99248C83.3137 2.71704 82.5884 3.53216 81.9538 4.43786C80.594 6.06811 79.3249 7.6078 77.9651 8.06064C76.8772 8.33235 75.9707 7.97007 75.2454 7.51722C75.3361 6.97381 75.5174 6.33982 75.608 5.70583C76.2426 4.34729 77.5118 3.16989 78.509 3.16989C78.509 3.16989 78.5996 3.16989 78.6903 3.16989C78.6903 3.16989 78.6903 3.35102 78.6903 3.62273C78.6903 3.80387 78.6903 4.07558 78.6903 4.16615C78.6903 4.25672 78.6903 4.34729 78.6903 4.43786C78.6903 4.52843 78.6903 4.619 78.8716 4.70957C78.8716 4.70957 78.8716 4.70957 78.9623 4.70957C79.1436 4.70957 79.5062 4.70957 80.2314 4.34729C80.5034 4.34729 80.6847 4.34729 80.866 4.07558C81.3193 3.7133 81.5912 3.07932 81.5912 2.44533C81.5912 1.99248 81.3193 0.633934 79.3249 0.271656L77.7837 0.271656C77.7837 0.271656 77.0585 0.452795 76.6959 0.633934C76.6959 0.633934 76.5146 0.543369 76.4239 0.4528C76.4239 0.4528 76.2426 0.452797 76.2426 0.362227L75.5174 0.362227C75.5174 0.362227 75.5174 0.36223 75.5174 0.4528C75.7894 0.633939 76.0613 0.81508 76.2426 0.905649L76.152 0.633934Z" fill="#CA943A"/>
<path d="M32.183 39.4884C32.183 39.4884 32.3643 39.4884 32.3643 39.3072C32.3643 39.3072 32.3643 39.1261 32.183 39.1261C31.2764 38.6732 30.4605 38.1298 29.554 37.4958C26.8344 35.8656 24.6587 32.4239 23.9334 29.9786C23.9334 29.254 23.9334 28.5294 23.8428 27.8955C23.8428 27.8049 23.8428 27.7143 23.6615 27.7143C23.6615 27.7143 23.4801 27.7143 23.3895 27.7143C22.0297 29.0729 19.582 29.254 17.8596 28.2577C15.6839 26.8086 15.4119 24.3632 15.3213 22.6424L15.3213 22.4613C15.3213 22.4613 15.2306 22.1896 15.0493 22.1896C14.868 22.1896 14.7773 22.1896 14.7773 22.3707C14.7773 23.0953 14.7773 23.6387 14.7773 24.1821C14.7773 24.7255 14.7773 25.3595 14.7773 25.9935C14.7773 30.522 16.3185 34.1448 18.9474 35.8656C19.6727 36.409 20.3979 36.5901 20.9418 36.3184C21.6671 35.9561 21.939 35.0504 21.939 34.2353C21.939 33.9636 21.939 33.5108 21.6671 33.2391C21.6671 33.2391 21.4858 33.1485 21.3951 33.1485C20.8512 32.9673 20.3073 32.9673 19.9446 32.9673C20.3073 32.6051 20.9418 32.4239 21.6671 32.2428C22.7549 32.2428 23.5708 33.5108 23.5708 34.9599C23.5708 35.2316 23.5708 35.5033 23.5708 35.6844C23.5708 35.6844 23.5708 35.6844 23.5708 35.775C23.5708 36.2278 23.3895 36.7713 22.9362 37.2241C22.9362 37.2241 22.9362 37.4053 22.9362 37.5864C23.7521 38.6732 24.7493 39.3978 26.0185 39.5789C27.5596 39.9412 29.4633 39.7601 31.4577 39.5789L32.2736 39.5789L32.183 39.4884ZM26.0185 39.0355C24.6587 38.7638 23.8428 38.0392 23.2988 37.4053C23.7521 36.8618 23.9334 36.3184 23.9334 35.775C23.9334 35.5033 23.9334 35.2316 23.9334 34.8693C23.9334 33.1485 22.8456 31.7899 21.4858 31.6994C20.3072 31.8805 19.4914 32.2428 19.1287 32.8768C19.1287 32.8768 19.1287 32.8768 19.0381 32.9673C19.0381 32.9673 19.3101 33.2391 19.6727 33.2391C20.0353 33.2391 20.5792 33.2391 21.2138 33.4202C21.2138 33.4202 21.3044 33.6919 21.3044 34.0542C21.3044 34.6882 21.0325 35.4127 20.5792 35.6844C20.1259 35.9561 19.4914 35.6844 19.1287 35.3222C16.2278 33.4202 15.14 29.254 15.14 25.9029C15.14 25.6312 15.14 25.3595 15.14 25.0878C15.4119 26.3558 16.1372 27.6237 17.5876 28.62C19.3101 29.7068 21.8484 29.5257 23.3895 28.3483C23.3895 28.8011 23.3895 29.3446 23.4801 29.9786C24.2054 32.6051 26.4717 36.0467 29.282 37.7675C29.9166 38.2204 30.5512 38.6732 31.1858 39.0355C29.1914 39.2166 27.3783 39.3072 25.8372 39.0355L26.0185 39.0355Z" fill="#CA943A"/>
<path d="M5.6205 50.1756C7.16162 48.817 8.61208 47.6396 9.42797 46.2811C9.9719 45.466 10.3345 44.5603 10.3345 43.564C10.3345 43.2923 10.3345 43.0206 10.3345 42.6583C10.3345 42.5677 10.2439 42.4772 10.0626 42.4772C9.60928 42.4772 8.9747 42.296 8.52143 41.8432C7.61489 41.2092 6.98031 40.2129 6.98031 39.2167C6.98031 38.7638 7.16162 38.4015 7.34292 38.1298C7.9775 37.677 8.61208 37.4053 9.06535 37.3147C8.79339 37.5864 8.43077 37.9487 8.15881 38.4015C8.15881 38.4015 8.06816 38.5827 8.06816 38.7638C8.06816 39.3978 9.15601 40.3941 10.1532 40.4846C10.6971 40.4846 11.513 40.3035 11.785 38.7638C11.8756 38.311 11.9663 37.7676 11.9663 37.3147C11.9663 33.5108 8.9747 29.7974 6.52704 27.7143C6.16442 27.3521 5.71115 26.9898 5.25788 26.5369C5.16722 26.4464 4.98591 26.5369 4.89526 26.5369C4.89526 26.5369 4.89526 26.8086 4.89526 26.8992L4.89526 26.9898C5.98311 28.0766 7.25227 29.6163 7.25227 31.6994C7.25227 32.0617 7.25227 32.4239 7.16162 32.7862C6.70834 34.7788 4.80461 36.3184 2.90087 36.3184C2.81021 36.3184 2.71956 36.3184 2.62891 36.4996C2.62891 36.4996 2.62891 36.6807 2.62891 36.7713C2.99152 37.2241 3.53545 37.7676 3.98872 38.2204C5.43919 40.7564 6.07377 44.7414 5.43919 47.5491C5.25788 48.6359 5.07657 49.5416 4.71395 50.5379C4.71395 50.6284 4.71395 50.719 4.80461 50.8096C4.80461 50.8096 4.98592 50.8096 5.07657 50.8096L5.6205 50.2662L5.6205 50.1756ZM5.8018 47.5491C5.98311 46.8245 6.07377 45.9188 6.07377 45.0131C6.07377 42.5677 5.43919 39.8507 4.35134 37.8581C3.98872 37.4053 3.6261 37.043 3.35414 36.6807C5.25788 36.409 7.16162 34.7788 7.61489 32.7862C7.61489 32.4239 7.70554 31.9711 7.70554 31.6088C7.70554 30.4314 7.34292 29.4352 6.799 28.5295C9.06535 30.6126 11.4224 33.8731 11.4224 37.2241C11.4224 37.677 11.4224 38.1298 11.2411 38.5827C11.0597 39.4884 10.6971 39.9412 10.1532 39.9412C9.33732 39.9412 8.52143 39.0355 8.52143 38.7638C8.88405 38.311 9.24666 37.8581 9.51862 37.5864C9.79059 37.3147 9.88124 37.2241 9.88124 37.1336C9.88124 37.043 9.88124 36.9524 9.69993 36.8619C9.69993 36.8619 9.69993 36.8619 9.60928 36.8619C8.88405 36.6807 8.06816 36.9524 7.07096 37.7676C6.70834 38.1298 6.52704 38.6732 6.52704 39.2167C6.52704 40.3035 7.25227 41.4809 8.24947 42.2055C8.61208 42.6583 9.15601 42.8394 9.88124 42.93C10.0626 44.1074 9.79059 45.1037 9.15601 46.0094C8.34012 47.2774 6.88965 48.4548 5.43919 49.7227C5.6205 48.9982 5.8018 48.2736 5.89246 47.5491L5.8018 47.5491Z" fill="#CA943A"/>
<path d="M0.634579 94.0116C1.72243 92.1096 5.71121 90.1171 11.0598 90.3888C16.0458 90.4794 22.7542 89.1208 25.2925 84.6829C26.6523 82.2375 27.015 79.7922 27.1963 78.1619C27.1963 78.5242 27.1963 78.977 27.1963 79.4299C27.1963 80.9696 26.9243 82.5092 26.471 84.0489C26.471 84.0489 26.471 84.0489 26.471 84.2301C26.6523 84.7735 26.8336 85.2263 27.1056 85.5886C27.6495 86.4943 28.828 86.9471 29.7346 87.3094C29.7346 87.3094 29.9159 87.3094 30.0065 87.3094C30.0972 87.3094 30.0065 87.1283 30.0065 87.0377C29.8252 86.5849 29.6439 86.0415 29.5533 85.5886C29.5533 83.8678 29.1907 81.0601 28.0121 76.8939C29.1 78.0713 31.6383 81.7847 31.729 85.1358C32.0009 86.2226 32.0916 87.1283 32.1822 87.9434C32.1822 88.034 32.1822 88.1246 32.3635 88.1246C32.8168 88.3057 33.3607 88.4868 33.814 88.668C35.4458 89.302 36.715 90.2077 37.4402 91.1133C37.4402 91.1133 37.6215 91.2039 37.7121 91.1133C37.7121 91.1133 37.8935 90.9322 37.8935 90.8416C37.7121 89.5737 37.8935 88.2151 38.6187 86.5849C38.8 86.132 39.072 85.5886 39.2533 85.2263C39.2533 85.2263 39.2533 85.0452 39.2533 84.9546C38.7093 84.3206 38.1654 83.5961 37.5308 82.5998C35.3551 80.245 34.4486 75.8977 34.3579 74.2674C35.0832 75.626 36.9869 78.977 39.3439 81.513C39.6159 81.9658 39.8878 82.4187 40.0692 82.8715C40.0692 82.8715 40.1598 83.0527 40.3411 83.0527C40.3411 83.0527 40.5224 83.0527 40.5224 82.8715C41.0664 81.7847 41.2477 80.9696 41.2477 80.3356C41.2477 80.1544 41.2477 79.9733 41.2477 79.7922C41.2477 79.3393 40.9757 78.8865 40.7944 78.4336C40.7944 78.4336 40.7944 78.4336 40.7037 78.4336C38.4374 77.2562 36.8963 75.7165 35.9897 74.7203C37.2589 75.7165 39.2533 77.1656 41.9729 77.9808C46.8682 79.2487 52.5794 75.5354 56.0243 71.9126C59.6505 67.9275 63.7299 66.569 65.9056 67.1124C66.3589 67.2936 66.8121 67.4747 67.1748 67.6558C67.1748 67.6558 67.3561 67.6558 67.4467 67.6558C67.4467 67.6558 67.4467 67.4747 67.4467 67.3841C67.2654 67.0218 67.0841 66.569 66.9028 66.2067C66.9028 65.8444 66.7215 65.4822 66.7215 65.1199C66.7215 63.1274 67.9906 59.5951 71.7075 56.2441C74.7897 53.3458 78.0533 48.6362 78.0533 44.1983C78.0533 43.4738 77.9626 42.7492 77.7813 42.1152C76.9654 39.3981 75.515 37.4056 74.5178 36.1376C75.6056 37.0433 77.0561 38.4924 78.2346 40.7567C78.2346 40.7567 78.2346 40.7567 78.3252 40.8472C78.7785 41.119 79.2318 41.3001 79.685 41.3907C80.7729 41.5718 81.8607 41.119 82.7673 40.7567C82.7673 40.7567 82.9486 40.6661 82.9486 40.485C82.9486 40.3038 82.9486 40.3038 82.7673 40.2133C82.314 40.0321 81.8607 39.7604 81.4981 39.4887C78.9598 37.1339 75.5149 35.2319 74.2458 34.5074C75.8776 34.5074 80.3196 35.4131 82.6766 37.6773C83.5832 38.2207 84.3084 38.8547 84.943 39.3981C84.943 39.3981 85.1243 39.3981 85.2149 39.3981C85.6682 39.1264 86.1215 38.9453 86.5748 38.7641C88.2065 38.1302 89.657 37.8584 90.8355 38.0396C90.9262 38.0396 91.0168 38.0396 91.1075 37.8584C91.1075 37.7679 91.1075 37.6773 91.1075 37.5867C90.1103 36.8622 89.2944 35.5942 88.5692 33.964C88.3878 33.5111 88.2065 32.9677 88.1159 32.5149C88.1159 32.4243 88.0252 32.3337 87.8439 32.3337C87.028 32.3337 86.1215 32.1526 85.0336 31.8809C81.7701 31.8809 78.0533 29.3449 76.8748 28.1675C80.229 29.1638 83.1299 29.7072 85.4869 29.7072C85.9402 29.7978 86.4841 29.9789 86.9374 30.16C87.028 30.16 87.1187 30.16 87.2093 30.16C87.2093 30.16 87.2093 29.9789 87.2093 29.8883C86.8467 28.9826 86.3935 27.8958 85.4869 27.2618C85.1243 26.9901 84.671 26.809 84.2177 26.6278C84.2177 26.6278 84.2178 26.6278 84.0364 26.6278C81.5888 27.443 79.4131 27.443 78.0533 27.2618C79.685 27.0807 82.1327 26.7184 84.5804 25.3599C88.7505 22.9145 90.2009 16.484 90.2009 11.6839L90.2009 11.1404C89.929 5.79684 91.9234 1.81178 93.8271 0.724941C94.2804 0.543804 94.643 0.362659 95.0962 0.272091C95.0962 0.272091 95.0963 0.272098 95.1869 0.18153L94.0084 0.18153C94.0084 0.18153 93.7364 0.272091 93.5551 0.362667C91.6514 1.35893 89.657 4.98172 89.657 10.3253C89.657 10.597 89.657 10.9593 89.657 11.231C89.8383 15.9406 88.3878 22.5522 84.2177 24.9976C81.4981 26.5373 78.6878 26.7184 77.2374 26.8995C77.0561 26.8995 76.9654 26.8995 76.7841 26.8995C76.7841 26.7184 76.7841 26.5373 76.6028 26.2656C75.5149 23.2768 72.7047 22.4616 70.3477 22.0994C69.0785 22.0994 67.7187 22.0994 66.6308 22.2805C65.8149 22.2805 64.9991 22.4616 64.2738 22.4616C63.5486 22.5522 62.914 22.5522 62.1888 22.4616C63.8206 21.3748 64.8178 19.2917 64.8178 16.7558C64.8178 15.4878 64.5458 14.3104 64.1832 13.5858C63.9112 12.7707 63.5486 11.9556 63.0047 11.3216C63.5486 11.5933 64.1832 11.865 64.8178 12.0461C67.5374 13.133 72.7047 13.4047 74.6084 9.32904C74.6991 9.05734 74.7897 8.8762 74.7897 8.60449C75.6056 9.32904 76.6934 9.69133 78.0533 9.7819C80.9542 9.41962 83.0392 7.15538 84.7617 5.43456C85.2149 4.98172 85.6682 4.43829 86.1215 4.07602C87.3906 2.71747 88.5691 1.7212 89.7477 0.996647C90.7448 0.996647 91.742 0.634373 91.742 0.272091C91.742 0.272091 91.742 0.0909613 91.6514 0.0909613L90.9262 0.0909613L90.9262 0.18153C90.9262 0.18153 90.9262 0.18153 91.0168 0.18153C90.7449 0.272098 90.2916 0.453235 89.657 0.453236C89.657 0.453236 89.657 0.453236 89.5663 0.453236C88.3878 1.17779 87.1187 2.26462 85.8495 3.62317C85.3963 3.98544 84.943 4.52887 84.4897 4.98172C82.7673 6.7931 80.7729 8.87621 78.1439 9.23848C76.7841 9.23848 75.6963 8.69507 74.8804 7.87993C74.8804 7.87993 74.6991 7.78936 74.6084 7.87993C74.6084 7.87993 74.4271 7.9705 74.4271 8.15164C74.4271 8.60449 74.4271 8.87621 74.2458 9.23848C72.2514 13.4047 66.8121 12.4084 65.0897 11.6839C64.0019 11.3216 62.914 10.7782 61.9168 10.2347C61.8262 10.2347 61.6449 10.2347 61.5542 10.2347C61.5542 10.3253 61.5542 10.5065 61.5542 10.597C62.5514 11.4122 63.2766 12.499 63.7299 13.8575C64.0925 14.5821 64.3645 15.6689 64.3645 16.8463C64.3645 17.8426 64.0925 21.2842 61.3729 22.4616C61.2822 22.4616 61.1916 22.6428 61.1916 22.7333C61.1916 22.8239 61.1916 22.9145 61.3729 22.9145C62.3701 23.0956 63.3673 23.0956 64.2738 22.9145C64.9991 22.9145 65.8149 22.9145 66.6308 22.7333C67.8093 22.6428 68.9878 22.4616 70.257 22.5522C72.4327 22.9145 75.0617 23.639 76.0589 26.3561C76.0589 26.6278 76.1495 26.809 76.2402 27.0807C76.2402 27.0807 76.2402 27.0807 76.2402 27.1712C76.2402 27.1712 76.2402 27.3524 76.2402 27.443L76.2402 27.5335C76.2402 27.5335 76.2402 27.8052 76.4215 27.8052C76.4215 27.8052 76.2402 27.8958 76.1495 27.9864C75.8776 29.1638 74.8804 29.9789 74.0645 30.3412C74.0645 30.3412 73.9738 30.3412 73.8832 30.5223C73.8832 30.5223 73.8832 30.6129 73.8832 30.7035C74.3364 31.6997 74.2458 32.9677 73.7019 33.8734C73.7019 33.8734 73.7019 34.0545 73.7019 34.1451C73.7019 34.1451 73.4299 34.1451 73.3392 34.1451L73.3392 34.2357C73.3392 34.2357 73.1579 34.4168 73.0673 34.5074C73.0673 34.5074 73.0673 34.5074 72.9766 34.5074C72.7953 34.6885 72.614 34.8697 72.3421 34.9602C69.6224 36.2282 67.1748 34.7791 65.6336 33.6017C64.7271 32.7866 63.9112 31.7903 63.186 30.8846C62.642 30.2506 62.0981 29.6166 61.6449 29.0732C61.1009 28.2581 60.3757 27.6241 59.5598 27.0807C59.5598 27.0807 59.3785 27.0807 59.2878 27.0807C59.1972 27.0807 59.1065 27.2618 59.2878 27.3524C59.4692 27.8052 59.5598 28.3487 59.5598 28.8921C59.5598 31.7903 56.7495 34.5074 54.8458 35.1414C53.6673 35.7754 52.3075 35.9565 51.0383 35.8659C50.857 35.8659 50.7664 35.8659 50.7664 36.0471C50.7664 36.1376 50.7664 36.3188 50.9477 36.3188C51.6729 36.4999 52.8514 36.8622 54.2112 37.4962C56.2056 38.4019 59.2878 40.8472 59.2878 43.9266C59.2878 44.47 59.1972 45.104 59.0159 45.6474C58.9252 46.0097 58.6533 46.2814 58.3813 46.5531C58.3813 46.5531 58.3813 46.7343 58.3813 46.8248C58.3813 46.8248 58.5626 47.006 58.6533 46.9154C59.8318 46.9154 60.9196 47.2777 61.9168 48.1834C63.2766 49.9042 63.4579 52.259 63.4579 54.3421C63.4579 54.795 63.4579 55.2478 63.4579 55.7007C63.4579 56.4252 63.4579 57.0592 63.4579 57.6026C63.4579 57.8743 63.4579 58.146 63.4579 58.4177C63.4579 60.048 63.5486 61.4065 63.8206 62.5839C63.8206 62.5839 63.8206 62.5839 63.8206 62.6745C64.2738 63.1274 64.4551 63.5802 64.5458 63.8519C64.5458 63.8519 64.5458 63.8519 64.4551 63.8519C64.4551 63.8519 64.2738 63.8519 64.1832 63.8519C64.1832 63.8519 64.1832 64.0331 64.1832 64.1236C64.1832 64.1236 64.1832 64.1236 64.1832 64.2142C63.9112 64.1236 63.5486 63.9425 63.0953 63.4896C63.0953 63.4896 63.0953 63.4896 63.0047 63.4896C61.6449 63.2179 60.0131 63.0368 58.0187 63.1274C57.3841 63.1274 56.7495 63.1274 56.0243 63.1274C53.486 63.1274 50.6757 63.2179 48.5907 61.5877C47.6841 60.682 47.2308 59.6857 47.2308 58.5989C47.2308 58.5989 47.2308 58.4177 47.2308 58.3272C47.2308 58.2366 47.2308 58.146 47.0495 58.0555C46.9589 58.0555 46.8682 58.0555 46.7776 58.0555C46.5056 58.3272 46.2336 58.5083 45.871 58.6894C41.7916 60.1386 38.6187 56.1535 37.7121 53.8893C37.1682 52.8024 36.8056 51.7156 36.5336 50.6288C36.5336 50.5382 36.3523 50.4476 36.2617 50.4476C36.171 50.4476 36.0804 50.5382 36.0804 50.7193C36.0804 50.9005 36.0804 51.0816 36.0804 51.3533C36.0804 52.4401 35.8084 53.527 35.2645 54.6138C34.9019 55.8818 33.3607 57.7838 31.457 58.78C30.4598 59.2329 29.0093 59.6857 27.4682 59.1423C27.4682 59.1423 27.2869 59.1423 27.1963 59.1423C27.1963 59.1423 27.1963 59.3234 27.1963 59.414C27.8308 60.2291 28.4654 60.9537 29.1907 61.4971C29.7346 62.0405 30.3692 62.4934 31.0037 63.0368C31.9103 63.7613 32.9075 64.4859 33.7234 65.4822C34.9925 67.203 35.6271 68.7427 35.6271 70.1012C35.6271 70.8258 35.4458 71.5503 35.1738 72.2749C35.0832 72.456 34.9019 72.6372 34.7206 72.9089C34.7206 72.9089 34.7206 72.9089 34.7206 72.9994C34.6299 73.09 34.5392 73.1806 34.4486 73.2711C34.4486 73.2711 34.2673 73.4523 34.2673 73.5429C34.2673 73.5429 34.086 73.5429 33.9953 73.5429C32.9075 74.1768 31.6383 74.0863 30.8224 73.724C30.7318 73.724 30.5505 73.724 30.4598 73.9051C30.0972 74.7203 29.372 75.7165 28.1028 75.9882C28.1028 75.9882 27.9215 75.9882 27.9215 76.1694C27.9215 76.1694 27.7402 75.9882 27.6495 75.9882C27.6495 75.9882 27.2869 75.9882 27.1963 75.9882C27.1963 75.9882 27.1963 75.9882 27.1056 75.9882C26.8336 75.9882 26.6523 75.9882 26.3804 75.8071C23.6607 74.8108 22.9355 72.1843 22.5729 70.0106C22.5729 68.7427 22.5729 67.5653 22.7542 66.3879C22.8449 65.5727 22.9355 64.7576 22.9355 64.0331C23.1168 63.0368 23.0262 62.1311 22.9355 61.0443C22.9355 60.9537 22.8449 60.8631 22.6635 60.8631C22.5729 60.8631 22.4822 60.8631 22.3916 61.0443C21.757 62.4934 20.3972 63.2179 19.4 63.5802C17.315 64.3048 14.9579 64.0331 13.6888 63.3991C12.4196 62.9462 11.2411 62.2217 10.4252 61.2254C10.4252 61.1348 10.1533 61.1348 10.0626 61.2254C9.97196 61.2254 9.88131 61.4065 10.0626 61.5877C10.6972 62.5839 11.1505 63.6708 11.6037 64.8482C12.057 65.8444 12.2383 67.203 12.2383 68.471C12.2383 70.3729 11.6944 72.8183 9.15607 73.9957C8.79346 74.1768 8.52149 74.1768 8.06822 74.1768C7.97757 74.1768 7.88691 74.1768 7.79626 74.358C7.79626 74.4486 7.79626 74.5391 7.79626 74.6297C8.7028 75.4448 9.15607 76.5317 9.15607 77.8902C8.79346 80.5167 6.79906 82.5092 4.98598 84.3206C4.53271 84.7735 3.98878 85.2263 3.62617 85.6792C2.26635 87.0377 1.1785 88.2151 0.362617 89.3925C0.362617 89.3925 0.362617 89.3925 0.362617 89.4831C0.362617 90.1171 0.181308 90.5699 0.090654 90.8416C0.090654 90.8416 0.090654 90.8416 0.090654 90.7511C0.090654 90.7511 0.090654 90.7511 -2.01905e-07 90.7511L-1.70234e-07 91.4756C-1.70234e-07 91.4756 0.090654 91.5662 0.271962 91.5662C0.634579 91.5662 0.997196 90.5699 0.997196 89.5737C1.72243 88.4868 2.71963 87.3094 4.07944 85.9509C4.44206 85.498 4.98598 85.0452 5.43925 84.5923C7.25234 82.8715 9.42804 80.7884 9.79065 77.8902C9.79065 76.6222 9.33738 75.5354 8.61215 74.6297C8.88411 74.6297 9.06542 74.5391 9.33738 74.4486C11.5131 73.4523 12.6916 71.2786 12.6916 68.471C12.6916 67.203 12.4196 65.7539 11.9664 64.7576C11.785 64.1236 11.5131 63.4896 11.2411 62.8557C11.8757 63.3991 12.6916 63.7613 13.5075 64.0331C14.7766 64.7576 17.315 65.0293 19.5813 64.2142C20.8505 63.7613 21.8477 63.0368 22.4822 62.0405C22.4822 62.7651 22.4822 63.3991 22.4822 64.1236C22.4822 64.8482 22.4822 65.6633 22.3009 66.4784C22.2103 67.4747 22.029 68.471 22.029 69.5578C22.029 69.7389 22.029 69.9201 22.029 70.1012C22.3916 72.3655 23.2075 75.1731 26.1991 76.2599C26.3804 76.2599 26.5617 76.3505 26.8336 76.4411C26.8336 76.6222 26.8336 76.7128 26.8336 76.8939C26.6523 78.343 26.471 81.0601 24.9299 83.8678C22.6636 87.7623 16.3178 89.3925 11.1505 89.302C5.43925 89.6642 1.35981 91.6568 0.181308 93.8304C0.181308 94.0116 0.0906541 94.1021 -5.1466e-08 94.1927L0 95.3701C0 95.3701 0.0906542 95.3701 0.181308 95.3701C0.271963 95.0078 0.453271 94.555 0.634579 94.1021L0.634579 94.0116ZM77.1467 27.6241C78.4159 27.8052 80.9542 28.0769 84.3084 27.0807C84.7617 27.1712 85.1243 27.3524 85.3963 27.6241C85.9402 27.9864 86.3028 28.6204 86.7561 29.5261C86.3934 29.4355 86.1215 29.3449 85.6682 29.2543C83.3112 29.2543 80.5009 28.6204 77.1467 27.7147L77.1467 27.6241ZM74.7897 34.0545C75.243 33.1488 75.243 31.9714 74.8804 30.9752C75.6963 30.6129 76.5121 29.8883 76.9654 28.8015C78.4159 30.0695 82.0421 32.2431 85.1243 32.3337C86.1215 32.6054 87.028 32.696 87.8439 32.7866C87.9346 33.2394 88.1159 33.6923 88.2972 34.1451C88.8411 35.5942 89.5664 36.681 90.3822 37.4962C89.2944 37.4962 88.0252 37.7679 86.5748 38.3113C86.1215 38.4924 85.7589 38.6736 85.3056 38.9453C84.671 38.4019 83.9458 37.8585 83.1299 37.315C80.8635 35.1414 76.6934 34.2357 74.7897 34.0545ZM74.1551 35.0508C75.515 35.7754 78.7785 37.6773 81.3168 40.0321C81.5888 40.2133 81.9514 40.3944 82.2234 40.5755C81.2262 40.9378 80.5009 41.119 79.8664 40.9378C79.5037 40.9378 79.1411 40.7567 78.7785 40.5755C77.1467 37.5867 75.1523 35.8659 74.1551 35.1414L74.1551 35.0508ZM35.8084 73.724C35.8084 73.724 35.5364 73.5429 35.4458 73.4523C35.5364 73.2711 35.7178 73.09 35.8084 72.9089C36.171 72.1843 36.3523 71.3692 36.3523 70.5541C36.3523 69.0144 35.7178 67.4747 34.3579 65.5727C33.4514 64.5765 32.4542 63.7613 31.5477 63.1274C30.9131 62.5839 30.2785 62.1311 29.7346 61.5877C29.1907 61.2254 28.7374 60.682 28.2841 60.2291C29.372 60.5008 30.6411 60.2291 31.8196 59.6857C33.9047 58.5989 35.4458 56.6969 35.8991 55.3384C36.2617 54.5232 36.5336 53.7081 36.715 52.893C36.8963 53.527 37.1682 54.161 37.4402 54.7044C38.4374 57.0592 41.7916 61.316 46.2336 59.6857C46.5056 59.6857 46.6869 59.5046 46.8682 59.3234C46.8682 60.4103 47.4121 61.4971 48.3187 62.4934C50.585 64.2142 53.6673 64.2142 56.115 64.1236C56.8402 64.1236 57.4748 64.1236 58.1093 64.1236C60.0131 64.1236 61.5542 64.1236 62.914 64.4859C63.7299 65.2105 64.5458 65.4822 64.7271 65.3916C64.8178 65.3916 64.9084 65.2105 64.8178 65.1199L64.8178 65.0293C64.8178 65.0293 64.8177 65.0293 64.9084 65.0293C65.0897 65.0293 65.1804 64.8482 65.1804 64.7576C65.1804 64.5765 64.9991 63.8519 64.2738 63.0368C64.0019 61.8594 63.9112 60.5914 63.9112 59.0517L63.9112 58.2366C63.9112 57.6026 63.9112 56.9686 63.9112 56.3346C63.9112 55.8818 63.9112 55.4289 63.9112 54.9761C63.9112 52.8024 63.7299 50.357 62.1888 48.4551C61.1916 47.5494 60.1944 47.0965 59.1065 47.006C59.2878 46.8248 59.3785 46.5531 59.4692 46.2814C59.7411 45.6474 59.8318 45.0134 59.8318 44.3795C59.8318 41.0284 56.6589 38.4019 54.4832 37.4962C53.8486 37.1339 53.214 36.9528 52.6701 36.7716C53.486 36.681 54.3019 36.4093 55.0271 36.0471C57.1121 35.4131 60.1037 32.4243 60.1037 29.3449C60.1037 28.9826 60.1037 28.7109 60.0131 28.3487C60.557 28.8015 61.0103 29.2543 61.3729 29.7978C61.9168 30.3412 62.3701 30.8846 62.914 31.5186C63.6392 32.4243 64.4551 33.4205 65.4523 34.3262C67.1748 35.5942 69.7131 37.1339 72.7047 35.7753C72.886 35.6848 73.0673 35.5942 73.2486 35.4131C73.2486 35.5036 73.4299 35.6848 73.5206 35.7753C74.4271 36.8622 76.2402 39.0359 77.0561 42.0247C77.2374 42.6586 77.328 43.2926 77.328 43.9266C77.328 48.1834 74.1551 52.7119 71.1635 55.6101C68.0813 58.4177 66.0869 62.0405 66.0869 64.8482C66.0869 65.301 66.0869 65.6633 66.2682 66.1162C66.3589 66.3879 66.4495 66.569 66.5402 66.7501C66.3589 66.7501 66.0869 66.569 65.8149 66.4784C63.4579 65.8444 59.1972 67.2936 55.3897 71.3692C52.0355 74.9014 46.5056 78.5242 41.7916 77.3468C38.7093 76.4411 36.6243 74.7203 35.4458 73.724L35.8084 73.724ZM34.9019 74.0863C35.6271 75.0825 37.2589 77.1656 40.3411 78.7959C40.5224 79.1582 40.7037 79.5204 40.7037 79.8827C40.7944 80.5167 40.7037 81.2413 40.3411 82.2375C40.1598 81.8753 39.9785 81.6035 39.7972 81.2413C37.5308 78.7959 35.6271 75.4448 34.9019 74.0863ZM28.7374 76.8939C29.8252 76.5317 30.5505 75.626 30.9131 74.8108C31.729 75.0825 32.9075 75.1731 33.9953 74.7203C34.1766 76.6222 35.0832 80.7884 37.2589 82.9621C37.8028 83.8678 38.3467 84.5923 38.8907 85.2263C38.7093 85.5886 38.528 86.0415 38.2561 86.4943C37.7121 87.8528 37.4402 89.1208 37.4402 90.2077C36.6243 89.3925 35.5364 88.668 34.086 88.1246C33.6327 87.9434 33.1794 87.7623 32.7262 87.6717C32.7262 86.8566 32.5449 85.9509 32.2729 84.9546C32.2729 81.7847 30.0065 78.2525 28.7374 76.8034L28.7374 76.8939ZM27.5589 77.0751C28.7374 81.1507 29.0093 83.9584 29.1 85.6792C29.1 86.0415 29.2813 86.3132 29.372 86.6754C28.3748 86.3132 27.8308 85.8603 27.4682 85.3169C27.1963 84.9546 27.1056 84.5923 26.9243 84.2301C27.3776 82.6904 27.6495 81.1507 27.6495 79.5204C27.6495 78.5242 27.6495 77.6185 27.4682 77.0751L27.5589 77.0751Z" fill="#CA943A"/>
<path d="M0.906395 28.3478C1.72228 28.4384 2.17555 28.529 2.44752 28.7101C1.99425 28.8912 1.26901 29.1629 0.815741 29.7064C0.815741 29.7064 0.815741 29.8875 0.815741 29.9781C1.17836 30.7026 1.26901 31.6083 1.0877 32.514C1.0877 32.514 1.0877 32.6046 1.0877 32.6952C1.35967 33.148 1.72228 33.5103 2.0849 33.9631C2.35686 34.2348 2.71948 34.2348 3.17275 34.1443C3.89798 33.9631 4.80453 33.3291 5.2578 32.3329C5.71107 31.246 5.2578 29.6158 3.98864 27.5327C2.90079 25.8119 1.63163 24.4533 0.815741 23.7288C1.63163 24.0005 4.16995 24.9062 7.07088 26.9893C10.2438 28.8007 15.0485 33.6914 13.8699 39.3973C13.7793 41.2993 12.1475 42.3861 10.6971 42.5672C10.6971 42.5672 10.6971 42.5672 10.6064 42.5672C10.6064 42.5672 10.3344 42.5672 10.3344 42.6578C10.3344 42.6578 10.3344 42.8389 10.3344 42.9295L10.3344 43.0201C10.3344 43.0201 10.5157 43.2012 10.6064 43.2012C10.6971 43.9258 10.8784 45.3749 11.7849 46.6429C12.5101 48.0014 14.3232 48.4543 15.5924 48.1825C16.4083 48.0014 16.9522 47.6391 16.9522 47.0957C17.1335 46.0994 16.9522 45.4655 16.5896 45.2843C16.1363 45.0126 15.4111 45.4655 14.9578 45.7372C14.9578 45.7372 14.7765 45.7372 14.7765 45.8277C14.7765 45.6466 14.7765 45.2843 15.1391 44.6503C15.1391 44.6503 15.1391 44.6503 15.1391 44.5598C15.1391 44.5598 15.3204 44.1975 15.683 43.9258C15.955 43.7446 16.6802 43.3824 17.4961 43.7446C17.4961 43.7446 17.5868 43.7446 17.6774 43.8352C17.6774 43.8352 17.7681 43.8352 17.8587 43.9258C17.8587 43.9258 18.04 43.9258 18.1307 43.9258C18.1307 43.9258 18.312 43.8352 18.312 43.7446L18.312 43.5635L18.312 43.3824C18.6746 42.5672 19.3092 42.2955 19.7625 42.205C20.2157 42.1144 20.5784 42.205 20.5784 42.205C20.5784 42.205 20.5784 42.205 20.669 42.205C21.3036 42.4767 21.6662 42.6578 21.7569 42.8389C21.7569 42.8389 21.5756 42.8389 21.4849 42.8389C20.8503 43.0201 19.9438 43.2012 19.9438 43.9258C19.9438 44.3786 20.3064 44.7409 21.0316 45.2843C21.3942 45.556 21.8475 45.556 22.3914 45.2843C23.4793 44.7409 24.4765 43.4729 24.4765 42.0238C24.4765 41.7521 24.4765 41.4804 24.4765 41.2993C24.1139 39.8501 23.3886 38.6727 22.9354 38.1293C22.9354 38.1293 22.9354 38.1293 22.9354 38.0388C22.9354 38.0388 23.026 37.8576 22.9354 37.767C22.9354 37.767 22.8447 37.5859 22.7541 37.5859C22.7541 37.5859 22.5728 37.5859 22.4821 37.5859C21.3036 38.401 19.3999 38.7633 17.9494 37.5859C13.9606 34.9594 13.598 29.8875 13.598 27.895C13.598 26.5364 13.7793 25.2684 14.0513 24.091C14.5952 20.6494 15.7737 18.204 16.1363 17.4795C16.1363 18.5663 16.1363 20.3777 16.5896 22.3702C16.9522 23.9099 17.5868 26.0836 19.1279 26.627C20.0344 26.9893 21.1223 26.8987 21.8475 26.4459C22.2101 26.1741 22.4821 25.9024 22.4821 25.4496C22.4821 24.9062 22.3914 24.3628 22.3008 23.8193C22.3008 23.8193 22.3008 23.7288 22.2101 23.6382C21.4849 23.1853 20.941 22.4608 20.669 21.7362C20.669 21.7362 20.5784 21.5551 20.4877 21.5551C19.7625 21.4645 19.1279 21.7362 18.584 22.0079C18.7653 21.7362 18.9466 21.2834 19.4905 20.6494C19.6718 20.4683 19.9438 20.2871 20.3064 20.1966C20.3971 20.1966 20.4877 20.1966 20.4877 20.0154C20.4877 19.6531 20.669 19.3814 20.8503 19.2003C21.4849 18.6569 21.9382 18.3852 22.2101 18.2946C21.9382 18.7474 21.6662 19.472 21.7569 20.1966C21.7569 20.1966 21.7569 20.3777 21.9382 20.3777C22.6634 20.6494 23.3886 21.1928 23.8419 21.9174C23.8419 21.9174 23.8419 22.0079 24.0232 22.0079C24.5671 22.0985 25.1111 22.1891 25.655 22.1891C26.3802 22.0985 26.9242 21.1022 26.9242 20.0154C26.9242 19.5626 26.9242 19.2003 26.6522 18.838C26.1989 17.7512 24.7485 16.8455 22.3008 16.3926C20.3064 16.0304 18.4933 15.9398 17.4055 15.9398C18.1307 15.5775 20.4877 14.4001 24.1139 13.7661C27.74 12.7699 34.5391 12.951 37.6214 17.7512C38.1653 18.3852 38.4372 19.1097 38.4372 19.9248C38.4372 20.74 38.1653 21.5551 37.6214 22.2797C37.6214 22.2797 37.6214 22.4608 37.6214 22.5514C37.6214 22.5514 37.6214 22.7325 37.8027 22.7325L38.1653 22.7325C38.7999 23.1853 39.8877 24.0005 41.4288 24.3627C42.3354 24.6345 43.3326 24.3627 44.2391 23.7288C45.055 23.0948 45.5989 22.2797 45.5989 21.6457C45.5989 21.374 45.5989 21.1928 45.4176 21.0117C44.8737 20.1965 44.3298 19.8343 43.8765 19.9248C43.3326 20.0154 43.0606 20.8305 42.97 21.4645L42.97 21.6457C42.8793 21.5551 42.6073 21.1928 42.426 20.5588C42.426 20.5588 42.426 20.3777 42.426 20.106C42.426 19.472 42.7886 18.6569 43.6045 18.2946C43.6045 18.2946 43.6952 18.2946 43.7858 18.2946C43.7858 18.2946 43.8765 18.2946 43.9671 18.2946C43.9671 18.2946 44.1485 18.2946 44.1485 18.1135L44.1485 17.9323C44.1485 17.9323 44.1485 17.8417 43.9671 17.7512C43.9671 17.7512 43.8765 17.6606 43.8765 17.57C43.7858 17.2983 43.6952 17.1172 43.6952 16.8455C43.6952 16.1209 44.1485 15.5775 44.3298 15.4869C44.5111 15.3058 44.6924 15.2152 44.6924 15.2152C44.6924 15.2152 44.6924 15.2152 44.783 15.2152C45.4176 14.9435 45.7802 14.8529 45.9615 14.8529C45.9615 14.8529 45.9615 15.0341 45.8709 15.0341C45.5989 15.3964 45.327 15.9398 45.327 16.3021C45.327 16.4832 45.327 16.6643 45.5989 16.8455C45.8709 17.1172 46.4148 17.1172 47.3214 17.0266C48.0466 17.0266 48.4999 16.1209 48.4999 14.9435C48.4999 13.8567 48.0466 12.4981 46.9587 11.8642C45.6896 11.049 44.3298 10.7773 43.5139 10.6867C43.5139 10.6867 43.5139 10.5056 43.3326 10.415C43.3326 10.415 43.0606 10.415 42.9699 10.415C42.9699 10.415 42.8793 10.5056 42.8793 10.5962C42.8793 10.5962 42.8793 10.5962 42.8793 10.6867C42.6073 12.1359 41.5195 13.6755 39.6157 13.8567C34.0858 14.9435 29.0999 10.3245 27.2868 7.06396C25.2017 4.16573 24.2952 1.62979 24.0232 0.814662C24.8391 1.53922 26.1083 2.80719 27.8307 3.98459C29.9157 5.34314 31.5475 5.70542 32.6354 5.25257C33.8139 4.70915 34.5391 3.53175 34.5391 2.8072C34.5391 2.53549 34.5391 2.26378 34.2671 2.08264C33.8139 1.72036 33.4513 1.35808 32.998 1.08637C32.998 1.08637 32.9073 1.08637 32.8167 1.08637C31.9101 1.26751 31.0942 1.08637 30.2784 0.814662C30.2784 0.814662 30.0971 0.814662 30.0064 0.814662C29.4625 1.26751 29.1905 1.99206 29.0092 2.53548C28.9185 2.26377 28.7372 1.72036 28.6466 0.905234C28.6466 0.633525 28.6466 0.361815 28.9185 0.0901095L28.3746 0.0901096C28.3746 0.0901096 28.1027 0.633525 28.1027 0.905234L28.1027 0.995799C28.284 2.53548 28.5559 2.98833 28.7372 3.16947C28.7372 3.35062 28.9185 3.35061 29.0092 3.35061C29.1905 3.35061 29.2812 3.16947 29.3718 2.89776C29.4625 2.53548 29.7344 1.81092 30.0971 1.35808C30.9129 1.72035 31.8195 1.81093 32.6354 1.62979C32.998 1.9015 33.3606 2.17321 33.7232 2.44492C34.0858 2.89776 33.4513 4.34687 32.2728 4.89029C31.2756 5.25257 29.8251 4.89029 27.9214 3.62231C26.0176 2.35434 24.6578 1.08637 23.9326 0.361815C23.7513 0.271243 23.6606 0.0901059 23.5699 -0.000462589L22.8447 -0.000462557C22.8447 -0.000462557 22.8447 -0.000462557 22.8447 0.0901098C22.7541 0.0901098 22.6634 0.361812 22.4821 0.633521C22.1195 1.08637 21.2129 1.81093 20.0344 2.08264C18.4933 2.53549 16.4989 1.53922 14.5045 0.542957C14.1419 0.36182 13.8699 0.271247 13.5073 0.0901102C13.326 0.0901102 13.2354 -0.000465952 13.1447 -0.0910345L12.1475 -0.0910344L12.1475 -0.00046209L12.3288 -0.000462097C12.3288 -0.000462097 12.9634 0.36182 13.326 0.542957C13.6886 0.724098 13.9606 0.814659 14.3232 0.995799C16.4083 1.99206 18.4933 3.0789 20.2157 2.53548C21.3942 2.26377 22.2101 1.53922 22.9354 0.905234C22.9354 0.905234 22.9354 0.814662 22.9354 0.724093C23.298 1.53922 24.0232 3.89403 24.0232 5.79599C24.0232 7.69795 23.1167 8.33194 22.9354 8.42251C22.6634 8.33194 21.8475 7.69795 21.8475 5.79599C21.8475 4.70916 22.1195 3.53175 22.3008 2.71662C22.3008 2.62606 22.3008 2.53549 22.2101 2.44492L21.9382 2.44492C21.5756 2.89777 21.1223 3.16947 20.5784 3.53175C18.6746 4.61859 16.0456 4.25631 12.4195 2.53548C10.7877 1.72036 9.51854 0.995803 8.52135 0.452385C8.52135 0.452385 8.52135 0.452385 8.43069 0.452385C7.88677 0.452385 7.4335 0.271251 7.25219 0.180679C7.25219 0.180679 7.25219 0.180679 7.34284 0.0901105L6.70826 0.0901105C6.70826 0.0901105 6.70826 0.180675 6.70826 0.271244C6.70826 0.633522 7.61481 0.905231 8.43069 0.9958C9.42789 1.53921 10.697 2.26378 12.3288 3.0789C16.1363 4.8903 18.9466 5.25257 21.0316 4.07516C21.3036 3.89403 21.5756 3.71289 21.8475 3.53175C21.6662 4.25631 21.5756 5.162 21.5756 5.97713C21.5756 8.51307 22.9354 9.14706 23.2073 9.14706C23.4793 9.14706 24.8391 8.51307 24.8391 5.97713C24.8391 5.34314 24.8391 4.70915 24.6578 4.07516C25.1111 5.07143 25.8363 6.24883 26.7428 7.42624C28.6466 10.7773 33.8139 15.5775 39.6157 14.4907C41.6101 14.3095 42.8793 12.6793 43.2419 11.1396C43.2419 11.1396 43.3326 11.1396 43.4232 11.1396C44.1485 11.2302 45.4176 11.4113 46.6868 12.2264C47.684 12.7698 48.0466 13.9473 48.0466 14.8529C48.0466 15.7586 47.7746 16.3926 47.3214 16.4832C46.4148 16.6643 46.1428 16.4832 46.0522 16.4832C46.0522 16.4832 46.0522 16.4832 46.0522 16.3021C46.0522 16.0304 46.3242 15.5775 46.5055 15.2152C46.6868 14.8529 46.7774 14.7624 46.7774 14.5812L46.7774 14.4001C46.7774 14.4001 46.7774 14.4001 46.5961 14.4001C46.3242 14.3095 45.7802 14.4001 44.8737 14.7624C44.6017 14.7624 44.3298 15.0341 44.2391 15.1247C43.5139 15.8492 43.2419 16.936 43.6952 17.8417C43.6952 17.8417 43.6952 17.8417 43.6952 17.9323C42.6073 18.3852 42.1541 19.472 42.1541 20.1966C42.1541 20.3777 42.1541 20.74 42.3354 20.9211C42.7886 22.0079 43.1513 22.2797 43.3326 22.3702C43.3326 22.3702 43.5139 22.3702 43.6045 22.3702C43.8765 22.3702 43.8765 22.0985 43.9671 21.6457C44.0578 21.2834 44.2391 20.5588 44.5111 20.4683C44.5111 20.4683 44.8737 20.4683 45.5083 21.374C45.8709 21.7362 45.2363 22.7325 44.4204 23.3665C43.6045 23.9099 42.7886 24.1816 42.0634 23.9099C40.6129 23.6382 39.6157 22.8231 38.9812 22.3702C38.9812 22.3702 38.9812 22.3702 38.7999 22.2796C39.2531 21.5551 39.5251 20.74 39.5251 19.8343C39.5251 18.9286 39.1625 18.0229 38.6186 17.3889C35.355 12.4981 28.284 12.2264 24.5671 13.2227C23.026 13.4944 21.6662 13.8567 20.5784 14.219C21.1223 13.8567 21.6662 13.4038 22.1195 12.951C23.2073 11.8642 23.3886 10.9585 23.3886 10.3245C23.3886 9.96219 23.3886 9.69048 23.2073 9.50934C23.1167 9.41877 21.6662 8.87535 19.8531 10.5962C19.3092 11.1396 18.7653 11.8642 18.312 12.4981C18.312 12.1359 18.312 11.8642 18.1307 11.5019C17.1335 8.1508 12.7821 6.61111 11.3316 6.0677C9.6092 5.52428 8.15873 5.07143 7.07088 4.79972C6.34565 4.25631 5.71107 3.9846 5.43911 4.07516C5.43911 4.07516 5.2578 4.25631 5.2578 4.34688L5.2578 4.52801L5.07649 4.52801C4.98583 4.52801 4.89518 4.70915 4.89518 4.79972C4.89518 5.07143 5.07649 5.61485 5.71107 6.3394C5.98303 7.42624 6.4363 8.87535 6.98023 10.5962C8.34004 14.5812 10.1531 16.7549 12.4195 17.3889C12.7821 17.3889 13.0541 17.57 13.4167 17.57C12.7821 18.0229 12.0569 18.4757 11.5129 19.0192C10.4251 20.106 10.2438 21.0117 10.2438 21.6457C10.2438 22.0079 10.2438 22.2797 10.4251 22.3702C10.6064 22.4608 12.0569 23.0042 13.7793 21.2834C14.2326 20.8305 14.5952 20.2871 15.0485 19.7437C14.6858 20.8305 14.3232 22.0985 14.0513 23.6382C13.6886 24.8156 13.598 26.1741 13.598 27.6233C13.598 29.7064 14.0513 34.9594 18.1307 37.6765C19.6718 39.035 21.7569 38.7633 23.026 37.8576C23.026 37.8576 23.026 37.9482 23.2073 38.0388C23.6606 38.6727 24.3858 39.669 24.6578 41.0276C24.6578 41.2087 24.6578 41.3898 24.6578 41.6615C24.6578 42.8389 23.6606 44.0163 22.8447 44.4692C22.4821 44.6503 22.2101 44.6503 22.0288 44.4692C21.2129 43.9258 21.1223 43.6541 21.1223 43.4729C21.1223 43.2012 21.8475 43.0201 22.2101 42.9295C22.6634 42.8389 22.9354 42.7484 22.9354 42.4767C22.9354 42.4767 22.9354 42.3861 22.9354 42.2955C22.8447 42.0238 22.3914 41.7521 21.4849 41.3898C21.2129 41.2087 20.7597 41.1181 20.3064 41.2993C19.4905 41.4804 18.8559 42.0238 18.4933 42.7484C17.4055 42.2955 16.4989 42.7484 16.1363 43.0201C15.683 43.2918 15.4111 43.6541 15.4111 44.0163C14.8671 45.1938 15.0485 45.556 15.0485 45.7372C15.0485 45.7372 15.0485 45.9183 15.1391 45.9183C15.3204 46.0089 15.5017 45.9183 15.955 45.6466C16.227 45.4655 16.8615 45.1032 17.1335 45.1938C17.3148 45.2843 17.3148 45.7372 17.2242 46.5523C17.2242 46.824 16.8615 47.0957 16.227 47.1863C15.2298 47.3674 13.5073 47.1863 12.8728 45.9183C12.0569 44.7409 11.8756 43.3824 11.7849 42.6578C11.7849 42.6578 11.7849 42.5672 11.7849 42.4767C13.326 42.1144 14.9578 40.937 15.1391 38.8539C15.2298 38.3105 15.3204 37.6765 15.3204 37.0425C15.3204 31.9706 11.0597 27.6233 8.15873 25.993C6.88957 25.0873 5.71107 24.3628 4.62322 23.8193C5.2578 23.9099 5.98303 24.0005 6.61761 24.0005C9.15593 24.0005 9.79051 22.5514 9.79051 22.3702C9.79051 22.1891 9.15593 20.74 6.61761 20.74C5.80172 20.74 4.89518 20.8305 4.16995 21.0117C4.35126 20.74 4.62322 20.4683 4.71387 20.1966C5.89238 18.204 5.62041 15.3058 3.71668 11.5019C2.90079 9.87162 2.17555 8.60365 1.63163 7.69795C1.63163 6.88283 1.26901 5.97713 0.906394 5.97713C0.906394 5.97713 0.906394 5.97713 0.81574 5.97713C0.725086 5.97713 0.81574 5.97713 0.725086 5.97713L0.725086 6.61112C0.725086 6.61112 0.725086 6.61112 0.81574 6.52055C0.906394 6.70169 1.0877 7.15454 1.0877 7.69795C1.0877 7.69795 1.0877 7.69795 1.0877 7.78852C1.63163 8.69421 2.35686 9.96219 3.17275 11.683C4.98583 15.3058 5.2578 18.0229 4.16995 19.9248C3.89798 20.4683 3.53537 20.9211 3.0821 21.2834C3.0821 21.2834 2.99144 21.4645 3.0821 21.5551C3.0821 21.5551 3.2634 21.7362 3.35406 21.6457C4.16995 21.4645 5.34845 21.1928 6.4363 21.1928C8.43069 21.1928 8.97462 22.0985 9.06528 22.2797C8.97462 22.4608 8.34004 23.3665 6.4363 23.3665C4.53256 23.3665 2.17555 22.6419 1.35967 22.2797C1.35967 22.2797 1.35967 22.2797 1.54097 22.2797C1.99425 21.8268 2.90079 20.9211 3.17275 19.6531C3.17275 19.3814 3.2634 19.0191 3.2634 18.7474C3.2634 17.2078 2.35686 15.3964 1.54097 13.6755C1.45032 13.4038 1.26901 13.1321 1.0877 12.8604C0.906394 12.4981 0.81574 12.2264 0.634432 11.8642L0.634432 11.7736L0.453123 11.7736L0.453123 12.8604C0.453123 12.8604 0.543778 13.1321 0.634432 13.2227C0.725086 13.4944 0.906395 13.7661 0.997049 14.0378C1.99425 16.0304 2.99144 18.1135 2.62882 19.7437C2.35686 20.9211 1.54097 21.7362 1.17836 22.0985C0.906395 22.1891 0.725087 22.3702 0.634432 22.4608L0.543778 22.4608L0.543778 23.1854C0.543778 23.2759 0.725087 23.3665 0.906395 23.5476C1.63163 24.2722 2.99144 25.6307 4.16995 27.5327C5.43911 29.4346 5.80172 30.8838 5.43911 31.88C5.07649 32.7857 4.2606 33.3291 3.71668 33.4197C3.44471 33.4197 3.17275 33.4197 3.0821 33.4197C2.71948 33.0574 2.44752 32.6952 2.17555 32.3329C2.35686 31.4272 2.17555 30.6121 1.90359 29.7969C2.35686 29.3441 2.99144 29.1629 3.44471 28.9818C3.71668 28.9818 3.89798 28.8007 3.89798 28.6195C3.89798 28.6195 3.89798 28.4384 3.71668 28.3478C3.53537 28.2572 2.99144 27.895 1.54097 27.7138C1.26901 27.7138 0.906395 27.7138 0.543778 27.9855L0.543778 28.529C0.906395 28.3478 1.17836 28.2572 1.45032 28.2572L0.906395 28.3478ZM17.0428 16.4832C18.04 16.4832 19.9438 16.4832 22.1195 16.936C24.2952 17.3889 25.655 18.1134 26.1083 19.1097C26.1989 19.472 26.2896 19.8343 26.2896 20.1966C26.2896 21.1023 25.927 21.8268 25.4737 21.9174C24.9298 21.9174 24.4765 21.8268 24.0232 21.7362C23.4793 21.0117 22.8447 20.4683 22.0288 20.1966C22.0288 19.5626 22.3914 18.9286 22.5728 18.5663C22.6634 18.3852 22.7541 18.2946 22.7541 18.1135C22.7541 18.1135 22.7541 17.9323 22.6634 17.8417C22.6634 17.8417 22.4821 17.8417 22.3914 17.8417C22.2101 17.8417 21.5756 18.0229 20.3971 19.0192C20.1251 19.2003 19.9438 19.5626 19.8531 19.9248C19.4905 20.0154 19.1279 20.1966 18.9466 20.4683C18.04 21.6457 17.8587 22.2797 17.8587 22.4608C17.8587 22.5514 17.8587 22.7325 17.8587 22.8231C18.04 22.8231 18.1307 22.8231 18.4027 22.7325C18.7653 22.5514 19.3999 22.1891 20.0344 22.1891C20.3971 22.9136 20.941 23.6382 21.5756 24.1816C21.5756 24.6345 21.7569 25.0873 21.7569 25.5402C21.7569 25.7213 21.5756 25.9024 21.3036 26.0836C20.8503 26.3553 19.8531 26.5364 19.0372 26.1741C17.7681 25.6307 17.1335 23.7288 16.8615 22.2797C16.4083 20.106 16.4083 18.1135 16.4083 17.1172C16.4083 16.8455 16.4083 16.6643 16.4083 16.4832C16.5896 16.4832 16.7709 16.4832 17.0428 16.4832ZM16.0457 15.9398C16.0457 15.9398 16.0457 15.9398 15.955 16.0304C15.955 16.0304 15.955 16.0303 15.955 16.1209C15.955 16.1209 15.955 16.1209 15.955 16.2115C15.8643 16.2115 15.683 16.2115 15.3204 16.3926C14.6858 16.3926 13.598 16.3926 12.5101 15.7586C11.1503 14.9435 10.4251 12.8604 9.69986 10.7773C9.51855 10.415 9.42789 10.0528 9.33724 9.69048C9.33724 9.41877 9.15593 9.23763 9.06527 9.05649C9.24658 9.05649 9.51855 9.23763 9.69986 9.3282C10.0625 9.41877 10.3344 9.59991 10.6971 9.69048C12.7821 10.415 14.8671 11.1396 15.683 12.5887C16.227 13.4944 16.3176 14.4907 16.3176 15.2152C16.3176 15.2152 16.1363 15.6681 16.1363 15.8492L16.0457 15.8492L16.0457 15.9398ZM12.6914 21.1928C11.3316 22.5514 10.2438 22.3702 10.0625 22.2797C10.0625 22.2797 10.0625 22.0985 10.0625 21.9174C10.0625 21.374 10.2438 20.5588 11.1503 19.6531C11.8756 18.9286 12.9634 18.204 13.6886 17.7512C13.7793 17.7512 13.8699 17.57 13.7793 17.4795C13.7793 17.3889 13.598 17.2983 13.5073 17.2983C12.9634 17.2983 12.4195 17.2983 11.8756 17.1172C9.79051 16.4832 8.06808 14.4001 6.79892 10.5962C6.25499 8.87535 5.80172 7.42624 5.52976 6.3394C5.52976 6.3394 5.52976 6.3394 5.52976 6.24883C5.16714 5.79599 4.98583 5.43371 4.89518 5.25257C4.89518 5.25257 4.89518 5.25257 5.07649 5.25257L5.2578 5.25257C5.2578 5.25257 5.2578 5.16201 5.2578 5.07144C5.2578 5.07144 5.2578 4.98086 5.2578 4.89029C5.52976 4.89029 5.80172 5.162 6.25499 5.52428C6.25499 5.52428 6.25499 5.52428 6.34565 5.52428C7.4335 5.79599 8.88397 6.24884 10.6064 6.79225C11.9662 7.33567 16.227 8.78479 17.1335 11.8642C17.3148 12.4076 17.3148 13.0416 17.3148 13.585C17.3148 13.585 17.3148 13.7661 17.4961 13.8567C17.5868 13.8567 17.7681 13.8567 17.7681 13.7661C18.2214 13.0416 18.8559 12.0453 19.6718 11.2302C21.0316 9.87162 22.1195 10.0528 22.3008 10.1433C22.3008 10.415 22.4821 11.5019 21.2129 12.7698C19.8531 14.1284 17.7681 15.2152 16.8615 15.5775C16.8615 15.5775 16.8615 15.5775 16.8615 15.3964L16.8615 15.3058C16.8615 14.4907 16.8615 13.4038 16.1363 12.4076C15.2298 10.8679 13.0541 10.0528 10.8784 9.3282C10.5157 9.23763 10.2438 9.14706 9.88116 8.96592C9.51855 8.87535 9.15593 8.69421 8.79331 8.51307C8.79331 8.51307 8.52135 8.51307 8.43069 8.51307C8.43069 8.51307 8.43069 8.69422 8.43069 8.78479L8.43069 8.87536C8.43069 8.87536 8.79331 9.50935 8.88397 9.96219C8.97462 10.3245 9.15593 10.6867 9.24658 10.9585C9.97182 13.1321 10.6971 15.3058 12.2382 16.2115C13.326 16.8455 14.4139 16.936 15.3204 16.936C15.3204 16.936 15.4111 16.936 15.5017 16.936C15.1391 17.8417 13.9606 20.0154 12.6914 21.2834L12.6914 21.1928Z" fill="#CA943A"/>
<path d="M35.7168 1.08618C35.7168 1.08618 35.7168 1.26732 35.8074 1.44846C35.8074 1.44846 35.8074 1.53904 35.8074 1.6296C35.8074 1.6296 35.8074 1.72017 35.8981 1.72017C36.6233 2.08245 37.5298 2.5353 38.3457 2.98814C41.0654 3.7127 44.2383 3.7127 46.8672 3.16929C49.8588 2.62587 51.6719 2.53529 52.6691 2.53529C52.6691 2.53529 52.7597 2.53529 52.8504 2.53529C53.9383 1.44846 55.1168 0.633338 56.114 0.0899205C56.114 0.0899205 56.114 0.0899184 56.114 -0.000651107L55.2981 -0.000651071C54.3915 0.542766 53.485 1.17676 52.5784 2.08245C51.5812 2.08245 49.7682 2.08245 46.7766 2.71644C44.2383 3.25985 41.156 3.25985 38.4364 2.53529C37.6205 2.08245 36.8046 1.6296 36.0794 1.26733C36.0794 1.08619 36.0794 0.995616 35.8981 0.814477C35.7168 0.542768 35.5354 0.271059 35.2635 -0.000650195L34.6289 -0.000650167C34.9915 0.361628 35.2635 0.633334 35.4448 0.995612L35.7168 1.08618Z" fill="#CA943A"/>
<path d="M37.3471 29.7073C37.9817 30.613 38.5256 31.4281 38.9789 32.3338C38.9789 32.4244 39.1602 32.515 39.2508 32.4244C39.3415 32.4244 39.4321 32.3338 39.4321 32.2433L39.4321 31.4281C39.6135 30.3413 39.6135 29.345 39.6135 28.2582C39.6135 27.3525 39.6135 26.6279 39.4321 25.994C39.1602 24.092 37.891 23.1863 37.4378 22.824C37.3471 22.824 37.1658 22.824 37.0751 22.824C36.7125 23.0957 36.1686 23.458 35.534 23.458C34.5368 23.6392 33.5396 23.458 32.8144 22.9146C32.4518 22.6429 32.0891 22.2806 32.0891 21.7372C32.2705 20.9221 32.4518 20.2881 32.8144 19.9258C32.8144 20.2881 32.8144 20.8315 32.9957 21.3749C32.9957 21.4655 32.9957 21.6466 33.2677 21.8278C33.7209 22.0995 34.8088 22.0995 35.534 21.6466C36.4406 21.1032 36.5312 20.1069 35.7153 19.0201C33.5396 15.669 28.2817 14.5822 24.1116 14.9445C23.5677 14.9445 23.0237 14.9445 22.3891 14.9445C22.2078 14.9445 22.1172 15.035 22.1172 15.2162C22.1172 15.3068 22.1172 15.4879 22.2985 15.4879L22.4798 15.4879C24.2022 15.669 26.5592 15.8502 28.1004 18.0238C28.463 18.6578 28.7349 19.5635 28.7349 20.3786C28.7349 21.6466 28.2817 22.7335 27.5564 23.5486C27.5564 23.5486 27.5564 23.7297 27.5564 23.8203C27.5564 23.8203 27.6471 24.0014 27.7377 24.0014C28.3723 24.0014 29.0069 24.0014 29.7321 24.092C32.2705 24.8166 35.6247 26.9902 37.2564 29.7073L37.3471 29.7073ZM29.9134 23.6391C29.3695 23.6391 28.8256 23.6391 28.3723 23.6391C29.0069 22.824 29.3695 21.7372 29.3695 20.5598C29.3695 19.5635 29.0976 18.6578 28.6443 17.9333C27.6471 16.4842 26.3779 15.8502 25.1088 15.4879C29.0069 15.3068 33.449 16.3936 35.3527 19.3824C35.7153 19.8352 35.806 20.1975 35.806 20.4692C35.806 21.0126 35.3527 21.2843 34.8994 21.4655C34.1742 21.7372 33.5396 21.5561 33.449 21.4655C33.3583 20.9221 33.3583 20.3786 33.2677 20.0164C33.2677 19.6541 33.2677 19.473 33.0863 19.3824C33.0863 19.3824 32.905 19.3824 32.8144 19.3824C32.8144 19.3824 32.8144 19.3824 32.7237 19.4729C32.1798 19.8352 31.7265 20.6504 31.5452 21.9183C31.5452 22.5523 31.9078 23.0957 32.4518 23.5486C33.2677 24.1826 34.4462 24.4543 35.534 24.1826C36.0779 24.1826 36.6219 24.0014 37.2564 23.5486C37.891 24.0014 38.7069 24.8166 38.8882 26.2657C39.0695 26.8997 39.0695 27.6242 39.0695 28.4393C39.0695 29.4356 39.0695 30.4319 38.8882 31.5187C38.5256 30.8847 38.0723 30.2507 37.6191 29.6167C35.8966 26.8091 32.3611 24.5448 29.7321 23.8203L29.9134 23.6391Z" fill="#CA943A"/>
<path d="M2.26768 68.9234C4.35273 67.4743 5.44058 65.3912 5.44058 62.7646C5.44058 60.1381 4.35273 57.2399 3.6275 55.7002C4.26208 56.5153 5.07796 57.7833 6.07516 59.4136C6.70974 60.3193 7.16301 61.4967 7.16301 63.0364C7.16301 65.844 5.8032 68.9234 3.99011 70.2819C2.72096 71.5499 1.6331 72.7273 0.726562 73.9047L0.726562 74.0858C0.907871 74.6293 0.907871 75.1727 0.907871 75.6255L0.907871 75.8067C0.907871 75.8067 0.907871 75.9878 1.08918 76.0784C1.08918 76.0784 1.27049 76.0784 1.36114 76.0784C2.44899 74.9915 3.99011 74.3575 5.16862 74.267C5.44058 74.267 5.62189 74.267 5.8032 74.3575L5.98451 74.3575C5.98451 74.3575 6.16582 74.3575 6.25647 74.267C6.25647 74.267 6.25647 74.0858 6.25647 73.9953C5.62189 73.4519 5.25927 72.8179 5.25927 72.2744L5.25927 72.1839C5.25927 70.5536 6.61909 70.1008 7.07236 70.0102C7.70694 70.0102 8.06956 70.1913 8.34152 70.2819C6.9817 71.1876 6.9817 71.6405 6.9817 71.8216C6.9817 72.4556 7.9789 72.5462 8.34152 72.5462C8.34152 72.5462 8.34152 72.5462 8.43217 72.5462C9.88264 71.8216 10.6079 70.1008 10.6079 67.3837C10.6079 65.21 10.1546 63.0364 9.88264 61.7684C9.88264 61.6778 9.88264 61.4967 9.88264 61.4061C9.88264 61.4061 9.97329 61.4061 10.0639 61.4967C10.7892 61.9495 12.0583 62.9458 14.0527 63.1269C15.8658 63.3986 18.2228 63.1269 19.5826 62.0401C20.2172 61.4967 20.5798 60.8627 20.6705 60.0476C20.6705 59.0513 20.4892 58.5984 20.2172 58.5079C19.764 58.4173 19.22 59.2324 18.5854 60.4098C18.5854 60.4098 18.5854 60.5004 18.4948 60.591C18.4948 60.4098 18.3135 59.957 18.2228 59.323C18.2228 59.323 18.2228 59.2324 18.2228 59.1419C18.2228 58.5079 18.4041 57.3305 19.764 56.7871C20.4892 56.5153 21.1238 56.7871 21.4864 57.0588C22.3023 57.6022 22.9368 58.7796 22.9368 59.7758C22.9368 59.957 22.9368 60.1381 22.9368 60.3193C22.9368 60.3193 22.9368 60.3193 22.9368 60.4098C22.9368 60.4098 22.9368 60.5004 22.9368 60.591C23.6621 61.8589 24.0247 63.2175 24.0247 64.6666C24.0247 65.3912 24.1154 66.1157 24.206 66.9308C24.3873 70.1913 24.5686 73.633 27.1069 74.4481C27.8322 74.6293 28.2854 74.4481 28.4668 74.1764C28.8294 73.9047 29.0107 73.3613 29.0107 72.8179C29.0107 72.0933 28.6481 71.4593 28.1948 71.1876C27.6509 70.8253 27.2883 70.5536 27.1069 70.3725C27.3789 70.3725 27.9228 70.3725 28.7387 70.3725C28.7387 70.3725 28.8294 70.3725 28.92 70.4631C28.92 70.4631 29.192 70.4631 29.2826 70.4631C29.2826 70.4631 29.3733 70.4631 29.464 70.2819C29.464 70.1913 29.464 70.0102 29.5546 69.9196C30.0985 69.2857 30.4612 68.9234 30.6425 68.7422C30.6425 69.0139 30.6425 69.5574 30.4611 70.1008C30.4611 70.1913 30.4611 70.3725 30.4611 70.4631C30.4611 71.2782 31.0957 72.0933 31.9116 72.365C32.5462 72.5462 33.1808 72.2744 33.5434 71.5499C33.8154 71.097 33.906 70.6442 33.906 70.1008C33.906 68.1082 32.0929 66.1157 30.2798 64.2138C29.7359 63.6703 29.2826 63.1269 28.7387 62.4929C27.8322 61.4967 27.1069 60.3193 26.7443 58.8702C26.7443 58.8702 26.7443 58.8702 26.7443 58.7796C25.8378 58.2362 25.2939 57.0588 25.2939 55.9719C25.2939 55.0662 25.7471 54.3417 26.3817 53.9794C27.9228 53.3454 28.92 54.3417 29.192 54.704C29.6453 55.2474 29.8266 55.6096 29.9172 55.7908C29.9172 55.7908 29.9172 55.7908 29.7359 55.7908C28.4668 55.3379 27.6509 55.1568 27.3789 55.4285C27.2883 55.4285 27.1976 55.6096 27.1976 55.7908C27.1976 55.9719 27.1976 56.3342 28.0135 57.0588C28.6481 57.6022 29.3733 57.7833 30.1892 57.6927C32.0023 57.5116 33.8154 55.8814 34.9032 54.5228C36.1724 52.9831 36.4443 51.3529 36.6256 50.5378C36.6256 50.5378 36.6256 50.4472 36.6256 50.3566C36.6256 50.3566 36.6256 50.5378 36.8069 50.5378C38.0761 52.4397 41.7929 58.4173 45.5098 57.1493C45.5098 57.1493 45.5098 57.1493 45.6004 57.1493C46.235 56.4248 46.3256 55.8814 45.963 55.6096C45.6911 55.3379 44.9658 55.3379 43.9686 55.6096C43.9686 55.4285 44.2406 55.0662 44.6032 54.6134C44.9658 54.2511 46.235 53.6171 47.4135 54.7945C47.8668 55.1568 48.1387 55.9719 48.0481 56.7871C48.0481 56.7871 48.0481 56.9682 48.2294 57.0588C48.32 57.0588 48.5013 57.0588 48.5013 56.9682L48.5013 56.7871C48.5013 56.7871 48.864 56.4248 48.9546 56.2436C49.8612 55.5191 51.4023 54.704 52.9434 54.7945C53.0341 54.7945 53.1247 54.7945 53.2154 54.6134C53.2154 54.5228 53.2154 54.4322 53.2154 54.3417C52.8527 53.9794 52.4901 53.5265 52.1275 52.9831C52.1275 52.9831 52.0369 52.8926 51.9462 52.8926C50.4957 52.7114 48.864 52.6209 47.0509 52.6209C45.2378 52.8926 42.6995 52.0774 40.7051 50.6283C39.0733 49.3604 38.0761 47.9112 37.8948 46.4621C37.4415 44.6507 37.1696 43.2016 36.9883 42.1148C38.0761 44.9224 40.977 51.7152 47.2322 50.5378C48.5013 50.5378 49.7705 50.7189 50.8584 50.9906C50.8584 50.9906 51.0397 50.9906 51.1303 50.9906C51.1303 50.9906 51.1303 50.8095 51.1303 50.7189C50.8584 49.6321 50.677 48.4547 50.677 47.0961C50.7677 46.5527 50.8584 46.0998 50.8584 45.647C50.8584 40.394 44.7845 37.7675 42.3369 36.7712C43.4247 36.9523 44.8752 37.224 46.6883 37.6769C49.9518 38.1297 52.9434 42.6582 52.9434 46.0093C52.9434 46.281 52.9434 46.5527 52.9434 46.8244C52.9434 48.6358 53.0341 50.266 53.306 51.7152C53.306 51.7152 53.306 51.8963 53.3967 51.8963C53.9406 52.2586 54.3939 52.6209 54.7565 52.9831C54.7565 52.9831 54.9378 53.0737 55.0284 52.9831C55.0284 52.9831 55.2098 52.8926 55.2098 52.7114C55.2098 51.1717 55.8443 49.5415 56.5696 48.8169C56.7509 48.6358 56.9322 48.5452 57.1135 48.4547L57.2948 48.4547C57.2948 48.4547 57.4761 48.1829 57.2948 48.0924C57.2948 48.0018 57.1135 47.9112 57.0228 47.9112C56.2069 47.9112 55.3911 47.7301 55.0284 47.2773C54.5752 46.8244 54.3939 46.281 54.3939 45.7376C54.3939 45.1036 54.6658 44.6507 54.8471 44.4696C55.3004 44.1073 55.663 43.8356 55.935 43.745C55.935 44.1073 55.8443 44.4696 55.8443 44.9224C55.8443 45.4659 55.935 45.8281 56.2976 45.9187C56.5696 46.0998 57.0228 45.9187 57.5668 45.3753C57.5668 45.3753 57.5668 45.3753 57.5668 45.2847C57.6574 44.9224 57.7481 44.5602 57.7481 44.1979C57.7481 40.9374 52.8527 37.7674 51.0397 36.59C51.0397 36.59 50.8584 36.4995 50.7677 36.4089C50.7677 36.4089 50.8584 36.4089 50.949 36.4089C51.7649 36.2278 53.3967 35.9561 54.9378 34.6881C56.4789 33.5107 58.1107 31.5182 58.1107 29.6162C58.1107 28.8916 57.9294 28.3482 57.4761 27.8048C56.8415 27.1708 56.3883 26.8991 56.1163 27.0802C55.935 27.0802 55.8443 27.352 55.8443 27.6237C55.8443 28.1671 56.1163 28.9822 56.2976 29.5256C56.2976 29.5256 56.2976 29.6162 56.2976 29.7068C56.1163 29.6162 55.7537 29.435 55.1191 28.9822C54.9378 28.8011 54.2126 28.1671 54.2126 27.1708C54.2126 26.8085 54.2126 26.5368 54.3939 26.1745C54.7565 25.2688 55.5724 25.0877 56.1163 25.0877C57.2948 24.9971 58.564 25.5406 59.1985 26.5368C59.1985 26.5368 59.1985 26.5368 59.2892 26.6274C60.7397 26.9897 61.9182 27.7142 62.9154 28.7105C63.4593 29.1633 64.0032 29.6162 64.5471 30.1596C66.9948 32.3333 69.5331 34.6881 71.9808 33.4201C72.6154 32.9673 72.7967 32.5144 72.7967 32.1521C72.7967 31.6087 72.4341 31.0653 71.9808 30.703C71.5275 30.3407 70.9836 30.2502 70.5303 30.3407C69.8957 30.5219 69.4425 30.5219 69.1705 30.6125C69.3518 30.3407 69.7144 29.9785 70.349 29.4351C70.4397 29.4351 70.5303 29.4351 70.7116 29.3445C70.7116 29.3445 70.8023 29.3445 70.8929 29.1633L70.8929 28.9822L70.8929 28.8916C70.8929 28.8916 70.7116 28.7105 70.7116 28.6199C70.7116 27.8954 70.7116 27.352 70.7116 26.9897C70.8929 27.2614 71.2556 27.6237 71.5275 28.0765C71.8901 28.8011 72.8873 29.0728 73.7032 28.8916C74.4284 28.7105 74.7911 28.1671 74.7911 27.5331C74.7911 27.3519 74.7911 27.1708 74.7911 26.9897C73.9752 24.4537 70.621 24.2726 67.3574 24.0914C66.6322 24.0914 65.8163 24.0915 65.0911 23.9103C63.7312 23.9103 62.3714 23.548 61.0116 22.8235C61.0116 22.8235 60.921 22.8235 60.8303 22.8235L60.7397 22.8235C59.8331 23.0046 58.8359 22.7329 58.02 22.0989C57.2041 21.4649 56.9322 20.5592 57.2041 19.7441C57.8387 18.1139 59.3798 18.2044 59.7425 18.2044C60.4677 18.2044 60.8303 18.3856 61.0116 18.4761C61.0116 18.4761 60.921 18.4761 60.8303 18.4761C59.5612 19.2007 58.9266 19.563 58.9266 20.0158C58.9266 20.5592 59.7425 20.6498 60.4677 20.6498C62.7341 20.4687 63.5499 17.8421 63.5499 15.4873C63.5499 15.0345 63.5499 14.4911 63.5499 14.0382C63.3686 12.0457 62.4621 10.6872 61.9182 9.96261C61.9182 9.96261 61.9182 9.9626 61.8275 9.87203C61.8275 9.87203 62.0088 9.87203 62.0995 9.87203C64.3658 10.3249 71.1649 11.8646 72.8873 8.42292C72.8873 8.42292 72.8873 8.42292 72.8873 8.33235C72.8873 7.8795 72.7967 7.15494 72.3434 7.06437C71.8901 6.9738 71.3462 7.33609 70.621 8.42292C70.621 8.24178 70.4397 7.8795 70.349 7.24551C70.349 6.7021 70.8929 5.43412 72.5247 5.34356C73.0686 5.34356 73.7939 5.61525 74.3378 6.24924C74.3378 6.24924 74.5191 6.33981 74.6098 6.24924C74.7004 6.24924 74.7911 6.0681 74.7911 5.97754L74.7911 5.7964C74.7911 5.7964 74.7004 5.43412 74.6098 5.16241C74.6098 3.98501 75.2443 2.35476 76.4228 1.35849C76.4228 1.35849 76.5135 1.17735 76.4228 1.08678C76.4228 0.996205 76.2415 0.905652 76.1509 0.905652C75.607 0.905652 75.063 0.905644 74.4284 0.724507L74.2471 0.724507C73.0686 1.6302 71.8901 2.71703 70.5303 3.98501C69.4425 5.52469 67.0855 6.7021 64.6378 6.97381C62.6434 7.24552 60.8303 6.97381 59.6518 5.97754C58.02 5.07184 56.7509 4.16615 55.935 3.53216C58.6546 4.70956 65.5443 7.51722 69.1705 2.17362C70.1677 1.26793 71.0742 0.452801 72.0714 -0.0906174C72.0714 -0.0906174 72.0714 -0.0906174 72.0714 -0.181194L71.3462 -0.181194C70.5303 0.362225 69.7144 0.996213 68.8079 1.90191C65.4537 6.79266 59.1079 4.3473 56.3883 3.16989C57.3855 2.2642 58.1107 1.53962 58.6546 0.996206L58.8359 0.815084C59.5612 0.815084 60.1051 0.815076 60.2864 0.724508C60.2864 0.724508 60.2864 0.633931 60.2864 0.543363C60.2864 0.543363 60.2864 0.543363 60.2864 0.452794C60.2864 0.362226 60.1051 0.181089 59.9238 -4.8364e-05L59.2892 -4.83362e-05C59.4705 0.181089 59.5612 0.27165 59.6518 0.362226C59.4705 0.362226 59.1079 0.362226 58.7453 0.362226L58.564 0.362226L58.292 0.633939C57.6574 1.17736 56.8415 1.99248 55.7537 3.07932C55.7537 3.07932 55.7537 3.26045 55.7537 3.35102C55.7537 3.35102 55.5724 3.35102 55.4817 3.35102L54.7565 4.07557C54.3032 4.52842 53.8499 4.98128 53.3967 5.43413C51.5836 7.15494 49.5892 9.14747 47.2322 10.1437C47.2322 10.1437 47.0509 10.3249 47.0509 10.4154C47.0509 10.506 47.0509 10.5966 47.2322 10.6872C47.2322 10.6872 47.2322 10.6872 47.3228 10.6872C47.3228 10.6872 47.3228 10.6872 47.5041 10.6872C47.5041 10.6872 49.4985 11.3211 51.3116 12.0457L52.3995 12.4985C54.1219 13.3137 56.1163 13.4042 57.2041 12.6797C58.1107 12.1363 58.2013 11.14 57.4761 10.1437C56.4789 8.87576 55.663 8.24178 54.9378 8.33235C54.1219 8.33235 53.6686 9.32862 53.3967 9.96261C53.3967 9.69089 53.2154 9.23804 53.2154 8.42292C53.0341 7.69836 53.8499 6.88324 55.0284 6.61153C56.4789 6.33982 58.4733 6.70209 59.5612 9.05691C59.9238 9.50975 60.1051 10.1437 60.1051 10.8683C60.1051 12.408 59.1079 14.2194 57.3855 14.5816C55.3911 14.9439 53.9406 14.1288 52.5808 13.4948C52.3995 13.4042 52.2182 13.3137 52.0369 13.2231C51.3116 12.7703 50.5864 12.2268 49.7705 11.774L49.4985 11.774C49.4985 11.774 49.4079 11.9551 49.4985 12.0457C49.4985 12.1363 49.6798 12.3174 49.7705 12.4985C49.7705 12.4985 49.7705 12.4985 49.8612 12.5891C50.7677 12.9514 52.6714 14.0382 53.578 15.0345C54.6658 16.2119 54.3032 17.2082 54.3032 17.3893C54.1219 17.3893 53.1247 17.661 51.9462 16.393C51.5836 16.0308 51.3116 15.5779 50.949 15.1251C50.949 15.1251 50.7677 15.0345 50.677 15.0345C50.5864 15.0345 50.4957 15.1251 50.4957 15.3062C50.4957 16.393 50.0425 17.8422 48.1387 18.6573C47.9574 18.6573 47.7761 18.6573 47.6855 18.6573C47.6855 18.6573 47.5041 18.6573 47.4135 18.6573C47.3228 18.6573 47.2322 18.6573 47.2322 18.8384C47.2322 18.8384 47.2322 19.0196 47.2322 19.1101L47.4135 19.2913C47.4135 19.2913 47.5948 19.563 47.6855 19.6535C48.32 21.1932 48.0481 22.6423 47.0509 23.8197C47.0509 23.8197 47.0509 24.0009 47.0509 24.0914C47.0509 24.0914 47.2322 24.2726 47.3228 24.182C47.8668 24.0914 48.4107 24.0009 48.9546 23.9103C50.677 23.9103 51.221 24.6349 51.3116 24.9066C51.221 25.0877 50.677 25.9934 49.1359 26.084C47.7761 26.084 45.6911 25.5406 44.7845 25.1783C44.7845 25.1783 44.6939 25.1783 44.6032 25.1783C44.4219 25.1783 44.2406 25.1783 44.0593 25.2689C43.9686 25.2689 43.878 25.3594 43.878 25.5406C43.878 25.7217 43.878 25.7217 44.0593 25.8123C44.9658 25.9934 45.8724 26.1745 46.6883 26.3557C46.8696 26.3557 47.0509 26.4463 47.3228 26.5368C48.6826 26.9897 50.2238 27.4425 51.4023 29.0728C51.7649 29.6162 51.9462 30.1596 51.9462 30.7936C51.9462 32.605 50.5864 34.3258 48.9546 34.5069C47.2322 35.1409 45.963 34.6881 45.2378 34.1447C44.2406 33.5107 43.606 32.3333 43.606 31.4276C43.606 31.1559 43.606 30.703 44.1499 30.4313C44.6939 29.8879 45.1471 29.6162 45.3284 29.5256C45.1471 29.8879 44.9658 30.4313 44.9658 30.8842C44.9658 31.337 45.1471 31.6993 45.4191 31.971C45.963 32.4238 46.8696 32.5144 48.32 32.3333C49.4079 32.1521 49.9518 31.6087 49.9518 30.7936C49.9518 29.4351 48.32 27.8048 46.3256 27.0802L45.1471 26.5368C43.4247 25.8123 41.8836 25.0877 41.7023 24.9066L41.521 24.9066L41.1583 24.9066C41.1583 24.9066 41.0677 25.0877 41.1583 25.1783C42.1555 27.5331 42.1555 30.3407 42.2462 32.8767C42.2462 33.6013 42.2462 34.2352 42.2462 34.8692L42.2462 35.9561C42.2462 35.9561 42.2462 36.1372 42.4275 36.1372C42.4275 36.1372 42.3369 36.2278 42.3369 36.3183C42.3369 37.9486 42.3369 39.126 42.3369 40.0317L42.3369 40.394C42.3369 40.394 42.3369 40.4845 42.4275 40.5751C42.7901 40.8468 42.9714 41.028 43.0621 41.2091C42.9714 41.2091 42.7901 41.2091 42.6088 41.2091C42.4275 41.2091 42.3369 41.2997 42.3369 41.4808C42.3369 41.7525 42.3369 41.8431 42.3369 41.9336C42.1555 41.8431 41.9742 41.5714 41.7023 41.2997C41.7023 41.2997 41.6116 41.2997 41.521 41.2091L41.249 41.2091C40.3425 41.2091 39.164 41.2091 37.5322 41.2091C37.5322 41.2091 37.3509 41.2091 37.3509 41.2997C37.3509 41.2997 37.1696 41.1185 37.0789 41.1185L35.9911 41.1185C35.3565 41.1185 34.7219 41.1185 34.0873 41.1185C31.549 41.1185 28.6481 41.1185 26.2911 40.1223C26.2911 40.1223 26.1097 40.1223 26.0191 40.1223C26.0191 40.1223 26.0191 40.3034 26.0191 40.394C26.0191 40.394 26.0191 40.394 26.0191 40.4845C26.0191 40.4845 26.0191 40.4845 26.0191 40.5751C26.2004 40.7562 26.835 42.1148 27.4696 43.5639C27.7415 44.1073 27.9228 44.6507 28.1948 45.1942C28.92 47.2773 30.6425 48.9075 32.0929 48.8169C32.5462 48.8169 33.2714 48.5452 33.4527 47.1867C33.634 45.5564 33.4527 44.4696 32.8182 44.0167C32.1836 43.5639 31.1864 43.9262 30.6425 44.0167C30.7331 43.8356 31.0051 43.3828 31.549 42.8393C31.821 42.3865 32.3649 42.2959 33.0901 42.4771C34.4499 42.8393 35.9004 44.2885 35.9004 46.1904C35.9004 46.7338 35.8097 47.2773 35.5378 47.8207C35.4471 48.8169 34.5406 49.8132 33.3621 50.3566C32.1836 50.9 31.0051 50.8095 30.0079 50.1755C28.3761 48.9981 27.8322 47.4584 27.3789 46.0998C27.3789 45.9187 27.2883 45.7376 27.1976 45.5564C27.1976 45.5564 27.1976 45.4659 27.0163 45.3753C27.0163 45.3753 27.0163 45.1942 27.0163 45.1036C26.835 44.2885 26.7443 43.5639 26.563 42.8393C26.563 42.7488 26.4724 42.6582 26.2911 42.6582C26.1097 42.6582 26.0191 42.6582 26.0191 42.8393C26.0191 43.0205 26.0191 43.2016 25.9284 43.2922C25.9284 43.2922 25.9284 43.3828 25.9284 43.4733C26.1097 43.9262 26.2911 44.5602 26.4724 45.1942C26.4724 45.2847 26.4724 45.3753 26.6537 45.3753C26.6537 45.3753 26.563 45.5564 26.6537 45.647C26.835 46.4621 26.9256 47.2773 26.9256 47.8207C26.9256 49.3604 25.9284 49.9038 25.7471 49.9943C25.5658 49.9038 24.7499 49.3604 24.7499 47.8207L24.7499 47.6395C24.7499 47.1867 24.8406 46.6433 25.0219 46.0093C25.0219 45.9187 25.0219 45.8281 24.9312 45.7376C24.9312 45.7376 24.7499 45.7376 24.6593 45.7376C23.8434 46.4621 22.4836 47.1867 20.5798 46.4621C20.3985 46.3716 20.3079 46.281 20.2172 46.1904C20.2172 46.1904 20.1266 46.0998 20.0359 46.0093C20.0359 46.0093 19.8546 46.0093 19.764 46.0093C19.764 46.0093 19.5826 46.0998 19.5826 46.1904L19.5826 46.3716C19.5826 46.3716 19.5826 46.7338 19.5826 46.8244C18.7668 48.7264 17.2256 49.2698 16.1378 49.2698C16.0471 49.2698 15.9565 49.2698 15.8658 49.4509C15.8658 49.5415 15.8658 49.6321 15.9565 49.7226C16.5004 50.0849 16.9537 50.3566 17.3163 50.7189C18.5854 51.8963 18.4041 52.8926 18.3135 53.0737C18.1322 53.0737 17.135 53.436 15.9565 52.3491C15.5032 51.9869 15.0499 51.3529 14.5967 50.6283C14.5967 50.5378 14.4153 50.4472 14.234 50.6283C14.1434 50.6283 14.0527 50.8095 14.1434 50.9906C14.1434 51.1717 14.3247 51.3529 14.4153 51.534C14.9593 52.5303 15.5032 53.7077 15.5032 55.2474C15.5032 55.6096 15.5032 55.8814 15.5032 56.1531C15.3219 57.2399 14.4154 58.2362 13.2368 58.689C12.0583 59.1419 10.7892 58.9607 9.88264 58.3267C7.61628 57.3305 7.43497 55.4285 7.43497 54.704C7.43497 53.7077 7.79759 52.7114 8.43217 52.2586C8.70413 51.9869 8.9761 51.9869 9.33871 52.0774C10.1546 52.0774 10.5172 52.168 10.7892 52.2586C10.1546 52.5303 9.1574 52.9831 9.1574 53.9794C9.1574 54.704 9.70133 55.5191 10.9705 56.4248C11.7864 57.0588 12.421 56.9682 12.8742 56.7871C13.5995 56.4248 13.9621 55.5191 13.9621 54.2511C13.9621 53.2548 13.6901 52.2586 13.2368 51.3529L12.7836 50.1755C12.149 48.4547 11.5144 46.8244 11.5144 46.5527L11.5144 46.4621L11.5144 46.3716C11.5144 46.3716 11.3331 46.1904 11.2425 46.1904C11.1518 46.1904 11.0611 46.1904 10.9705 46.3716C9.97329 48.6358 8.06955 50.7189 6.34712 52.4397C5.89385 52.9831 5.34993 53.436 4.98731 53.8888L4.26208 54.704C4.26208 54.704 4.26208 54.8851 4.26208 54.9757L4.08077 54.9757C2.99292 56.0625 2.17703 56.9682 1.54245 57.6022L1.27049 57.8739C1.27049 57.8739 1.27049 57.9645 1.27049 58.055C1.27049 58.4173 1.27049 58.7796 1.27049 58.9607C1.27049 58.9607 1.08918 58.7796 0.90787 58.5984L0.90787 59.2324C0.90787 59.2324 1.27049 59.5041 1.36114 59.5947C1.36114 59.5947 1.36114 59.5947 1.4518 59.5947C1.54245 59.5947 1.81441 59.5947 1.81441 58.5984C1.81441 58.4173 1.81441 58.2362 1.81441 58.055L1.99572 57.8739C2.53965 57.3305 3.26488 56.5153 4.26208 55.5191C4.89666 57.0588 5.89385 59.5947 5.89385 62.1307C5.89385 64.6666 4.89666 66.5686 2.90226 67.9271C2.08638 68.7422 1.4518 69.5574 0.907871 70.3725L0.907871 71.1876C0.907871 71.1876 0.907871 71.1876 0.998525 71.1876C1.54245 70.2819 2.35834 69.2857 3.17423 68.38L2.26768 68.9234ZM41.9742 36.1372C41.9742 36.1372 41.9742 35.5938 41.9742 35.3221C41.9742 34.6881 41.9742 34.0541 41.9742 33.3295C41.9742 31.0653 41.9742 28.4388 41.1583 26.1745C41.6116 26.4463 42.6088 26.8991 44.4219 27.6237L45.6911 28.1671C47.6855 28.8011 49.0453 30.3407 49.0453 31.4276C49.0453 32.1521 48.4107 32.4238 47.8668 32.5144C46.3256 32.6956 45.6004 32.5144 45.3284 32.2427C45.1471 32.0616 45.0565 31.8804 45.0565 31.6087C45.0565 31.2464 45.2378 30.703 45.3284 30.4313C45.3284 30.1596 45.5098 30.069 45.5098 29.8879C45.5098 29.7068 45.5098 29.6162 45.4191 29.6162C45.4191 29.6162 45.2378 29.6162 45.1471 29.6162C44.9658 29.6162 44.4219 29.7973 43.5154 30.703C43.0621 30.9747 42.7901 31.4276 42.7901 32.0616C42.7901 33.1484 43.5154 34.4164 44.6032 35.1409C45.7817 35.9561 47.3228 36.1372 48.7733 35.5938C50.5864 35.4126 52.1275 33.4201 52.1275 31.4276C52.1275 30.703 51.9462 29.9785 51.4929 29.3445C50.677 28.1671 49.6798 27.5331 48.6826 27.1708C50.677 27.1708 51.4023 25.7217 51.4023 25.45C51.4023 25.3594 51.221 24.9971 50.949 24.7254C50.5864 24.3632 49.8612 23.9103 48.5013 24.0009C48.1387 24.0009 47.8668 24.0009 47.4135 24.0914C48.2294 22.914 48.4107 21.5555 47.7761 19.9252C47.7761 19.8347 47.6855 19.7441 47.5948 19.6535C47.6855 19.6535 47.7761 19.6535 47.9574 19.6535C49.4079 19.0196 50.3144 17.9327 50.5864 16.4836C50.7677 16.7553 51.0397 17.027 51.221 17.2987C52.2182 18.295 53.0341 18.4761 53.6686 18.4761C53.9406 18.4761 54.3032 18.4761 54.3939 18.2044C54.3939 18.2044 54.5752 17.7516 54.5752 17.2987C54.5752 16.7553 54.3939 16.0308 53.6686 15.2156C54.6658 15.5779 55.7537 15.8496 57.2041 15.5779C59.2892 15.2156 60.377 13.1325 60.377 11.4117C60.377 10.5966 60.1051 9.87203 59.7425 9.32861C58.564 6.79266 56.2976 6.33982 54.6658 6.70209C53.306 6.9738 52.3995 7.78893 52.3995 8.69462C52.3995 8.78519 52.3995 8.96633 52.3995 8.96633C52.3995 10.3249 52.6714 10.7777 52.7621 10.9589C52.7621 11.14 52.9434 11.14 53.0341 11.14C53.306 11.14 53.3967 10.9589 53.578 10.506C53.8499 10.0532 54.1219 9.23804 54.7565 9.14747C55.3004 9.14747 56.0256 9.60032 56.8415 10.6872C57.3855 11.4117 57.3855 12.0457 56.6602 12.4985C55.8443 13.042 54.0312 13.1325 52.3088 12.2268L51.1303 11.774C49.3172 11.0494 48.2294 10.6872 47.6855 10.506C49.8612 9.41918 51.6742 7.60779 53.3967 5.97754C53.8499 5.52469 54.3032 5.07184 54.7565 4.619L55.3911 3.98501C56.2976 4.61899 57.5668 5.52469 59.1985 6.43039C60.4677 7.42665 62.3714 7.78893 64.5471 7.51722C67.1761 7.15494 69.6238 5.88698 70.8023 4.34729C72.0714 3.07932 73.2499 2.08304 74.3378 1.17735C74.7004 1.26792 75.1537 1.35849 75.4256 1.35849C74.4284 2.44532 73.9752 3.98501 73.8845 5.07184C73.8845 5.07184 73.8845 5.07184 73.8845 5.16241C73.3406 4.70956 72.706 4.52842 72.1621 4.619C70.349 4.619 69.6238 6.0681 69.5331 7.06437C69.6238 8.1512 69.8957 8.60405 70.077 8.7852C70.077 8.7852 70.077 8.96633 70.2584 8.96633C70.4397 8.96633 70.5303 8.96634 70.621 8.7852C71.6182 7.33609 71.8901 7.42665 71.8901 7.42665C71.8901 7.42665 72.0714 7.60778 72.0714 8.1512C70.5303 11.2306 64.0032 9.78145 61.9182 9.32861C61.1023 9.14747 61.1023 9.14747 60.921 9.32861C60.921 9.32861 60.8303 9.50976 60.921 9.60032C60.921 9.78146 61.0116 9.9626 61.2836 10.3249C61.7369 10.9589 62.6434 12.2268 62.8247 14.1288C62.8247 14.5817 62.8247 15.0345 62.8247 15.4873C62.8247 17.661 62.0995 20.0158 60.1957 20.197C59.3798 20.197 59.1985 20.1064 59.1079 20.1064C59.1079 19.8347 60.2864 19.2913 60.7397 19.0196C61.3742 18.6573 61.4649 18.6573 61.4649 18.4761L61.4649 18.295L61.2836 18.295C60.921 18.0233 60.1957 17.9327 59.5612 17.8422C59.1985 17.8422 57.2948 17.7516 56.4789 19.6535C56.1163 20.6498 56.4789 21.8272 57.4761 22.6423C58.3827 23.3669 59.5612 23.7292 60.649 23.548C62.0088 24.2726 63.3686 24.6349 64.8191 24.6349C65.5443 24.6349 66.3602 24.7254 67.0855 24.816C70.1677 24.9971 73.4313 25.1783 74.0658 27.352C74.0658 27.5331 74.0658 27.6237 74.0658 27.7142C74.0658 28.3482 73.6126 28.5294 73.3406 28.6199C72.706 28.8011 71.9808 28.5294 71.7088 28.0765C71.0742 26.9897 70.5303 26.5368 70.5303 26.5368L70.349 26.5368C70.349 26.5368 70.1677 26.5368 70.1677 26.6274C70.1677 26.6274 69.9864 26.9897 69.9864 27.8048C69.9864 28.1671 69.9864 28.5294 69.9864 28.8916C69.9864 28.8916 69.9864 28.9822 69.9864 29.0728C69.9864 29.0728 69.9864 29.0728 69.8957 29.0728C68.5359 30.1596 68.3546 30.703 68.3546 30.7936L68.3546 30.9747C68.3546 30.9747 68.4453 31.0653 68.5359 31.0653C68.5359 31.0653 69.2612 31.0653 70.5303 30.7936C70.8023 30.703 71.1649 30.7936 71.5275 31.0653C71.8901 31.337 72.1621 31.7899 72.1621 32.1521C72.1621 32.5144 71.9808 32.7861 71.6182 32.9673C69.5331 34.0541 67.0855 31.8804 64.7284 29.7973C64.1845 29.3445 63.6406 28.8011 63.0967 28.3482C62.0088 27.352 60.7397 26.6274 59.3799 26.1745C58.6546 25.0877 57.2041 24.4537 55.8443 24.5443C54.8471 24.5443 54.1219 25.0877 53.7593 25.9028C53.578 26.2651 53.4873 26.718 53.4873 27.0802C53.4873 28.2576 54.3032 29.0728 54.5752 29.3445C54.8471 29.5256 55.663 30.1596 56.2069 30.2502C56.2069 30.2502 56.3883 30.3407 56.4789 30.2502C56.5696 30.2502 56.6602 30.069 56.6602 29.9785C56.6602 29.8879 56.6602 29.7068 56.4789 29.2539C56.2976 28.7105 56.1163 27.8954 56.1163 27.4425L56.1163 27.352C56.1163 27.352 56.3883 27.5331 56.9322 27.9859C57.2948 28.4388 57.4761 28.8916 57.4761 29.5256C57.4761 31.2464 55.8443 33.0578 54.4845 34.1447C53.0341 35.3221 51.4929 35.5938 50.677 35.7749C50.3144 35.7749 50.0425 35.8655 49.9518 36.0466C49.9518 36.0466 49.9518 36.1372 49.9518 36.2278C49.9518 36.4089 49.9518 36.4089 50.677 36.8618C52.3088 37.9486 57.2041 41.028 57.2041 44.1073C57.2041 44.379 57.2041 44.6507 57.1135 44.9224C56.5696 45.3753 56.3883 45.2847 56.3883 45.2847C56.3883 45.2847 56.2976 45.1036 56.2976 44.7413C56.2976 44.379 56.2976 43.9262 56.4789 43.3828L56.4789 43.2922C56.4789 43.2016 56.4789 43.0205 56.2976 43.0205C56.2976 43.0205 56.2069 43.0205 56.1163 43.0205C55.935 43.0205 55.3911 43.2016 54.4845 43.9262C54.2126 44.1979 53.9406 44.8319 53.9406 45.5564C53.9406 46.281 54.2126 46.915 54.7565 47.4584C55.1191 47.9112 55.663 48.1829 56.3883 48.2735C56.3883 48.2735 56.3883 48.2735 56.2976 48.3641C55.5724 49.0886 54.8471 50.5378 54.7565 52.0774C54.4845 51.8057 54.2126 51.6246 53.8499 51.3529C53.6686 49.9943 53.578 48.4547 53.578 46.6433C53.578 46.3716 53.578 46.0998 53.578 45.8281C53.578 42.2959 50.4051 37.4052 46.9602 36.9523C45.0565 36.4089 43.5154 36.1372 42.4275 36.0466L41.9742 36.1372ZM40.4331 42.1148L40.6144 42.1148C40.6144 42.1148 41.249 42.8393 41.521 42.9299L41.7023 42.9299C41.7023 42.9299 41.8836 42.9299 41.8836 42.7488C41.8836 42.5676 41.9742 42.3865 41.9742 42.0242C42.3369 42.0242 42.5182 42.0242 42.6995 41.9336C42.7901 41.9336 42.8808 41.8431 42.8808 41.6619C42.8808 41.6619 42.8808 41.6619 42.8808 41.5714C42.7901 41.3902 42.4275 41.028 42.0649 40.6657L42.0649 40.4845C42.0649 39.6694 42.0649 38.5826 42.0649 37.1335C44.6939 38.2203 50.1331 40.5751 50.1331 45.4659C50.1331 45.9187 50.1331 46.3716 49.9518 46.915C49.9518 48.0924 50.1331 49.2698 50.3144 50.266C49.2266 49.9943 48.1387 49.9038 46.9602 49.9038C41.1583 50.9906 38.3481 44.8319 37.2602 42.0242C38.7107 42.0242 39.7985 42.0242 40.6144 42.0242L40.4331 42.1148ZM4.08077 55.3379L4.71535 54.704C5.16862 54.2511 5.62189 53.7077 6.07516 53.2548C7.70694 51.6246 9.52002 49.8132 10.5172 47.6395C10.6985 48.183 11.0611 49.2698 11.7864 50.9906L12.2396 52.168C12.6929 52.9831 12.8742 53.9794 12.8742 54.7945C12.8742 55.8814 12.5116 56.6965 12.0583 56.8776C11.6051 57.1493 11.0611 56.8776 10.6985 56.6059C9.61067 55.7908 9.1574 55.1568 9.1574 54.6134C9.1574 53.9794 9.97329 53.6171 10.4266 53.3454C10.7892 53.1643 10.9705 53.0737 10.9705 52.8926C10.9705 52.8926 10.9705 52.7114 10.7892 52.6209C10.6079 52.5303 10.1546 52.2586 8.88544 52.2586C8.43217 52.168 7.9789 52.2586 7.61628 52.5303C6.89105 53.0737 6.43778 54.2511 6.43778 55.4285C6.43778 57.2399 7.43497 58.689 9.15741 59.5041C10.0639 60.2287 11.5144 60.4098 12.8742 59.8664C14.234 59.323 15.2312 58.3267 15.5032 56.9682C15.5032 56.6059 15.5032 56.2436 15.5032 55.9719C15.5032 54.9757 15.3219 54.1605 15.0499 53.436C16.5004 54.7945 17.9509 54.2511 18.0415 54.1605C18.2228 54.07 18.3135 53.7077 18.3135 53.3454C18.3135 52.802 18.1322 51.9869 17.135 51.0812C16.863 50.8095 16.5911 50.6283 16.3191 50.4472C17.6789 50.1755 18.8574 49.2698 19.492 47.7301C19.492 47.6395 19.492 47.549 19.492 47.4584C19.492 47.4584 19.6733 47.6395 19.764 47.6395C21.2144 48.183 22.6649 48.0924 23.8434 47.2773C23.8434 47.6395 23.8434 48.0018 23.7527 48.2735C23.7527 49.8132 24.2967 50.5378 24.6593 50.9C24.6593 50.9 25.0219 51.2623 25.2939 51.1717C25.5658 51.1717 26.835 50.5378 26.9256 48.5452L26.9256 48.4547C27.3789 49.4509 28.0135 50.4472 29.192 51.2623C30.2798 51.9869 31.7303 52.0774 32.9995 51.534C34.3593 50.9 35.2658 49.8132 35.4471 48.6358C35.6284 48.0018 35.8097 47.4584 35.8097 46.915C35.8097 44.7413 34.2686 43.2016 32.6369 42.7488C31.6397 42.4771 30.8238 42.7488 30.5518 43.2922C29.5546 44.2885 29.464 44.8319 29.464 45.013C29.464 45.013 29.464 45.013 29.464 45.1036C29.464 45.1036 29.464 45.2847 29.6453 45.3753C29.8266 45.4659 30.0079 45.3753 30.3705 45.3753C30.8238 45.1942 31.6397 44.9224 32.0929 45.1942C32.5462 45.5564 32.7275 46.4621 32.5462 47.8207C32.5462 48.3641 32.2742 48.9075 31.6397 48.9981C30.6425 49.0886 29.0107 47.7301 28.2854 45.647C28.0135 45.013 27.7415 44.4696 27.5602 43.9262C26.9256 42.3865 26.4724 41.5714 26.2911 41.1185C28.5574 41.9336 31.1864 41.9336 33.5434 41.9336C34.178 41.9336 34.8126 41.9336 35.4471 41.9336L36.3537 41.9336C36.535 43.0205 36.8069 44.5602 37.2602 46.3716C37.4415 47.9112 38.5294 49.5415 40.2518 50.9C42.3369 52.4397 44.9658 53.3454 46.9602 53.0737C48.6826 53.0737 50.2238 53.0737 51.6742 53.3454C51.8555 53.7077 52.1275 53.9794 52.3995 54.2511C50.8584 54.2511 49.4985 55.0662 48.592 55.8814C48.592 55.1568 48.2294 54.6134 47.7761 54.2511C46.3256 52.8926 44.6939 53.6171 44.2406 54.07C43.606 54.8851 43.4247 55.3379 43.3341 55.6096L43.3341 55.8814C43.3341 55.8814 43.5154 55.8814 43.606 55.8814C44.7845 55.6096 45.3284 55.7002 45.5098 55.8814C45.5098 55.8814 45.5098 56.1531 45.1471 56.5153C41.8836 57.6022 38.2574 51.9869 37.0789 50.0849C36.6256 49.3604 36.6256 49.3603 36.3537 49.3604C36.1724 49.4509 36.0817 49.7226 36.0817 50.1755C35.9004 50.9906 35.7191 52.4397 34.4499 53.8888C33.4527 55.2474 31.7303 56.6965 30.0985 56.8776C29.464 56.8776 28.8294 56.7871 28.3761 56.3342C27.7415 55.7002 27.7415 55.5191 27.6509 55.5191C27.9228 55.4285 29.192 55.7908 29.5546 55.9719C30.1892 56.1531 30.2798 56.1531 30.3705 56.0625C30.4611 56.0625 30.4611 55.7908 30.3705 55.7002C30.3705 55.5191 30.1892 55.0662 29.464 54.07C29.192 53.7983 28.0135 52.4397 26.0191 53.1643C25.1125 53.6171 24.5686 54.4322 24.5686 55.6096C24.5686 56.8776 25.2032 58.1456 26.2004 58.7796C26.6537 60.2287 27.2883 61.4967 28.2854 62.4929C28.7387 63.0364 29.2826 63.6703 29.8266 64.2138C31.549 66.1157 33.2714 68.0177 33.2714 69.8291C33.2714 70.2819 33.2714 70.6442 32.9995 71.0065C32.7275 71.4593 32.3649 71.731 31.9116 71.5499C31.3677 71.3688 30.8238 70.7348 30.8238 70.1913C30.8238 70.1913 30.8238 70.0102 30.8238 69.9196C31.0957 68.7422 31.0957 67.9271 31.0957 67.9271C31.0957 67.9271 31.0957 67.746 31.0051 67.746C31.0051 67.746 30.9144 67.746 30.8238 67.746C30.7331 67.746 30.1892 67.9271 29.1013 69.2857C29.1013 69.2857 29.1013 69.2857 29.1013 69.4668C29.1013 69.4668 29.0107 69.4668 28.92 69.4668C27.1976 69.2857 26.6537 69.4668 26.563 69.5574C26.563 69.5574 26.563 69.6479 26.4724 69.7385L26.4724 69.9196C26.4724 69.9196 26.9256 70.4631 28.0135 71.1876C28.3761 71.3688 28.6481 71.8216 28.6481 72.365C28.6481 72.7273 28.4668 73.0896 28.2854 73.2707C28.0135 73.4519 27.7415 73.5424 27.3789 73.4519C25.1126 72.7273 24.9312 69.5574 24.7499 66.3874C24.7499 65.6629 24.7499 64.8477 24.5686 64.1232C24.5686 62.6741 24.206 61.225 23.4808 59.957C23.7527 58.5984 23.0275 56.9682 21.849 56.1531C21.1238 55.7002 20.3985 55.6097 19.6733 55.8814C18.0415 56.5153 17.7696 57.8739 17.7696 58.689L17.7696 58.8702C17.7696 58.8702 17.9509 60.2287 18.3135 60.591C18.3135 60.591 18.3135 60.8627 18.4948 60.8627C18.7668 60.8627 18.7668 60.8627 19.1294 60.1381C19.4013 59.6853 19.9453 58.5984 20.1266 58.5079C20.1266 58.5079 20.3079 58.689 20.3079 59.5947C20.3079 60.2287 19.9453 60.7721 19.4013 61.225C18.1322 62.2212 15.9565 62.4024 14.234 62.1307C12.3303 61.9495 11.1518 61.0438 10.4266 60.591C10.0639 60.3193 9.88264 60.2287 9.70133 60.2287C9.70133 60.2287 9.70133 60.2287 9.61068 60.2287C9.52002 60.2287 9.42937 60.4098 9.42937 60.5004C9.42937 60.591 9.42937 60.7721 9.61068 61.3155C9.88264 62.4929 10.3359 64.6666 10.3359 66.8403C10.3359 69.2857 9.70133 70.8253 8.43217 71.4593C7.79759 71.4593 7.61628 71.2782 7.61628 71.1876C7.61628 71.0065 7.88825 70.6442 9.06675 69.9196C9.06675 69.9196 9.24806 69.7385 9.24806 69.6479C9.24806 69.6479 9.24806 69.4668 9.15741 69.4668C8.9761 69.2857 8.52283 69.1045 7.34432 68.9234C6.70974 68.9234 5.07797 69.5574 4.98731 71.5499C4.98731 72.0933 5.16862 72.7273 5.62189 73.2707C5.62189 73.2707 5.53124 73.2707 5.44058 73.2707C4.35273 73.2707 2.81161 73.8141 1.72376 74.8104C1.72376 74.4481 1.72376 74.0858 1.54245 73.633C2.35834 72.5462 3.44619 71.3688 4.62469 70.1913C6.52843 68.7422 7.9789 65.5723 7.9789 62.5835C7.9789 60.9533 7.61628 59.6853 6.89105 58.689C5.98451 57.0588 5.07796 55.7002 4.35273 54.8851L4.08077 55.3379Z" fill="#CA943A"/>
<path d="M2.17651 84.5019C2.90174 83.7774 3.71763 83.0528 4.53352 82.4188C6.25595 81.0603 7.79707 79.7017 8.25034 78.2526C8.25034 77.9809 8.341 77.7092 8.341 77.4375C8.341 76.4412 7.88773 75.6261 7.52511 75.0827C7.52511 75.0827 7.3438 74.9921 7.25315 74.9921C6.70922 75.0827 5.98399 75.2638 5.34941 75.3544C3.80829 76.0789 2.53913 77.4375 2.44847 78.5243C2.26717 78.796 2.26717 78.9772 2.44847 79.1583C2.72044 79.3394 3.17371 79.3394 3.89894 79.3394C3.89894 79.43 3.89894 79.7017 3.53632 80.1546L3.53632 80.3357C3.53632 80.698 2.90175 81.1508 2.08586 81.1508C1.54193 81.1508 0.272773 80.8791 0.272773 78.6149C0.272773 77.9809 0.454081 77.4375 0.726044 76.8941C0.726044 76.8941 0.726044 76.7129 0.726044 76.6224C0.726044 76.5318 0.544735 76.3507 0.454081 76.2601C0.363427 76.0789 0.182118 75.8072 0.000809945 75.5355C0.000809945 75.5355 0.000809945 75.5355 -0.0898443 75.5355L-0.0898442 76.3507C-0.0898442 76.3507 0.000809988 76.5318 0.0914642 76.5318C0.0914642 76.6224 0.182118 76.7129 0.272773 76.8035C0.0914642 77.1658 0.000810028 77.4375 -0.0898442 77.7998L-0.0898441 79.43C0.272773 81.4225 1.63259 81.6037 2.17651 81.6037C3.17371 81.6037 4.08025 80.9697 4.08025 80.2451C4.08025 80.2451 4.44287 79.43 4.44287 79.1583C4.44287 78.9772 4.44287 78.796 4.44287 78.796C4.44287 78.6149 4.26156 78.7055 3.9896 78.7055C3.44567 78.7055 3.08305 78.7055 2.90174 78.7055C2.90174 78.7055 2.90174 78.6149 2.90174 78.5243C2.90174 77.6186 4.08025 76.3507 5.44006 75.7167C6.07464 75.7167 6.70922 75.5355 7.25315 75.3544C7.61576 75.8072 7.88773 76.5318 7.88773 77.3469C7.88773 77.6186 7.88773 77.7998 7.88773 78.0715C7.43446 79.43 5.89333 80.698 4.35221 82.0565C3.53632 82.7811 2.62978 83.4151 1.90455 84.2302C1.17932 84.9548 0.544736 85.7699 0.000810424 86.4944L0.000810459 87.3096C0.000810459 87.3096 0.000810459 87.3096 0.0914647 87.3096C0.544736 86.4039 1.26997 85.4982 2.17651 84.5925L2.17651 84.5019Z" fill="#CA943A"/>
<path d="M47.5016 58.5086C47.6829 59.3237 48.0455 60.5917 49.3147 61.3162C50.7652 62.0408 52.7596 61.8596 54.9353 61.6785C55.9325 61.5879 57.0203 61.4973 58.0175 61.4973C59.2867 61.4973 60.4652 61.6785 61.4624 61.9502C61.553 61.9502 61.6437 61.9502 61.7343 61.9502C61.7343 61.9502 61.7343 61.8596 61.7343 61.7691C61.4624 60.7728 61.2811 59.686 61.2811 58.3274C61.2811 57.3311 61.3717 56.2443 61.4624 55.248C61.553 54.2518 61.6437 53.2555 61.6437 52.3498C61.6437 51.1724 61.4624 50.2667 61.0998 49.5422C60.3745 48.2742 59.196 47.9119 58.2895 47.7308C58.1988 47.7308 58.1082 47.7308 58.0175 47.8213C57.7455 48.2742 57.2923 48.9082 56.9297 49.4516C56.6577 50.0856 56.567 50.8101 56.567 51.5347C56.567 52.4404 56.7484 53.2555 57.2016 53.7084C57.2016 53.9801 57.3829 54.0706 57.4736 54.1612C57.8362 54.2518 58.2895 53.7989 58.7427 53.2555C58.7427 53.3461 59.0147 53.6178 59.1054 54.0706C59.1054 54.0706 59.1054 54.1612 59.196 54.1612C59.2867 54.2518 59.3773 54.4329 59.3773 54.6141C59.3773 55.1575 59.0147 55.882 58.2895 56.1537C57.5642 56.516 56.6577 56.1537 55.6605 55.248C55.2979 54.7952 54.9353 54.3424 54.754 53.7084C54.754 53.7084 54.754 53.5272 54.5727 53.5272C54.482 53.5272 54.3007 53.5272 54.1194 53.4367C53.8474 53.4367 53.6661 53.3461 53.3035 53.2555C53.3035 53.2555 53.1222 53.2555 53.0315 53.2555C53.0315 53.2555 53.0315 53.4367 53.0315 53.5272C53.0315 53.8895 53.2128 54.0706 53.2128 54.3424C53.2128 54.5235 53.3035 54.7046 53.3035 54.8858C53.3035 54.9763 53.3035 55.0669 53.4848 55.0669C54.0287 55.248 54.5727 55.5198 54.9353 55.9726C55.5698 56.6972 55.9325 57.3311 55.9325 57.9651C55.9325 58.7803 55.2979 59.3237 54.754 59.5048C54.3913 59.686 54.0287 59.5954 53.8474 59.5048C53.8474 59.5048 53.8474 59.5048 53.6661 59.5048C53.2128 59.3237 52.9409 59.2331 52.8502 59.1425C53.4848 58.5991 53.7568 58.2368 53.7568 57.9651C53.7568 57.8746 53.7568 57.6029 53.3035 57.5123C52.4876 56.7877 50.6745 56.6972 49.0427 57.2406C48.4988 57.6029 47.9549 58.0557 47.411 58.3274C47.411 58.3274 47.3203 58.5086 47.3203 58.5991L47.5016 58.5086ZM53.9381 54.6141C53.9381 54.6141 53.9381 54.3424 53.9381 54.2518C53.9381 54.1612 53.9381 53.9801 53.8474 53.8895C54.0287 53.8895 54.1194 53.8895 54.3007 53.9801C54.482 53.9801 54.5727 53.9801 54.6633 53.9801C54.8446 54.5235 55.1166 54.9763 55.4792 55.4292C55.1166 55.0669 54.6633 54.7952 54.1194 54.6141L53.9381 54.6141ZM53.3035 57.784C53.3035 57.784 53.3035 57.784 53.4848 57.784C53.4848 57.784 53.3035 58.1463 52.8502 58.5086C52.6689 58.6897 52.5783 58.6897 52.5783 58.8708C52.5783 58.8708 52.5783 59.4142 53.7568 59.7765C54.0287 60.0482 54.5727 60.1388 55.1166 59.9577C55.9325 59.686 56.6577 58.9614 56.6577 57.8746C56.6577 57.15 56.2951 56.4255 55.6605 55.7009C57.0203 56.9689 58.1082 56.7877 58.6521 56.516C59.5586 56.1537 60.0119 55.1575 60.0119 54.5235C60.0119 54.1612 60.0119 53.9801 59.7399 53.7989C59.468 52.8027 59.1054 52.6215 58.9241 52.6215C58.7427 52.6215 58.6521 52.6215 58.4708 52.8932C58.1082 53.2555 57.9269 53.5272 57.7455 53.6178C57.7455 53.6178 57.7455 53.5272 57.7455 53.4367C57.2016 52.7121 57.0203 50.9913 57.5642 49.6327C57.9269 49.0893 58.2895 48.5459 58.5614 48.1836C59.3773 48.3648 60.2839 48.727 60.9184 49.7233C61.2811 50.3573 61.3717 51.1724 61.3717 52.2593C61.3717 53.1649 61.3717 54.0706 61.1904 55.1575C61.1904 56.2443 61.0091 57.2406 61.0091 58.3274C61.0091 59.5048 61.0998 60.5011 61.3717 61.4973C60.4652 61.2256 59.3773 61.1351 58.1988 61.1351C57.2016 61.1351 56.1138 61.2256 55.0259 61.3162C52.9409 61.4973 50.9465 61.6785 49.6773 61.0445C48.6801 60.5011 48.3175 59.5954 48.1362 58.7803C48.5895 58.5086 49.1334 58.1463 49.5867 57.784C51.0371 57.2406 52.7596 57.3311 53.3941 57.9651L53.3035 57.784Z" fill="#CA943A"/>
<path d="M2.53913 53.0735C2.53913 53.0735 2.53913 52.9829 2.53913 52.8923L2.53913 52.5301C2.53913 51.1715 2.72044 49.2696 3.08305 47.0959C3.35502 45.9185 3.44567 44.5599 3.44567 43.2014C3.44567 41.5711 3.26436 39.9409 2.90174 38.4918C2.44847 37.6767 1.9952 36.8615 1.63259 36.0464C1.63259 36.0464 1.63259 35.9558 1.45128 35.9558C1.45128 35.9558 1.36062 35.9558 1.26997 35.9558C1.17931 35.9558 1.08866 35.9558 0.998006 35.8653C0.635389 35.5936 0.272772 35.3218 -0.0898447 34.9596L-0.0898447 35.5935C-0.0898447 35.5935 0.454081 36.0464 0.726043 36.2275C0.907352 36.2275 0.998006 36.3181 1.08866 36.4087C1.45128 37.1332 1.90455 37.9484 2.35782 38.7635C2.72044 40.122 2.90174 41.7523 2.90174 43.292C2.90174 44.6505 2.72044 45.9185 2.53913 47.0959C2.17651 49.3601 1.9952 51.2621 1.9952 52.6206L1.9952 52.8018C1.08866 53.7075 0.454081 54.7037 -0.0898438 55.5189L-0.0898438 56.334C-0.0898438 56.334 -0.0898438 56.334 0.000810459 56.334C0.544736 55.2471 1.36062 54.1603 2.44847 53.0735L2.53913 53.0735Z" fill="#CA943A"/>
<path d="M12.1484 49.4505C12.5111 49.9939 12.9643 50.6279 13.4176 51.3525C13.4176 51.443 13.6896 51.5336 13.7802 51.3525C13.7802 51.3525 13.8709 51.2619 13.8709 51.1713C13.8709 51.1713 13.8709 51.1713 13.8709 51.0807C13.5083 50.5373 13.2363 49.9033 13.055 49.5411C13.055 49.5411 13.055 49.4505 12.9643 49.4505C12.783 49.4505 12.6924 49.2693 12.6017 49.1788C12.5111 49.1788 12.3297 49.1788 12.2391 49.1788C12.2391 49.1788 12.2391 49.3599 12.2391 49.5411L12.1484 49.4505Z" fill="#CA943A"/>
<path d="M50.1342 5.61489L50.5875 5.07147C50.5875 5.07147 50.5875 4.9809 50.5875 4.89033L50.5875 4.79976C50.5875 4.70919 50.4062 4.7092 50.3155 4.7092C49.3183 4.98091 48.4118 5.25261 47.3239 5.43375C44.6043 6.06774 40.6155 5.43375 38.0772 4.07521C37.5333 3.53179 36.9894 3.07894 36.5361 2.71666C36.5361 2.71666 36.3548 2.71666 36.2641 2.71666C36.2641 2.71666 36.0828 2.80723 36.0828 2.8978C36.0828 4.79976 34.451 6.70172 32.5473 7.15457C29.9183 7.69799 28.1052 6.15831 26.8361 4.9809C26.8361 4.9809 26.4735 4.9809 26.3828 4.9809C26.3828 4.9809 26.3828 5.25261 26.3828 5.34318C26.7454 5.79603 27.1987 6.24888 27.5613 6.61116C30.1903 9.87166 34.723 12.7699 38.6211 11.9548C40.1623 11.683 40.4342 10.8679 40.4342 10.4151C40.4342 9.50938 39.6183 8.51311 38.9837 8.2414C38.7118 8.15083 38.5305 8.2414 38.4398 8.2414C37.9865 8.51311 37.5333 8.96596 37.2613 9.1471C37.2613 8.78483 37.4426 8.2414 37.9866 7.42628C38.3492 7.064 38.8024 6.97343 39.437 7.064C40.3436 7.15457 41.2501 7.78856 41.794 8.60368C42.2473 8.96596 42.338 9.59995 42.338 10.0528C42.338 10.1434 42.4286 10.2339 42.5193 10.3245C43.0632 10.3245 44.6043 10.5962 46.1454 9.50938C47.5052 8.60369 48.7744 7.15457 50.0436 5.61489L50.1342 5.61489ZM42.1566 8.2414C41.5221 7.33571 40.5249 6.61116 39.5277 6.52059C38.8024 6.52059 38.1679 6.61115 37.6239 7.064C37.08 7.87913 36.7174 8.60369 36.7174 9.1471C36.7174 9.32824 36.7174 9.50938 36.7174 9.50938C36.7174 9.50938 36.7174 9.50938 36.7174 9.59995C36.7174 9.59995 36.808 9.78109 36.8987 9.78109C37.08 9.78109 37.1707 9.78109 37.4426 9.41881C37.7146 9.1471 38.0772 8.78483 38.6211 8.42255C38.6211 8.42255 38.8024 8.42255 38.9837 8.69425C39.3464 9.05653 39.7996 9.59995 39.7996 10.1434C39.7996 10.6868 39.3464 11.0491 38.4398 11.2302C34.995 11.9548 31.0062 9.59995 28.3772 6.70172C29.4651 7.33571 30.9155 7.78856 32.5473 7.42628C34.5417 6.97343 36.1735 5.07148 36.4454 3.16951C36.808 3.53179 37.1707 3.8035 37.6239 4.25635C39.9809 5.52432 44.0604 6.43002 47.2333 5.70546C48.0492 5.52432 48.7744 5.43375 49.4996 5.25261C48.2305 6.70172 46.9613 8.15083 45.6922 8.96596C44.6043 9.78109 43.4258 9.78109 42.6099 9.69052C42.6099 8.96596 42.2473 8.42255 41.8847 8.06027L42.1566 8.2414Z" fill="#CA943A"/>
</g>
<defs>
<clipPath id="clip0_12_3044">
<rect width="97" height="97" fill="white" transform="translate(0 97) rotate(-90)"/>
</clipPath>
</defs>
</svg>
