<svg width="92" height="92" viewBox="0 0 92 92" fill="none" xmlns="http://www.w3.org/2000/svg">
<g opacity="0.5" clip-path="url(#clip0_12_3445)">
<path d="M54.0824 37.7109C54.4263 36.6801 54.5982 35.3916 54.6842 33.8454C54.6842 33.8454 54.6842 33.7595 54.6842 33.6736C55.3721 33.0723 56.4898 31.7838 58.1235 29.4644C59.4992 27.3169 61.7347 25.1694 63.9702 23.795C64.83 23.5373 65.6898 23.2796 66.4637 23.0219C66.4637 23.0219 66.5496 23.0219 66.6356 23.0219C66.6356 23.0219 66.7216 23.0219 66.8076 23.0219C66.8936 23.0219 66.9795 23.1078 67.0655 23.1078C67.4954 23.1078 67.9253 23.1937 68.3553 23.1937C68.3553 23.1937 68.4412 23.1937 68.5272 23.1937C68.5272 23.1937 68.6132 23.2796 68.5272 23.3655C68.5272 23.795 68.5272 24.2245 68.6132 24.5681C68.6132 24.654 68.6132 24.8258 68.7852 24.9117C68.7852 24.9117 68.7852 24.9976 68.7852 25.0835C68.7852 25.0835 68.7852 25.1694 68.7852 25.2553C68.5272 25.9425 68.2693 26.8015 68.0113 27.7464C66.6356 30.0657 64.5721 32.2133 62.4225 33.5877C60.0151 35.2198 58.8113 36.4224 58.1235 37.0237C58.1235 37.0237 58.0375 37.0237 57.9515 37.0237C56.4898 37.0237 55.2001 37.2814 54.0824 37.625C53.9964 37.625 53.9104 37.625 53.8244 37.625C53.8244 37.625 53.8244 37.5391 53.8244 37.4532L54.0824 37.7109ZM58.1235 36.8519C58.8113 36.1647 60.101 35.048 62.4225 33.4159C64.4861 32.1274 66.6356 29.8939 67.8394 27.7464C68.0973 26.8874 68.3552 26.0284 68.6132 25.3412C68.6132 25.2553 68.5272 25.0835 68.4412 24.9117C68.4412 24.5681 68.3553 24.2245 68.3553 23.795C67.9253 23.795 67.5814 23.795 67.1515 23.7091C66.9795 23.7091 66.8936 23.6232 66.8076 23.5373C66.0338 23.795 65.2599 24.0527 64.4001 24.2245C62.2506 25.513 60.0151 27.5746 58.7253 29.7221C57.0917 32.0415 55.9739 33.33 55.2861 34.0172C55.2861 35.3057 55.0281 36.5083 54.7702 37.4532C55.802 37.1955 56.9197 37.0237 58.2095 36.9378L58.1235 36.8519Z" fill="#A8A8A8"/>
<path d="M91.6561 91.9141C91.6561 91.9141 91.6561 91.8282 91.6561 91.7423C91.6561 91.7423 91.6561 91.5705 91.6561 91.3128C91.0542 90.3679 89.0766 87.9627 81.5103 88.3063C76.6093 88.4781 70.0748 86.4164 67.4953 82.2073C66.4636 84.3548 63.7981 85.3856 61.9065 86.1587C61.5626 86.3305 61.2187 86.4164 60.8748 86.5882C58.2953 87.619 57.0916 88.3922 56.4037 88.8217C56.0598 88.9935 55.8879 89.1653 55.7159 89.1653C55.7159 89.1653 55.7159 89.1653 55.6299 89.1653C55.5439 89.1653 55.372 89.1653 55.372 88.8217C55.286 88.9076 55.114 88.9935 55.028 88.9076C55.028 88.9076 54.8561 88.8217 54.8561 88.7358C54.7701 88.564 54.6841 88.3922 54.5981 87.9627C54.4262 87.1895 54.1682 85.8151 53.0505 83.324C52.9645 83.0663 52.7925 82.7227 52.6206 82.3791C51.9327 80.9188 51.1589 79.1148 51.1589 77.225C51.1589 76.6237 51.1589 76.1083 51.4168 75.5929C46.6019 76.6237 40.4972 73.5313 37.1439 69.9234C32.071 64.4258 28.9757 64.7694 27.8579 64.9412C27.686 65.1989 27.6 65.2848 27.514 65.2848C27.514 65.2848 27.514 65.2848 27.3421 65.2848C27.1701 65.2848 27.0841 65.2848 27.0841 65.1989L26.9981 65.0271L26.8262 65.0271C26.8262 65.0271 26.7402 64.8553 26.7402 64.7694C26.7402 64.7694 26.7402 64.6835 26.7402 64.5976C26.7402 64.5976 26.8262 64.4258 27.0841 64.254C27.0841 63.9963 27.0841 63.7386 27.0841 63.395C27.0841 60.9038 25.3645 58.155 22.0112 55.0626C19.1738 52.3996 16.1645 47.5033 16.1645 42.8646C16.1645 42.1774 16.1645 41.4902 16.4224 40.803C14.1009 41.5761 11.5215 40.4594 9.62991 39.6004C9.28598 39.4286 9.02804 39.3427 8.68411 39.1709C6.10468 38.0541 4.72897 37.7105 3.95514 37.6246C3.61121 37.6246 3.35327 37.5387 3.18131 37.3669C3.18131 37.3669 2.92336 37.1092 3.18131 36.8515C3.09532 36.8515 3.00935 36.8515 2.92336 36.7656C2.92336 36.7656 2.83738 36.5938 2.92336 36.422C2.92336 36.2502 3.09533 36.0784 3.26729 35.7348C3.6972 35.1335 4.47102 33.9309 5.41683 31.3539C5.5028 31.0962 5.67477 30.7526 5.76075 30.409C6.53458 28.4332 7.56635 25.8562 9.71589 24.7395C5.58878 22.0766 3.43926 15.634 3.61121 10.6517C3.95514 3.17833 1.46168 1.20261 0.601869 0.515403C0.257943 0.515403 0.17196 0.515403 0.0859844 0.515403C0.0859844 0.515403 0.0859767 0.515403 -0.0859822 0.515403C-0.257949 0.343604 -0.257949 0.257697 -0.171965 0.0858983L0.773835 0.0858983C1.71963 0.687201 4.38505 2.74883 4.04112 10.5658C4.04112 10.7376 4.04112 10.9094 4.04112 11.0812C4.04112 15.9776 6.19065 22.1625 10.3178 24.3959C10.3178 24.3959 10.4037 24.5677 10.4037 24.6536C10.4037 24.7395 10.4037 24.8254 10.2318 24.8254C7.99625 25.7703 6.96449 28.4332 6.19066 30.409C6.01869 30.7526 5.9327 31.0962 5.84672 31.3539C4.81495 33.9309 4.04112 35.2194 3.61121 35.8207C3.52523 35.9925 3.43925 36.0784 3.35326 36.1643L3.61121 36.1643C3.61121 36.1643 3.78317 36.1643 3.86916 36.3361C3.86916 36.3361 3.86916 36.5079 3.86916 36.5938C3.78317 36.5938 3.6972 36.7656 3.61121 36.7656C3.6972 36.7656 3.86916 36.7656 4.04112 36.8515C4.81496 37.0233 6.27663 37.281 8.85607 38.3978C9.11401 38.4837 9.45794 38.6555 9.80187 38.8273C11.6935 39.6863 14.3589 40.8889 16.5944 39.8581C16.5944 39.8581 16.7664 39.8581 16.8523 39.8581C16.8523 39.8581 16.9383 40.0299 16.8523 40.1158C16.5944 40.8889 16.5084 41.662 16.5084 42.521C16.5084 46.9879 19.4318 51.7983 22.1832 54.3753C25.7084 57.5537 27.428 60.4743 27.428 63.0514C27.428 63.4809 27.428 63.9104 27.3421 64.0822C27.3421 64.0822 27.342 64.1681 27.2561 64.254C27.2561 64.254 27.342 64.1681 27.428 64.1681C28.5458 63.9963 31.8131 63.395 37.2299 69.3221C40.5832 72.93 46.7738 76.0224 51.5028 74.7339C51.5028 74.7339 51.6748 74.7339 51.7607 74.7339C51.7607 74.7339 51.7607 74.9057 51.7607 74.9916C51.5028 75.5929 51.4168 76.1942 51.4168 76.7955C51.4168 78.5135 52.1907 80.3175 52.8785 81.7778C53.0505 82.1214 53.2224 82.465 53.3084 82.7227C54.4262 85.2997 54.7701 86.6741 54.9421 87.4472C54.9421 87.619 54.9421 87.7908 55.028 87.8768C55.028 87.8768 55.2 87.7908 55.2 87.7049C55.2 87.7049 55.372 87.619 55.4579 87.7049C55.5439 87.7049 55.6299 87.7908 55.6299 87.9627C55.6299 88.0486 55.6299 88.1345 55.6299 88.2204C55.6299 88.2204 55.8878 88.0486 55.9738 87.9627C56.6617 87.5331 57.8654 86.76 60.5308 85.7292C60.8748 85.6433 61.2187 85.4715 61.5626 85.2997C63.5402 84.5266 66.2056 83.4958 67.0654 81.2624C67.0654 81.2624 67.1514 81.0906 67.3234 81.0906C67.3234 81.0906 67.4953 81.0906 67.5813 81.1765C69.9888 85.4715 76.5234 87.619 81.4243 87.4472C89.3346 87.4472 91.3121 90.0243 92 90.9692L92 92C92 92 92 92 91.914 92C91.914 92 91.7421 92 91.6561 91.9141Z" fill="#A8A8A8"/>
<path d="M19.7767 0.601509C19.7767 0.601509 19.5188 0.773316 19.4328 0.859218C19.4328 0.859218 19.2608 0.859218 19.1749 0.859218C18.659 0.601514 18.1431 0.429711 17.5412 0.429711C15.3057 0.429711 15.1337 1.63232 15.1337 2.14773C15.1337 2.66314 15.3917 3.17854 15.5636 3.35035C15.5636 3.35035 15.8216 3.52214 15.9076 3.52214C15.9076 3.52214 15.9936 3.52214 16.0795 3.52214C16.5094 3.77985 16.7674 3.86575 16.8534 3.86575C16.8534 3.43624 16.6814 2.57723 17.1113 2.40543C17.1973 2.40543 17.3693 2.40543 17.6272 2.49133C18.659 2.57723 19.9487 3.77985 20.6365 5.24016C20.7225 5.84147 20.8945 6.52868 20.9805 7.04409C20.9805 7.12999 20.9805 7.21589 20.8945 7.30179C20.2066 7.7313 19.0889 8.33261 17.7992 7.989C16.3375 7.5595 15.1337 6.01328 13.844 4.38116C13.2422 3.60805 12.5543 2.83494 11.8665 2.14773C11.0066 1.28872 10.1468 0.601515 9.28701 0.17201C9.28701 0.17201 9.28701 0.172008 9.28701 0.0861071L10.0608 0.0861071C10.8347 0.515612 11.5225 1.11692 12.2964 1.89003C12.9842 2.57724 13.6721 3.35034 14.2739 4.20935C15.5636 5.75557 16.7674 7.21589 18.0571 7.6454C19.0889 7.9031 19.9487 7.55949 20.6365 7.12999C20.5506 6.61458 20.3786 6.01328 20.2926 5.41197C19.6907 4.12345 18.487 3.00674 17.5412 3.00674C17.5412 3.00674 17.4552 3.00674 17.3693 3.00674C17.3693 3.00674 17.3693 3.17854 17.3693 3.43624C17.3693 3.60804 17.3693 3.86575 17.3693 3.95165C17.3693 4.03755 17.3693 4.12345 17.3693 4.20935C17.3693 4.29525 17.3693 4.38116 17.1973 4.46706C17.1973 4.46706 17.1973 4.46706 17.1113 4.46706C16.9393 4.46706 16.5954 4.46706 15.9076 4.12346C15.6496 4.12346 15.4777 4.12345 15.3057 3.86575C14.8758 3.52214 14.6179 2.92084 14.6179 2.31954C14.6179 1.89003 14.8758 0.601509 16.7674 0.257904L18.2291 0.257904C18.2291 0.257904 18.9169 0.429707 19.2608 0.601509C19.2608 0.601509 19.4328 0.515612 19.5188 0.429711C19.5188 0.429711 19.6908 0.429709 19.6908 0.343808L20.3786 0.343808C20.3786 0.343808 20.3786 0.34381 20.3786 0.429711C20.1207 0.601513 19.8627 0.773316 19.6908 0.859218L19.7767 0.601509Z" fill="#A8A8A8"/>
<path d="M61.476 37.4523C61.476 37.4523 61.304 37.4523 61.304 37.2805C61.304 37.2805 61.304 37.1087 61.476 37.1087C62.3358 36.6792 63.1096 36.1638 63.9694 35.5625C66.5489 34.0163 68.6124 30.752 69.3003 28.4327C69.3003 27.7455 69.3003 27.0583 69.3862 26.457C69.3862 26.3711 69.3862 26.2852 69.5582 26.2852C69.5582 26.2852 69.7302 26.2852 69.8162 26.2852C71.1059 27.5737 73.4274 27.7455 75.061 26.8006C77.1246 25.4261 77.3825 23.1068 77.4685 21.4747L77.4685 21.3029C77.4685 21.3029 77.5545 21.0452 77.7264 21.0452C77.8984 21.0452 77.9844 21.0452 77.9844 21.217C77.9844 21.9042 77.9844 22.4196 77.9844 22.935C77.9844 23.4504 77.9844 24.0517 77.9844 24.653C77.9844 28.9481 76.5227 32.3841 74.0292 34.0163C73.3414 34.5317 72.6535 34.7035 72.1376 34.4458C71.4498 34.1022 71.1919 33.2431 71.1919 32.47C71.1919 32.2123 71.1919 31.7828 71.4498 31.5251C71.4498 31.5251 71.6218 31.4392 71.7077 31.4392C72.2236 31.2674 72.7395 31.2674 73.0834 31.2674C72.7395 30.9238 72.1376 30.752 71.4498 30.5802C70.418 30.5802 69.6442 31.7828 69.6442 33.1572C69.6442 33.4149 69.6442 33.6726 69.6442 33.8444C69.6442 33.8444 69.6442 33.8444 69.6442 33.9303C69.6442 34.3599 69.8162 34.8753 70.2461 35.3048C70.2461 35.3048 70.2461 35.4766 70.2461 35.6484C69.4722 36.6792 68.5264 37.3664 67.3227 37.5382C65.861 37.8818 64.0554 37.71 62.1638 37.5382L61.39 37.5382L61.476 37.4523ZM67.3227 37.0228C68.6124 36.7651 69.3862 36.0779 69.9021 35.4766C69.4722 34.9612 69.3003 34.4458 69.3003 33.9303C69.3003 33.6726 69.3003 33.4149 69.3003 33.0713C69.3003 31.4392 70.332 30.1507 71.6218 30.0648C72.7395 30.2366 73.5133 30.5802 73.8573 31.1815C73.8573 31.1815 73.8573 31.1815 73.9433 31.2674C73.9433 31.2674 73.6853 31.5251 73.3414 31.5251C72.9975 31.5251 72.4816 31.5251 71.8797 31.6969C71.8797 31.6969 71.7937 31.9546 71.7937 32.2982C71.7937 32.8995 72.0517 33.5867 72.4816 33.8444C72.9115 34.1022 73.5133 33.8445 73.8573 33.5008C76.6087 31.6969 77.6405 27.7455 77.6405 24.5671C77.6405 24.3094 77.6405 24.0517 77.6405 23.794C77.3825 24.9966 76.6947 26.1993 75.319 27.1442C73.6853 28.175 71.2778 28.0032 69.8162 26.8865C69.8162 27.316 69.8162 27.8314 69.7302 28.4327C69.0423 30.9238 66.8928 34.1881 64.2274 35.8202C63.6255 36.2497 63.0236 36.6792 62.4218 37.0228C64.3133 37.1946 66.033 37.2805 67.4947 37.0228L67.3227 37.0228Z" fill="#A8A8A8"/>
<path d="M86.6704 47.5891C85.2087 46.3006 83.833 45.1839 83.0592 43.8954C82.5433 43.1223 82.1994 42.2633 82.1994 41.3183C82.1994 41.0606 82.1994 40.8029 82.1994 40.4593C82.1994 40.3734 82.2854 40.2875 82.4573 40.2875C82.8873 40.2875 83.4891 40.1157 83.919 39.6862C84.7788 39.0849 85.3807 38.14 85.3807 37.1951C85.3807 36.7656 85.2087 36.422 85.0368 36.1643C84.4349 35.7348 83.833 35.4771 83.4031 35.3912C83.6611 35.6489 84.005 35.9925 84.263 36.422C84.263 36.422 84.3489 36.5938 84.3489 36.7656C84.3489 37.3669 83.3172 38.3118 82.3714 38.3977C81.8555 38.3977 81.0816 38.2259 80.8237 36.7656C80.7377 36.3361 80.6517 35.8207 80.6517 35.3912C80.6517 31.7833 83.4891 28.2614 85.8106 26.2857C86.1545 25.9421 86.5844 25.5985 87.0144 25.169C87.1003 25.083 87.2723 25.169 87.3583 25.169C87.3583 25.169 87.3583 25.4267 87.3583 25.5126L87.3583 25.5985C86.3265 26.6293 85.1228 28.0896 85.1228 30.0653C85.1228 30.4089 85.1228 30.7525 85.2087 31.0961C85.6387 32.9859 87.4443 34.4463 89.2499 34.4463C89.3359 34.4463 89.4218 34.4463 89.5078 34.6181C89.5078 34.6181 89.5078 34.7899 89.5078 34.8758C89.1639 35.3053 88.648 35.8207 88.2181 36.2502C86.8424 38.6554 86.2405 42.4351 86.8424 45.098C87.0144 46.1288 87.1863 46.9878 87.5302 47.9327C87.5302 48.0186 87.5302 48.1045 87.4443 48.1904C87.4443 48.1904 87.2723 48.1904 87.1863 48.1904L86.6704 47.675L86.6704 47.5891ZM86.4985 45.098C86.3265 44.4108 86.2405 43.5518 86.2405 42.6928C86.2405 40.3734 86.8424 37.7964 87.8742 35.9066C88.2181 35.4771 88.562 35.1335 88.82 34.7899C87.0144 34.5322 85.2087 32.9859 84.7788 31.0961C84.7788 30.7525 84.6929 30.323 84.6929 29.9794C84.6929 28.8627 85.0368 27.9178 85.5527 27.0588C83.4031 29.0345 81.1676 32.1269 81.1676 35.3053C81.1676 35.7348 81.1676 36.1643 81.3396 36.5938C81.5116 37.4528 81.8555 37.8823 82.3714 37.8823C83.1452 37.8823 83.919 37.0233 83.919 36.7656C83.5751 36.3361 83.2312 35.9066 82.9732 35.6489C82.7153 35.3912 82.6293 35.3053 82.6293 35.2194C82.6293 35.1335 82.6293 35.0476 82.8013 34.9617C82.8013 34.9617 82.8013 34.9617 82.8873 34.9617C83.5751 34.7899 84.3489 35.0476 85.2947 35.8207C85.6387 36.1643 85.8106 36.6797 85.8106 37.1951C85.8106 38.2259 85.1228 39.3426 84.177 40.0298C83.833 40.4593 83.3172 40.6311 82.6293 40.717C82.4573 41.8338 82.7153 42.7787 83.3172 43.6377C84.091 44.8403 85.4667 45.957 86.8424 47.1596C86.6704 46.4724 86.4985 45.7852 86.4125 45.098L86.4985 45.098Z" fill="#A8A8A8"/>
<path d="M91.3981 89.1656C90.3664 87.3617 86.5832 85.4718 81.5103 85.7295C76.7813 85.8154 70.4187 84.5269 68.0112 80.3178C66.7215 77.9985 66.3776 75.6791 66.2056 74.1329C66.2056 74.4765 66.2056 74.906 66.2056 75.3355C66.2056 76.7958 66.4636 78.2562 66.8935 79.7165C66.8935 79.7165 66.8935 79.7165 66.8935 79.8883C66.7215 80.4037 66.5495 80.8332 66.2916 81.1768C65.7757 82.0358 64.6579 82.4653 63.7981 82.8089C63.7981 82.8089 63.6262 82.8089 63.5402 82.8089C63.4542 82.8089 63.5402 82.6371 63.5402 82.5512C63.7121 82.1217 63.8841 81.6063 63.9701 81.1768C63.9701 79.5447 64.314 76.8817 65.4318 72.9303C64.4 74.047 61.9925 77.5689 61.9065 80.7473C61.6486 81.7781 61.5626 82.6371 61.4766 83.4102C61.4766 83.4961 61.4766 83.582 61.3047 83.582C60.8748 83.7538 60.3589 83.9256 59.929 84.0974C58.3813 84.6987 57.1776 85.5577 56.4897 86.4168C56.4897 86.4168 56.3178 86.5027 56.2318 86.4168C56.2318 86.4168 56.0598 86.245 56.0598 86.1591C56.2318 84.9564 56.0598 83.6679 55.372 82.1217C55.2 81.6922 54.9421 81.1768 54.7701 80.8332C54.7701 80.8332 54.7701 80.6614 54.7701 80.5755C55.286 79.9742 55.8019 79.287 56.4037 78.3421C58.4673 76.1086 59.3271 71.9854 59.4131 70.4392C58.7252 71.7277 56.9196 74.906 54.6841 77.3112C54.4262 77.7407 54.1682 78.1703 53.9963 78.5998C53.9963 78.5998 53.9103 78.7716 53.7383 78.7716C53.7383 78.7716 53.5664 78.7716 53.5664 78.5998C53.0505 77.5689 52.8785 76.7958 52.8785 76.1945C52.8785 76.0227 52.8785 75.8509 52.8785 75.6791C52.8785 75.2496 53.1364 74.8201 53.3084 74.3906C53.3084 74.3906 53.3084 74.3906 53.3944 74.3906C55.5439 73.2739 57.0056 71.8136 57.8654 70.8687C56.6617 71.8136 54.7701 73.188 52.1907 73.9611C47.5477 75.1637 42.1308 71.6418 38.8636 68.2057C35.4243 64.4261 31.5551 63.1376 29.4916 63.653C29.0617 63.8248 28.6318 63.9966 28.2878 64.1684C28.2878 64.1684 28.1159 64.1684 28.0299 64.1684C28.0299 64.1684 28.0299 63.9966 28.0299 63.9107C28.2019 63.5671 28.3738 63.1376 28.5458 62.794C28.5458 62.4504 28.7178 62.1068 28.7178 61.7632C28.7178 59.8733 27.514 56.5232 23.9888 53.3449C21.0654 50.596 17.9701 46.1292 17.9701 41.92C17.9701 41.2328 18.0561 40.5456 18.228 39.9443C19.0019 37.3673 20.3776 35.4774 21.3234 34.2748C20.2916 35.1338 18.9159 36.5083 17.7981 38.6558C17.7981 38.6558 17.7981 38.6558 17.7121 38.7417C17.2822 38.9994 16.8523 39.1712 16.4224 39.2571C15.3906 39.4289 14.3589 38.9994 13.4991 38.6558C13.4991 38.6558 13.3271 38.5699 13.3271 38.3981C13.3271 38.2263 13.3271 38.2263 13.4991 38.1404C13.929 37.9686 14.3589 37.7109 14.7028 37.4532C17.1103 35.2197 20.3776 33.4158 21.5813 32.7286C20.0336 32.7286 15.8206 33.5876 13.585 35.7351C12.7252 36.2506 12.0374 36.8519 11.4355 37.3673C11.4355 37.3673 11.2636 37.3673 11.1776 37.3673C10.7477 37.1096 10.3177 36.9378 9.88785 36.766C8.34018 36.1647 6.96448 35.9069 5.84672 36.0787C5.76074 36.0787 5.67476 36.0787 5.58878 35.9069C5.58878 35.821 5.58878 35.7351 5.58878 35.6492C6.53458 34.962 7.3084 33.7594 7.99625 32.2132C8.16822 31.7837 8.34018 31.2683 8.42616 30.8388C8.42616 30.7529 8.51215 30.667 8.68411 30.667C9.45795 30.667 10.3177 30.4952 11.3495 30.2375C14.4449 30.2375 17.9701 27.8323 19.0879 26.7155C15.9065 27.6605 13.1551 28.1759 10.9196 28.1759C10.4897 28.2618 9.97382 28.4336 9.54392 28.6054C9.45794 28.6054 9.37196 28.6054 9.28598 28.6054C9.28598 28.6054 9.28598 28.4336 9.28598 28.3477C9.62991 27.4887 10.0598 26.4578 10.9196 25.8565C11.2635 25.5988 11.6935 25.427 12.1234 25.2552C12.1234 25.2552 12.1234 25.2552 12.2953 25.2552C14.6168 26.0283 16.6804 26.0283 17.9701 25.8565C16.4224 25.6847 14.1009 25.3411 11.7794 24.0526C7.8243 21.7333 6.44859 15.6343 6.44859 11.0816L6.44859 10.5662C6.70654 5.498 4.81495 1.71834 3.00934 0.687537C2.57943 0.515731 2.23551 0.343932 1.8056 0.258025C1.8056 0.258025 1.8056 0.258033 1.71962 0.172133L2.83738 0.172133C2.83738 0.172133 3.09533 0.258033 3.26729 0.343932C5.0729 1.28884 6.96448 4.72488 6.96448 9.79304C6.96448 10.0507 6.96448 10.3943 6.96448 10.6521C6.79252 15.1189 8.16822 21.3897 12.1234 23.709C14.7028 25.1693 17.3682 25.3411 18.7439 25.5129C18.9159 25.5129 19.0019 25.5129 19.1738 25.5129C19.1738 25.3411 19.1738 25.1693 19.3458 24.9116C20.3776 22.0769 23.043 21.3038 25.2785 20.9602C26.4822 20.9602 27.772 20.9602 28.8037 21.132C29.5776 21.132 30.3514 21.3038 31.0393 21.3038C31.7271 21.3897 32.329 21.3897 33.0168 21.3038C31.4692 20.273 30.5234 18.2972 30.5234 15.892C30.5234 14.6894 30.7813 13.5727 31.1252 12.8855C31.3832 12.1124 31.7271 11.3393 32.243 10.738C31.7271 10.9957 31.1252 11.2534 30.5234 11.4252C27.9439 12.456 23.043 12.7137 21.2374 8.84813C21.1514 8.59043 21.0654 8.41862 21.0654 8.16093C20.2916 8.84813 19.2598 9.19173 17.9701 9.27763C15.2187 8.93404 13.2411 6.78651 11.6075 5.1544C11.1776 4.72488 10.7477 4.20947 10.3178 3.86587C9.11401 2.57735 7.99626 1.63245 6.8785 0.945235C5.93271 0.945235 4.98692 0.60163 4.98692 0.258025C4.98692 0.258025 4.98692 0.0862264 5.0729 0.0862264L5.76075 0.0862264L5.76075 0.172133C5.76075 0.172133 5.76074 0.172133 5.67477 0.172133C5.93271 0.258033 6.36261 0.429831 6.96448 0.429831C6.96448 0.429831 6.96449 0.429831 7.05046 0.429831C8.16822 1.11704 9.37196 2.14785 10.5757 3.43636C11.0056 3.77997 11.4355 4.29538 11.8654 4.72488C13.4991 6.44291 15.3907 8.41863 17.8841 8.76224C19.1738 8.76224 20.2056 8.24683 20.9794 7.47372C20.9794 7.47372 21.1514 7.38782 21.2374 7.47372C21.2374 7.47372 21.4093 7.55962 21.4093 7.73141C21.4093 8.16092 21.4093 8.41863 21.5813 8.76224C23.4729 12.7137 28.6318 11.7688 30.2654 11.0816C31.2972 10.738 32.329 10.2225 33.2748 9.70714C33.3607 9.70714 33.5327 9.70714 33.6187 9.70714C33.6187 9.79304 33.6187 9.96484 33.6187 10.0508C32.6729 10.8239 31.985 11.8547 31.5551 13.1432C31.2112 13.8304 30.9533 14.8612 30.9533 15.9779C30.9533 16.9228 31.2112 20.1871 33.7907 21.3038C33.8766 21.3038 33.9626 21.4756 33.9626 21.5615C33.9626 21.6474 33.9626 21.7333 33.7907 21.7333C32.8449 21.9051 31.8991 21.9051 31.0393 21.7333C30.3514 21.7333 29.5776 21.7333 28.8037 21.5615C27.686 21.4756 26.5682 21.3038 25.3645 21.3897C23.3009 21.7333 20.8075 22.4205 19.8617 24.9975C19.8617 25.2552 19.7757 25.427 19.6897 25.6847C19.6897 25.6847 19.6897 25.6847 19.6897 25.7706C19.6897 25.7706 19.6897 25.9424 19.6897 26.0283L19.6897 26.1142C19.6897 26.1142 19.6897 26.3719 19.5178 26.3719C19.5178 26.3719 19.6897 26.4578 19.7757 26.5437C20.0336 27.6605 20.9794 28.4336 21.7533 28.7772C21.7533 28.7772 21.8393 28.7772 21.9252 28.949C21.9252 28.949 21.9252 29.0349 21.9252 29.1208C21.4953 30.0657 21.5813 31.2683 22.0972 32.1273C22.0972 32.1273 22.0972 32.2991 22.0972 32.385C22.0972 32.385 22.3551 32.385 22.4411 32.385L22.4411 32.4709C22.4411 32.4709 22.6131 32.6427 22.6991 32.7286C22.6991 32.7286 22.6991 32.7286 22.785 32.7286C22.957 32.9004 23.129 33.0722 23.3869 33.1581C25.9664 34.3607 28.2879 32.9863 29.7495 31.8696C30.6093 31.0965 31.3832 30.1516 32.071 29.2926C32.5869 28.6913 33.1028 28.09 33.5327 27.5745C34.0486 26.8014 34.7364 26.2001 35.5103 25.6847C35.5103 25.6847 35.6822 25.6847 35.7682 25.6847C35.8542 25.6847 35.9402 25.8565 35.7682 25.9424C35.5963 26.3719 35.5103 26.8873 35.5103 27.4028C35.5103 30.1516 38.1757 32.7286 39.9813 33.3299C41.0991 33.9312 42.3888 34.103 43.5925 34.0171C43.7645 34.0171 43.8505 34.0171 43.8505 34.1889C43.8505 34.2748 43.8505 34.4466 43.6785 34.4466C42.9907 34.6184 41.8729 34.962 40.5832 35.5633C38.6916 36.4224 35.7682 38.7417 35.7682 41.6623C35.7682 42.1777 35.8542 42.779 36.0262 43.2944C36.1121 43.638 36.3701 43.8957 36.628 44.1534C36.628 44.1534 36.628 44.3253 36.628 44.4112C36.628 44.4112 36.4561 44.583 36.3701 44.4971C35.2523 44.4971 34.2206 44.8407 33.2748 45.6997C31.985 47.3318 31.8131 49.5652 31.8131 51.5409C31.8131 51.9704 31.8131 52.3999 31.8131 52.8295C31.8131 53.5167 31.8131 54.118 31.8131 54.6334C31.8131 54.8911 31.8131 55.1488 31.8131 55.4065C31.8131 56.9527 31.7271 58.2412 31.4692 59.3579C31.4692 59.3579 31.4692 59.3579 31.4692 59.4438C31.0392 59.8733 30.8673 60.3028 30.7813 60.5605C30.7813 60.5605 30.7813 60.5605 30.8673 60.5605C30.8673 60.5605 31.0392 60.5605 31.1252 60.5605C31.1252 60.5605 31.1252 60.7323 31.1252 60.8182C31.1252 60.8182 31.1252 60.8182 31.1252 60.9042C31.3832 60.8182 31.7271 60.6464 32.157 60.2169C32.157 60.2169 32.157 60.2169 32.243 60.2169C33.5327 59.9592 35.0804 59.7874 36.972 59.8733C37.5738 59.8733 38.1757 59.8733 38.8636 59.8733C41.271 59.8733 43.9364 59.9592 45.914 58.413C46.7738 57.554 47.2037 56.6091 47.2037 55.5783C47.2037 55.5783 47.2037 55.4065 47.2037 55.3206C47.2037 55.2347 47.2037 55.1488 47.3757 55.0629C47.4617 55.0629 47.5477 55.0629 47.6336 55.0629C47.8916 55.3206 48.1495 55.4924 48.4935 55.6642C52.3626 57.0386 55.372 53.259 56.2318 51.1114C56.7477 50.0806 57.0916 49.0498 57.3495 48.019C57.3495 47.9331 57.5215 47.8472 57.6075 47.8472C57.6935 47.8472 57.7794 47.9331 57.7794 48.1049C57.7794 48.2767 57.7794 48.4485 57.7794 48.7062C57.7794 49.737 58.0374 50.7678 58.5533 51.7986C58.8972 53.0013 60.3589 54.8052 62.1645 55.7501C63.1103 56.1796 64.486 56.6091 65.9477 56.0937C65.9477 56.0937 66.1196 56.0937 66.2056 56.0937C66.2056 56.0937 66.2056 56.2655 66.2056 56.3514C65.6037 57.1245 65.0019 57.8117 64.314 58.3271C63.7981 58.8425 63.1963 59.272 62.5944 59.7874C61.7346 60.4746 60.7888 61.1619 60.015 62.1068C58.8112 63.7389 58.2093 65.1992 58.2093 66.4877C58.2093 67.1749 58.3813 67.8621 58.6393 68.5493C58.7252 68.7211 58.8972 68.8929 59.0692 69.1506C59.0692 69.1506 59.0692 69.1506 59.0692 69.2365C59.1551 69.3225 59.2411 69.4084 59.3271 69.4943C59.3271 69.4943 59.4991 69.6661 59.4991 69.752C59.4991 69.752 59.671 69.752 59.757 69.752C60.7888 70.3533 61.9925 70.2674 62.7664 69.9238C62.8523 69.9238 63.0243 69.9238 63.1103 70.0956C63.4542 70.8687 64.1421 71.8136 65.3458 72.0713C65.3458 72.0713 65.5178 72.0713 65.5178 72.2431C65.5178 72.2431 65.6897 72.0713 65.7757 72.0713C65.7757 72.0713 66.1196 72.0713 66.2056 72.0713C66.2056 72.0713 66.2056 72.0713 66.2916 72.0713C66.5495 72.0713 66.7215 72.0713 66.9794 71.8995C69.5589 70.9546 70.2467 68.4634 70.5907 66.4018C70.5907 65.1992 70.5907 64.0825 70.4187 62.9658C70.3327 62.1927 70.2467 61.4196 70.2467 60.7323C70.0748 59.7874 70.1607 58.9284 70.2467 57.8976C70.2467 57.8117 70.3327 57.7258 70.5047 57.7258C70.5907 57.7258 70.6766 57.7258 70.7626 57.8976C71.3645 59.272 72.6542 59.9592 73.6 60.3028C75.5776 60.9901 77.8131 60.7323 79.0168 60.131C80.2206 59.7015 81.3383 59.0143 82.1121 58.0694C82.1121 57.9835 82.3701 57.9835 82.4561 58.0694C82.5421 58.0694 82.628 58.2412 82.4561 58.413C81.8542 59.3579 81.4243 60.3887 80.9944 61.5055C80.5645 62.4504 80.3925 63.7389 80.3925 64.9415C80.3925 66.7454 80.9084 69.0647 83.3159 70.1815C83.6598 70.3533 83.9178 70.3533 84.3477 70.3533C84.4336 70.3533 84.5196 70.3533 84.6056 70.5251C84.6056 70.611 84.6056 70.6969 84.6056 70.7828C83.7458 71.5559 83.3159 72.5867 83.3159 73.8752C83.6598 76.3663 85.5514 78.2562 87.271 79.9742C87.7009 80.4037 88.2168 80.8332 88.5607 81.2627C89.8505 82.5512 90.8822 83.6679 91.6561 84.7846C91.6561 84.7846 91.6561 84.7846 91.6561 84.8705C91.6561 85.4718 91.828 85.9013 91.914 86.1591C91.914 86.1591 91.914 86.1591 91.914 86.0731C91.914 86.0731 91.914 86.0731 92 86.0731L92 86.7604C92 86.7604 91.914 86.8463 91.7421 86.8463C91.3981 86.8463 91.0542 85.9013 91.0542 84.9564C90.3664 83.9256 89.4206 82.8089 88.1308 81.5204C87.7869 81.0909 87.271 80.6614 86.8411 80.2319C85.1215 78.5998 83.0579 76.624 82.714 73.8752C82.714 72.6726 83.1439 71.6418 83.8318 70.7828C83.5738 70.7828 83.4019 70.6969 83.1439 70.611C81.0804 69.6661 79.9626 67.6044 79.9626 64.9415C79.9626 63.7389 80.2206 62.3645 80.6505 61.4196C80.8224 60.8183 81.0804 60.2169 81.3383 59.6156C80.7364 60.131 79.9626 60.4746 79.1888 60.7323C77.985 61.4196 75.5776 61.6773 73.428 60.9042C72.2243 60.4746 71.2785 59.7874 70.6766 58.8425C70.6766 59.5297 70.6766 60.131 70.6766 60.8182C70.6766 61.5055 70.6766 62.2786 70.8486 63.0517C70.9346 63.9966 71.1065 64.9415 71.1065 65.9723C71.1065 66.1441 71.1065 66.3159 71.1065 66.4877C70.7626 68.6352 69.9888 71.2982 67.1514 72.329C66.9794 72.329 66.8075 72.4149 66.5495 72.5008C66.5495 72.6726 66.5495 72.7585 66.5495 72.9303C66.7215 74.3047 66.8935 76.8817 68.3551 79.5447C70.5047 83.2384 76.5234 84.7846 81.4243 84.6987C86.8411 85.0423 90.7103 86.9322 91.828 88.9938C91.828 89.1656 91.914 89.2515 92 89.3374L92 90.4541C92 90.4541 91.914 90.4541 91.828 90.4541C91.7421 90.1105 91.5701 89.681 91.3981 89.2515L91.3981 89.1656ZM18.8299 26.2001C17.6262 26.3719 15.2187 26.6296 12.0374 25.6847C11.6075 25.7706 11.2636 25.9424 11.0056 26.2001C10.4897 26.5437 10.1458 27.145 9.71589 28.0041C10.0598 27.9182 10.3178 27.8323 10.7477 27.7464C12.9832 27.7464 15.6486 27.145 18.8299 26.286L18.8299 26.2001ZM21.0654 32.2991C20.6355 31.4401 20.6355 30.3234 20.9794 29.3785C20.2056 29.0349 19.4318 28.3477 19.0019 27.3168C17.6262 28.5195 14.1869 30.5811 11.2635 30.667C10.3177 30.9247 9.45795 31.0106 8.68411 31.0965C8.59813 31.526 8.42617 31.9555 8.2542 32.385C7.73832 33.7594 7.05046 34.7902 6.27663 35.5633C7.3084 35.5633 8.51215 35.821 9.88785 36.3365C10.3177 36.5083 10.6617 36.6801 11.0916 36.9378C11.6935 36.4224 12.3813 35.9069 13.1551 35.3915C15.3047 33.3299 19.2598 32.4709 21.0654 32.2991ZM21.6673 33.244C20.3776 33.9312 17.2822 35.7351 14.8748 37.9686C14.6168 38.1404 14.2729 38.3122 14.015 38.484C14.9607 38.8276 15.6486 38.9994 16.2505 38.8276C16.5944 38.8276 16.9383 38.6558 17.2822 38.484C18.8299 35.6492 20.7215 34.0171 21.6673 33.3299L21.6673 33.244ZM58.0374 69.9238C58.0374 69.9238 58.2953 69.752 58.3813 69.6661C58.2953 69.4943 58.1234 69.3225 58.0374 69.1506C57.6935 68.4634 57.5215 67.6903 57.5215 66.9172C57.5215 65.4569 58.1234 63.9966 59.4131 62.1927C60.2729 61.2478 61.2187 60.4746 62.0785 59.8733C62.6804 59.3579 63.2822 58.9284 63.7981 58.413C64.314 58.0694 64.7439 57.554 65.1738 57.1245C64.1421 57.3822 62.9383 57.1245 61.8206 56.6091C59.843 55.5783 58.3813 53.7744 57.9514 52.4858C57.6075 51.7127 57.3495 50.9396 57.1776 50.1665C57.0056 50.7678 56.7477 51.3691 56.4897 51.8845C55.5439 54.118 52.3626 58.1553 48.1495 56.6091C47.8916 56.6091 47.7196 56.4373 47.5477 56.2655C47.5477 57.2963 47.0318 58.3271 46.172 59.272C44.0224 60.9042 41.0991 60.9041 38.7776 60.8182C38.0897 60.8182 37.4879 60.8182 36.886 60.8182C35.0804 60.8182 33.6187 60.8182 32.329 61.1619C31.5551 61.8491 30.7813 62.1068 30.6093 62.0209C30.5234 62.0209 30.4374 61.8491 30.5234 61.7632L30.5234 61.6773C30.5234 61.6773 30.5234 61.6773 30.4374 61.6773C30.2654 61.6773 30.1794 61.5055 30.1794 61.4196C30.1794 61.2478 30.3514 60.5605 31.0392 59.7874C31.2972 58.6707 31.3832 57.4681 31.3832 56.0078L31.3832 55.2347C31.3832 54.6334 31.3832 54.0321 31.3832 53.4308C31.3832 53.0013 31.3832 52.5717 31.3832 52.1422C31.3832 50.0806 31.5551 47.7613 33.0168 45.9574C33.9626 45.0984 34.9084 44.6689 35.9402 44.583C35.7682 44.4112 35.6822 44.1534 35.5963 43.8957C35.3383 43.2944 35.2523 42.6931 35.2523 42.0918C35.2523 38.9135 38.2617 36.4224 40.3252 35.5633C40.9271 35.2197 41.529 35.0479 42.0449 34.8761C41.271 34.7902 40.4972 34.5325 39.8093 34.1889C37.8318 33.5876 34.9944 30.7529 34.9944 27.8323C34.9944 27.4887 34.9944 27.2309 35.0804 26.8873C34.5645 27.3168 34.1346 27.7464 33.7907 28.2618C33.2748 28.7772 32.8449 29.2926 32.329 29.8939C31.6411 30.7529 30.8673 31.6978 29.9215 32.5568C28.2879 33.7594 25.8804 35.2197 23.043 33.9312C22.871 33.8453 22.6991 33.7594 22.5271 33.5876C22.5271 33.6735 22.3551 33.8453 22.2692 33.9312C21.4093 34.962 19.6897 37.0237 18.9159 39.8584C18.7439 40.4597 18.6579 41.061 18.6579 41.6623C18.6579 45.6997 21.6673 49.9947 24.5047 52.7435C27.428 55.4065 29.3196 58.8425 29.3196 61.5055C29.3196 61.935 29.3196 62.2786 29.1477 62.7081C29.0617 62.9658 28.9757 63.1376 28.8897 63.3094C29.0617 63.3094 29.3196 63.1376 29.5776 63.0517C31.8131 62.4504 35.8542 63.8248 39.4654 67.6903C42.6467 71.0405 47.8916 74.4765 52.3626 73.3598C55.286 72.5008 57.2636 70.8687 58.3813 69.9238L58.0374 69.9238ZM58.8972 70.2674C58.2093 71.2123 56.6617 73.188 53.7383 74.7342C53.5664 75.0778 53.3944 75.4214 53.3944 75.765C53.3084 76.3663 53.3944 77.0535 53.7383 77.9985C53.9103 77.6548 54.0822 77.3971 54.2542 77.0535C56.4037 74.7342 58.2093 71.5559 58.8972 70.2674ZM64.7439 72.9303C63.7121 72.5867 63.0243 71.7277 62.6804 70.9546C61.9065 71.2123 60.7888 71.2982 59.757 70.8687C59.585 72.6726 58.7252 76.624 56.6617 78.6857C56.1458 79.5447 55.6299 80.2319 55.114 80.8332C55.286 81.1768 55.4579 81.6063 55.7159 82.0358C56.2318 83.3243 56.4897 84.5269 56.4897 85.5577C57.2635 84.7846 58.2953 84.0974 59.671 83.582C60.1009 83.4102 60.5308 83.2384 60.9607 83.1525C60.9607 82.3794 61.1327 81.5204 61.3907 80.5755C61.3907 77.5689 63.5402 74.2188 64.7439 72.8444L64.7439 72.9303ZM65.8617 73.1021C64.7439 76.9676 64.486 79.6306 64.4 81.2627C64.4 81.6063 64.228 81.864 64.1421 82.2076C65.0878 81.864 65.6037 81.4345 65.9477 80.9191C66.2056 80.5755 66.2916 80.2319 66.4636 79.8883C66.0336 78.428 65.7757 76.9676 65.7757 75.4214C65.7757 74.4765 65.7757 73.6175 65.9477 73.1021L65.8617 73.1021Z" fill="#A8A8A8"/>
<path d="M91.1404 26.8868C90.3666 26.9727 89.9367 27.0586 89.6787 27.2304C90.1086 27.4022 90.7965 27.6599 91.2264 28.1753C91.2264 28.1753 91.2264 28.3471 91.2264 28.433C90.8825 29.1202 90.7965 29.9792 90.9684 30.8382C90.9684 30.8382 90.9684 30.9241 90.9684 31.01C90.7105 31.4396 90.3666 31.7832 90.0226 32.2127C89.7647 32.4704 89.4208 32.4704 88.9909 32.3845C88.303 32.2127 87.4432 31.6114 87.0133 30.6664C86.5834 29.6356 87.0133 28.0894 88.217 26.1137C89.2488 24.4816 90.4526 23.1931 91.2264 22.5058C90.4526 22.7635 88.0451 23.6226 85.2937 25.5983C82.2843 27.3163 77.7273 31.955 78.8451 37.3667C78.9311 39.1706 80.4787 40.2015 81.8544 40.3733C81.8544 40.3733 81.8544 40.3733 81.9404 40.3733C81.9404 40.3733 82.1983 40.3733 82.1983 40.4592C82.1983 40.4592 82.1983 40.631 82.1983 40.7169L82.1983 40.8028C82.1983 40.8028 82.0264 40.9746 81.9404 40.9746C81.8544 41.6618 81.6825 43.0362 80.8226 44.2388C80.1348 45.5273 78.4152 45.9568 77.2114 45.6991C76.4376 45.5273 75.9217 45.1837 75.9217 44.6683C75.7498 43.7234 75.9217 43.1221 76.2656 42.9503C76.6955 42.6926 77.3834 43.1221 77.8133 43.3798C77.8133 43.3798 77.9853 43.3798 77.9853 43.4657C77.9853 43.2939 77.9853 42.9503 77.6413 42.349C77.6413 42.349 77.6413 42.349 77.6413 42.2631C77.6413 42.2631 77.4694 41.9195 77.1255 41.6618C76.8675 41.49 76.1797 41.1464 75.4058 41.49C75.4058 41.49 75.3198 41.49 75.2339 41.5759C75.2339 41.5759 75.1479 41.5759 75.0619 41.6618C75.0619 41.6618 74.8899 41.6618 74.804 41.6618C74.804 41.6618 74.632 41.5759 74.632 41.49L74.632 41.3182L74.632 41.1464C74.2881 40.3733 73.6862 40.1156 73.2563 40.0297C72.8264 39.9438 72.4825 40.0297 72.4825 40.0297C72.4825 40.0297 72.4825 40.0297 72.3965 40.0297C71.7946 40.2874 71.4507 40.4592 71.3647 40.631C71.3647 40.631 71.5367 40.631 71.6226 40.631C72.2245 40.8028 73.0843 40.9746 73.0843 41.6618C73.0843 42.0913 72.7404 42.4349 72.0526 42.9503C71.7086 43.208 71.2787 43.208 70.7628 42.9503C69.7311 42.4349 68.7853 41.2323 68.7853 39.8579C68.7853 39.6001 68.7853 39.3424 68.7853 39.1706C69.1292 37.7962 69.817 36.6795 70.2469 36.1641C70.2469 36.1641 70.2469 36.1641 70.2469 36.0782C70.2469 36.0782 70.161 35.9064 70.2469 35.8205C70.2469 35.8205 70.3329 35.6487 70.4189 35.6487C70.4189 35.6487 70.5909 35.6487 70.6769 35.6487C71.7946 36.4218 73.6002 36.7654 74.9759 35.6487C78.7591 33.1576 79.103 28.3471 79.103 26.4573C79.103 25.1688 78.9311 23.9662 78.6731 22.8494C78.1572 19.5852 77.0395 17.2659 76.6955 16.5787C76.6955 17.6095 76.6955 19.3275 76.2656 21.2173C75.9217 22.6776 75.3198 24.7393 73.8582 25.2547C72.9984 25.5983 71.9666 25.5124 71.2787 25.0829C70.9348 24.8252 70.6769 24.5675 70.6769 24.138C70.6769 23.6226 70.7628 23.1072 70.8488 22.5917C70.8488 22.5917 70.8488 22.5058 70.9348 22.4199C71.6226 21.9904 72.1385 21.3032 72.3965 20.616C72.3965 20.616 72.4825 20.4442 72.5684 20.4442C73.2563 20.3583 73.8582 20.616 74.3741 20.8737C74.2021 20.616 74.0301 20.1865 73.5142 19.5852C73.3423 19.4134 73.0843 19.2416 72.7404 19.1557C72.6544 19.1557 72.5684 19.1557 72.5684 18.9839C72.5684 18.6403 72.3965 18.3826 72.2245 18.2108C71.6226 17.6954 71.1927 17.4377 70.9348 17.3518C71.1927 17.7813 71.4507 18.4685 71.3647 19.1557C71.3647 19.1557 71.3647 19.3275 71.1927 19.3275C70.5049 19.5852 69.817 20.1006 69.3871 20.7878C69.3871 20.7878 69.3871 20.8737 69.2152 20.8737C68.6993 20.9596 68.1834 21.0455 67.6675 21.0455C66.9797 20.9596 66.4638 20.0147 66.4638 18.9839C66.4638 18.5544 66.4638 18.2108 66.7217 17.8672C67.1516 16.8364 68.5273 15.9774 70.8488 15.5479C72.7404 15.2043 74.46 15.1184 75.4918 15.1184C74.804 14.7748 72.5684 13.658 69.1292 13.0567C65.6899 12.1118 59.2413 12.2836 56.318 16.8364C55.8021 17.4377 55.5441 18.1249 55.5441 18.898C55.5441 19.6711 55.8021 20.4442 56.318 21.1314C56.318 21.1314 56.318 21.3032 56.318 21.3891C56.318 21.3891 56.318 21.5609 56.146 21.5609L55.8021 21.5609C55.2002 21.9904 54.1684 22.7635 52.7068 23.1071C51.8469 23.3649 50.9012 23.1071 50.0413 22.5058C49.2675 21.9045 48.7516 21.1314 48.7516 20.5301C48.7516 20.2724 48.7516 20.1006 48.9236 19.9288C49.4395 19.1557 49.9554 18.8121 50.3853 18.898C50.9012 18.9839 51.1591 19.757 51.2451 20.3583L51.2451 20.5301C51.3311 20.4442 51.589 20.1006 51.761 19.4993C51.761 19.4993 51.761 19.3275 51.761 19.0698C51.761 18.4685 51.417 17.6954 50.6432 17.3518C50.6432 17.3518 50.5572 17.3518 50.4712 17.3518C50.4712 17.3518 50.3853 17.3518 50.2993 17.3518C50.2993 17.3518 50.1273 17.3518 50.1273 17.18L50.1273 17.0082C50.1273 17.0082 50.1273 16.9223 50.2993 16.8364C50.2993 16.8364 50.3853 16.7505 50.3853 16.6646C50.4712 16.4069 50.5572 16.2351 50.5572 15.9774C50.5572 15.2902 50.1273 14.7748 49.9554 14.6888C49.7834 14.517 49.6114 14.4311 49.6114 14.4311C49.6114 14.4311 49.6114 14.4311 49.5255 14.4311C48.9236 14.1734 48.5797 14.0875 48.4077 14.0875C48.4077 14.0875 48.4077 14.2593 48.4937 14.2593C48.7516 14.6029 49.0096 15.1184 49.0096 15.462C49.0096 15.6338 49.0096 15.8056 48.7516 15.9774C48.4937 16.2351 47.9778 16.2351 47.118 16.1492C46.4301 16.1492 46.0002 15.2902 46.0002 14.1734C46.0002 13.1426 46.4301 11.8541 47.4619 11.2528C48.6656 10.4797 49.9554 10.222 50.7292 10.1361C50.7292 10.1361 50.7292 9.96429 50.9012 9.87839C50.9012 9.87839 51.1591 9.87839 51.2451 9.87839C51.2451 9.87839 51.3311 9.96429 51.3311 10.0502C51.3311 10.0502 51.3311 10.0502 51.3311 10.1361C51.589 11.5105 52.6208 12.9708 54.4264 13.1426C59.6712 14.1734 64.4002 9.79249 66.1198 6.70005C68.0974 3.95122 68.9572 1.54599 69.2152 0.77288C68.4413 1.46009 67.2376 2.6627 65.604 3.77941C63.6264 5.06793 62.0787 5.41154 61.0469 4.98203C59.9292 4.46662 59.2413 3.34991 59.2413 2.66271C59.2413 2.405 59.2413 2.1473 59.4993 1.9755C59.9292 1.63189 60.2731 1.28828 60.703 1.03058C60.703 1.03058 60.789 1.03058 60.875 1.03058C61.7348 1.20238 62.5086 1.03059 63.2825 0.77288C63.2825 0.77288 63.4544 0.77288 63.5404 0.77288C64.0563 1.20238 64.3142 1.88959 64.4862 2.405C64.5722 2.14729 64.7441 1.63189 64.8301 0.858783C64.8301 0.601082 64.8301 0.343376 64.5722 0.085674L65.0881 0.085674C65.0881 0.085674 65.346 0.601082 65.346 0.858783L65.346 0.944679C65.174 2.405 64.9161 2.83451 64.7441 3.00631C64.7441 3.17811 64.5722 3.17811 64.4862 3.17811C64.3142 3.17811 64.2283 3.00631 64.1423 2.7486C64.0563 2.405 63.7983 1.71779 63.4544 1.28828C62.6806 1.63189 61.8208 1.71779 61.0469 1.54599C60.703 1.8037 60.3591 2.0614 60.0152 2.3191C59.6712 2.74861 60.2731 4.12302 61.3909 4.63843C62.3367 4.98203 63.7124 4.63842 65.518 3.43581C67.3236 2.2332 68.6133 1.03058 69.3012 0.343376C69.4731 0.257473 69.5591 0.0856702 69.6451 -0.000229143L70.3329 -0.000229135C70.3329 -0.000229135 70.3329 -0.00022532 70.3329 0.085674C70.4189 0.085674 70.5049 0.343372 70.6769 0.601074C71.0208 1.03058 71.8806 1.7178 72.9983 1.9755C74.46 2.405 76.3516 1.46009 78.2432 0.515182C78.5871 0.34338 78.8451 0.257477 79.189 0.0856741C79.361 0.0856741 79.4469 -0.000232841 79.5329 -0.0861322L80.4787 -0.0861322L80.4787 -0.000229014L80.3068 -0.000229016C80.3068 -0.000229016 79.7049 0.34338 79.361 0.515182C79.017 0.686981 78.7591 0.772877 78.4152 0.944679C76.4376 1.88959 74.46 2.9204 72.8264 2.405C71.7086 2.14729 70.9348 1.46009 70.2469 0.858783C70.2469 0.858783 70.2469 0.77288 70.2469 0.686977C69.903 1.46009 69.2152 3.69352 69.2152 5.49744C69.2152 7.30136 70.075 7.90267 70.2469 7.98857C70.5049 7.90267 71.2787 7.30136 71.2787 5.49744C71.2787 4.46663 71.0208 3.34991 70.8488 2.5768C70.8488 2.4909 70.8488 2.405 70.9348 2.3191L71.1927 2.3191C71.5367 2.74861 71.9666 3.00631 72.4825 3.34991C74.2881 4.38073 76.7815 4.03712 80.2208 2.405C81.7684 1.63189 82.9722 0.944683 83.918 0.429279C83.918 0.429279 83.918 0.429279 84.004 0.429279C84.5198 0.429279 84.9498 0.257477 85.1217 0.171577C85.1217 0.171577 85.1217 0.171574 85.0357 0.0856742L85.6376 0.0856742C85.6376 0.0856742 85.6376 0.17157 85.6376 0.257473C85.6376 0.601074 84.7778 0.85878 84.004 0.944679C83.0582 1.46009 81.8544 2.1473 80.3068 2.92041C76.6955 4.63843 74.0301 4.98203 72.0526 3.86531C71.7946 3.69351 71.5367 3.52172 71.2787 3.34991C71.4507 4.03712 71.5367 4.89613 71.5367 5.66924C71.5367 8.07447 70.2469 8.67578 69.989 8.67578C69.7311 8.67578 68.4413 8.07447 68.4413 5.66924C68.4413 5.06793 68.4413 4.46662 68.6133 3.86531C68.1834 4.81023 67.4955 5.92694 66.6357 7.04365C64.8301 10.222 59.9292 14.7748 54.4264 13.7439C52.5348 13.5721 51.3311 12.0259 50.9871 10.5656C50.9871 10.5656 50.9012 10.5656 50.8152 10.5656C50.1273 10.6515 48.9236 10.8233 47.7198 11.5964C46.7741 12.1118 46.4301 13.2285 46.4301 14.0875C46.4301 14.9466 46.6881 15.5479 47.118 15.6338C47.9778 15.8056 48.2357 15.6338 48.3217 15.6338C48.3217 15.6338 48.3217 15.6338 48.3217 15.462C48.3217 15.2043 48.0638 14.7748 47.8918 14.4311C47.7198 14.0875 47.6339 14.0016 47.6339 13.8298L47.6339 13.658C47.6339 13.658 47.6339 13.658 47.8058 13.658C48.0638 13.5721 48.5797 13.658 49.4395 14.0016C49.6974 14.0016 49.9554 14.2593 50.0413 14.3452C50.7292 15.0325 50.9871 16.0633 50.5572 16.9223C50.5572 16.9223 50.5572 16.9223 50.5572 17.0082C51.589 17.4377 52.0189 18.4685 52.0189 19.1557C52.0189 19.3275 52.0189 19.6711 51.8469 19.8429C51.417 20.8737 51.0731 21.1314 50.9012 21.2173C50.9012 21.2173 50.7292 21.2173 50.6432 21.2173C50.3853 21.2173 50.3853 20.9596 50.2993 20.5301C50.2133 20.1865 50.0413 19.4993 49.7834 19.4134C49.7834 19.4134 49.4395 19.4134 48.8376 20.2724C48.4937 20.616 49.0955 21.5609 49.8694 22.1622C50.6432 22.6776 51.417 22.9354 52.1049 22.6776C53.4806 22.4199 54.4264 21.6468 55.0283 21.2173C55.0283 21.2173 55.0283 21.2173 55.2002 21.1314C54.7703 20.4442 54.5124 19.6711 54.5124 18.8121C54.5124 17.9531 54.8563 17.0941 55.3722 16.4928C58.4675 11.8541 65.174 11.5964 68.6993 12.5413C70.161 12.799 71.4507 13.1426 72.4825 13.4862C71.9666 13.1426 71.4507 12.7131 71.0208 12.2836C69.989 11.2528 69.817 10.3938 69.817 9.79249C69.817 9.44889 69.817 9.19118 69.989 9.01938C70.075 8.93348 71.4507 8.41807 73.1703 10.0502C73.6862 10.5656 74.2021 11.2528 74.632 11.8541C74.632 11.5105 74.632 11.2528 74.804 10.9092C75.7498 7.73087 79.8769 6.27055 81.2526 5.75514C82.8862 5.23973 84.2619 4.81023 85.2937 4.55252C85.9815 4.03712 86.5834 3.77942 86.8413 3.86531C86.8413 3.86531 87.0133 4.03712 87.0133 4.12302L87.0133 4.29482L87.1853 4.29482C87.2712 4.29482 87.3572 4.46662 87.3572 4.55252C87.3572 4.81023 87.1853 5.32563 86.5834 6.01284C86.3255 7.04366 85.8955 8.41807 85.3797 10.0502C84.0899 13.8298 82.3703 15.8915 80.2208 16.4928C79.8769 16.4928 79.6189 16.6646 79.275 16.6646C79.8769 17.0941 80.5647 17.5236 81.0806 18.039C82.1124 19.0698 82.2843 19.9288 82.2843 20.5301C82.2843 20.8737 82.2843 21.1314 82.1124 21.2173C81.9404 21.3032 80.5647 21.8186 78.9311 20.1865C78.5012 19.757 78.1572 19.2416 77.7273 18.7262C78.0712 19.757 78.4152 20.9596 78.6731 22.4199C79.017 23.5367 79.103 24.8252 79.103 26.1996C79.103 28.1753 78.6731 33.1576 74.804 35.7346C73.3423 37.0231 71.3647 36.7654 70.161 35.9064C70.161 35.9064 70.161 35.9923 69.989 36.0782C69.5591 36.6795 68.8712 37.6244 68.6133 38.9129C68.6133 39.0847 68.6133 39.2565 68.6133 39.5142C68.6133 40.631 69.5591 41.7477 70.3329 42.1772C70.6769 42.349 70.9348 42.349 71.1068 42.1772C71.8806 41.6618 71.9666 41.4041 71.9666 41.2323C71.9666 40.9746 71.2787 40.8028 70.9348 40.7169C70.5049 40.631 70.2469 40.5451 70.2469 40.2874C70.2469 40.2874 70.2469 40.2015 70.2469 40.1156C70.3329 39.8579 70.7628 39.6001 71.6226 39.2565C71.8806 39.0847 72.3105 38.9988 72.7404 39.1706C73.5142 39.3424 74.1161 39.8579 74.46 40.5451C75.4918 40.1156 76.3516 40.5451 76.6955 40.8028C77.1255 41.0605 77.3834 41.4041 77.3834 41.7477C77.8993 42.8644 77.7273 43.208 77.7273 43.3798C77.7273 43.3798 77.7273 43.5516 77.6413 43.5516C77.4694 43.6375 77.2974 43.5516 76.8675 43.2939C76.6096 43.1221 76.0077 42.7785 75.7498 42.8644C75.5778 42.9503 75.5778 43.3798 75.6638 44.1529C75.6638 44.4106 76.0077 44.6683 76.6096 44.7542C77.5554 44.926 79.189 44.7542 79.7909 43.5516C80.5647 42.4349 80.7367 41.1464 80.8226 40.4592C80.8226 40.4592 80.8226 40.3733 80.8226 40.2874C79.361 39.9438 77.8133 38.827 77.6413 36.8513C77.5554 36.3359 77.4694 35.7346 77.4694 35.1333C77.4694 30.3228 81.5105 26.1996 84.2619 24.6534C85.4656 23.7944 86.5834 23.1072 87.6152 22.5917C87.0133 22.6776 86.3255 22.7635 85.7236 22.7635C83.3161 22.7635 82.7142 21.3891 82.7142 21.2173C82.7142 21.0455 83.3161 19.6711 85.7236 19.6711C86.4974 19.6711 87.3572 19.757 88.0451 19.9288C87.8731 19.6711 87.6152 19.4134 87.5292 19.1557C86.4114 17.2659 86.6694 14.517 88.475 10.9092C89.2488 9.36299 89.9367 8.16037 90.4526 7.30136C90.4526 6.52825 90.7965 5.66924 91.1404 5.66924C91.1404 5.66924 91.1404 5.66924 91.2264 5.66924C91.3124 5.66924 91.2264 5.66924 91.3124 5.66924L91.3124 6.27055C91.3124 6.27055 91.3124 6.27055 91.2264 6.18465C91.1404 6.35645 90.9684 6.78596 90.9684 7.30136C90.9684 7.30136 90.9684 7.30136 90.9684 7.38726C90.4526 8.24627 89.7647 9.44888 88.9909 11.081C87.2712 14.517 87.0133 17.0941 88.0451 18.898C88.303 19.4134 88.6469 19.8429 89.0769 20.1865C89.0769 20.1865 89.1628 20.3583 89.0769 20.4442C89.0769 20.4442 88.9049 20.616 88.8189 20.5301C88.0451 20.3583 86.9273 20.1006 85.8955 20.1006C84.004 20.1006 83.4881 20.9596 83.4021 21.1314C83.4881 21.3032 84.0899 22.1622 85.8955 22.1622C87.7012 22.1622 89.9367 21.475 90.7105 21.1314C90.7105 21.1314 90.7105 21.1314 90.5385 21.1314C90.1086 20.7019 89.2488 19.8429 88.9909 18.6403C88.9909 18.3826 88.9049 18.039 88.9049 17.7813C88.9049 16.321 89.7647 14.603 90.5385 12.9708C90.6245 12.7131 90.7965 12.4554 90.9684 12.1977C91.1404 11.8541 91.2264 11.5964 91.3984 11.2528L91.3984 11.1669L91.5703 11.1669L91.5703 12.1977C91.5703 12.1977 91.4843 12.4554 91.3984 12.5413C91.3124 12.799 91.1404 13.0567 91.0544 13.3144C90.1086 15.2043 89.1628 17.18 89.5068 18.7262C89.7647 19.8429 90.5385 20.616 90.8825 20.9596C91.1404 21.0455 91.3124 21.2173 91.3984 21.3032L91.4843 21.3032L91.4843 21.9904C91.4843 22.0763 91.3124 22.1622 91.1404 22.334C90.4526 23.0213 89.1628 24.3098 88.0451 26.1137C86.8413 27.9176 86.4974 29.292 86.8413 30.2369C87.1853 31.0959 87.9591 31.6114 88.475 31.6973C88.7329 31.6973 88.9909 31.6973 89.0769 31.6973C89.4208 31.3537 89.6787 31.01 89.9367 30.6664C89.7647 29.8074 89.9367 29.0343 90.1946 28.2612C89.7647 27.8317 89.1628 27.6599 88.7329 27.4881C88.475 27.4881 88.303 27.3163 88.303 27.1445C88.303 27.1445 88.303 26.9727 88.475 26.8868C88.6469 26.8009 89.1628 26.4573 90.5385 26.2855C90.7965 26.2855 91.1404 26.2855 91.4843 26.5432L91.4843 27.0586C91.1404 26.8868 90.8825 26.8009 90.6245 26.8009L91.1404 26.8868ZM75.8357 15.6338C74.8899 15.6338 73.0843 15.6338 71.0208 16.0633C68.9572 16.4928 67.6675 17.18 67.2376 18.1249C67.1516 18.4685 67.0656 18.8121 67.0656 19.1557C67.0656 20.0147 67.4096 20.7019 67.8395 20.7878C68.3554 20.7878 68.7853 20.7019 69.2152 20.616C69.7311 19.9288 70.3329 19.4134 71.1068 19.1557C71.1068 18.5544 70.7628 17.9531 70.5909 17.6095C70.5049 17.4377 70.4189 17.3518 70.4189 17.18C70.4189 17.18 70.4189 17.0082 70.5049 16.9223C70.5049 16.9223 70.6769 16.9223 70.7628 16.9223C70.9348 16.9223 71.5367 17.0941 72.6544 18.039C72.9124 18.2108 73.0843 18.5544 73.1703 18.898C73.5142 18.9839 73.8582 19.1557 74.0301 19.4134C74.8899 20.5301 75.0619 21.1314 75.0619 21.3032C75.0619 21.3891 75.0619 21.5609 75.0619 21.6468C74.8899 21.6468 74.804 21.6468 74.546 21.5609C74.2021 21.3891 73.6002 21.0455 72.9983 21.0455C72.6544 21.7327 72.1385 22.4199 71.5367 22.9353C71.5367 23.3649 71.3647 23.7944 71.3647 24.2239C71.3647 24.3957 71.5367 24.5675 71.7946 24.7393C72.2245 24.997 73.1703 25.1688 73.9441 24.8252C75.1479 24.3098 75.7498 22.5058 76.0077 21.1314C76.4376 19.0698 76.4376 17.18 76.4376 16.2351C76.4376 15.9774 76.4376 15.8056 76.4376 15.6338C76.2656 15.6338 76.0937 15.6338 75.8357 15.6338ZM76.7815 15.1184C76.7815 15.1184 76.7815 15.1184 76.8675 15.2043C76.8675 15.2043 76.8675 15.2043 76.8675 15.2902C76.8675 15.2902 76.8675 15.2902 76.8675 15.3761C76.9535 15.3761 77.1255 15.3761 77.4694 15.5479C78.0712 15.5479 79.103 15.5479 80.1348 14.9466C81.4245 14.1734 82.1124 12.1977 82.8002 10.222C82.9722 9.87839 83.0582 9.53478 83.1441 9.19118C83.1441 8.93348 83.3161 8.76168 83.4021 8.58987C83.2301 8.58987 82.9722 8.76167 82.8002 8.84758C82.4563 8.93348 82.1984 9.10528 81.8544 9.19118C79.8769 9.87839 77.8993 10.5656 77.1255 11.94C76.6096 12.799 76.5236 13.7439 76.5236 14.4311C76.5236 14.4311 76.6955 14.8607 76.6955 15.0325L76.7815 15.0325L76.7815 15.1184ZM79.9628 20.1006C81.2526 21.3891 82.2843 21.2173 82.4563 21.1314C82.4563 21.1314 82.4563 20.9596 82.4563 20.7878C82.4563 20.2724 82.2843 19.4993 81.4245 18.6403C80.7367 17.9531 79.7049 17.2659 79.017 16.8364C78.9311 16.8364 78.8451 16.6646 78.9311 16.5787C78.9311 16.4928 79.103 16.4069 79.189 16.4069C79.7049 16.4069 80.2208 16.4069 80.7367 16.2351C82.7142 15.6338 84.3479 13.658 85.5516 10.0502C86.0675 8.41807 86.4974 7.04366 86.7554 6.01284C86.7554 6.01284 86.7554 6.01284 86.7554 5.92694C87.0993 5.49743 87.2712 5.15383 87.3572 4.98203C87.3572 4.98203 87.3572 4.98203 87.1853 4.98203L87.0133 4.98203C87.0133 4.98203 87.0133 4.89613 87.0133 4.81023C87.0133 4.81023 87.0133 4.72433 87.0133 4.63843C86.7554 4.63843 86.4974 4.89613 86.0675 5.23973C86.0675 5.23973 86.0675 5.23973 85.9815 5.23973C84.9498 5.49743 83.5741 5.92694 81.9404 6.44235C80.6507 6.95776 76.6096 8.33218 75.7498 11.2528C75.5778 11.7682 75.5778 12.3695 75.5778 12.8849C75.5778 12.8849 75.5778 13.0567 75.4058 13.1426C75.3198 13.1426 75.1479 13.1426 75.1479 13.0567C74.718 12.3695 74.1161 11.4246 73.3423 10.6515C72.0526 9.36298 71.0208 9.53479 70.8488 9.62069C70.8488 9.87839 70.6769 10.9092 71.8806 12.1118C73.1703 13.4003 75.1479 14.4311 76.0077 14.7748C76.0077 14.7748 76.0077 14.7747 76.0077 14.6029L76.0077 14.517C76.0077 13.7439 76.0077 12.7131 76.6955 11.7682C77.5554 10.3079 79.6189 9.53478 81.6825 8.84758C82.0264 8.76167 82.2843 8.67577 82.6283 8.50397C82.9722 8.41807 83.3161 8.24627 83.66 8.07446C83.66 8.07446 83.918 8.07446 84.004 8.07446C84.004 8.07446 84.004 8.24627 84.004 8.33217L84.004 8.41808C84.004 8.41808 83.66 9.01938 83.5741 9.44889C83.4881 9.79249 83.3161 10.1361 83.2301 10.3938C82.5423 12.4554 81.8544 14.517 80.3927 15.3761C79.361 15.9774 78.3292 16.0633 77.4694 16.0633C77.4694 16.0633 77.3834 16.0633 77.2974 16.0633C77.6413 16.9223 78.7591 18.9839 79.9628 20.1865L79.9628 20.1006Z" fill="#A8A8A8"/>
<path d="M58.1245 1.02993C58.1245 1.02993 58.1245 1.20173 58.0385 1.37354C58.0385 1.37354 58.0385 1.45944 58.0385 1.54534C58.0385 1.54534 58.0385 1.63124 57.9525 1.63124C57.2647 1.97484 56.4048 2.40435 55.631 2.83385C53.0516 3.52106 50.0422 3.52107 47.5488 3.00566C44.7114 2.49025 42.9918 2.40435 42.046 2.40435C42.046 2.40435 41.96 2.40435 41.874 2.40435C40.8422 1.37354 39.7245 0.60043 38.7787 0.0850241C38.7787 0.0850241 38.7787 0.0850222 38.7787 -0.000878815L39.5525 -0.000878806C40.4123 0.514527 41.2721 1.11584 42.1319 1.97485C43.0777 1.97485 44.7974 1.97485 47.6348 2.57615C50.0422 3.09156 52.9656 3.09156 55.545 2.40435C56.3189 1.97484 57.0927 1.54534 57.7805 1.20174C57.7805 1.02994 57.7805 0.944034 57.9525 0.772232C58.1245 0.514529 58.2964 0.256824 58.5544 -0.00087858L59.1563 -0.000878572C58.8123 0.342726 58.5544 0.600426 58.3824 0.94403L58.1245 1.02993Z" fill="#A8A8A8"/>
<path d="M56.5747 28.1765C55.9728 29.0355 55.4569 29.8086 55.027 30.6676C55.027 30.7535 54.855 30.8394 54.7691 30.7535C54.6831 30.7535 54.5971 30.6676 54.5971 30.5817L54.5971 29.8086C54.4251 28.7778 54.4251 27.8328 54.4251 26.802C54.4251 25.943 54.4251 25.2558 54.5971 24.6545C54.855 22.8506 56.0588 21.9916 56.4887 21.648C56.5747 21.648 56.7466 21.648 56.8326 21.648C57.1765 21.9057 57.6924 22.2493 58.2943 22.2493C59.2401 22.4211 60.1859 22.2493 60.8737 21.7339C61.2177 21.4762 61.5616 21.1326 61.5616 20.6172C61.3896 19.844 61.2177 19.2427 60.8737 18.8991C60.8737 19.2427 60.8737 19.7581 60.7018 20.2736C60.7018 20.3595 60.7018 20.5313 60.4438 20.7031C60.0139 20.9608 58.9821 20.9608 58.2943 20.5313C57.4345 20.0159 57.3485 19.0709 58.1223 18.0401C60.1859 14.8618 65.1728 13.831 69.1279 14.1746C69.6438 14.1746 70.1597 14.1746 70.7616 14.1746C70.9336 14.1746 71.0195 14.2605 71.0195 14.4323C71.0195 14.5182 71.0195 14.69 70.8476 14.69L70.6756 14.69C69.042 14.8618 66.8064 15.0336 65.3448 17.0952C65.0008 17.6965 64.7429 18.5555 64.7429 19.3286C64.7429 20.5313 65.1728 21.5621 65.8607 22.3352C65.8607 22.3352 65.8607 22.507 65.8607 22.5929C65.8607 22.5929 65.7747 22.7647 65.6887 22.7647C65.0868 22.7647 64.485 22.7647 63.7971 22.8506C61.3896 23.5378 58.2083 25.5994 56.6607 28.1765L56.5747 28.1765ZM63.6251 22.4211C64.141 22.4211 64.6569 22.4211 65.0868 22.4211C64.485 21.648 64.141 20.6172 64.141 19.5005C64.141 18.5555 64.399 17.6965 64.8289 17.0093C65.7747 15.6349 66.9784 15.0336 68.1821 14.69C64.485 14.5182 60.2719 15.549 58.4663 18.3837C58.1223 18.8132 58.0364 19.1568 58.0364 19.4145C58.0364 19.93 58.4663 20.1877 58.8962 20.3595C59.584 20.6172 60.1859 20.4454 60.2719 20.3595C60.3578 19.844 60.3578 19.3286 60.4438 18.985C60.4438 18.6414 60.4438 18.4696 60.6158 18.3837C60.6158 18.3837 60.7878 18.3837 60.8737 18.3837C60.8737 18.3837 60.8737 18.3837 60.9597 18.4696C61.4756 18.8132 61.9055 19.5863 62.0775 20.789C62.0775 21.3903 61.7336 21.9057 61.2177 22.3352C60.4438 22.9365 59.3261 23.1942 58.2943 22.9365C57.7784 22.9365 57.2625 22.7647 56.6607 22.3352C56.0588 22.7647 55.285 23.5378 55.113 24.9122C54.941 25.5135 54.941 26.2007 54.941 26.9738C54.941 27.9187 54.941 28.8637 55.113 29.8945C55.4569 29.2932 55.8868 28.6919 56.3167 28.0905C57.9504 25.4276 61.3036 23.2801 63.7971 22.5929L63.6251 22.4211Z" fill="#A8A8A8"/>
<path d="M89.8508 65.3701C87.8732 63.9957 86.8415 62.0199 86.8415 59.5288C86.8415 57.0377 87.8732 54.2888 88.5611 52.8285C87.9592 53.6016 87.1854 54.8042 86.2396 56.3505C85.6377 57.2095 85.2078 58.3262 85.2078 59.7865C85.2078 62.4494 86.4975 65.3701 88.2172 66.6586C89.4209 67.8612 90.4527 68.9779 91.3125 70.0946L91.3125 70.2664C91.1405 70.7818 91.1405 71.2972 91.1405 71.7267L91.1405 71.8985C91.1405 71.8985 91.1405 72.0703 90.9686 72.1562C90.9686 72.1562 90.7966 72.1562 90.7106 72.1562C89.6789 71.1254 88.2172 70.5241 87.0994 70.4382C86.8415 70.4382 86.6695 70.4382 86.4975 70.5241L86.3256 70.5241C86.3256 70.5241 86.1536 70.5241 86.0676 70.4382C86.0676 70.4382 86.0676 70.2664 86.0676 70.1805C86.6695 69.6651 87.0134 69.0638 87.0134 68.5484L87.0134 68.4625C87.0134 66.9163 85.7237 66.4868 85.2938 66.4009C84.6919 66.4009 84.348 66.5727 84.0901 66.6586C85.3798 67.5176 85.3798 67.9471 85.3798 68.1189C85.3798 68.7202 84.434 68.8061 84.0901 68.8061C84.0901 68.8061 84.0901 68.8061 84.0041 68.8061C82.6284 68.1189 81.9405 66.4868 81.9405 63.9098C81.9405 61.8481 82.3704 59.7865 82.6284 58.5839C82.6284 58.498 82.6284 58.3262 82.6284 58.2403C82.6284 58.2403 82.5424 58.2403 82.4564 58.3262C81.7686 58.7557 80.5648 59.7006 78.6732 59.8724C76.9536 60.1301 74.7181 59.8724 73.4284 58.8416C72.8265 58.3262 72.4826 57.7249 72.3966 56.9518C72.3966 56.0069 72.5686 55.5774 72.8265 55.4914C73.2564 55.4055 73.7723 56.1787 74.3742 57.2954C74.3742 57.2954 74.3742 57.3813 74.4602 57.4672C74.4602 57.2954 74.6321 56.8659 74.7181 56.2646C74.7181 56.2646 74.7181 56.1787 74.7181 56.0928C74.7181 55.4915 74.5461 54.3747 73.2564 53.8593C72.5686 53.6016 71.9667 53.8593 71.6228 54.117C70.8489 54.6324 70.2471 55.7492 70.2471 56.6941C70.2471 56.8659 70.2471 57.0377 70.2471 57.2095C70.2471 57.2095 70.2471 57.2095 70.2471 57.2954C70.2471 57.2954 70.2471 57.3813 70.2471 57.4672C69.5592 58.6698 69.2153 59.9583 69.2153 61.3327C69.2153 62.0199 69.1293 62.7071 69.0433 63.4802C68.8714 66.5727 68.6994 69.8369 66.2919 70.61C65.6041 70.7818 65.1742 70.61 65.0022 70.3523C64.6583 70.0946 64.4863 69.5792 64.4863 69.0638C64.4863 68.3766 64.8303 67.7753 65.2602 67.5176C65.7761 67.174 66.12 66.9163 66.2919 66.7445C66.034 66.7445 65.5181 66.7445 64.7443 66.7445C64.7443 66.7445 64.6583 66.7445 64.5723 66.8304C64.5723 66.8304 64.3144 66.8304 64.2284 66.8304C64.2284 66.8304 64.1424 66.8304 64.0564 66.6586C64.0564 66.5727 64.0564 66.4009 63.9704 66.315C63.4546 65.7137 63.1106 65.3701 62.9387 65.1983C62.9387 65.456 62.9387 65.9714 63.1106 66.4868C63.1106 66.5727 63.1106 66.7445 63.1106 66.8304C63.1106 67.6035 62.5088 68.3766 61.7349 68.6343C61.1331 68.8061 60.5312 68.5484 60.1873 67.8612C59.9293 67.4317 59.8433 67.0022 59.8433 66.4868C59.8433 64.597 61.563 62.7071 63.2826 60.9032C63.7985 60.3878 64.2284 59.8724 64.7443 59.2711C65.6041 58.3262 66.2919 57.2095 66.6359 55.8351C66.6359 55.8351 66.6359 55.8351 66.6359 55.7492C67.4957 55.2337 68.0116 54.117 68.0116 53.0862C68.0116 52.2272 67.5817 51.54 66.9798 51.1964C65.5181 50.5951 64.5723 51.54 64.3144 51.8836C63.8845 52.399 63.7125 52.7426 63.6265 52.9144C63.6265 52.9144 63.6265 52.9144 63.7985 52.9144C65.0022 52.4849 65.7761 52.3131 66.034 52.5708C66.12 52.5708 66.206 52.7426 66.206 52.9144C66.206 53.0862 66.206 53.4298 65.4321 54.117C64.8303 54.6324 64.1424 54.8042 63.3686 54.7183C61.6489 54.5465 59.9293 53.0003 58.8975 51.7118C57.6938 50.2515 57.4359 48.7053 57.2639 47.9322C57.2639 47.9322 57.2639 47.8463 57.2639 47.7604C57.2639 47.7604 57.2639 47.9322 57.0919 47.9322C55.8882 49.7361 52.363 55.4055 48.8377 54.2029C48.8377 54.2029 48.8377 54.2029 48.7517 54.2029C48.1499 53.5157 48.0639 53.0003 48.4078 52.7426C48.6658 52.4849 49.3536 52.4849 50.2994 52.7426C50.2994 52.5708 50.0415 52.2272 49.6975 51.7977C49.3536 51.4541 48.1499 50.8528 47.0321 51.9695C46.6022 52.3131 46.3443 53.0862 46.4303 53.8593C46.4303 53.8593 46.4303 54.0311 46.2583 54.117C46.1723 54.117 46.0003 54.117 46.0003 54.0311L46.0003 53.8593C46.0003 53.8593 45.6564 53.5157 45.5704 53.3439C44.7106 52.6567 43.2489 51.8836 41.7873 51.9695C41.7013 51.9695 41.6153 51.9695 41.5293 51.7977C41.5293 51.7118 41.5293 51.6259 41.5293 51.54C41.8732 51.1964 42.2172 50.7669 42.5611 50.2515C42.5611 50.2515 42.6471 50.1656 42.7331 50.1656C44.1088 49.9938 45.6564 49.9079 47.376 49.9079C49.0957 50.1656 51.5032 49.3925 53.3947 48.0181C54.9424 46.8154 55.8882 45.441 56.0602 44.0666C56.4901 42.3486 56.748 40.9742 56.92 39.9434C55.8882 42.6063 53.1368 49.0489 47.2041 47.9322C46.0003 47.9322 44.7966 48.104 43.7648 48.3617C43.7648 48.3617 43.5929 48.3617 43.5069 48.3617C43.5069 48.3617 43.5069 48.1899 43.5069 48.104C43.7648 47.0731 43.9368 45.9564 43.9368 44.6679C43.8508 44.1525 43.7648 43.723 43.7648 43.2935C43.7648 38.3112 49.5256 35.8201 51.8471 34.8752C50.8153 35.047 49.4396 35.3047 47.72 35.7342C44.6246 36.1637 41.7873 40.4588 41.7873 43.6371C41.7873 43.8948 41.7873 44.1525 41.7873 44.4102C41.7873 46.1282 41.7013 47.6745 41.4433 49.0489C41.4433 49.0489 41.4433 49.2207 41.3574 49.2207C40.8415 49.5643 40.4116 49.9079 40.0676 50.2515C40.0676 50.2515 39.8957 50.3374 39.8097 50.2515C39.8097 50.2515 39.6377 50.1656 39.6377 49.9938C39.6377 48.5335 39.0359 46.9872 38.348 46.3C38.1761 46.1282 38.0041 46.0423 37.8321 45.9564L37.6602 45.9564C37.6602 45.9564 37.4882 45.6987 37.6602 45.6128C37.6602 45.5269 37.8321 45.441 37.9181 45.441C38.6919 45.441 39.4658 45.2692 39.8097 44.8397C40.2396 44.4102 40.4116 43.8948 40.4116 43.3794C40.4116 42.7781 40.1536 42.3486 39.9817 42.1768C39.5517 41.8332 39.2078 41.5755 38.9499 41.4896C38.9499 41.8332 39.0359 42.1768 39.0359 42.6063C39.0359 43.1217 38.9499 43.4653 38.606 43.5512C38.348 43.723 37.9181 43.5512 37.4022 43.0358C37.4022 43.0358 37.4022 43.0358 37.4022 42.9499C37.3162 42.6063 37.2303 42.2627 37.2303 41.9191C37.2303 38.8266 41.8732 35.8201 43.5929 34.7034C43.5929 34.7034 43.7648 34.6175 43.8508 34.5316C43.8508 34.5316 43.7648 34.5316 43.6789 34.5316C42.905 34.3598 41.3574 34.1021 39.8957 32.8995C38.434 31.7828 36.8863 29.8929 36.8863 28.089C36.8863 27.4018 37.0583 26.8864 37.4882 26.371C38.0901 25.7697 38.52 25.512 38.7779 25.6838C38.9499 25.6838 39.0359 25.9415 39.0359 26.1992C39.0359 26.7146 38.7779 27.4877 38.606 28.0031C38.606 28.0031 38.606 28.089 38.606 28.1749C38.7779 28.089 39.1218 27.9172 39.7237 27.4877C39.8957 27.3159 40.5835 26.7146 40.5835 25.7697C40.5835 25.4261 40.5835 25.1684 40.4116 24.8248C40.0676 23.9658 39.2938 23.794 38.7779 23.794C37.6602 23.7081 36.4564 24.2235 35.8546 25.1684C35.8546 25.1684 35.8546 25.1684 35.7686 25.2543C34.3929 25.5979 33.2751 26.2851 32.3293 27.23C31.8134 27.6595 31.2975 28.089 30.7817 28.6044C28.4602 30.666 26.0527 32.8995 23.7312 31.6969C23.1293 31.2674 22.9574 30.8379 22.9574 30.4943C22.9574 29.9788 23.3013 29.4634 23.7312 29.1198C24.1611 28.7762 24.677 28.6903 25.1069 28.7762C25.7088 28.948 26.1387 28.948 26.3966 29.0339C26.2246 28.7762 25.8807 28.4326 25.2788 27.9172C25.1929 27.9172 25.1069 27.9172 24.9349 27.8313C24.9349 27.8313 24.8489 27.8313 24.763 27.6595L24.763 27.4877L24.763 27.4018C24.763 27.4018 24.9349 27.23 24.9349 27.1441C24.9349 26.4569 24.9349 25.9415 24.9349 25.5979C24.763 25.8556 24.419 26.1992 24.1611 26.6287C23.8172 27.3159 22.8714 27.5736 22.0975 27.4018C21.4097 27.23 21.0658 26.7146 21.0658 26.1133C21.0658 25.9415 21.0658 25.7697 21.0658 25.5979C21.8396 23.1927 25.0209 23.0209 28.1162 22.8491C28.8041 22.8491 29.5779 22.8491 30.2658 22.6773C31.5555 22.6773 32.8452 22.3337 34.1349 21.6464C34.1349 21.6464 34.2209 21.6464 34.3069 21.6464L34.3929 21.6464C35.2527 21.8182 36.1985 21.5605 36.9723 20.9592C37.7461 20.3579 38.0041 19.4989 37.7461 18.7258C37.1443 17.1796 35.6826 17.2655 35.3387 17.2655C34.6508 17.2655 34.3069 17.4373 34.1349 17.5232C34.1349 17.5232 34.2209 17.5232 34.3069 17.5232C35.5106 18.2104 36.1125 18.554 36.1125 18.9835C36.1125 19.4989 35.3387 19.5848 34.6508 19.5848C32.5013 19.413 31.7274 16.9219 31.7274 14.6885C31.7274 14.259 31.7274 13.7435 31.7274 13.314C31.8994 11.4242 32.7592 10.1357 33.2751 9.4485C33.2751 9.4485 33.2751 9.4485 33.3611 9.36259C33.3611 9.36259 33.1891 9.36259 33.1032 9.36259C30.9536 9.7921 24.505 11.2524 22.8714 7.98818C22.8714 7.98818 22.8714 7.98818 22.8714 7.90227C22.8714 7.47277 22.9574 6.78556 23.3873 6.69966C23.8172 6.61376 24.3331 6.95737 25.0209 7.98818C25.0209 7.81637 25.1929 7.47277 25.2788 6.87147C25.2788 6.35606 24.763 5.15344 23.2153 5.06754C22.6994 5.06754 22.0116 5.32524 21.4957 5.92655C21.4957 5.92655 21.3237 6.01245 21.2377 5.92655C21.1518 5.92655 21.0658 5.75475 21.0658 5.66885L21.0658 5.49705C21.0658 5.49705 21.1518 5.15344 21.2377 4.89574C21.2377 3.77902 20.6359 2.23281 19.5181 1.2879C19.5181 1.2879 19.4321 1.11609 19.5181 1.03019C19.5181 0.944289 19.6901 0.858398 19.7761 0.858398C20.2919 0.858398 20.8078 0.858398 21.4097 0.686591L21.5817 0.686591C22.6994 1.54561 23.8172 2.57641 25.1069 3.77902C26.1387 5.23934 28.3742 6.35606 30.6957 6.61377C32.5873 6.87147 34.3069 6.61376 35.4246 5.66885C36.9723 4.80984 38.176 3.95083 38.9499 3.34952C36.3704 4.46623 29.8359 7.12917 26.3966 2.06101C25.4508 1.202 24.591 0.428886 23.6452 -0.0865181C23.6452 -0.0865181 23.6452 -0.0865181 23.6452 -0.172417L24.3331 -0.172417C25.1069 0.342986 25.8807 0.944289 26.7405 1.8033C29.9218 6.44195 35.9405 4.12264 38.52 3.00593C37.5742 2.14692 36.8863 1.45969 36.3704 0.94429L36.1985 0.772498C35.5106 0.772498 34.9947 0.772498 34.8228 0.686591C34.8228 0.686591 34.8228 0.600692 34.8228 0.514785C34.8228 0.514785 34.8228 0.514785 34.8228 0.428886C34.8228 0.342986 34.9947 0.171188 35.1667 -0.000611021L35.7686 -0.000611014C35.5966 0.171188 35.5106 0.257079 35.4246 0.342979C35.5966 0.342979 35.9405 0.342979 36.2845 0.342979L36.4564 0.342979L36.7144 0.600692C37.3162 1.1161 38.0901 1.88921 39.1218 2.92002C39.1218 2.92002 39.1218 3.09181 39.1218 3.17772C39.1218 3.17772 39.2938 3.17772 39.3798 3.17772L40.0676 3.86493C40.4975 4.29443 40.9275 4.72395 41.3574 5.15345C43.077 6.78557 44.9686 8.67538 47.2041 9.6203C47.2041 9.6203 47.376 9.79209 47.376 9.878C47.376 9.9639 47.376 10.0498 47.2041 10.1357C47.2041 10.1357 47.2041 10.1357 47.1181 10.1357C47.1181 10.1357 47.1181 10.1357 46.9461 10.1357C46.9461 10.1357 45.0546 10.737 43.3349 11.4242L42.3032 11.8537C40.6695 12.6268 38.7779 12.7127 37.7461 12.0255C36.8863 11.5101 36.8003 10.5652 37.4882 9.6203C38.434 8.41768 39.2078 7.81638 39.8957 7.90227C40.6695 7.90227 41.0994 8.84719 41.3574 9.4485C41.3574 9.1908 41.5293 8.76129 41.5293 7.98818C41.7013 7.30097 40.9274 6.52786 39.8097 6.27016C38.434 6.01246 36.5424 6.35606 35.5106 8.58948C35.1667 9.01899 34.9947 9.6203 34.9947 10.3075C34.9947 11.7678 35.9405 13.4858 37.5742 13.8294C39.4658 14.173 40.8415 13.3999 42.1312 12.7986C42.3032 12.7127 42.4751 12.6268 42.6471 12.5409C43.3349 12.1114 44.0228 11.596 44.7966 11.1665L45.0546 11.1665C45.0546 11.1665 45.1405 11.3383 45.0546 11.4242C45.0546 11.5101 44.8826 11.6819 44.7966 11.8537C44.7966 11.8537 44.7966 11.8537 44.7106 11.9396C43.8508 12.2832 42.0452 13.314 41.1854 14.259C40.1536 15.3757 40.4975 16.3206 40.4975 16.4924C40.6695 16.4924 41.6153 16.7501 42.7331 15.5475C43.077 15.2039 43.3349 14.7744 43.6789 14.3449C43.6789 14.3449 43.8508 14.259 43.9368 14.259C44.0228 14.259 44.1088 14.3449 44.1088 14.5167C44.1088 15.5475 44.5387 16.9219 46.3443 17.695C46.5162 17.695 46.6882 17.695 46.7742 17.695C46.7742 17.695 46.9461 17.695 47.0321 17.695C47.1181 17.695 47.2041 17.695 47.2041 17.8668C47.2041 17.8668 47.2041 18.0386 47.2041 18.1245L47.0321 18.2963C47.0321 18.2963 46.8602 18.554 46.7742 18.6399C46.1723 20.1002 46.4303 21.4746 47.376 22.5914C47.376 22.5914 47.376 22.7632 47.376 22.8491C47.376 22.8491 47.2041 23.0209 47.1181 22.935C46.6022 22.8491 46.0863 22.7632 45.5704 22.6773C43.9368 22.6773 43.4209 23.3645 43.3349 23.6222C43.4209 23.794 43.9368 24.653 45.3985 24.7389C46.6882 24.7389 48.6658 24.2235 49.5256 23.8799C49.5256 23.8799 49.6116 23.8799 49.6975 23.8799C49.8695 23.8799 50.0415 23.8799 50.2134 23.9658C50.2994 23.9658 50.3854 24.0517 50.3854 24.2235C50.3854 24.3953 50.3854 24.3953 50.2134 24.4812C49.3536 24.653 48.4938 24.8248 47.72 24.9966C47.548 24.9966 47.376 25.0825 47.1181 25.1684C45.8284 25.5979 44.3667 26.0274 43.2489 27.5736C42.905 28.089 42.7331 28.6044 42.7331 29.2057C42.7331 30.9238 44.0228 32.5559 45.5704 32.7277C47.2041 33.329 48.4078 32.8995 49.0957 32.3841C50.0415 31.7828 50.6433 30.6661 50.6433 29.807C50.6433 29.5493 50.6433 29.1198 50.1275 28.8621C49.6116 28.3467 49.1817 28.089 49.0097 28.0031C49.1817 28.3467 49.3536 28.8621 49.3536 29.2916C49.3536 29.7211 49.1817 30.0647 48.9237 30.3224C48.4078 30.752 47.548 30.8379 46.1723 30.6661C45.1405 30.4943 44.6246 29.9788 44.6246 29.2057C44.6246 27.9172 46.1723 26.371 48.0639 25.6838L49.1817 25.1684C50.8153 24.4812 52.277 23.794 52.4489 23.6222L52.6209 23.6222L52.9648 23.6222C52.9648 23.6222 53.0508 23.794 52.9648 23.8799C52.019 26.1133 52.019 28.7762 51.9331 31.1815C51.9331 31.8687 51.9331 32.47 51.9331 33.0713L51.9331 34.1021C51.9331 34.1021 51.9331 34.2739 51.7611 34.2739C51.7611 34.2739 51.8471 34.3598 51.8471 34.4457C51.8471 35.9919 51.8471 37.1086 51.8471 37.9676L51.8471 38.3112C51.8471 38.3112 51.8471 38.3971 51.7611 38.483C51.4172 38.7407 51.2452 38.9126 51.1592 39.0844C51.2452 39.0844 51.4172 39.0844 51.5891 39.0844C51.7611 39.0844 51.8471 39.1703 51.8471 39.3421C51.8471 39.5998 51.8471 39.6857 51.8471 39.7716C52.019 39.6857 52.191 39.428 52.4489 39.1703C52.4489 39.1703 52.5349 39.1703 52.6209 39.0844L52.8789 39.0844C53.7387 39.0844 54.8564 39.0844 56.4041 39.0844C56.4041 39.0844 56.5761 39.0844 56.5761 39.1703C56.5761 39.1703 56.748 38.9985 56.834 38.9985L57.8658 38.9985C58.4676 38.9985 59.0695 38.9985 59.6714 38.9985C62.0789 38.9985 64.8303 38.9985 67.0658 38.0535C67.0658 38.0535 67.2377 38.0535 67.3237 38.0535C67.3237 38.0535 67.3237 38.2253 67.3237 38.3112C67.3237 38.3112 67.3237 38.3112 67.3237 38.3971C67.3237 38.3971 67.3237 38.3971 67.3237 38.483C67.1518 38.6548 66.5499 39.9434 65.948 41.3178C65.6901 41.8332 65.5181 42.3486 65.2602 42.864C64.5723 44.8397 62.9387 46.3859 61.563 46.3C61.1331 46.3 60.4452 46.0423 60.2732 44.7538C60.1013 43.2076 60.2732 42.1768 60.8751 41.7473C61.477 41.3178 62.4228 41.6614 62.9387 41.7473C62.8527 41.5755 62.5947 41.146 62.0789 40.6306C61.8209 40.2011 61.305 40.1152 60.6172 40.287C59.3275 40.6306 57.9518 42.005 57.9518 43.8089C57.9518 44.3243 58.0377 44.8397 58.2957 45.3551C58.3817 46.3 59.2415 47.2449 60.3592 47.7604C61.477 48.2758 62.5947 48.1899 63.5405 47.5886C65.0882 46.4718 65.6041 45.0115 66.034 43.723C66.034 43.5512 66.12 43.3794 66.206 43.2076C66.206 43.2076 66.206 43.1217 66.3779 43.0358C66.3779 43.0358 66.3779 42.864 66.3779 42.7781C66.5499 42.005 66.6359 41.3178 66.8078 40.6306C66.8078 40.5447 66.8938 40.4588 67.0658 40.4588C67.2377 40.4588 67.3237 40.4588 67.3237 40.6306C67.3237 40.8024 67.3237 40.9742 67.4097 41.0601C67.4097 41.0601 67.4097 41.146 67.4097 41.2319C67.2377 41.6614 67.0658 42.2627 66.8938 42.864C66.8938 42.9499 66.8938 43.0358 66.7218 43.0358C66.7218 43.0358 66.8078 43.2076 66.7218 43.2935C66.5499 44.0666 66.4639 44.8397 66.4639 45.3551C66.4639 46.8154 67.4097 47.3309 67.5817 47.4168C67.7536 47.3309 68.5275 46.8154 68.5275 45.3551L68.5275 45.1833C68.5275 44.7538 68.4415 44.2384 68.2695 43.6371C68.2695 43.5512 68.2695 43.4653 68.3555 43.3794C68.3555 43.3794 68.5275 43.3794 68.6134 43.3794C69.3873 44.0666 70.677 44.7538 72.4826 44.0666C72.6546 43.9807 72.7405 43.8948 72.8265 43.8089C72.8265 43.8089 72.9125 43.723 72.9985 43.6371C72.9985 43.6371 73.1704 43.6371 73.2564 43.6371C73.2564 43.6371 73.4284 43.723 73.4284 43.8089L73.4284 43.9807C73.4284 43.9807 73.4284 44.3243 73.4284 44.4102C74.2022 46.2141 75.6639 46.7295 76.6957 46.7295C76.7817 46.7295 76.8676 46.7295 76.9536 46.9013C76.9536 46.9872 76.9536 47.0732 76.8676 47.1591C76.3518 47.5027 75.9218 47.7604 75.5779 48.104C74.3742 49.2207 74.5461 50.1656 74.6321 50.3374C74.8041 50.3374 75.7499 50.681 76.8676 49.6502C77.2975 49.3066 77.7275 48.7053 78.1574 48.0181C78.1574 47.9322 78.3293 47.8463 78.5013 48.0181C78.5873 48.0181 78.6732 48.1899 78.5873 48.3617C78.5873 48.5335 78.4153 48.7053 78.3293 48.8771C77.8134 49.822 77.2975 50.9387 77.2975 52.399C77.2975 52.7426 77.2975 53.0003 77.2975 53.258C77.4695 54.2888 78.3293 55.2337 79.4471 55.6633C80.5648 56.0928 81.7686 55.921 82.6284 55.3196C84.7779 54.3747 84.9499 52.5708 84.9499 51.8836C84.9499 50.9387 84.606 49.9938 84.0041 49.5643C83.7461 49.3066 83.4882 49.3066 83.1443 49.3925C82.3704 49.3925 82.0265 49.4784 81.7686 49.5643C82.3704 49.822 83.3162 50.2515 83.3162 51.1964C83.3162 51.8836 82.8004 52.6567 81.5966 53.5157C80.8228 54.117 80.2209 54.0311 79.791 53.8593C79.1032 53.5157 78.7592 52.6567 78.7592 51.4541C78.7592 50.5092 79.0172 49.5643 79.4471 48.7053L79.877 47.5886C80.4789 45.9564 81.0807 44.4102 81.0807 44.1525L81.0807 44.0666L81.0807 43.9807C81.0807 43.9807 81.2527 43.8089 81.3387 43.8089C81.4246 43.8089 81.5106 43.8089 81.5966 43.9807C82.5424 46.1282 84.348 48.104 85.9817 49.7361C86.4116 50.2515 86.9275 50.681 87.2714 51.1105L87.9592 51.8836C87.9592 51.8836 87.9592 52.0554 87.9592 52.1413L88.1312 52.1413C89.163 53.1721 89.9368 54.0311 90.5387 54.6324L90.7966 54.8901C90.7966 54.8901 90.7966 54.976 90.7966 55.0619C90.7966 55.4055 90.7966 55.7492 90.7966 55.921C90.7966 55.921 90.9686 55.7492 91.1405 55.5774L91.1405 56.1787C91.1405 56.1787 90.7966 56.4364 90.7106 56.5223C90.7106 56.5223 90.7106 56.5223 90.6246 56.5223C90.5387 56.5223 90.2807 56.5223 90.2807 55.5774C90.2807 55.4055 90.2807 55.2337 90.2807 55.0619L90.1088 54.8901C89.5929 54.3747 88.905 53.6016 87.9592 52.6567C87.3574 54.117 86.4116 56.5223 86.4116 58.9275C86.4116 61.3327 87.3574 63.1366 89.2489 64.4252C90.0228 65.1983 90.6246 65.9714 91.1405 66.7445L91.1405 67.5176C91.1405 67.5176 91.1405 67.5176 91.0546 67.5176C90.5387 66.6586 89.7648 65.7137 88.991 64.8547L89.8508 65.3701ZM52.191 34.2739C52.191 34.2739 52.191 33.7585 52.191 33.5008C52.191 32.8995 52.191 32.2982 52.191 31.611C52.191 29.4634 52.191 26.9723 52.9648 24.8248C52.5349 25.0825 51.5891 25.512 49.8695 26.1992L48.6658 26.7146C46.7742 27.3159 45.4845 28.7762 45.4845 29.807C45.4845 30.4943 46.0863 30.752 46.6022 30.8379C48.0639 31.0097 48.7518 30.8379 49.0097 30.5802C49.1817 30.4083 49.2676 30.2365 49.2676 29.9788C49.2676 29.6352 49.0957 29.1198 49.0097 28.8621C49.0097 28.6044 48.8377 28.5185 48.8377 28.3467C48.8377 28.1749 48.8377 28.089 48.9237 28.089C48.9237 28.089 49.0957 28.089 49.1817 28.089C49.3536 28.089 49.8695 28.2608 50.7293 29.1198C51.1592 29.3775 51.4172 29.807 51.4172 30.4083C51.4172 31.4392 50.7293 32.6418 49.6975 33.329C48.5798 34.1021 47.1181 34.2739 45.7424 33.7585C44.0228 33.5867 42.5611 31.6969 42.5611 29.807C42.5611 29.1198 42.7331 28.4326 43.163 27.8313C43.9368 26.7146 44.8826 26.1133 45.8284 25.7697C43.9368 25.7697 43.2489 24.3953 43.2489 24.1376C43.2489 24.0517 43.4209 23.7081 43.6789 23.4504C44.0228 23.1068 44.7106 22.6772 46.0003 22.7632C46.3443 22.7632 46.6022 22.7632 47.0321 22.8491C46.2583 21.7323 46.0863 20.4438 46.6882 18.8976C46.6882 18.8117 46.7742 18.7258 46.8602 18.6399C46.7742 18.6399 46.6882 18.6399 46.5162 18.6399C45.1405 18.0386 44.2807 17.0078 44.0228 15.6334C43.8508 15.8911 43.5929 16.1488 43.4209 16.4065C42.4751 17.3514 41.7013 17.5232 41.0994 17.5232C40.8415 17.5232 40.4975 17.5232 40.4116 17.2655C40.4116 17.2655 40.2396 16.836 40.2396 16.4065C40.2396 15.8911 40.4116 15.2039 41.0994 14.4308C40.1536 14.7744 39.1218 15.0321 37.7461 14.7744C35.7686 14.4308 34.7368 12.455 34.7368 10.8229C34.7368 10.0498 34.9947 9.36259 35.3387 8.84719C36.4564 6.44195 38.606 6.01245 40.1536 6.35606C41.4433 6.61376 42.3032 7.38687 42.3032 8.24588C42.3032 8.33178 42.3032 8.50358 42.3032 8.50358C42.3032 9.7921 42.0452 10.2216 41.9592 10.3934C41.9592 10.5652 41.7873 10.5652 41.7013 10.5652C41.4433 10.5652 41.3574 10.3934 41.1854 9.9639C40.9275 9.5344 40.6695 8.76129 40.0676 8.67539C39.5518 8.67539 38.8639 9.1049 38.0901 10.1357C37.5742 10.8229 37.5742 11.4242 38.262 11.8537C39.0359 12.3691 40.7555 12.455 42.3891 11.596L43.5069 11.1665C45.2265 10.4793 46.2583 10.1357 46.7742 9.9639C44.7106 8.93309 42.991 7.21506 41.3574 5.66885C40.9275 5.23934 40.4975 4.80984 40.0676 4.38034L39.4658 3.77902C38.606 4.38033 37.4022 5.23935 35.8546 6.09836C34.6508 7.04327 32.8452 7.38687 30.7817 7.12916C28.2882 6.78556 25.9667 5.58295 24.8489 4.12263C23.6452 2.92002 22.5275 1.9751 21.4957 1.1161C21.1517 1.202 20.7218 1.2879 20.4639 1.2879C21.4097 2.31871 21.8396 3.77903 21.9256 4.80984C21.9256 4.80984 21.9256 4.80984 21.9256 4.89574C22.4415 4.46623 23.0433 4.29443 23.5592 4.38034C25.2789 4.38034 25.9667 5.75475 26.0527 6.69966C25.9667 7.73048 25.7088 8.15998 25.5368 8.33178C25.5368 8.33178 25.5368 8.50358 25.3648 8.50358C25.1929 8.50358 25.1069 8.50359 25.0209 8.33178C24.0751 6.95737 23.8172 7.04327 23.8172 7.04327C23.8172 7.04327 23.6452 7.21506 23.6452 7.73047C25.1069 10.6511 31.2975 9.27669 33.2751 8.84719C34.0489 8.67538 34.0489 8.67538 34.2209 8.84719C34.2209 8.84719 34.3069 9.01899 34.2209 9.1049C34.2209 9.2767 34.1349 9.4485 33.877 9.7921C33.4471 10.3934 32.5873 11.596 32.4153 13.3999C32.4153 13.8295 32.4153 14.259 32.4153 14.6885C32.4153 16.7501 33.1032 18.9835 34.9088 19.1553C35.6826 19.1553 35.8546 19.0694 35.9405 19.0694C35.9405 18.8117 34.8228 18.2963 34.3929 18.0386C33.791 17.695 33.705 17.695 33.705 17.5232L33.705 17.3514L33.877 17.3514C34.2209 17.0937 34.9088 17.0078 35.5106 16.9219C35.8546 16.9219 37.6602 16.836 38.434 18.6399C38.7779 19.5848 38.434 20.7015 37.4882 21.4746C36.6284 22.1618 35.5106 22.5055 34.4789 22.3337C33.1891 23.0209 31.8994 23.3645 30.5237 23.3645C29.8359 23.3645 29.062 23.4504 28.3742 23.5363C25.4508 23.7081 22.3555 23.8799 21.7536 25.9415C21.7536 26.1133 21.7536 26.1992 21.7536 26.2851C21.7536 26.8864 22.1835 27.0582 22.4415 27.1441C23.0433 27.3159 23.7312 27.0582 23.9891 26.6287C24.591 25.5979 25.1069 25.1684 25.1069 25.1684L25.2788 25.1684C25.2788 25.1684 25.4508 25.1684 25.4508 25.2543C25.4508 25.2543 25.6228 25.5979 25.6228 26.371C25.6228 26.7146 25.6228 27.0582 25.6228 27.4018C25.6228 27.4018 25.6228 27.4877 25.6228 27.5736C25.6228 27.5736 25.6228 27.5736 25.7088 27.5736C26.9985 28.6044 27.1704 29.1198 27.1704 29.2057L27.1704 29.3775C27.1704 29.3775 27.0845 29.4634 26.9985 29.4634C26.9985 29.4634 26.3106 29.4634 25.1069 29.2057C24.8489 29.1198 24.505 29.2057 24.1611 29.4634C23.8172 29.7211 23.5592 30.1506 23.5592 30.4943C23.5592 30.8379 23.7312 31.0956 24.0751 31.2674C26.0527 32.2982 28.3742 30.2365 30.6097 28.2608C31.1256 27.8313 31.6415 27.3159 32.1574 26.8864C33.1891 25.9415 34.3929 25.2543 35.6826 24.8248C36.3704 23.794 37.7461 23.1927 39.0359 23.2786C39.9817 23.2786 40.6695 23.794 41.0134 24.5671C41.1854 24.9107 41.2714 25.3402 41.2714 25.6838C41.2714 26.8005 40.4975 27.5736 40.2396 27.8313C39.9817 28.0031 39.2078 28.6044 38.6919 28.6903C38.6919 28.6903 38.52 28.7762 38.434 28.6903C38.348 28.6903 38.262 28.5185 38.262 28.4326C38.262 28.3467 38.262 28.1749 38.434 27.7454C38.606 27.23 38.7779 26.4569 38.7779 26.0274L38.7779 25.9415C38.7779 25.9415 38.52 26.1133 38.0041 26.5428C37.6602 26.9723 37.4882 27.4018 37.4882 28.0031C37.4882 29.6352 39.0359 31.3533 40.3256 32.3841C41.7013 33.5008 43.163 33.7585 43.9368 33.9303C44.2807 33.9303 44.5387 34.0162 44.6246 34.188C44.6246 34.188 44.6246 34.2739 44.6246 34.3598C44.6246 34.5316 44.6246 34.5316 43.9368 34.9611C42.3891 35.9919 37.7461 38.9125 37.7461 41.8332C37.7461 42.0909 37.7461 42.3486 37.8321 42.6063C38.348 43.0358 38.52 42.9499 38.52 42.9499C38.52 42.9499 38.606 42.7781 38.606 42.4345C38.606 42.0909 38.606 41.6614 38.434 41.146L38.434 41.0601C38.434 40.9742 38.434 40.8024 38.606 40.8024C38.606 40.8024 38.6919 40.8024 38.7779 40.8024C38.9499 40.8024 39.4658 40.9742 40.3256 41.6614C40.5835 41.9191 40.8415 42.5204 40.8415 43.2076C40.8415 43.8948 40.5835 44.4961 40.0676 45.0115C39.7237 45.441 39.2078 45.6987 38.52 45.7846C38.52 45.7846 38.52 45.7846 38.606 45.8705C39.2938 46.5577 39.9817 47.9322 40.0676 49.3925C40.3256 49.1348 40.5835 48.963 40.9274 48.7053C41.0994 47.4168 41.1854 45.9564 41.1854 44.2384C41.1854 43.9807 41.1854 43.723 41.1854 43.4653C41.1854 40.1152 44.1947 35.4765 47.462 35.047C49.2676 34.5316 50.7293 34.2739 51.7611 34.188L52.191 34.2739ZM53.6527 39.9434L53.4807 39.9434C53.4807 39.9434 52.8789 40.6306 52.6209 40.7165L52.4489 40.7165C52.4489 40.7165 52.277 40.7165 52.277 40.5447C52.277 40.3729 52.191 40.2011 52.191 39.8575C51.8471 39.8575 51.6751 39.8575 51.5032 39.7716C51.4172 39.7716 51.3312 39.6857 51.3312 39.5139C51.3312 39.5139 51.3312 39.5139 51.3312 39.428C51.4172 39.2562 51.7611 38.9126 52.105 38.5689L52.105 38.3971C52.105 37.624 52.105 36.5932 52.105 35.2188C49.6116 36.2496 44.4527 38.483 44.4527 43.1217C44.4527 43.5512 44.4527 43.9807 44.6246 44.4961C44.6246 45.6128 44.4527 46.7295 44.2807 47.6745C45.3125 47.4168 46.3443 47.3309 47.462 47.3309C52.9648 48.3617 55.6303 42.5204 56.662 39.8575C55.2863 39.8575 54.2546 39.8575 53.4807 39.8575L53.6527 39.9434ZM88.1312 52.4849L87.5293 51.8836C87.0994 51.4541 86.6695 50.9387 86.2396 50.5092C84.6919 48.963 82.9723 47.245 82.0265 45.1833C81.8546 45.6987 81.5106 46.7295 80.8228 48.3617L80.3929 49.4784C79.963 50.2515 79.791 51.1964 79.791 51.9695C79.791 53.0003 80.1349 53.7734 80.5648 53.9452C80.9947 54.2029 81.5106 53.9452 81.8546 53.6875C82.8863 52.9144 83.3162 52.3131 83.3162 51.7977C83.3162 51.1964 82.5424 50.8528 82.1125 50.5951C81.7686 50.4233 81.5966 50.3374 81.5966 50.1656C81.5966 50.1656 81.5966 49.9938 81.7686 49.9079C81.9405 49.822 82.3704 49.5643 83.5742 49.5643C84.0041 49.4784 84.434 49.5643 84.7779 49.822C85.4658 50.3374 85.8957 51.4541 85.8957 52.5708C85.8957 54.2888 84.9499 55.6633 83.3162 56.4364C82.4564 57.1236 81.0807 57.2954 79.791 56.78C78.5013 56.2646 77.5555 55.3196 77.2975 54.0311C77.2975 53.6875 77.2975 53.3439 77.2975 53.0862C77.2975 52.1413 77.4695 51.3682 77.7275 50.681C76.3518 51.9695 74.9761 51.4541 74.8901 51.3682C74.7181 51.2823 74.6321 50.9387 74.6321 50.5951C74.6321 50.0797 74.8041 49.3066 75.7499 48.4476C76.0078 48.1899 76.2658 48.0181 76.5237 47.8463C75.234 47.5886 74.1162 46.7295 73.5144 45.2692C73.5144 45.1833 73.5144 45.0974 73.5144 45.0115C73.5144 45.0115 73.3424 45.1833 73.2564 45.1833C71.8807 45.6987 70.505 45.6128 69.3873 44.8397C69.3873 45.1833 69.3873 45.5269 69.4732 45.7846C69.4732 47.2449 68.9574 47.9322 68.6134 48.2758C68.6134 48.2758 68.2695 48.6194 68.0116 48.5335C67.7536 48.5335 66.5499 47.9322 66.4639 46.0423L66.4639 45.9564C66.034 46.9013 65.4321 47.8463 64.3144 48.6194C63.2826 49.3066 61.9069 49.3925 60.7032 48.8771C59.4134 48.2758 58.5536 47.2449 58.3817 46.1282C58.2097 45.5269 58.0377 45.0115 58.0377 44.4961C58.0377 42.4345 59.4994 40.9742 61.0471 40.5447C61.9929 40.287 62.7667 40.5447 63.0246 41.0601C63.9704 42.005 64.0564 42.5204 64.0564 42.6922C64.0564 42.6922 64.0564 42.6922 64.0564 42.7781C64.0564 42.7781 64.0564 42.9499 63.8845 43.0358C63.7125 43.1217 63.5405 43.0358 63.1966 43.0358C62.7667 42.864 61.9929 42.6063 61.563 42.864C61.1331 43.2076 60.9611 44.0666 61.1331 45.3551C61.1331 45.8705 61.391 46.3859 61.9929 46.4718C62.9387 46.5577 64.4863 45.2692 65.1742 43.2935C65.4321 42.6922 65.6901 42.1768 65.862 41.6614C66.4639 40.2011 66.8938 39.428 67.0658 38.9985C64.9162 39.7716 62.4228 39.7716 60.1873 39.7716C59.5854 39.7716 58.9835 39.7716 58.3817 39.7716L57.5218 39.7716C57.3499 40.8024 57.0919 42.2627 56.662 43.9807C56.4901 45.441 55.4583 46.9872 53.8246 48.2758C51.8471 49.7361 49.3536 50.5951 47.462 50.3374C45.8284 50.3374 44.3667 50.3374 42.991 50.5951C42.819 50.9387 42.5611 51.1964 42.3032 51.4541C43.7648 51.4541 45.0546 52.2272 45.9144 53.0003C45.9144 52.3131 46.2583 51.7977 46.6882 51.4541C48.0639 50.1656 49.6116 50.8528 50.0415 51.2823C50.6433 52.0554 50.8153 52.4849 50.9013 52.7426L50.9013 53.0003C50.9013 53.0003 50.7293 53.0003 50.6433 53.0003C49.5256 52.7426 49.0097 52.8285 48.8377 53.0003C48.8377 53.0003 48.8377 53.258 49.1817 53.6016C52.277 54.6324 55.7162 49.3066 56.834 47.5027C57.2639 46.8154 57.2639 46.8154 57.5218 46.8154C57.6938 46.9013 57.7798 47.159 57.7798 47.5886C57.9518 48.3617 58.1237 49.7361 59.3275 51.1105C60.2732 52.399 61.9069 53.7734 63.4546 53.9452C64.0564 53.9452 64.6583 53.8593 65.0882 53.4298C65.6901 52.8285 65.6901 52.6567 65.7761 52.6567C65.5181 52.5708 64.3144 52.9144 63.9704 53.0862C63.3686 53.258 63.2826 53.258 63.1966 53.1721C63.1106 53.1721 63.1106 52.9144 63.1966 52.8285C63.1966 52.6567 63.3686 52.2272 64.0564 51.2823C64.3144 51.0246 65.4321 49.7361 67.3237 50.4233C68.1835 50.8528 68.6994 51.6259 68.6994 52.7426C68.6994 53.9452 68.0975 55.1478 67.1518 55.7492C66.7218 57.1236 66.12 58.3262 65.1742 59.2711C64.7443 59.7865 64.2284 60.3878 63.7125 60.9032C62.0789 62.7071 60.4452 64.5111 60.4452 66.2291C60.4452 66.6586 60.4452 67.0022 60.7032 67.3458C60.9611 67.7753 61.305 68.033 61.7349 67.8612C62.2508 67.6894 62.7667 67.0881 62.7667 66.5727C62.7667 66.5727 62.7667 66.4009 62.7667 66.315C62.5088 65.1983 62.5088 64.4252 62.5088 64.4252C62.5088 64.4252 62.5088 64.2534 62.5947 64.2534C62.5947 64.2534 62.6807 64.2534 62.7667 64.2534C62.8527 64.2534 63.3686 64.4252 64.4003 65.7137C64.4003 65.7137 64.4003 65.7137 64.4003 65.8855C64.4003 65.8855 64.4863 65.8855 64.5723 65.8855C66.206 65.7137 66.7218 65.8855 66.8078 65.9714C66.8078 65.9714 66.8078 66.0573 66.8938 66.1432L66.8938 66.315C66.8938 66.315 66.4639 66.8304 65.4321 67.5176C65.0882 67.6894 64.8303 68.1189 64.8303 68.6343C64.8303 68.9779 65.0022 69.3215 65.1742 69.4933C65.4321 69.6651 65.6901 69.751 66.034 69.6651C68.1835 68.9779 68.3555 65.9714 68.5275 62.9648C68.5275 62.2776 68.5275 61.5045 68.6994 60.8173C68.6994 59.4429 69.0433 58.0685 69.7312 56.8659C69.4732 55.5773 70.1611 54.0311 71.2789 53.258C71.9667 52.8285 72.6546 52.7426 73.3424 53.0003C74.8901 53.6016 75.148 54.8901 75.148 55.6633L75.148 55.8351C75.148 55.8351 74.9761 57.1236 74.6321 57.4672C74.6321 57.4672 74.6321 57.7249 74.4602 57.7249C74.2022 57.7249 74.2022 57.7249 73.8583 57.0377C73.6003 56.6082 73.0845 55.5774 72.9125 55.4914C72.9125 55.4914 72.7405 55.6632 72.7405 56.5223C72.7405 57.1236 73.0845 57.639 73.6003 58.0685C74.8041 59.0134 76.8676 59.1852 78.5013 58.9275C80.3069 58.7557 81.4247 57.8967 82.1125 57.4672C82.4564 57.2095 82.6284 57.1236 82.8003 57.1236C82.8003 57.1236 82.8004 57.1236 82.8863 57.1236C82.9723 57.1236 83.0583 57.2954 83.0583 57.3813C83.0583 57.4672 83.0583 57.639 82.8863 58.1544C82.6284 59.2711 82.1985 61.3327 82.1985 63.3943C82.1985 65.7137 82.8004 67.174 84.0041 67.7753C84.606 67.7753 84.7779 67.6035 84.7779 67.5176C84.7779 67.3458 84.52 67.0022 83.4022 66.315C83.4022 66.315 83.2303 66.1432 83.2303 66.0573C83.2303 66.0573 83.2303 65.8855 83.3162 65.8855C83.4882 65.7137 83.9181 65.5419 85.0359 65.3701C85.6377 65.3701 87.1854 65.9714 87.2714 67.8612C87.2714 68.3766 87.0994 68.9779 86.6695 69.4933C86.6695 69.4933 86.7555 69.4933 86.8415 69.4933C87.8732 69.4933 89.3349 70.0087 90.3667 70.9536C90.3667 70.61 90.3667 70.2664 90.5387 69.8369C89.7648 68.8061 88.7331 67.6894 87.6153 66.5727C85.8097 65.1983 84.434 62.1917 84.434 59.357C84.434 57.8108 84.7779 56.6082 85.4658 55.6633C86.3256 54.117 87.1854 52.8285 87.8732 52.0554L88.1312 52.4849Z" fill="#A8A8A8"/>
<path d="M89.9364 80.1457C89.2486 79.4585 88.4747 78.7712 87.7009 78.1699C86.0672 76.8814 84.6056 75.5929 84.1757 74.2185C84.1757 73.9608 84.0897 73.7031 84.0897 73.4454C84.0897 72.5005 84.5196 71.7274 84.8635 71.212C84.8635 71.212 85.0355 71.1261 85.1215 71.1261C85.6373 71.212 86.3252 71.3838 86.9271 71.4697C88.3887 72.1569 89.5925 73.4454 89.6785 74.4762C89.8504 74.7339 89.8504 74.9057 89.6785 75.0775C89.4205 75.2493 88.9906 75.2493 88.3028 75.2493C88.3028 75.3352 88.3028 75.5929 88.6467 76.0224L88.6467 76.1942C88.6467 76.5378 89.2486 76.9673 90.0224 76.9673C90.5383 76.9673 91.742 76.7096 91.742 74.5621C91.742 73.9608 91.57 73.4454 91.3121 72.93C91.3121 72.93 91.3121 72.7582 91.3121 72.6723C91.3121 72.5864 91.4841 72.4146 91.57 72.3287C91.656 72.1569 91.828 71.8992 92 71.6415C92 71.6415 92 71.6415 92.0859 71.6415L92.0859 72.4146C92.0859 72.4146 92 72.5864 91.914 72.5864C91.914 72.6723 91.828 72.7582 91.742 72.8441C91.914 73.1877 92 73.4454 92.0859 73.789L92.0859 75.3352C91.742 77.225 90.4523 77.3968 89.9364 77.3968C88.9906 77.3968 88.1308 76.7955 88.1308 76.1083C88.1308 76.1083 87.7869 75.3352 87.7869 75.0775C87.7869 74.9057 87.7869 74.7339 87.7869 74.7339C87.7869 74.5621 87.9588 74.648 88.2168 74.648C88.7327 74.648 89.0766 74.648 89.2486 74.648C89.2486 74.648 89.2486 74.5621 89.2486 74.4762C89.2486 73.6172 88.1308 72.4146 86.8411 71.8133C86.2392 71.8133 85.6373 71.6415 85.1215 71.4697C84.7775 71.8992 84.5196 72.5864 84.5196 73.3595C84.5196 73.6172 84.5196 73.789 84.5196 74.0467C84.9495 75.3352 86.4112 76.5378 87.8729 77.8263C88.6467 78.5135 89.5065 79.1149 90.1943 79.888C90.8822 80.5752 91.4841 81.3483 92 82.0355L92 82.8086C92 82.8086 92 82.8086 91.914 82.8086C91.4841 81.9496 90.7962 81.0906 89.9364 80.2316L89.9364 80.1457Z" fill="#A8A8A8"/>
<path d="M46.9452 55.4926C46.7733 56.2657 46.4293 57.4683 45.2256 58.1555C43.8499 58.8427 41.9583 58.6709 39.8948 58.4991C38.949 58.4132 37.9172 58.3273 36.9714 58.3273C35.7677 58.3273 34.6499 58.4991 33.7041 58.7568C33.6181 58.7568 33.5321 58.7568 33.4462 58.7568C33.4462 58.7568 33.4462 58.6709 33.4462 58.585C33.7041 57.6401 33.8761 56.6093 33.8761 55.3208C33.8761 54.3759 33.7901 53.3451 33.7041 52.4002C33.6181 51.4552 33.5321 50.5103 33.5321 49.6513C33.5321 48.5346 33.7041 47.6756 34.048 46.9884C34.7359 45.7858 35.8536 45.4422 36.7134 45.2704C36.7994 45.2704 36.8854 45.2704 36.9714 45.3563C37.2293 45.7858 37.6592 46.3871 38.0032 46.9025C38.2611 47.5038 38.3471 48.191 38.3471 48.8782C38.3471 49.7372 38.1751 50.5103 37.7452 50.9398C37.7452 51.1975 37.5733 51.2834 37.4873 51.3693C37.1434 51.4552 36.7134 51.0257 36.2835 50.5103C36.2835 50.5962 36.0256 50.8539 35.9396 51.2834C35.9396 51.2834 35.9396 51.3693 35.8536 51.3693C35.7677 51.4552 35.6817 51.6271 35.6817 51.7989C35.6817 52.3143 36.0256 53.0015 36.7134 53.2592C37.4013 53.6028 38.2611 53.2592 39.2069 52.4002C39.5508 51.9707 39.8948 51.5411 40.0667 50.9398C40.0667 50.9398 40.0667 50.768 40.2387 50.768C40.3247 50.768 40.4966 50.768 40.6686 50.6821C40.9265 50.6821 41.0985 50.5962 41.4424 50.5103C41.4424 50.5103 41.6144 50.5103 41.7004 50.5103C41.7004 50.5103 41.7004 50.6821 41.7004 50.768C41.7004 51.1116 41.5284 51.2834 41.5284 51.5411C41.5284 51.713 41.4424 51.8848 41.4424 52.0566C41.4424 52.1425 41.4424 52.2284 41.2705 52.2284C40.7546 52.4002 40.2387 52.6579 39.8948 53.0874C39.2929 53.7746 38.949 54.3759 38.949 54.9772C38.949 55.7503 39.5508 56.2657 40.0667 56.4375C40.4106 56.6093 40.7546 56.5234 40.9265 56.4375C40.9265 56.4375 40.9265 56.4375 41.0985 56.4375C41.5284 56.2657 41.7863 56.1798 41.8723 56.0939C41.2705 55.5785 41.0125 55.2349 41.0125 54.9772C41.0125 54.8913 41.0125 54.6336 41.4424 54.5477C42.2163 53.8605 43.9359 53.7746 45.4835 54.29C45.9994 54.6336 46.5153 55.0631 47.0312 55.3208C47.0312 55.3208 47.1172 55.4926 47.1172 55.5785L46.9452 55.4926ZM40.8406 51.7989C40.8406 51.7989 40.8406 51.5412 40.8406 51.4552C40.8406 51.3693 40.8405 51.1975 40.9265 51.1116C40.7546 51.1116 40.6686 51.1116 40.4966 51.1975C40.3247 51.1975 40.2387 51.1975 40.1527 51.1975C39.9807 51.713 39.7228 52.1425 39.3789 52.572C39.7228 52.2284 40.1527 51.9707 40.6686 51.7989L40.8406 51.7989ZM41.4424 54.8054C41.4424 54.8054 41.4424 54.8054 41.2705 54.8054C41.2705 54.8054 41.4424 55.149 41.8723 55.4926C42.0443 55.6644 42.1303 55.6644 42.1303 55.8362C42.1303 55.8362 42.1303 56.3516 41.0125 56.6952C40.7546 56.9529 40.2387 57.0388 39.7228 56.867C38.949 56.6093 38.2611 55.9221 38.2611 54.8913C38.2611 54.2041 38.605 53.5169 39.2069 52.8297C37.9172 54.0323 36.8854 53.8605 36.3695 53.6028C35.5097 53.2592 35.0798 52.3143 35.0798 51.7129C35.0798 51.3693 35.0798 51.1975 35.3377 51.0257C35.5957 50.0808 35.9396 49.909 36.1116 49.909C36.2835 49.909 36.3695 49.909 36.5415 50.1667C36.8854 50.5103 37.0574 50.768 37.2293 50.8539C37.2293 50.8539 37.2293 50.768 37.2293 50.6821C37.7452 49.9949 37.9172 48.3628 37.4013 47.0743C37.0574 46.5589 36.7134 46.0435 36.4555 45.6999C35.6817 45.8717 34.8219 46.2153 34.22 47.1602C33.8761 47.7615 33.7901 48.5346 33.7901 49.5654C33.7901 50.4244 33.7901 51.2834 33.962 52.3143C33.962 53.3451 34.134 54.29 34.134 55.3208C34.134 56.4375 34.048 57.3824 33.7901 58.3273C34.6499 58.0696 35.6817 57.9837 36.7994 57.9837C37.7452 57.9837 38.777 58.0696 39.8088 58.1555C41.7863 58.3273 43.6779 58.4991 44.8817 57.8978C45.8275 57.3824 46.1714 56.5234 46.3434 55.7503C45.9134 55.4926 45.3976 55.149 44.9677 54.8054C43.592 54.29 41.9583 54.3759 41.3564 54.9772L41.4424 54.8054Z" fill="#A8A8A8"/>
<path d="M89.5925 50.3382C89.5925 50.3382 89.5925 50.2523 89.5925 50.1664L89.5925 49.8228C89.5925 48.5343 89.4205 46.7304 89.0766 44.6688C88.8186 43.552 88.7327 42.2635 88.7327 40.975C88.7327 39.4288 88.9046 37.8826 89.2486 36.5082C89.6785 35.7351 90.1084 34.9619 90.4523 34.1888C90.4523 34.1888 90.4523 34.1029 90.6243 34.1029C90.6243 34.1029 90.7102 34.1029 90.7962 34.1029C90.8822 34.1029 90.9682 34.1029 91.0542 34.017C91.3981 33.7593 91.742 33.5016 92.0859 33.158L92.0859 33.7593C92.0859 33.7593 91.57 34.1888 91.3121 34.3606C91.1401 34.3606 91.0542 34.4465 90.9682 34.5324C90.6243 35.2196 90.1943 35.9928 89.7644 36.7659C89.4205 38.0544 89.2486 39.6006 89.2486 41.0609C89.2486 42.3494 89.4205 43.552 89.5925 44.6688C89.9364 46.8163 90.1084 48.6202 90.1084 49.9087L90.1084 50.0805C90.9682 50.9395 91.57 51.8844 92.0859 52.6576L92.0859 53.4307C92.0859 53.4307 92.0859 53.4307 92 53.4307C91.4841 52.3999 90.7102 51.369 89.6785 50.3382L89.5925 50.3382Z" fill="#A8A8A8"/>
<path d="M80.4805 46.9016C80.1365 47.417 79.7066 48.0183 79.2767 48.7055C79.2767 48.7914 79.0188 48.8773 78.9328 48.7055C78.9328 48.7055 78.8468 48.6196 78.8468 48.5337C78.8468 48.5337 78.8468 48.5337 78.8468 48.4478C79.1907 47.9324 79.4487 47.3311 79.6207 46.9875C79.6207 46.9875 79.6207 46.9016 79.7066 46.9016C79.8786 46.9016 79.9646 46.7298 80.0506 46.6439C80.1365 46.6439 80.3085 46.6439 80.3945 46.6439C80.3945 46.6439 80.3945 46.8157 80.3945 46.9875L80.4805 46.9016Z" fill="#A8A8A8"/>
<path d="M44.4534 5.3258L44.0235 4.8104C44.0235 4.8104 44.0235 4.7245 44.0235 4.6386L44.0235 4.55269C44.0235 4.46679 44.1954 4.4668 44.2814 4.4668C45.2272 4.7245 46.087 4.9822 47.1188 5.15401C49.6982 5.75531 53.4814 5.154 55.8889 3.86549C56.4048 3.35008 56.9207 2.92058 57.3506 2.57697C57.3506 2.57697 57.5225 2.57697 57.6085 2.57697C57.6085 2.57697 57.7805 2.66287 57.7805 2.74877C57.7805 4.55269 59.3281 6.35662 61.1337 6.78612C63.6272 7.30153 65.3468 5.84121 66.5506 4.7245C66.5506 4.7245 66.8945 4.7245 66.9805 4.7245C66.9805 4.7245 66.9805 4.9822 66.9805 5.0681C66.6365 5.49761 66.2066 5.92712 65.8627 6.27072C63.3693 9.36316 59.0702 12.112 55.373 11.3389C53.9113 11.0812 53.6534 10.3081 53.6534 9.87856C53.6534 9.01955 54.4272 8.07464 55.0291 7.81693C55.287 7.73103 55.459 7.81693 55.545 7.81693C55.9749 8.07464 56.4048 8.50414 56.6627 8.67595C56.6627 8.33234 56.4908 7.81693 55.9749 7.04382C55.6309 6.70022 55.201 6.61432 54.5992 6.70022C53.7393 6.78612 52.8795 7.38743 52.3636 8.16054C51.9337 8.50414 51.8478 9.10545 51.8478 9.53495C51.8478 9.62085 51.7618 9.70676 51.6758 9.79266C51.1599 9.79266 49.6982 10.0504 48.2365 9.01955C46.9468 8.16054 45.7431 6.78612 44.5394 5.3258L44.4534 5.3258ZM52.0197 7.81693C52.6216 6.95792 53.5674 6.27072 54.5132 6.18482C55.201 6.18482 55.8029 6.27071 56.3188 6.70022C56.8347 7.47333 57.1786 8.16054 57.1786 8.67595C57.1786 8.84775 57.1786 9.01955 57.1786 9.01955C57.1786 9.01955 57.1786 9.01955 57.1786 9.10545C57.1786 9.10545 57.0926 9.27725 57.0066 9.27725C56.8347 9.27725 56.7487 9.27725 56.4907 8.93365C56.2328 8.67594 55.8889 8.33234 55.373 7.98874C55.373 7.98874 55.201 7.98874 55.0291 8.24644C54.6851 8.59004 54.2552 9.10545 54.2552 9.62085C54.2552 10.1363 54.6851 10.4799 55.545 10.6517C58.8122 11.3389 62.5954 9.10545 65.0889 6.35662C64.0571 6.95792 62.6814 7.38743 61.1337 7.04382C59.2422 6.61432 57.6945 4.8104 57.4365 3.00648C57.0926 3.35009 56.7487 3.60779 56.3188 4.03729C54.0833 5.23991 50.2141 6.09891 47.2048 5.41171C46.4309 5.2399 45.7431 5.154 45.0552 4.9822C46.259 6.35662 47.4627 7.73103 48.6665 8.50414C49.6982 9.27725 50.816 9.27725 51.5898 9.19135C51.5898 8.50414 51.9337 7.98874 52.2777 7.64513L52.0197 7.81693Z" fill="#A8A8A8"/>
</g>
<defs>
<clipPath id="clip0_12_3445">
<rect width="92" height="92" fill="white" transform="matrix(1.19249e-08 -1 -1 -1.19249e-08 92 92)"/>
</clipPath>
</defs>
</svg>
