<svg width="16" height="16" viewBox="0 0 16 16" fill="none" xmlns="http://www.w3.org/2000/svg">
<path d="M10.8717 4.48001C10.8717 4.48001 10.6273 4.64293 10.0571 4.8873C9.56834 5.05022 8.67231 5.37605 7.61336 4.8873C6.55441 4.48001 5.82129 3.42106 5.08817 2.52502C4.35505 1.62899 3.13318 0.895868 1.99277 1.14024C1.42257 1.30316 1.01528 1.62899 0.852364 2.03628C0.689448 2.44356 0.770906 2.85085 0.933822 3.25814C1.34111 3.99126 2.07423 4.3171 2.56298 4.23564C3.62193 3.99126 3.70339 3.17669 3.70339 3.25814C3.70339 3.25814 3.70339 3.42106 3.70339 3.66543C3.70339 3.90981 3.37755 4.48001 2.72589 4.64293C2.07423 4.8873 1.01528 4.64293 0.363618 3.58397C0.0377873 3.09523 -0.125128 2.44357 0.119245 1.71045C0.363618 1.05878 1.01528 0.407122 1.82986 0.244206C3.54047 -0.163083 4.92525 0.977325 5.65837 1.95482C6.47295 3.01377 7.04315 3.99126 7.85773 4.39855C8.67231 4.80584 9.56834 4.72438 10.0571 4.64293C10.6273 4.48001 10.9531 4.39855 10.9531 4.39855L10.8717 4.48001Z" fill="#A8A8A8"/>
<path d="M9.24609 5.78383C9.24609 5.78383 8.83881 6.10966 8.18714 6.19112C7.45402 6.19112 6.55799 6.0282 5.82487 5.53946C5.49904 5.29508 4.92883 4.80634 4.52154 4.07322C4.11426 3.42155 3.78842 2.44406 2.97385 2.11823C2.56656 1.95531 2.07781 1.95532 1.83344 2.28115C1.50761 2.52552 1.50761 3.09572 1.83344 3.42155C2.07781 3.74739 2.4851 3.9103 2.81093 3.82884C3.13676 3.82884 3.46259 3.50301 3.46259 3.25864C3.46259 3.99176 2.07781 4.23613 1.58907 3.3401C1.34469 2.93281 1.34469 2.3626 1.83344 2.03677C2.24073 1.71094 2.81093 1.71094 3.29968 1.87386C4.27717 2.28115 4.68446 3.25864 5.09175 3.82884C5.49904 4.39905 5.98778 4.80634 6.23216 4.96925C6.80236 5.37654 7.53548 5.62091 8.18714 5.70237C8.83881 5.70237 9.24609 5.70237 9.24609 5.70237L9.24609 5.78383Z" fill="#A8A8A8"/>
<path d="M5.25 6.27274C5.25 6.27274 4.6798 6.27274 4.35397 5.86545C4.19105 5.70253 4.02813 5.21379 3.94668 4.72504C3.94668 4.23629 3.94668 3.74755 3.78376 3.50317C3.94668 3.74755 4.02813 4.31775 4.27251 4.64358C4.43542 5.05087 4.76125 5.29525 4.84271 5.45816C5.00563 5.70253 5.25 6.10982 5.16854 6.27274L5.25 6.27274Z" fill="#A8A8A8"/>
<path d="M3.12901 6.76119C3.12901 6.76119 2.88464 6.3539 2.9661 6.02807C2.9661 5.70224 3.61776 4.64329 3.69922 4.15454C3.61776 4.64329 3.69922 5.7837 3.61776 6.10953C3.61776 6.43536 3.29193 6.76119 3.12901 6.76119Z" fill="#A8A8A8"/>
<path d="M1.33626 5.54C1.33626 5.54 1.58064 5.21417 1.74355 5.13272C1.90647 5.13272 2.8025 5.13272 3.04688 4.80688C2.8025 5.05126 2.2323 5.70292 1.90647 5.78438C1.66209 5.78438 1.33626 5.70292 1.33626 5.54Z" fill="#A8A8A8"/>
<path d="M11.5193 5.13126C11.5193 5.13126 11.3563 5.37563 11.112 5.94584C10.9491 6.43459 10.6232 7.33062 11.112 8.38957C11.5193 9.44852 12.5782 10.1816 13.4742 10.9148C14.3703 11.6479 15.1034 12.8697 14.859 14.0102C14.6961 14.5804 14.3703 14.9876 13.963 15.1506C13.5557 15.3135 13.1484 15.232 12.7411 15.0691C12.008 14.6618 11.6822 13.9287 11.7636 13.44C12.008 12.381 12.8226 12.2995 12.7411 12.2995C12.7411 12.2995 12.5782 12.2995 12.3338 12.2995C12.0895 12.2995 11.5193 12.6254 11.3563 13.277C11.112 13.9287 11.3563 14.9876 12.4153 15.6393C12.904 15.9651 13.5557 16.1281 14.2888 15.8837C14.9405 15.6393 15.5921 14.9876 15.7551 14.1731C16.1623 12.4625 15.0219 11.0777 14.0444 10.3446C12.9855 9.52998 12.008 8.95978 11.6007 8.1452C11.1934 7.33062 11.2749 6.43459 11.3563 5.94584C11.4378 5.37563 11.6007 5.0498 11.6007 5.0498L11.5193 5.13126Z" fill="#A8A8A8"/>
<path d="M10.2135 6.76074C10.2135 6.76074 9.88765 7.16803 9.8062 7.81969C9.8062 8.55281 9.96911 9.44885 10.4579 10.182C10.7022 10.5078 11.191 11.078 11.9241 11.4853C12.5758 11.8926 13.5533 12.2184 13.8791 13.033C14.042 13.4403 14.042 13.929 13.7162 14.1734C13.4718 14.4992 12.9016 14.4992 12.5758 14.1734C12.2499 13.929 12.087 13.5217 12.1685 13.1959C12.1685 12.8701 12.4943 12.5442 12.7387 12.5442C12.0056 12.5442 11.7612 13.929 12.6572 14.4178C13.0645 14.6621 13.6347 14.5807 13.9605 14.1734C14.2864 13.7661 14.2864 13.1959 14.1235 12.7072C13.7162 11.7297 12.7387 11.3224 12.1685 10.9151C11.5983 10.5078 11.191 10.0191 11.0281 9.77468C10.6208 9.20447 10.2949 8.47135 10.2949 7.81969C10.2949 7.16803 10.2949 6.76074 10.2949 6.76074L10.2135 6.76074Z" fill="#A8A8A8"/>
<path d="M9.72653 10.751C9.72653 10.751 9.72653 11.3212 10.1338 11.647C10.2967 11.8099 10.7855 11.9728 11.2742 12.0543C11.763 12.0543 12.2517 12.0543 12.4961 12.2172C12.2517 12.0543 11.6815 11.9728 11.3557 11.7285C10.9484 11.5656 10.704 11.2397 10.5411 11.1583C10.2967 10.9953 9.88944 10.751 9.72653 10.8324L9.72653 10.751Z" fill="#A8A8A8"/>
<path d="M9.23319 12.871C9.23319 12.871 9.64048 13.1154 9.96632 13.0339C10.2921 13.0339 11.3511 12.3822 11.8398 12.3008C11.3511 12.3822 10.2107 12.3008 9.88486 12.3822C9.55903 12.3822 9.23319 12.7081 9.23319 12.871Z" fill="#A8A8A8"/>
<path d="M10.4622 14.6637C10.4622 14.6637 10.788 14.4194 10.8695 14.2564C10.8695 14.0935 10.8695 13.1975 11.1953 12.9531C10.9509 13.1975 10.2993 13.7677 10.2178 14.0935C10.2178 14.3379 10.2993 14.6637 10.4622 14.6637Z" fill="#A8A8A8"/>
<path d="M14.2079 1.79207C13.3119 3.09539 12.8231 4.48018 12.7417 5.86496C12.5788 7.81994 13.5563 9.28618 14.4523 10.0193C15.3483 10.7524 16 10.8339 16 10.8339C16 10.8339 15.2669 10.8339 14.2894 10.1822C13.3119 9.53056 12.09 8.06432 12.09 5.86496C12.09 5.13184 12.09 4.39872 12.3344 3.6656C11.6013 3.90997 10.7867 3.99143 10.135 3.90997C7.93568 3.90997 6.46944 2.60665 5.81778 1.71061C5.16612 0.733119 5.16612 -4.73564e-07 5.16612 -4.73564e-07C5.16612 -4.73564e-07 5.24758 0.651661 5.9807 1.5477C6.71382 2.44373 8.18006 3.33977 10.135 3.25831C11.4384 3.25831 12.8231 2.68811 14.2079 1.79207Z" fill="#A8A8A8"/>
</svg>
