<svg width="76" height="17" viewBox="0 0 76 17" fill="none" xmlns="http://www.w3.org/2000/svg">
<g style="mix-blend-mode:soft-light">
<path d="M2.78118 8.49887C2.78118 8.49887 2.39274 7.46857 1.74533 7.46857C1.09792 7.46857 0.709473 7.85493 0.709473 8.49887C0.709473 9.14281 1.2274 9.52917 1.74533 9.52917C2.26326 9.52917 2.78118 9.01402 2.78118 8.49887Z" fill="white"/>
<path d="M6.27585 8.49892C6.27585 7.72619 5.62844 7.08226 4.85155 7.08226C4.07466 7.08226 3.42725 7.72619 3.42725 8.49892C3.42725 9.27165 4.07466 9.91559 4.85155 9.91559C5.62844 9.91559 6.27585 9.27165 6.27585 8.49892Z" fill="white"/>
<path d="M75.291 8.49887C75.291 8.49887 74.9025 7.46857 74.2551 7.46857C73.6077 7.46857 73.2192 7.85493 73.2192 8.49887C73.2192 9.14281 73.6077 9.52917 74.2551 9.52917C74.9025 9.52917 75.291 9.01402 75.291 8.49887Z" fill="white"/>
<path d="M72.5713 8.49892C72.5713 7.72619 71.9239 7.08226 71.147 7.08226C70.3701 7.08226 69.7227 7.72619 69.7227 8.49892C69.7227 9.27165 70.3701 9.91559 71.147 9.91559C71.9239 9.91559 72.5713 9.27165 72.5713 8.49892Z" fill="white"/>
<path d="M39.0314 1.93182C39.6788 3.09091 40.4557 4.12121 41.1031 5.40909C42.2684 6.18182 43.4338 6.82576 44.5991 7.4697C45.2465 7.85606 45.8939 8.24242 46.5413 8.5C45.8939 8.88636 45.2465 9.14394 44.5991 9.5303C43.4338 10.1742 42.3979 10.947 41.1031 11.5909C40.3262 12.75 39.6788 13.9091 39.0314 15.0682C38.6429 15.7121 38.2545 16.3561 37.9955 17C37.6071 16.3561 37.3481 15.7121 36.9597 15.0682C36.3122 13.9091 35.5354 12.8788 34.8879 11.5909C33.7226 10.8182 32.5573 10.1742 31.3919 9.5303C30.7445 9.14394 30.0971 8.75758 29.4497 8.5C30.0971 8.24242 30.7445 7.85606 31.3919 7.4697C32.5573 6.82576 33.5931 6.05303 34.8879 5.40909C35.6648 4.25 36.3122 3.09091 36.9597 1.93182C37.3481 1.28788 37.7366 0.64394 37.9955 0C38.2545 0.64394 38.6429 1.28788 39.0314 1.93182ZM32.8162 8.5C33.8521 9.01515 35.0174 9.65909 36.0533 10.303C36.7007 11.4621 37.2186 12.4924 37.866 13.5227C38.384 12.4924 39.0314 11.3333 39.6788 10.303C40.8441 9.65909 41.88 9.14394 42.9158 8.5C41.88 7.98485 40.7146 7.34091 39.6788 6.69697C39.0314 5.53788 38.5134 4.50758 37.866 3.47727C37.2186 4.50758 36.7007 5.66667 36.0533 6.69697C34.8879 7.34091 33.8521 7.85606 32.8162 8.5Z" fill="white"/>
<path d="M67.6486 8.50008C67.6486 8.50008 68.296 7.72735 68.4255 7.2122C68.5549 6.43947 68.4255 5.79553 68.296 5.40917C67.778 4.50766 67.1306 4.37887 67.1306 4.37887C67.1306 4.37887 67.7781 4.63644 67.9075 5.53796C67.9075 5.92432 67.9075 6.56826 67.778 7.08341C67.5191 7.59856 67.0012 8.11372 66.3538 8.2425C65.7063 8.50008 64.8 8.37129 64.0231 8.11372C63.2462 7.85614 62.4693 7.2122 61.8219 6.56826C61.045 5.92432 60.3976 5.02281 59.4912 4.25008C58.5848 3.47735 57.549 2.57584 56.2542 2.31826C54.9593 1.9319 53.4056 2.06069 52.3697 2.83341C51.3338 3.60614 50.8159 4.76523 50.8159 5.92432C50.8159 6.43947 51.0749 7.08341 51.3338 7.46978C51.5928 7.85614 51.9813 8.11372 52.3697 8.37129C53.1466 8.75766 53.9235 8.62887 54.5709 8.37129C55.7362 7.98493 56.1247 7.08341 56.3836 6.69705C56.5131 6.1819 56.5131 6.05311 56.5131 6.05311C56.5131 6.05311 56.5131 6.31069 56.1247 6.56826C55.8657 6.82584 55.2183 7.34099 54.4414 7.46978C54.053 7.46978 53.535 7.46978 53.1466 7.08341C52.7582 6.82584 52.4992 6.43947 52.4992 5.92432C52.4992 5.40917 52.8876 4.76523 53.4056 4.50766C53.9235 4.12129 54.8299 4.12129 55.7362 4.37887C57.549 4.89402 58.9733 6.69705 60.786 7.98493C61.1745 8.2425 61.4334 8.50008 61.8219 8.75766C61.4334 9.01523 61.1745 9.27281 60.786 9.53038C59.1028 10.947 57.549 12.7501 55.7362 13.1364C54.8299 13.394 54.053 13.2652 53.4056 13.0077C52.8876 12.6213 52.4992 11.9774 52.4992 11.591C52.4992 11.0758 52.7582 10.6895 53.1466 10.4319C53.535 10.1743 54.053 10.0455 54.4414 10.0455C55.3478 10.0455 55.8657 10.5607 56.1247 10.947C56.5131 11.3334 56.5131 11.4622 56.5131 11.4622C56.5131 11.4622 56.5131 11.2046 56.3836 10.6895C56.1247 10.3031 55.7362 9.40159 54.5709 9.01523C53.9235 8.75766 53.1466 8.75766 52.3697 9.01523C51.9813 9.14402 51.5928 9.40159 51.3338 9.91675C51.0749 10.3031 50.8159 10.8183 50.8159 11.4622C50.8159 12.6213 51.3338 13.7804 52.3697 14.5531C53.535 15.3258 54.9593 15.4546 56.2542 15.0683C57.549 14.6819 58.7143 13.9092 59.4912 13.1364C60.3976 12.3637 61.045 11.4622 61.8219 10.8183C62.5988 10.1743 63.2462 9.53038 64.0231 9.27281C64.8 9.01523 65.5769 8.88644 66.3538 9.14402C67.0012 9.27281 67.5191 9.78796 67.778 10.3031C68.037 10.8183 68.037 11.4622 67.9075 11.8486C67.6486 12.7501 67.0012 13.0077 67.1306 13.0077C67.1306 13.0077 67.778 13.0077 68.296 11.9774C68.5549 11.4622 68.6844 10.8183 68.4255 10.1743C68.4255 9.65917 68.037 9.27281 67.6486 8.88644V8.50008Z" fill="white"/>
<path d="M8.21639 8.50003C8.21639 8.50003 7.56898 9.27276 7.4395 9.78791C7.31002 10.5606 7.4395 11.2046 7.56898 11.5909C8.08691 12.4925 8.73432 12.6212 8.73432 12.6212C8.73432 12.6212 8.08691 12.3637 7.95743 11.4622C7.95743 11.0758 7.95742 10.4318 8.08691 9.9167C8.34587 9.40154 8.8638 8.88639 9.51121 8.75761C10.1586 8.50003 11.065 8.62882 11.7124 8.88639C12.4893 9.14397 13.2662 9.78791 13.9136 10.4318C14.6905 11.0758 15.3379 11.9773 16.2443 12.75C17.1506 13.5228 18.1865 14.4243 19.4813 14.6818C20.7761 15.0682 22.3299 14.9394 23.3658 14.1667C24.4016 13.394 24.9196 12.2349 24.9196 11.0758C24.9196 10.5606 24.6606 9.9167 24.4016 9.53033C24.1427 9.14397 23.7542 8.88639 23.3658 8.62882C22.5889 8.24245 21.812 8.37124 21.2941 8.62882C20.1287 9.01518 19.7403 9.9167 19.4813 10.3031C19.3518 10.8182 19.3518 11.0758 19.3518 11.0758C19.3518 11.0758 19.3518 10.8182 19.7403 10.5606C19.9992 10.3031 20.6467 9.78791 21.4235 9.65912C21.812 9.65912 22.3299 9.65912 22.7184 10.0455C23.1068 10.3031 23.3658 10.6894 23.3658 11.2046C23.3658 11.7197 22.9773 12.3637 22.4594 12.6212C21.9415 13.0076 21.0351 13.0076 20.1287 12.75C18.316 12.2349 16.8917 10.4318 15.0789 9.14397C14.6905 8.88639 14.4315 8.62882 14.0431 8.37124C14.4315 8.11367 14.6905 7.85609 15.0789 7.59851C16.7622 6.18185 18.316 4.37882 20.1287 3.99245C21.0351 3.73488 21.9415 3.86367 22.4594 4.12124C22.9773 4.50761 23.3658 5.15154 23.3658 5.53791C23.3658 6.05306 23.1068 6.43942 22.7184 6.697C22.3299 6.95457 21.812 7.08336 21.4235 7.08336C20.6467 7.08336 19.9992 6.56821 19.7403 6.18185C19.4813 5.79548 19.3518 5.6667 19.3518 5.6667C19.3518 5.6667 19.3518 5.92427 19.4813 6.31064C19.7403 6.697 20.1287 7.59851 21.2941 7.98488C21.9415 8.24245 22.7184 8.24245 23.3658 7.98488C23.7542 7.85609 24.1427 7.59851 24.4016 7.08336C24.6606 6.697 24.9196 6.18185 24.9196 5.53791C24.9196 4.37882 24.4016 3.21973 23.3658 2.447C22.2004 1.67427 20.7761 1.54549 19.4813 1.93185C18.1865 2.31821 17.0212 3.09094 16.2443 3.86367C15.3379 4.63639 14.6905 5.53791 13.9136 6.18185C13.1367 6.82579 12.4893 7.46973 11.7124 7.7273C10.9355 7.98488 10.1586 8.11367 9.51121 7.85609C8.8638 7.7273 8.34587 7.21215 8.08691 6.697C7.82794 6.18185 7.82794 5.53791 7.95743 5.15154C8.21639 4.25003 8.8638 3.99245 8.73432 3.99245C8.73432 3.99245 8.08691 3.99245 7.56898 5.02276C7.31002 5.53791 7.18053 6.18185 7.4395 6.82579C7.4395 7.34094 7.82794 7.7273 8.21639 8.11367V8.50003Z" fill="white"/>
<path d="M50.8147 8.49987C50.8147 8.49987 49.9083 7.98472 49.5199 7.59835C48.484 6.69684 47.8366 5.66653 47.4482 5.28017C46.6713 4.50744 45.247 3.8635 44.7291 4.37866C44.2111 4.89381 44.7291 6.31047 45.7649 7.0832C46.1534 7.46957 47.1892 8.1135 48.3546 8.49987C47.1892 8.88623 46.1534 9.53017 45.7649 9.91654C44.8585 10.8181 44.2111 12.2347 44.7291 12.6211C45.247 13.1362 46.6713 12.4923 47.4482 11.7196C47.8366 11.3332 48.6135 10.3029 49.5199 9.40138C49.9083 9.01502 50.2968 8.75744 50.8147 8.49987Z" fill="white"/>
<path d="M25.1792 8.49987C25.1792 8.49987 26.0856 9.01502 26.474 9.40138C27.5099 10.3029 28.1573 11.3332 28.5457 11.7196C29.3226 12.4923 30.7469 13.1362 31.2648 12.6211C31.7828 12.1059 31.2649 10.6893 30.229 9.91654C29.8405 9.53017 28.8047 8.88623 27.6394 8.49987C28.8047 8.1135 29.8405 7.46957 30.229 7.0832C31.1354 6.18169 31.6533 4.76502 31.2648 4.37866C30.7469 3.8635 29.4521 4.50744 28.5457 5.28017C28.1573 5.66653 27.3804 6.69684 26.474 7.59835C26.0856 7.98472 25.6971 8.24229 25.1792 8.49987Z" fill="white"/>
<path d="M34.3704 5.02279C34.7588 4.25006 35.2768 2.96218 35.6652 2.44703C35.2768 2.96218 34.3704 3.8637 33.723 4.37885C33.0756 5.02279 32.2987 5.92431 31.7808 6.31067C32.2987 5.92431 33.5935 5.40915 34.3704 5.02279Z" fill="white"/>
<path d="M41.6234 5.02279C42.4003 5.40915 43.6951 5.92431 44.2131 6.31067C43.6951 5.92431 42.7888 5.02279 42.2708 4.37885C41.6234 3.73491 40.7171 2.96218 40.3286 2.44703C40.7171 2.96218 41.235 4.25006 41.6234 5.02279Z" fill="white"/>
<path d="M41.6234 12.1058C41.235 12.8785 40.7171 14.1664 40.3286 14.6816C40.7171 14.1664 41.6234 13.2649 42.2708 12.7498C42.9183 12.1058 43.6951 11.2043 44.2131 10.8179C43.6951 11.2043 42.4003 11.7195 41.6234 12.1058Z" fill="white"/>
<path d="M34.3704 12.1058C33.5935 11.7195 32.2987 11.2043 31.7808 10.8179C32.2987 11.2043 33.2051 12.1058 33.723 12.7498C34.3704 13.3937 35.2768 14.1664 35.6652 14.6816C35.2768 14.1664 34.7588 12.8785 34.3704 12.1058Z" fill="white"/>
<path d="M26.8626 12.7501C26.8626 12.7501 27.2511 11.9774 27.1216 11.4622C27.1216 11.2047 26.6037 10.5607 26.2152 10.1744C25.6973 9.65921 25.1794 9.40164 24.9204 9.14406C25.3089 9.40164 25.6973 9.91679 25.9563 10.5607C26.2152 11.0759 26.3447 11.591 26.3447 11.8486C26.4742 12.235 26.8626 12.7501 27.1216 12.7501H26.8626Z" fill="white"/>
<path d="M49.1321 4.37905C49.1321 4.37905 48.7436 5.15177 48.8731 5.66693C48.8731 5.9245 49.391 6.56844 49.909 6.9548C50.4269 7.46996 50.9448 7.72753 51.3333 7.98511C50.9448 7.72753 50.5564 7.21238 50.2974 6.56844C50.0384 6.05329 49.909 5.53814 49.909 5.28056C49.7795 4.8942 49.391 4.37905 49.1321 4.37905Z" fill="white"/>
<path d="M26.8626 4.37905C26.8626 4.37905 27.2511 5.15177 27.1216 5.66693C27.1216 5.9245 26.6037 6.56844 26.2152 6.9548C25.6973 7.46996 25.1794 7.72753 24.9204 7.98511C25.3089 7.72753 25.6973 7.21238 25.9563 6.56844C26.2152 6.05329 26.3447 5.53814 26.3447 5.28056C26.4742 4.8942 26.8626 4.37905 27.1216 4.37905H26.8626Z" fill="white"/>
<path d="M49.1321 12.7501C49.1321 12.7501 48.7436 11.9774 48.8731 11.4622C48.8731 11.2047 49.391 10.5607 49.909 10.1744C50.4269 9.65921 50.9448 9.40164 51.3333 9.14406C50.9448 9.40164 50.5564 9.91679 50.2974 10.5607C50.0384 11.0759 49.909 11.591 49.909 11.8486C49.7795 12.235 49.391 12.7501 49.1321 12.7501Z" fill="white"/>
</g>
</svg>
